%TF.GenerationSoftware,KiCad,Pcbnew,8.0.8*%
%TF.CreationDate,2025-03-09T10:58:12-03:00*%
%TF.ProjectId,equalizador,65717561-6c69-47a6-9164-6f722e6b6963,rev?*%
%TF.SameCoordinates,Original*%
%TF.FileFunction,Copper,L1,Top*%
%TF.FilePolarity,Positive*%
%FSLAX46Y46*%
G04 Gerber Fmt 4.6, Leading zero omitted, Abs format (unit mm)*
G04 Created by KiCad (PCBNEW 8.0.8) date 2025-03-09 10:58:12*
%MOMM*%
%LPD*%
G01*
G04 APERTURE LIST*
%ADD10C,0.500000*%
%TA.AperFunction,ComponentPad*%
%ADD11R,1.700000X1.700000*%
%TD*%
%TA.AperFunction,ComponentPad*%
%ADD12C,1.700000*%
%TD*%
%TA.AperFunction,ComponentPad*%
%ADD13C,2.200000*%
%TD*%
%TA.AperFunction,ComponentPad*%
%ADD14O,2.200000X2.200000*%
%TD*%
%TA.AperFunction,ComponentPad*%
%ADD15R,2.200000X2.200000*%
%TD*%
%TA.AperFunction,ComponentPad*%
%ADD16R,1.600000X1.600000*%
%TD*%
%TA.AperFunction,ComponentPad*%
%ADD17C,1.600000*%
%TD*%
%TA.AperFunction,ComponentPad*%
%ADD18O,2.200000X4.000000*%
%TD*%
%TA.AperFunction,ComponentPad*%
%ADD19O,0.100000X0.100000*%
%TD*%
%TA.AperFunction,ComponentPad*%
%ADD20O,4.000000X2.200000*%
%TD*%
%TA.AperFunction,ComponentPad*%
%ADD21R,2.200000X4.000000*%
%TD*%
%TA.AperFunction,ComponentPad*%
%ADD22R,4.000000X1.500000*%
%TD*%
%TA.AperFunction,ComponentPad*%
%ADD23O,4.000000X1.500000*%
%TD*%
%TA.AperFunction,ComponentPad*%
%ADD24R,2.400000X2.400000*%
%TD*%
%TA.AperFunction,ComponentPad*%
%ADD25C,2.400000*%
%TD*%
%TA.AperFunction,ComponentPad*%
%ADD26C,1.727200*%
%TD*%
%TA.AperFunction,ComponentPad*%
%ADD27O,2.400000X2.400000*%
%TD*%
%TA.AperFunction,ComponentPad*%
%ADD28R,2.200000X1.600000*%
%TD*%
%TA.AperFunction,ComponentPad*%
%ADD29C,1.803400*%
%TD*%
%TA.AperFunction,Conductor*%
%ADD30C,1.000000*%
%TD*%
G04 APERTURE END LIST*
D10*
G36*
X53175985Y-63417247D02*
G01*
X52993079Y-63600153D01*
X52810174Y-63234342D01*
X53175985Y-63417247D01*
G37*
G36*
X58699183Y-61443056D02*
G01*
X58985977Y-61615133D01*
X59279172Y-61908328D01*
X59451247Y-62195120D01*
X59497084Y-62332629D01*
X59497084Y-62386178D01*
X59461233Y-62493731D01*
X59410007Y-62544957D01*
X59302454Y-62580808D01*
X59248905Y-62580808D01*
X59111398Y-62534973D01*
X58824601Y-62362894D01*
X58531409Y-62069703D01*
X58359333Y-61782908D01*
X58313496Y-61645397D01*
X58313496Y-61591852D01*
X58349348Y-61484296D01*
X58400573Y-61433072D01*
X58508126Y-61397221D01*
X58561675Y-61397221D01*
X58699183Y-61443056D01*
G37*
G36*
X56611648Y-60789706D02*
G01*
X56480394Y-60920960D01*
X56300094Y-61011111D01*
X56130306Y-61011111D01*
X55992799Y-60965276D01*
X55706002Y-60793197D01*
X55547497Y-60634693D01*
X55375421Y-60347898D01*
X55329584Y-60210387D01*
X55329584Y-60040602D01*
X55419734Y-59860301D01*
X55550988Y-59729047D01*
X56611648Y-60789706D01*
G37*
G36*
X64221351Y-55920890D02*
G01*
X64508146Y-56092966D01*
X64801337Y-56386158D01*
X64973416Y-56672955D01*
X65019251Y-56810461D01*
X65019251Y-56864011D01*
X64983400Y-56971564D01*
X64932175Y-57022788D01*
X64824620Y-57058641D01*
X64771072Y-57058641D01*
X64633562Y-57012803D01*
X64346771Y-56840729D01*
X64053576Y-56547534D01*
X63881499Y-56260740D01*
X63835664Y-56123232D01*
X63835664Y-56069683D01*
X63871515Y-55962129D01*
X63922740Y-55910904D01*
X64030295Y-55875053D01*
X64083841Y-55875053D01*
X64221351Y-55920890D01*
G37*
G36*
X61460381Y-55940974D02*
G01*
X61274828Y-56126526D01*
X61167274Y-56162378D01*
X61113726Y-56162378D01*
X61006170Y-56126526D01*
X60685572Y-55805927D01*
X60649722Y-55698374D01*
X60649722Y-55644825D01*
X60685573Y-55537271D01*
X60871125Y-55351718D01*
X61460381Y-55940974D01*
G37*
G36*
X63295133Y-53061679D02*
G01*
X63307143Y-53073689D01*
X62954956Y-53308481D01*
X62975253Y-53247591D01*
X63161163Y-53061680D01*
X63228149Y-53039351D01*
X63295133Y-53061679D01*
G37*
G36*
X64642004Y-51849496D02*
G01*
X64962602Y-52170094D01*
X64998455Y-52277648D01*
X64998455Y-52331196D01*
X64962602Y-52438753D01*
X64777050Y-52624305D01*
X64187795Y-52035049D01*
X64373346Y-51849497D01*
X64480903Y-51813645D01*
X64534449Y-51813645D01*
X64642004Y-51849496D01*
G37*
G36*
X66258247Y-50906687D02*
G01*
X66309473Y-50957913D01*
X66331801Y-51024896D01*
X66309473Y-51091881D01*
X66056576Y-51344778D01*
X65871382Y-51159584D01*
X66124279Y-50906687D01*
X66191263Y-50884359D01*
X66258247Y-50906687D01*
G37*
G36*
X71599542Y-52089519D02*
G01*
X55808876Y-67880184D01*
X51074034Y-63145341D01*
X51575319Y-62644056D01*
X52003120Y-62644056D01*
X52005342Y-62675325D01*
X52003120Y-62706594D01*
X52008768Y-62723540D01*
X52010035Y-62741356D01*
X52027550Y-62787128D01*
X52970359Y-64672746D01*
X52996468Y-64714222D01*
X53070159Y-64778134D01*
X53162697Y-64808980D01*
X53259997Y-64802065D01*
X53347245Y-64758441D01*
X53411157Y-64684750D01*
X53442003Y-64592212D01*
X53435088Y-64494912D01*
X53417573Y-64449140D01*
X53324800Y-64263594D01*
X54922530Y-64263594D01*
X54922530Y-64361138D01*
X54959859Y-64451258D01*
X55028834Y-64520233D01*
X55118954Y-64557562D01*
X55216498Y-64557562D01*
X55306618Y-64520233D01*
X55344503Y-64489143D01*
X55857957Y-63975688D01*
X56061670Y-64142363D01*
X55731728Y-64472306D01*
X55700637Y-64510191D01*
X55697199Y-64518489D01*
X55691314Y-64525276D01*
X55671333Y-64570027D01*
X55603990Y-64772058D01*
X55598491Y-64796242D01*
X55595965Y-64802341D01*
X55595094Y-64811182D01*
X55593124Y-64819847D01*
X55593592Y-64826432D01*
X55591161Y-64851114D01*
X55591161Y-64985801D01*
X55593592Y-65010482D01*
X55593124Y-65017068D01*
X55595094Y-65025733D01*
X55595965Y-65034574D01*
X55598490Y-65040671D01*
X55603990Y-65064858D01*
X55671333Y-65266887D01*
X55691314Y-65311638D01*
X55697199Y-65318423D01*
X55700637Y-65326723D01*
X55731727Y-65364608D01*
X56068445Y-65701326D01*
X56106330Y-65732416D01*
X56114627Y-65735852D01*
X56121414Y-65741739D01*
X56166165Y-65761720D01*
X56368195Y-65829063D01*
X56392381Y-65834562D01*
X56398479Y-65837088D01*
X56407319Y-65837958D01*
X56415985Y-65839929D01*
X56422570Y-65839460D01*
X56447252Y-65841892D01*
X56581939Y-65841892D01*
X56606620Y-65839460D01*
X56613206Y-65839929D01*
X56621870Y-65837958D01*
X56630712Y-65837088D01*
X56636810Y-65834561D01*
X56660995Y-65829063D01*
X56863026Y-65761720D01*
X56907777Y-65741739D01*
X56914563Y-65735853D01*
X56922862Y-65732416D01*
X56960747Y-65701325D01*
X57297464Y-65364608D01*
X57328554Y-65326723D01*
X57331990Y-65318427D01*
X57337877Y-65311640D01*
X57357858Y-65266889D01*
X57425202Y-65064858D01*
X57430701Y-65040671D01*
X57433227Y-65034574D01*
X57434097Y-65025734D01*
X57436068Y-65017069D01*
X57435599Y-65010482D01*
X57438031Y-64985801D01*
X57438031Y-64851114D01*
X57433227Y-64802341D01*
X57395898Y-64712221D01*
X57326924Y-64643247D01*
X57236804Y-64605918D01*
X57139258Y-64605918D01*
X57049138Y-64643247D01*
X56980164Y-64712221D01*
X56942835Y-64802341D01*
X56938031Y-64851114D01*
X56938031Y-64945232D01*
X56902178Y-65052786D01*
X56648925Y-65306040D01*
X56541370Y-65341892D01*
X56487821Y-65341892D01*
X56380268Y-65306041D01*
X56127012Y-65052785D01*
X56091161Y-64945231D01*
X56091161Y-64891682D01*
X56127012Y-64784127D01*
X56380266Y-64530874D01*
X56487821Y-64495022D01*
X56581939Y-64495022D01*
X56630712Y-64490218D01*
X56642342Y-64485400D01*
X56654867Y-64484148D01*
X56687065Y-64466875D01*
X56720832Y-64452889D01*
X56729734Y-64443986D01*
X56740825Y-64438037D01*
X56763960Y-64409760D01*
X56789806Y-64383915D01*
X56794624Y-64372283D01*
X56802595Y-64362541D01*
X56813149Y-64327558D01*
X56827135Y-64293795D01*
X56827135Y-64281205D01*
X56830771Y-64269154D01*
X56827135Y-64232794D01*
X56827135Y-64196249D01*
X56822317Y-64184618D01*
X56821065Y-64172094D01*
X56803791Y-64139893D01*
X56789806Y-64106129D01*
X56780904Y-64097227D01*
X56774954Y-64086135D01*
X56740248Y-64051532D01*
X55999470Y-63445442D01*
X55984385Y-63435395D01*
X55980053Y-63431063D01*
X55974307Y-63428683D01*
X55958680Y-63418275D01*
X55923697Y-63407720D01*
X55889933Y-63393735D01*
X55877344Y-63393735D01*
X55865293Y-63390099D01*
X55828933Y-63393735D01*
X55792389Y-63393735D01*
X55780758Y-63398552D01*
X55768233Y-63399805D01*
X55736033Y-63417077D01*
X55702269Y-63431063D01*
X55687750Y-63442977D01*
X55682275Y-63445915D01*
X55678399Y-63450652D01*
X55664384Y-63462154D01*
X54990949Y-64135589D01*
X54959859Y-64173474D01*
X54922530Y-64263594D01*
X53324800Y-64263594D01*
X53228782Y-64071558D01*
X53647390Y-63652950D01*
X54024972Y-63841741D01*
X54070744Y-63859256D01*
X54168044Y-63866171D01*
X54260582Y-63835325D01*
X54334273Y-63771413D01*
X54377897Y-63684165D01*
X54384812Y-63586865D01*
X54353966Y-63494327D01*
X54290054Y-63420636D01*
X54248578Y-63394527D01*
X52362960Y-62451718D01*
X52317188Y-62434203D01*
X52299372Y-62432936D01*
X52282426Y-62427288D01*
X52251157Y-62429510D01*
X52219888Y-62427288D01*
X52202941Y-62432936D01*
X52185126Y-62434203D01*
X52157092Y-62448220D01*
X52127350Y-62458134D01*
X52113854Y-62469838D01*
X52097878Y-62477827D01*
X52077339Y-62501507D01*
X52053659Y-62522046D01*
X52045670Y-62538022D01*
X52033966Y-62551518D01*
X52024052Y-62581260D01*
X52010035Y-62609294D01*
X52008768Y-62627109D01*
X52003120Y-62644056D01*
X51575319Y-62644056D01*
X52524816Y-61694559D01*
X52946865Y-61694559D01*
X52948770Y-61737903D01*
X52948770Y-61781288D01*
X52950903Y-61786437D01*
X52951148Y-61792010D01*
X52969502Y-61831341D01*
X52986099Y-61871408D01*
X52990971Y-61877345D01*
X52992398Y-61880402D01*
X52996752Y-61884389D01*
X53017189Y-61909293D01*
X54431403Y-63323506D01*
X54469288Y-63354597D01*
X54559408Y-63391925D01*
X54656952Y-63391925D01*
X54747072Y-63354596D01*
X54816048Y-63285621D01*
X54853376Y-63195501D01*
X54853376Y-63097957D01*
X54816047Y-63007837D01*
X54784957Y-62969952D01*
X54780500Y-62965495D01*
X56399283Y-62965495D01*
X56399283Y-63100182D01*
X56401714Y-63124863D01*
X56401246Y-63131449D01*
X56403216Y-63140113D01*
X56404087Y-63148955D01*
X56406613Y-63155053D01*
X56412112Y-63179238D01*
X56479455Y-63381269D01*
X56499436Y-63426020D01*
X56505321Y-63432806D01*
X56508759Y-63441105D01*
X56539849Y-63478990D01*
X56674536Y-63613677D01*
X56693708Y-63629410D01*
X56698034Y-63634398D01*
X56705554Y-63639132D01*
X56712421Y-63644767D01*
X56718517Y-63647292D01*
X56739510Y-63660507D01*
X57008883Y-63795194D01*
X57054656Y-63812709D01*
X57063615Y-63813345D01*
X57071914Y-63816783D01*
X57120687Y-63821587D01*
X58133378Y-63821587D01*
X57684689Y-64270275D01*
X57653599Y-64308160D01*
X57616270Y-64398280D01*
X57616270Y-64495824D01*
X57653599Y-64585944D01*
X57722574Y-64654919D01*
X57812694Y-64692248D01*
X57910238Y-64692248D01*
X58000358Y-64654919D01*
X58038243Y-64623829D01*
X58913707Y-63748364D01*
X58944793Y-63710484D01*
X58944798Y-63710480D01*
X58982127Y-63620360D01*
X58982127Y-63522814D01*
X58944798Y-63432694D01*
X58875824Y-63363720D01*
X58785704Y-63326391D01*
X58736931Y-63321587D01*
X57179704Y-63321587D01*
X56999404Y-63231437D01*
X56935133Y-63167166D01*
X56899283Y-63059613D01*
X56899283Y-63006064D01*
X56935134Y-62898510D01*
X57188390Y-62645255D01*
X57295943Y-62609404D01*
X57390061Y-62609404D01*
X57438834Y-62604600D01*
X57528954Y-62567271D01*
X57597928Y-62498297D01*
X57635257Y-62408177D01*
X57635257Y-62310631D01*
X57597928Y-62220511D01*
X57528954Y-62151537D01*
X57438834Y-62114208D01*
X57390061Y-62109404D01*
X57255374Y-62109404D01*
X57230692Y-62111835D01*
X57224107Y-62111367D01*
X57215441Y-62113337D01*
X57206601Y-62114208D01*
X57200503Y-62116733D01*
X57176317Y-62122233D01*
X56974287Y-62189576D01*
X56929536Y-62209557D01*
X56922749Y-62215443D01*
X56914452Y-62218880D01*
X56876567Y-62249970D01*
X56539849Y-62586688D01*
X56508759Y-62624573D01*
X56505321Y-62632872D01*
X56499436Y-62639658D01*
X56479455Y-62684409D01*
X56412112Y-62886438D01*
X56406612Y-62910624D01*
X56404087Y-62916722D01*
X56403216Y-62925562D01*
X56401246Y-62934228D01*
X56401714Y-62940813D01*
X56399283Y-62965495D01*
X54780500Y-62965495D01*
X54167576Y-62352571D01*
X54590087Y-62506212D01*
X54610192Y-62511358D01*
X54616029Y-62514082D01*
X54621829Y-62514336D01*
X54637566Y-62518365D01*
X54675516Y-62516697D01*
X54713481Y-62518366D01*
X54723920Y-62514569D01*
X54735017Y-62514082D01*
X54769447Y-62498014D01*
X54805154Y-62485030D01*
X54813345Y-62477528D01*
X54823409Y-62472832D01*
X54849070Y-62444811D01*
X54877091Y-62419150D01*
X54881787Y-62409086D01*
X54889289Y-62400895D01*
X54902273Y-62365188D01*
X54918341Y-62330758D01*
X54918828Y-62319661D01*
X54922625Y-62309222D01*
X54920956Y-62271257D01*
X54922624Y-62233307D01*
X54918595Y-62217570D01*
X54918341Y-62211770D01*
X54915617Y-62205933D01*
X54910471Y-62185828D01*
X54756830Y-61763315D01*
X55374212Y-62380697D01*
X55412097Y-62411788D01*
X55502217Y-62449116D01*
X55599761Y-62449116D01*
X55689881Y-62411787D01*
X55758857Y-62342812D01*
X55796185Y-62252692D01*
X55796185Y-62155148D01*
X55758856Y-62065028D01*
X55727766Y-62027143D01*
X55251905Y-61551282D01*
X57813496Y-61551282D01*
X57813496Y-61685969D01*
X57815927Y-61710650D01*
X57815459Y-61717237D01*
X57817429Y-61725902D01*
X57818300Y-61734742D01*
X57820825Y-61740838D01*
X57826325Y-61765027D01*
X57893670Y-61967057D01*
X57895227Y-61970546D01*
X57895493Y-61972328D01*
X57904790Y-61991964D01*
X57913651Y-62011808D01*
X57914831Y-62013169D01*
X57916467Y-62016623D01*
X58118497Y-62353341D01*
X58123593Y-62360206D01*
X58125003Y-62363609D01*
X58136700Y-62377862D01*
X58147709Y-62392692D01*
X58150672Y-62394887D01*
X58156094Y-62401494D01*
X58492811Y-62738211D01*
X58499420Y-62743635D01*
X58501613Y-62746594D01*
X58516429Y-62757593D01*
X58530696Y-62769301D01*
X58534098Y-62770710D01*
X58540964Y-62775807D01*
X58877681Y-62977838D01*
X58881136Y-62979474D01*
X58882498Y-62980655D01*
X58902333Y-62989511D01*
X58921975Y-62998812D01*
X58923758Y-62999077D01*
X58927249Y-63000636D01*
X59129280Y-63067979D01*
X59153464Y-63073477D01*
X59159563Y-63076004D01*
X59168404Y-63076874D01*
X59177069Y-63078845D01*
X59183654Y-63078376D01*
X59208336Y-63080808D01*
X59343023Y-63080808D01*
X59367704Y-63078376D01*
X59374290Y-63078845D01*
X59382954Y-63076874D01*
X59391796Y-63076004D01*
X59397894Y-63073477D01*
X59422079Y-63067979D01*
X59624110Y-63000636D01*
X59668861Y-62980655D01*
X59675647Y-62974769D01*
X59683946Y-62971332D01*
X59721831Y-62940242D01*
X59856518Y-62805555D01*
X59887608Y-62767670D01*
X59891045Y-62759371D01*
X59896931Y-62752585D01*
X59916912Y-62707834D01*
X59984255Y-62505803D01*
X59989753Y-62481618D01*
X59992280Y-62475520D01*
X59993150Y-62466678D01*
X59995121Y-62458014D01*
X59994652Y-62451428D01*
X59997084Y-62426747D01*
X59997084Y-62292060D01*
X59994652Y-62267378D01*
X59995121Y-62260793D01*
X59993150Y-62252127D01*
X59992280Y-62243287D01*
X59989754Y-62237189D01*
X59984255Y-62213003D01*
X59916912Y-62010973D01*
X59915353Y-62007481D01*
X59915088Y-62005700D01*
X59905795Y-61986075D01*
X59896931Y-61966222D01*
X59895749Y-61964859D01*
X59894114Y-61961406D01*
X59692083Y-61624688D01*
X59686987Y-61617824D01*
X59685577Y-61614419D01*
X59673868Y-61600151D01*
X59662870Y-61585337D01*
X59659909Y-61583143D01*
X59654486Y-61576535D01*
X59317768Y-61239818D01*
X59311162Y-61234397D01*
X59308968Y-61231435D01*
X59294144Y-61220430D01*
X59279884Y-61208727D01*
X59276480Y-61207317D01*
X59269617Y-61202222D01*
X58932899Y-61000191D01*
X58929443Y-60998554D01*
X58928082Y-60997374D01*
X58908246Y-60988517D01*
X58888605Y-60979217D01*
X58886821Y-60978951D01*
X58883331Y-60977393D01*
X58681300Y-60910050D01*
X58657115Y-60904551D01*
X58651017Y-60902025D01*
X58642175Y-60901154D01*
X58633511Y-60899184D01*
X58626925Y-60899652D01*
X58602244Y-60897221D01*
X58467557Y-60897221D01*
X58442875Y-60899652D01*
X58436290Y-60899184D01*
X58427624Y-60901154D01*
X58418784Y-60902025D01*
X58412686Y-60904550D01*
X58388500Y-60910050D01*
X58186470Y-60977393D01*
X58141719Y-60997374D01*
X58134932Y-61003260D01*
X58126635Y-61006697D01*
X58088750Y-61037787D01*
X57954063Y-61172474D01*
X57922973Y-61210359D01*
X57919536Y-61218656D01*
X57913650Y-61225443D01*
X57893669Y-61270194D01*
X57826325Y-61472225D01*
X57820825Y-61496411D01*
X57818300Y-61502509D01*
X57817429Y-61511348D01*
X57815459Y-61520014D01*
X57815927Y-61526600D01*
X57813496Y-61551282D01*
X55251905Y-61551282D01*
X54313552Y-60612930D01*
X54288646Y-60592490D01*
X54284661Y-60588139D01*
X54281607Y-60586713D01*
X54275667Y-60581839D01*
X54235589Y-60565238D01*
X54196269Y-60546889D01*
X54190696Y-60546644D01*
X54185547Y-60544511D01*
X54142162Y-60544511D01*
X54098818Y-60542606D01*
X54093579Y-60544511D01*
X54088003Y-60544511D01*
X54047922Y-60561112D01*
X54007144Y-60575941D01*
X54003031Y-60579707D01*
X53997883Y-60581840D01*
X53967209Y-60612513D01*
X53935207Y-60641821D01*
X53932849Y-60646872D01*
X53928907Y-60650815D01*
X53912306Y-60690892D01*
X53893957Y-60730213D01*
X53893712Y-60735785D01*
X53891579Y-60740935D01*
X53891579Y-60784319D01*
X53889674Y-60827664D01*
X53891579Y-60835106D01*
X53891579Y-60838479D01*
X53893838Y-60843934D01*
X53901827Y-60875143D01*
X54257498Y-61853239D01*
X53279402Y-61497568D01*
X53248193Y-61489579D01*
X53242738Y-61487320D01*
X53239365Y-61487320D01*
X53231923Y-61485415D01*
X53188579Y-61487320D01*
X53145194Y-61487320D01*
X53140044Y-61489453D01*
X53134472Y-61489698D01*
X53095140Y-61508052D01*
X53055074Y-61524649D01*
X53051133Y-61528589D01*
X53046080Y-61530948D01*
X53016773Y-61562949D01*
X52986098Y-61593624D01*
X52983964Y-61598774D01*
X52980200Y-61602885D01*
X52965374Y-61643655D01*
X52948770Y-61683744D01*
X52948770Y-61689320D01*
X52946865Y-61694559D01*
X52524816Y-61694559D01*
X54237790Y-59981585D01*
X54829584Y-59981585D01*
X54829584Y-60250959D01*
X54832015Y-60275640D01*
X54831547Y-60282227D01*
X54833517Y-60290892D01*
X54834388Y-60299732D01*
X54836913Y-60305828D01*
X54842413Y-60330017D01*
X54909758Y-60532047D01*
X54911315Y-60535536D01*
X54911581Y-60537318D01*
X54920878Y-60556954D01*
X54929739Y-60576798D01*
X54930919Y-60578159D01*
X54932555Y-60581613D01*
X55134585Y-60918331D01*
X55139680Y-60925195D01*
X55141091Y-60928600D01*
X55152793Y-60942859D01*
X55163797Y-60957682D01*
X55166760Y-60959877D01*
X55172182Y-60966484D01*
X55374213Y-61168514D01*
X55380820Y-61173936D01*
X55383014Y-61176897D01*
X55397826Y-61187893D01*
X55412097Y-61199605D01*
X55415502Y-61201015D01*
X55422365Y-61206110D01*
X55759082Y-61408141D01*
X55762537Y-61409777D01*
X55763899Y-61410958D01*
X55783734Y-61419814D01*
X55803376Y-61429115D01*
X55805159Y-61429380D01*
X55808650Y-61430939D01*
X56010681Y-61498282D01*
X56034865Y-61503780D01*
X56040964Y-61506307D01*
X56049805Y-61507177D01*
X56058470Y-61509148D01*
X56065055Y-61508679D01*
X56089737Y-61511111D01*
X56359111Y-61511111D01*
X56407884Y-61506307D01*
X56416182Y-61502869D01*
X56425142Y-61502233D01*
X56470914Y-61484718D01*
X56740288Y-61350031D01*
X56761280Y-61336816D01*
X56767377Y-61334291D01*
X56774243Y-61328656D01*
X56781764Y-61323922D01*
X56786089Y-61318935D01*
X56805262Y-61303201D01*
X57141979Y-60966484D01*
X57173070Y-60928599D01*
X57210399Y-60838479D01*
X57210399Y-60740935D01*
X57173070Y-60650815D01*
X57141979Y-60612930D01*
X55727766Y-59198716D01*
X55689881Y-59167626D01*
X55599761Y-59130297D01*
X55502217Y-59130297D01*
X55412097Y-59167625D01*
X55412091Y-59167630D01*
X55374212Y-59198716D01*
X55037494Y-59535434D01*
X55021759Y-59554606D01*
X55016773Y-59558932D01*
X55012038Y-59566452D01*
X55006404Y-59573319D01*
X55003878Y-59579415D01*
X54990664Y-59600408D01*
X54855977Y-59869782D01*
X54838462Y-59915554D01*
X54837825Y-59924513D01*
X54834388Y-59932812D01*
X54829584Y-59981585D01*
X54237790Y-59981585D01*
X55481241Y-58738134D01*
X56043730Y-58738134D01*
X56050645Y-58835434D01*
X56094268Y-58922680D01*
X56167959Y-58986592D01*
X56260499Y-59017439D01*
X56357799Y-59010524D01*
X56445045Y-58966901D01*
X56508957Y-58893210D01*
X56528938Y-58848459D01*
X56577619Y-58702416D01*
X56709230Y-58570804D01*
X56889532Y-58480654D01*
X57059320Y-58480654D01*
X57196828Y-58526489D01*
X57483623Y-58698567D01*
X57642129Y-58857072D01*
X57814204Y-59143865D01*
X57860042Y-59281374D01*
X57860042Y-59451163D01*
X57769892Y-59631463D01*
X57692577Y-59708777D01*
X57530866Y-59789633D01*
X57318755Y-59577523D01*
X57411352Y-59484927D01*
X57442443Y-59447042D01*
X57479772Y-59356922D01*
X57479772Y-59259378D01*
X57442443Y-59169258D01*
X57373468Y-59100283D01*
X57283348Y-59062954D01*
X57185804Y-59062954D01*
X57095684Y-59100283D01*
X57057799Y-59131374D01*
X56788425Y-59400747D01*
X56757339Y-59438626D01*
X56757334Y-59438632D01*
X56720006Y-59528752D01*
X56720006Y-59626296D01*
X56757335Y-59716416D01*
X56788425Y-59754301D01*
X57259831Y-60225705D01*
X57297715Y-60256796D01*
X57387836Y-60294125D01*
X57387844Y-60294125D01*
X57436607Y-60298928D01*
X57571294Y-60298928D01*
X57620067Y-60294124D01*
X57628365Y-60290686D01*
X57637325Y-60290050D01*
X57683097Y-60272535D01*
X57684657Y-60271755D01*
X59093023Y-60271755D01*
X59093023Y-60406442D01*
X59095454Y-60431123D01*
X59094986Y-60437710D01*
X59096956Y-60446375D01*
X59097827Y-60455215D01*
X59100352Y-60461312D01*
X59105852Y-60485499D01*
X59173196Y-60687530D01*
X59193177Y-60732281D01*
X59199063Y-60739067D01*
X59202500Y-60747365D01*
X59233590Y-60785250D01*
X59368277Y-60919937D01*
X59387449Y-60935670D01*
X59391775Y-60940658D01*
X59399295Y-60945392D01*
X59406162Y-60951027D01*
X59412258Y-60953552D01*
X59433251Y-60966767D01*
X59702624Y-61101454D01*
X59748397Y-61118969D01*
X59757356Y-61119605D01*
X59765655Y-61123043D01*
X59814428Y-61127847D01*
X60827118Y-61127847D01*
X60378429Y-61576535D01*
X60347339Y-61614420D01*
X60310010Y-61704540D01*
X60310010Y-61802084D01*
X60347338Y-61892204D01*
X60416314Y-61961179D01*
X60506434Y-61998508D01*
X60603978Y-61998508D01*
X60694098Y-61961180D01*
X60731983Y-61930089D01*
X61607448Y-61054624D01*
X61638534Y-61016744D01*
X61638539Y-61016740D01*
X61675868Y-60926620D01*
X61675868Y-60829074D01*
X61638539Y-60738954D01*
X61569565Y-60669980D01*
X61479445Y-60632651D01*
X61430672Y-60627847D01*
X59873445Y-60627847D01*
X59693145Y-60537697D01*
X59628875Y-60473427D01*
X59593023Y-60365871D01*
X59593023Y-60312326D01*
X59628875Y-60204769D01*
X59882130Y-59951514D01*
X59989684Y-59915664D01*
X60083802Y-59915664D01*
X60132575Y-59910860D01*
X60222695Y-59873531D01*
X60291669Y-59804557D01*
X60328998Y-59714437D01*
X60328998Y-59616891D01*
X60291669Y-59526771D01*
X60222695Y-59457797D01*
X60132575Y-59420468D01*
X60083802Y-59415664D01*
X59949115Y-59415664D01*
X59924433Y-59418095D01*
X59917848Y-59417627D01*
X59909183Y-59419597D01*
X59900342Y-59420468D01*
X59894243Y-59422994D01*
X59870059Y-59428493D01*
X59668028Y-59495836D01*
X59623277Y-59515817D01*
X59616491Y-59521701D01*
X59608191Y-59525140D01*
X59570307Y-59556231D01*
X59233590Y-59892949D01*
X59202499Y-59930833D01*
X59199061Y-59939132D01*
X59193178Y-59945916D01*
X59173197Y-59990667D01*
X59105852Y-60192697D01*
X59100352Y-60216885D01*
X59097827Y-60222982D01*
X59096956Y-60231821D01*
X59094986Y-60240487D01*
X59095454Y-60247073D01*
X59093023Y-60271755D01*
X57684657Y-60271755D01*
X57952471Y-60137848D01*
X57973463Y-60124633D01*
X57979560Y-60122108D01*
X57986426Y-60116473D01*
X57993947Y-60111739D01*
X57998272Y-60106752D01*
X58017445Y-60091018D01*
X58152132Y-59956331D01*
X58167865Y-59937158D01*
X58172853Y-59932833D01*
X58177587Y-59925312D01*
X58183222Y-59918446D01*
X58185747Y-59912349D01*
X58198962Y-59891357D01*
X58333649Y-59621984D01*
X58351164Y-59576211D01*
X58351800Y-59567251D01*
X58355238Y-59558953D01*
X58360042Y-59510180D01*
X58360042Y-59240806D01*
X58357610Y-59216124D01*
X58358079Y-59209538D01*
X58356108Y-59200872D01*
X58355238Y-59192033D01*
X58352712Y-59185935D01*
X58347213Y-59161749D01*
X58313067Y-59059311D01*
X60035832Y-59059311D01*
X60054762Y-59155002D01*
X60108870Y-59236163D01*
X60189919Y-59290441D01*
X60236803Y-59304717D01*
X63267261Y-59910809D01*
X63316029Y-59915664D01*
X63411720Y-59896734D01*
X63492881Y-59842626D01*
X63547159Y-59761577D01*
X63566290Y-59665925D01*
X63547360Y-59570234D01*
X63493252Y-59489073D01*
X63412203Y-59434795D01*
X63365319Y-59420519D01*
X60334861Y-58814427D01*
X60286093Y-58809572D01*
X60190402Y-58828502D01*
X60109241Y-58882610D01*
X60054963Y-58963659D01*
X60035832Y-59059311D01*
X58313067Y-59059311D01*
X58279869Y-58959718D01*
X58278311Y-58956228D01*
X58278046Y-58954447D01*
X58268751Y-58934818D01*
X58259888Y-58914967D01*
X58258706Y-58913604D01*
X58257072Y-58910153D01*
X58055041Y-58573434D01*
X58049945Y-58566569D01*
X58048535Y-58563165D01*
X58036827Y-58548899D01*
X58025829Y-58534084D01*
X58022867Y-58531890D01*
X58017444Y-58525281D01*
X57815413Y-58323251D01*
X57808807Y-58317830D01*
X57806613Y-58314868D01*
X57791789Y-58303863D01*
X57777529Y-58292160D01*
X57774125Y-58290750D01*
X57767262Y-58285655D01*
X57430544Y-58083624D01*
X57427088Y-58081987D01*
X57425727Y-58080807D01*
X57405891Y-58071950D01*
X57386250Y-58062650D01*
X57384466Y-58062384D01*
X57380976Y-58060826D01*
X57178945Y-57993483D01*
X57154760Y-57987984D01*
X57148662Y-57985458D01*
X57139820Y-57984587D01*
X57131156Y-57982617D01*
X57124570Y-57983085D01*
X57099889Y-57980654D01*
X56830515Y-57980654D01*
X56781742Y-57985458D01*
X56773443Y-57988895D01*
X56764484Y-57989532D01*
X56718711Y-58007047D01*
X56449338Y-58141734D01*
X56428349Y-58154945D01*
X56422249Y-58157473D01*
X56415379Y-58163110D01*
X56407862Y-58167843D01*
X56403537Y-58172829D01*
X56384365Y-58188564D01*
X56182334Y-58390594D01*
X56151244Y-58428479D01*
X56147807Y-58436776D01*
X56141921Y-58443563D01*
X56121940Y-58488314D01*
X56054596Y-58690345D01*
X56043730Y-58738134D01*
X55481241Y-58738134D01*
X57366398Y-56852977D01*
X58805537Y-56852977D01*
X58838344Y-56944838D01*
X58903809Y-57017153D01*
X58945830Y-57042373D01*
X60225357Y-57648466D01*
X60229782Y-57650052D01*
X60233898Y-57652317D01*
X60705303Y-57854347D01*
X60752025Y-57869144D01*
X60753575Y-57869162D01*
X60755010Y-57869757D01*
X60803783Y-57874561D01*
X60938470Y-57874561D01*
X60963151Y-57872129D01*
X60969737Y-57872598D01*
X60978402Y-57870627D01*
X60987243Y-57869757D01*
X60993340Y-57867231D01*
X61017527Y-57861732D01*
X61219556Y-57794389D01*
X61264307Y-57774408D01*
X61337998Y-57710496D01*
X61381621Y-57623251D01*
X61388537Y-57525951D01*
X61360996Y-57443328D01*
X61921450Y-57443328D01*
X61921450Y-57578015D01*
X61923881Y-57602696D01*
X61923413Y-57609283D01*
X61925383Y-57617948D01*
X61926254Y-57626788D01*
X61928779Y-57632885D01*
X61934279Y-57657072D01*
X62001623Y-57859103D01*
X62021604Y-57903854D01*
X62027490Y-57910640D01*
X62030927Y-57918938D01*
X62062017Y-57956823D01*
X62196704Y-58091510D01*
X62215876Y-58107243D01*
X62220202Y-58112231D01*
X62227722Y-58116965D01*
X62234589Y-58122600D01*
X62240685Y-58125125D01*
X62261678Y-58138340D01*
X62531051Y-58273027D01*
X62576824Y-58290542D01*
X62585783Y-58291178D01*
X62594082Y-58294616D01*
X62642855Y-58299420D01*
X63655545Y-58299420D01*
X63206856Y-58748108D01*
X63175766Y-58785993D01*
X63138437Y-58876113D01*
X63138437Y-58973657D01*
X63175765Y-59063777D01*
X63244741Y-59132752D01*
X63334861Y-59170081D01*
X63432405Y-59170081D01*
X63522525Y-59132753D01*
X63560410Y-59101662D01*
X64435875Y-58226197D01*
X64466961Y-58188317D01*
X64466966Y-58188313D01*
X64504295Y-58098193D01*
X64504295Y-58000647D01*
X64466966Y-57910527D01*
X64397992Y-57841553D01*
X64307872Y-57804224D01*
X64259099Y-57799420D01*
X62701872Y-57799420D01*
X62521572Y-57709270D01*
X62457302Y-57645000D01*
X62421450Y-57537444D01*
X62421450Y-57483899D01*
X62457302Y-57376342D01*
X62710557Y-57123087D01*
X62818111Y-57087237D01*
X62912229Y-57087237D01*
X62961002Y-57082433D01*
X63051122Y-57045104D01*
X63120096Y-56976130D01*
X63157425Y-56886010D01*
X63157425Y-56788464D01*
X63120096Y-56698344D01*
X63051122Y-56629370D01*
X62961002Y-56592041D01*
X62912229Y-56587237D01*
X62777542Y-56587237D01*
X62752860Y-56589668D01*
X62746275Y-56589200D01*
X62737610Y-56591170D01*
X62728769Y-56592041D01*
X62722670Y-56594567D01*
X62698486Y-56600066D01*
X62496455Y-56667409D01*
X62451704Y-56687390D01*
X62444918Y-56693274D01*
X62436618Y-56696713D01*
X62398734Y-56727804D01*
X62062017Y-57064522D01*
X62030926Y-57102406D01*
X62027488Y-57110705D01*
X62021605Y-57117489D01*
X62001624Y-57162240D01*
X61934279Y-57364270D01*
X61928779Y-57388458D01*
X61926254Y-57394555D01*
X61925383Y-57403394D01*
X61923413Y-57412060D01*
X61923881Y-57418646D01*
X61921450Y-57443328D01*
X61360996Y-57443328D01*
X61357690Y-57433410D01*
X61293778Y-57359720D01*
X61206532Y-57316096D01*
X61109233Y-57309181D01*
X61061443Y-57320047D01*
X60897900Y-57374561D01*
X60855096Y-57374561D01*
X60517813Y-57230011D01*
X59952222Y-56035983D01*
X59927001Y-55993961D01*
X59854686Y-55928496D01*
X59762825Y-55895689D01*
X59665400Y-55900532D01*
X59577244Y-55942290D01*
X59511779Y-56014605D01*
X59478972Y-56106466D01*
X59483815Y-56203891D01*
X59500352Y-56250025D01*
X59806783Y-56896936D01*
X59159874Y-56590505D01*
X59113739Y-56573967D01*
X59016314Y-56569124D01*
X58924453Y-56601931D01*
X58852138Y-56667396D01*
X58810380Y-56755552D01*
X58805537Y-56852977D01*
X57366398Y-56852977D01*
X58615119Y-55604256D01*
X60149722Y-55604256D01*
X60149722Y-55738943D01*
X60152153Y-55763624D01*
X60151685Y-55770210D01*
X60153655Y-55778874D01*
X60154526Y-55787716D01*
X60157052Y-55793814D01*
X60162551Y-55817999D01*
X60229894Y-56020030D01*
X60249875Y-56064781D01*
X60255760Y-56071567D01*
X60259198Y-56079866D01*
X60290288Y-56117751D01*
X60694350Y-56521812D01*
X60732234Y-56552903D01*
X60740535Y-56556341D01*
X60747319Y-56562225D01*
X60792070Y-56582206D01*
X60994101Y-56649549D01*
X61018285Y-56655047D01*
X61024384Y-56657574D01*
X61033225Y-56658444D01*
X61041890Y-56660415D01*
X61048475Y-56659946D01*
X61073157Y-56662378D01*
X61207844Y-56662378D01*
X61232525Y-56659946D01*
X61239111Y-56660415D01*
X61247776Y-56658444D01*
X61256617Y-56657574D01*
X61262714Y-56655048D01*
X61286901Y-56649549D01*
X61488930Y-56582206D01*
X61533681Y-56562225D01*
X61540466Y-56556339D01*
X61548766Y-56552902D01*
X61586651Y-56521812D01*
X61856024Y-56252438D01*
X61887115Y-56214553D01*
X61890551Y-56206255D01*
X61896438Y-56199469D01*
X61911376Y-56166010D01*
X61952827Y-56148842D01*
X62021802Y-56079866D01*
X62042824Y-56029114D01*
X63335664Y-56029114D01*
X63335664Y-56163801D01*
X63338095Y-56188482D01*
X63337627Y-56195068D01*
X63339597Y-56203732D01*
X63340468Y-56212574D01*
X63342994Y-56218672D01*
X63348493Y-56242857D01*
X63415836Y-56444888D01*
X63417394Y-56448378D01*
X63417660Y-56450162D01*
X63426960Y-56469803D01*
X63435817Y-56489639D01*
X63436997Y-56491000D01*
X63438634Y-56494456D01*
X63640665Y-56831174D01*
X63645760Y-56838037D01*
X63647170Y-56841441D01*
X63658873Y-56855701D01*
X63669878Y-56870525D01*
X63672840Y-56872719D01*
X63678261Y-56879325D01*
X64014978Y-57216043D01*
X64021587Y-57221466D01*
X64023781Y-57224428D01*
X64038596Y-57235426D01*
X64052862Y-57247134D01*
X64056266Y-57248544D01*
X64063131Y-57253640D01*
X64399850Y-57455671D01*
X64403301Y-57457305D01*
X64404664Y-57458487D01*
X64424515Y-57467350D01*
X64444144Y-57476645D01*
X64445925Y-57476910D01*
X64449415Y-57478468D01*
X64651446Y-57545812D01*
X64675632Y-57551311D01*
X64681730Y-57553837D01*
X64690569Y-57554707D01*
X64699235Y-57556678D01*
X64705821Y-57556209D01*
X64730503Y-57558641D01*
X64865190Y-57558641D01*
X64889871Y-57556209D01*
X64896458Y-57556678D01*
X64905123Y-57554707D01*
X64913963Y-57553837D01*
X64920060Y-57551311D01*
X64944247Y-57545812D01*
X65146278Y-57478468D01*
X65191029Y-57458487D01*
X65197815Y-57452600D01*
X65206113Y-57449164D01*
X65243998Y-57418074D01*
X65378685Y-57283387D01*
X65409775Y-57245502D01*
X65413211Y-57237204D01*
X65419098Y-57230418D01*
X65439079Y-57185667D01*
X65506422Y-56983637D01*
X65511921Y-56959450D01*
X65514447Y-56953353D01*
X65515317Y-56944512D01*
X65517288Y-56935847D01*
X65516819Y-56929261D01*
X65519251Y-56904580D01*
X65519251Y-56769893D01*
X65516819Y-56745211D01*
X65517288Y-56738626D01*
X65515317Y-56729961D01*
X65514447Y-56721120D01*
X65511920Y-56715021D01*
X65506422Y-56690837D01*
X65439079Y-56488806D01*
X65437520Y-56485315D01*
X65437255Y-56483532D01*
X65427954Y-56463890D01*
X65419098Y-56444055D01*
X65417917Y-56442693D01*
X65416281Y-56439238D01*
X65214250Y-56102521D01*
X65209153Y-56095655D01*
X65207744Y-56092253D01*
X65196036Y-56077986D01*
X65185037Y-56063170D01*
X65182078Y-56060977D01*
X65176654Y-56054368D01*
X64839937Y-55717651D01*
X64833330Y-55712229D01*
X64831135Y-55709266D01*
X64816305Y-55698257D01*
X64802052Y-55686560D01*
X64798649Y-55685150D01*
X64791784Y-55680054D01*
X64455066Y-55478024D01*
X64451612Y-55476388D01*
X64450251Y-55475208D01*
X64430407Y-55466347D01*
X64410771Y-55457050D01*
X64408989Y-55456784D01*
X64405500Y-55455227D01*
X64203470Y-55387882D01*
X64179281Y-55382382D01*
X64173185Y-55379857D01*
X64164345Y-55378986D01*
X64155680Y-55377016D01*
X64149093Y-55377484D01*
X64124412Y-55375053D01*
X63989725Y-55375053D01*
X63965043Y-55377484D01*
X63958457Y-55377016D01*
X63949791Y-55378986D01*
X63940952Y-55379857D01*
X63934855Y-55382382D01*
X63910667Y-55387882D01*
X63708637Y-55455226D01*
X63663886Y-55475207D01*
X63657099Y-55481093D01*
X63648802Y-55484530D01*
X63610917Y-55515620D01*
X63476230Y-55650307D01*
X63445140Y-55688192D01*
X63441702Y-55696491D01*
X63435817Y-55703277D01*
X63415836Y-55748028D01*
X63348493Y-55950057D01*
X63342993Y-55974243D01*
X63340468Y-55980341D01*
X63339597Y-55989181D01*
X63337627Y-55997847D01*
X63338095Y-56004432D01*
X63335664Y-56029114D01*
X62042824Y-56029114D01*
X62059131Y-55989746D01*
X62059131Y-55892202D01*
X62021803Y-55802082D01*
X61990712Y-55764197D01*
X61110530Y-54884014D01*
X64211129Y-54884014D01*
X64230059Y-54979705D01*
X64284167Y-55060866D01*
X64365216Y-55115144D01*
X64412100Y-55129420D01*
X67442558Y-55735511D01*
X67491326Y-55740366D01*
X67587017Y-55721436D01*
X67668178Y-55667328D01*
X67722457Y-55586279D01*
X67741587Y-55490627D01*
X67722657Y-55394936D01*
X67668549Y-55313775D01*
X67587500Y-55259497D01*
X67540616Y-55245221D01*
X64510158Y-54639130D01*
X64461390Y-54634275D01*
X64365699Y-54653205D01*
X64284538Y-54707313D01*
X64230260Y-54788362D01*
X64211129Y-54884014D01*
X61110530Y-54884014D01*
X60576499Y-54349983D01*
X60538614Y-54318893D01*
X60448494Y-54281564D01*
X60350950Y-54281564D01*
X60260830Y-54318892D01*
X60191855Y-54387868D01*
X60154526Y-54477988D01*
X60154526Y-54575532D01*
X60191854Y-54665652D01*
X60222945Y-54703537D01*
X60517572Y-54998165D01*
X60290288Y-55225449D01*
X60259198Y-55263334D01*
X60255760Y-55271633D01*
X60249875Y-55278419D01*
X60229894Y-55323170D01*
X60162551Y-55525199D01*
X60157051Y-55549385D01*
X60154526Y-55555483D01*
X60153655Y-55564323D01*
X60151685Y-55572989D01*
X60152153Y-55579574D01*
X60149722Y-55604256D01*
X58615119Y-55604256D01*
X60936066Y-53283309D01*
X62441365Y-53283309D01*
X62443587Y-53314576D01*
X62441365Y-53345843D01*
X62447829Y-53374275D01*
X62448280Y-53380609D01*
X62450095Y-53384239D01*
X62452231Y-53393632D01*
X62519574Y-53595663D01*
X62539555Y-53640414D01*
X62545440Y-53647200D01*
X62548878Y-53655499D01*
X62579968Y-53693384D01*
X62714655Y-53828071D01*
X62752540Y-53859161D01*
X62775165Y-53868532D01*
X62795520Y-53882164D01*
X62819795Y-53887019D01*
X62842660Y-53896490D01*
X62867150Y-53896490D01*
X62891170Y-53901294D01*
X62915454Y-53896490D01*
X62940204Y-53896490D01*
X62962830Y-53887117D01*
X62986861Y-53882364D01*
X63030107Y-53859307D01*
X63667698Y-53434244D01*
X63750420Y-53516966D01*
X63772748Y-53583949D01*
X63750419Y-53650936D01*
X63564508Y-53836847D01*
X63418466Y-53885528D01*
X63373715Y-53905509D01*
X63300025Y-53969421D01*
X63256402Y-54056668D01*
X63249487Y-54153967D01*
X63280334Y-54246508D01*
X63344246Y-54320198D01*
X63431493Y-54363821D01*
X63528792Y-54370736D01*
X63576582Y-54359870D01*
X63778612Y-54292525D01*
X63823363Y-54272544D01*
X63830148Y-54266658D01*
X63838446Y-54263222D01*
X63876331Y-54232132D01*
X64145704Y-53962758D01*
X64176795Y-53924873D01*
X64180231Y-53916575D01*
X64186118Y-53909789D01*
X64206099Y-53865038D01*
X64273443Y-53663008D01*
X64275579Y-53653610D01*
X64277394Y-53649982D01*
X64277843Y-53643652D01*
X64284309Y-53615218D01*
X64282086Y-53583950D01*
X64284309Y-53552682D01*
X64277843Y-53524247D01*
X64277394Y-53517919D01*
X64275579Y-53514290D01*
X64273443Y-53504893D01*
X64227721Y-53367729D01*
X65896820Y-53367729D01*
X65899521Y-53375715D01*
X65899521Y-53384146D01*
X65915058Y-53421657D01*
X65928071Y-53460132D01*
X65933624Y-53466478D01*
X65936850Y-53474266D01*
X65965552Y-53502968D01*
X65992304Y-53533542D01*
X65999865Y-53537281D01*
X66005825Y-53543241D01*
X66043330Y-53558776D01*
X66079742Y-53576783D01*
X66091535Y-53578743D01*
X66095945Y-53580570D01*
X66102522Y-53580570D01*
X66128087Y-53584820D01*
X66683613Y-53621855D01*
X66648324Y-53727722D01*
X66642824Y-53751908D01*
X66640299Y-53758006D01*
X66639428Y-53766845D01*
X66637458Y-53775511D01*
X66637926Y-53782097D01*
X66635495Y-53806779D01*
X66635495Y-53941466D01*
X66637926Y-53966147D01*
X66637458Y-53972734D01*
X66639428Y-53981399D01*
X66640299Y-53990239D01*
X66642824Y-53996335D01*
X66648324Y-54020524D01*
X66715669Y-54222554D01*
X66735650Y-54267305D01*
X66741533Y-54274088D01*
X66744971Y-54282388D01*
X66776062Y-54320272D01*
X67112779Y-54656990D01*
X67150663Y-54688081D01*
X67158963Y-54691519D01*
X67165749Y-54697404D01*
X67210500Y-54717385D01*
X67412531Y-54784728D01*
X67436715Y-54790226D01*
X67442814Y-54792753D01*
X67451655Y-54793623D01*
X67460320Y-54795594D01*
X67466905Y-54795125D01*
X67491587Y-54797557D01*
X67626274Y-54797557D01*
X67650955Y-54795125D01*
X67657541Y-54795594D01*
X67666205Y-54793623D01*
X67675047Y-54792753D01*
X67681145Y-54790226D01*
X67705330Y-54784728D01*
X67907361Y-54717385D01*
X67952112Y-54697404D01*
X67958898Y-54691518D01*
X67967197Y-54688081D01*
X68005082Y-54656991D01*
X68409143Y-54252929D01*
X68440234Y-54215045D01*
X68443672Y-54206743D01*
X68449556Y-54199960D01*
X68469537Y-54155209D01*
X68536880Y-53953178D01*
X68542378Y-53928993D01*
X68544905Y-53922895D01*
X68545775Y-53914053D01*
X68547746Y-53905389D01*
X68547277Y-53898803D01*
X68549709Y-53874122D01*
X68549709Y-53739435D01*
X68544905Y-53690662D01*
X68507576Y-53600542D01*
X68438602Y-53531568D01*
X68348482Y-53494239D01*
X68250936Y-53494239D01*
X68160816Y-53531568D01*
X68091842Y-53600542D01*
X68054513Y-53690662D01*
X68049709Y-53739435D01*
X68049709Y-53833553D01*
X68013857Y-53941108D01*
X67693258Y-54261706D01*
X67585705Y-54297557D01*
X67532156Y-54297557D01*
X67424602Y-54261706D01*
X67171347Y-54008451D01*
X67135495Y-53900894D01*
X67135495Y-53847349D01*
X67171347Y-53739793D01*
X67331646Y-53579494D01*
X67348085Y-53559462D01*
X67353036Y-53555131D01*
X67355151Y-53550852D01*
X67362737Y-53541610D01*
X67378282Y-53504079D01*
X67396277Y-53467693D01*
X67396837Y-53459283D01*
X67400066Y-53451490D01*
X67400066Y-53410860D01*
X67402766Y-53370363D01*
X67400066Y-53362379D01*
X67400066Y-53353946D01*
X67384519Y-53316413D01*
X67371514Y-53277960D01*
X67365964Y-53271617D01*
X67362737Y-53263826D01*
X67334018Y-53235107D01*
X67307281Y-53204550D01*
X67299723Y-53200812D01*
X67293761Y-53194850D01*
X67256240Y-53179308D01*
X67219844Y-53161309D01*
X67208054Y-53159349D01*
X67203641Y-53157521D01*
X67197058Y-53157521D01*
X67171499Y-53153272D01*
X66711068Y-53122576D01*
X67196958Y-52636686D01*
X67228049Y-52598801D01*
X67265378Y-52508681D01*
X67265378Y-52411137D01*
X67228049Y-52321017D01*
X67159074Y-52252042D01*
X67068954Y-52214713D01*
X66971410Y-52214713D01*
X66881290Y-52252042D01*
X66843405Y-52283133D01*
X65967940Y-53158597D01*
X65951503Y-53178625D01*
X65946549Y-53182961D01*
X65944430Y-53187244D01*
X65936850Y-53196482D01*
X65921314Y-53233987D01*
X65903308Y-53270399D01*
X65902747Y-53278813D01*
X65899521Y-53286602D01*
X65899521Y-53327209D01*
X65896820Y-53367729D01*
X64227721Y-53367729D01*
X64206099Y-53302862D01*
X64186118Y-53258111D01*
X64180233Y-53251325D01*
X64176796Y-53243028D01*
X64145705Y-53205143D01*
X63606957Y-52666395D01*
X63569072Y-52635305D01*
X63560774Y-52631868D01*
X63553989Y-52625983D01*
X63509238Y-52606002D01*
X63307208Y-52538657D01*
X63297808Y-52536519D01*
X63294181Y-52534706D01*
X63287853Y-52534256D01*
X63259418Y-52527791D01*
X63228150Y-52530013D01*
X63196882Y-52527791D01*
X63168446Y-52534256D01*
X63162119Y-52534706D01*
X63158491Y-52536519D01*
X63149092Y-52538657D01*
X62947062Y-52606001D01*
X62902311Y-52625982D01*
X62895524Y-52631868D01*
X62887227Y-52635305D01*
X62849342Y-52666396D01*
X62579968Y-52935769D01*
X62548878Y-52973654D01*
X62545440Y-52981953D01*
X62539555Y-52988739D01*
X62519574Y-53033490D01*
X62452231Y-53235519D01*
X62450095Y-53244912D01*
X62448280Y-53248543D01*
X62447829Y-53254875D01*
X62441365Y-53283309D01*
X60936066Y-53283309D01*
X62704502Y-51514873D01*
X63117641Y-51514873D01*
X63117641Y-51612417D01*
X63154969Y-51702537D01*
X63186060Y-51740422D01*
X64600273Y-53154636D01*
X64638158Y-53185726D01*
X64728278Y-53223055D01*
X64825822Y-53223055D01*
X64915942Y-53185727D01*
X64984917Y-53116751D01*
X65002086Y-53075300D01*
X65035544Y-53060362D01*
X65042329Y-53054476D01*
X65050629Y-53051039D01*
X65088514Y-53019949D01*
X65357887Y-52750575D01*
X65388978Y-52712690D01*
X65392414Y-52704392D01*
X65398301Y-52697606D01*
X65418282Y-52652855D01*
X65485626Y-52450825D01*
X65491125Y-52426636D01*
X65493651Y-52420540D01*
X65494521Y-52411700D01*
X65496492Y-52403035D01*
X65496023Y-52396448D01*
X65498455Y-52371767D01*
X65498455Y-52237080D01*
X65496023Y-52212398D01*
X65496492Y-52205812D01*
X65494521Y-52197146D01*
X65493651Y-52188307D01*
X65491125Y-52182209D01*
X65485626Y-52158023D01*
X65418282Y-51955992D01*
X65398301Y-51911241D01*
X65392416Y-51904455D01*
X65388979Y-51896158D01*
X65357888Y-51858274D01*
X64953827Y-51454212D01*
X64915942Y-51423122D01*
X64907644Y-51419685D01*
X64900859Y-51413800D01*
X64856108Y-51393819D01*
X64654078Y-51326474D01*
X64629889Y-51320974D01*
X64623793Y-51318449D01*
X64614953Y-51317578D01*
X64606288Y-51315608D01*
X64599701Y-51316076D01*
X64575020Y-51313645D01*
X64440333Y-51313645D01*
X64415651Y-51316076D01*
X64409065Y-51315608D01*
X64400399Y-51317578D01*
X64391560Y-51318449D01*
X64385463Y-51320974D01*
X64361275Y-51326474D01*
X64159245Y-51393818D01*
X64114494Y-51413799D01*
X64107707Y-51419685D01*
X64099410Y-51423122D01*
X64061525Y-51454213D01*
X63834241Y-51681495D01*
X63539614Y-51386868D01*
X63501729Y-51355778D01*
X63411609Y-51318449D01*
X63314065Y-51318449D01*
X63223945Y-51355777D01*
X63154970Y-51424753D01*
X63117641Y-51514873D01*
X62704502Y-51514873D01*
X63495119Y-50724256D01*
X65000418Y-50724256D01*
X65002640Y-50755523D01*
X65000418Y-50786790D01*
X65006882Y-50815222D01*
X65007333Y-50821556D01*
X65009148Y-50825186D01*
X65011284Y-50834579D01*
X65078627Y-51036610D01*
X65098608Y-51081361D01*
X65104493Y-51088147D01*
X65107931Y-51096446D01*
X65139021Y-51134331D01*
X65879800Y-51875109D01*
X65917685Y-51906200D01*
X66007805Y-51943528D01*
X66105349Y-51943528D01*
X66159348Y-51921161D01*
X67443618Y-51921161D01*
X67443618Y-52055848D01*
X67446049Y-52080529D01*
X67445581Y-52087115D01*
X67447551Y-52095780D01*
X67448422Y-52104621D01*
X67450947Y-52110718D01*
X67456447Y-52134905D01*
X67523790Y-52336934D01*
X67543771Y-52381685D01*
X67549656Y-52388470D01*
X67553094Y-52396770D01*
X67584184Y-52434655D01*
X67718871Y-52569342D01*
X67738043Y-52585075D01*
X67742369Y-52590063D01*
X67749889Y-52594797D01*
X67756756Y-52600432D01*
X67762852Y-52602957D01*
X67783845Y-52616172D01*
X68053218Y-52750859D01*
X68098991Y-52768374D01*
X68107950Y-52769010D01*
X68116249Y-52772448D01*
X68165022Y-52777252D01*
X69177713Y-52777252D01*
X68729024Y-53225941D01*
X68697933Y-53263826D01*
X68660605Y-53353946D01*
X68660605Y-53451490D01*
X68697934Y-53541610D01*
X68766909Y-53610586D01*
X68857029Y-53647914D01*
X68954573Y-53647914D01*
X69044693Y-53610585D01*
X69082578Y-53579495D01*
X69958043Y-52704029D01*
X69989128Y-52666149D01*
X69989133Y-52666145D01*
X70026462Y-52576025D01*
X70026462Y-52478479D01*
X69989133Y-52388359D01*
X69920159Y-52319385D01*
X69830039Y-52282056D01*
X69781266Y-52277252D01*
X68224039Y-52277252D01*
X68043739Y-52187102D01*
X67979469Y-52122832D01*
X67943618Y-52015278D01*
X67943618Y-51961729D01*
X67979469Y-51854174D01*
X68232723Y-51600921D01*
X68340278Y-51565069D01*
X68434396Y-51565069D01*
X68483169Y-51560265D01*
X68573289Y-51522936D01*
X68642263Y-51453962D01*
X68679592Y-51363842D01*
X68679592Y-51266296D01*
X68642263Y-51176176D01*
X68573289Y-51107202D01*
X68483169Y-51069873D01*
X68434396Y-51065069D01*
X68299709Y-51065069D01*
X68275027Y-51067500D01*
X68268441Y-51067032D01*
X68259775Y-51069002D01*
X68250936Y-51069873D01*
X68244838Y-51072398D01*
X68220652Y-51077898D01*
X68018621Y-51145242D01*
X67973870Y-51165223D01*
X67967082Y-51171109D01*
X67958787Y-51174546D01*
X67920902Y-51205636D01*
X67584185Y-51542353D01*
X67553094Y-51580238D01*
X67549656Y-51588536D01*
X67543771Y-51595323D01*
X67523790Y-51640074D01*
X67456447Y-51842105D01*
X67450948Y-51866289D01*
X67448422Y-51872388D01*
X67447551Y-51881229D01*
X67445581Y-51889894D01*
X67446049Y-51896479D01*
X67443618Y-51921161D01*
X66159348Y-51921161D01*
X66195469Y-51906199D01*
X66264445Y-51837224D01*
X66281613Y-51795773D01*
X66315072Y-51780835D01*
X66321858Y-51774948D01*
X66330156Y-51771512D01*
X66368041Y-51740422D01*
X66704758Y-51403705D01*
X66735849Y-51365820D01*
X66739286Y-51357520D01*
X66745171Y-51350736D01*
X66765152Y-51305985D01*
X66832496Y-51103955D01*
X66834632Y-51094557D01*
X66836447Y-51090929D01*
X66836896Y-51084599D01*
X66843362Y-51056165D01*
X66841139Y-51024897D01*
X66843362Y-50993629D01*
X66836896Y-50965194D01*
X66836447Y-50958866D01*
X66834632Y-50955237D01*
X66832496Y-50945840D01*
X66765152Y-50743809D01*
X66745171Y-50699058D01*
X66739284Y-50692270D01*
X66735848Y-50683975D01*
X66704758Y-50646090D01*
X66570071Y-50511403D01*
X66532186Y-50480313D01*
X66523888Y-50476876D01*
X66517103Y-50470991D01*
X66472352Y-50451010D01*
X66270322Y-50383665D01*
X66260922Y-50381527D01*
X66257295Y-50379714D01*
X66250967Y-50379264D01*
X66222532Y-50372799D01*
X66191264Y-50375021D01*
X66159996Y-50372799D01*
X66131560Y-50379264D01*
X66125233Y-50379714D01*
X66121605Y-50381527D01*
X66112206Y-50383665D01*
X65910176Y-50451009D01*
X65865425Y-50470990D01*
X65858640Y-50476874D01*
X65850341Y-50480312D01*
X65812456Y-50511403D01*
X65526067Y-50797791D01*
X65511977Y-50755523D01*
X65534306Y-50688538D01*
X65720216Y-50502627D01*
X65866260Y-50453946D01*
X65911011Y-50433965D01*
X65984702Y-50370053D01*
X66028324Y-50282807D01*
X66035239Y-50185507D01*
X66004392Y-50092967D01*
X65940480Y-50019276D01*
X65853234Y-49975653D01*
X65755935Y-49968738D01*
X65708145Y-49979604D01*
X65506115Y-50046948D01*
X65461364Y-50066929D01*
X65454577Y-50072815D01*
X65446280Y-50076252D01*
X65408395Y-50107343D01*
X65139021Y-50376716D01*
X65107931Y-50414601D01*
X65104493Y-50422900D01*
X65098608Y-50429686D01*
X65078627Y-50474437D01*
X65011284Y-50676466D01*
X65009148Y-50685859D01*
X65007333Y-50689490D01*
X65006882Y-50695822D01*
X65000418Y-50724256D01*
X63495119Y-50724256D01*
X65252740Y-48966635D01*
X65674789Y-48966635D01*
X65676694Y-49009979D01*
X65676694Y-49053364D01*
X65678827Y-49058513D01*
X65679072Y-49064086D01*
X65697421Y-49103406D01*
X65714022Y-49143484D01*
X65718896Y-49149424D01*
X65720322Y-49152478D01*
X65724673Y-49156463D01*
X65745113Y-49181369D01*
X67159326Y-50595583D01*
X67197211Y-50626673D01*
X67287331Y-50664002D01*
X67384875Y-50664002D01*
X67474995Y-50626674D01*
X67543970Y-50557698D01*
X67581299Y-50467578D01*
X67581299Y-50370034D01*
X67543971Y-50279914D01*
X67512880Y-50242029D01*
X66895498Y-49624647D01*
X67318011Y-49778288D01*
X67338116Y-49783434D01*
X67343953Y-49786158D01*
X67349753Y-49786412D01*
X67365490Y-49790441D01*
X67403440Y-49788773D01*
X67441405Y-49790442D01*
X67451844Y-49786645D01*
X67462941Y-49786158D01*
X67497371Y-49770090D01*
X67533078Y-49757106D01*
X67541269Y-49749604D01*
X67551333Y-49744908D01*
X67576994Y-49716887D01*
X67605015Y-49691226D01*
X67609711Y-49681162D01*
X67617213Y-49672971D01*
X67630197Y-49637264D01*
X67646265Y-49602834D01*
X67646752Y-49591737D01*
X67650549Y-49581298D01*
X67648880Y-49543333D01*
X67650548Y-49505383D01*
X67646519Y-49489646D01*
X67646265Y-49483846D01*
X67643541Y-49478009D01*
X67638395Y-49457904D01*
X67484754Y-49035393D01*
X68102135Y-49652774D01*
X68140020Y-49683864D01*
X68230140Y-49721193D01*
X68327684Y-49721193D01*
X68417804Y-49683865D01*
X68486779Y-49614889D01*
X68524108Y-49524769D01*
X68524108Y-49427225D01*
X68486780Y-49337105D01*
X68455689Y-49299220D01*
X67041476Y-47885006D01*
X67016572Y-47864569D01*
X67012585Y-47860215D01*
X67009528Y-47858788D01*
X67003591Y-47853916D01*
X66963524Y-47837319D01*
X66924193Y-47818965D01*
X66918620Y-47818720D01*
X66913471Y-47816587D01*
X66870086Y-47816587D01*
X66826742Y-47814682D01*
X66821503Y-47816587D01*
X66815927Y-47816587D01*
X66775838Y-47833191D01*
X66735068Y-47848017D01*
X66730957Y-47851781D01*
X66725807Y-47853915D01*
X66695132Y-47884590D01*
X66663131Y-47913897D01*
X66660772Y-47918950D01*
X66656832Y-47922891D01*
X66640235Y-47962957D01*
X66621881Y-48002289D01*
X66621636Y-48007861D01*
X66619503Y-48013011D01*
X66619503Y-48056395D01*
X66617598Y-48099740D01*
X66619503Y-48107182D01*
X66619503Y-48110555D01*
X66621762Y-48116010D01*
X66629751Y-48147219D01*
X66985422Y-49125315D01*
X66007326Y-48769644D01*
X65976117Y-48761655D01*
X65970662Y-48759396D01*
X65967289Y-48759396D01*
X65959847Y-48757491D01*
X65916503Y-48759396D01*
X65873118Y-48759396D01*
X65867968Y-48761529D01*
X65862396Y-48761774D01*
X65823075Y-48780123D01*
X65782998Y-48796724D01*
X65779055Y-48800666D01*
X65774004Y-48803024D01*
X65744696Y-48835026D01*
X65714023Y-48865700D01*
X65711890Y-48870848D01*
X65708124Y-48874961D01*
X65693295Y-48915739D01*
X65676694Y-48955820D01*
X65676694Y-48961396D01*
X65674789Y-48966635D01*
X65252740Y-48966635D01*
X66864699Y-47354676D01*
X71599542Y-52089519D01*
G37*
D11*
%TO.P,U1,1,1OUT*%
%TO.N,Net-(U1A-1OUT)*%
X113500000Y-128560000D03*
D12*
%TO.P,U1,2,1IN-*%
%TO.N,Net-(U1A-1IN-)*%
X110960000Y-128560000D03*
%TO.P,U1,3,1IN+*%
%TO.N,GND*%
X108420000Y-128560000D03*
%TO.P,U1,4*%
%TO.N,-VCC*%
X105880000Y-128560000D03*
%TO.P,U1,5,2IN+*%
%TO.N,GND*%
X105880000Y-136500000D03*
%TO.P,U1,6,2IN-*%
%TO.N,Net-(U1B-2IN-)*%
X108420000Y-136500000D03*
%TO.P,U1,7,2OUT*%
%TO.N,Net-(U1B-2OUT)*%
X110960000Y-136500000D03*
%TO.P,U1,8*%
%TO.N,VCC*%
X113500000Y-136500000D03*
%TD*%
D13*
%TO.P,R6,1*%
%TO.N,Net-(R1-Pad1)*%
X102340000Y-94340000D03*
D14*
%TO.P,R6,2*%
%TO.N,Net-(C5-Pad1)*%
X102340000Y-104500000D03*
%TD*%
D13*
%TO.P,RV2,1,1*%
%TO.N,Net-(U3A-1IN-)*%
X147840000Y-91420000D03*
%TO.P,RV2,2,2*%
%TO.N,Net-(R15-Pad2)*%
X147840000Y-86420000D03*
%TO.P,RV2,3,3*%
%TO.N,GND*%
X147840000Y-81420000D03*
%TD*%
D15*
%TO.P,D2,1,K*%
%TO.N,Net-(D1-K)*%
X80000000Y-95080000D03*
D14*
%TO.P,D2,2,A*%
%TO.N,Net-(D2-A)*%
X80000000Y-84920000D03*
%TD*%
D13*
%TO.P,R17,1*%
%TO.N,Net-(U3B-2OUT)*%
X114420000Y-94500000D03*
D14*
%TO.P,R17,2*%
%TO.N,Net-(R17-Pad2)*%
X124580000Y-94500000D03*
%TD*%
D13*
%TO.P,R2,1*%
%TO.N,Net-(C7-Pad2)*%
X124500000Y-111000000D03*
D14*
%TO.P,R2,2*%
%TO.N,Net-(U3B-2IN-)*%
X114340000Y-111000000D03*
%TD*%
D13*
%TO.P,R13,1*%
%TO.N,Net-(U1B-2OUT)*%
X111180000Y-140420000D03*
D14*
%TO.P,R13,2*%
%TO.N,Net-(C7-Pad2)*%
X121340000Y-140420000D03*
%TD*%
D16*
%TO.P,C6,1*%
%TO.N,Net-(C5-Pad2)*%
X92000000Y-131794888D03*
D17*
%TO.P,C6,2*%
%TO.N,Net-(U1B-2IN-)*%
X92000000Y-134294888D03*
%TD*%
D13*
%TO.P,C13,1*%
%TO.N,VCC*%
X76500000Y-135000000D03*
%TO.P,C13,2*%
%TO.N,GND*%
X81500000Y-135000000D03*
%TD*%
D18*
%TO.P,J2,R*%
%TO.N,Net-(J2-PadR)*%
X93200000Y-55000000D03*
D19*
%TO.P,J2,RN*%
%TO.N,unconnected-(J2-PadRN)*%
X90500000Y-53800000D03*
D20*
%TO.P,J2,S*%
%TO.N,GND*%
X88000000Y-47000000D03*
D21*
%TO.P,J2,T*%
%TO.N,Net-(J2-PadT)*%
X83400000Y-50900000D03*
D19*
%TO.P,J2,TN*%
%TO.N,unconnected-(J2-PadTN)*%
X83900000Y-58200000D03*
%TD*%
D15*
%TO.P,D1,1,K*%
%TO.N,Net-(D1-K)*%
X74500000Y-95160000D03*
D14*
%TO.P,D1,2,A*%
%TO.N,Net-(D1-A)*%
X74500000Y-85000000D03*
%TD*%
D13*
%TO.P,C15,1*%
%TO.N,-VCC*%
X101840000Y-129000000D03*
%TO.P,C15,2*%
%TO.N,GND*%
X101840000Y-136500000D03*
%TD*%
D22*
%TO.P,U2,1,VI*%
%TO.N,Net-(D1-K)*%
X78287500Y-123960000D03*
D23*
%TO.P,U2,2,GND*%
%TO.N,GND*%
X78287500Y-126500000D03*
%TO.P,U2,3,VO*%
%TO.N,VCC*%
X78287500Y-129040000D03*
%TD*%
D24*
%TO.P,C20,1*%
%TO.N,Net-(C20-Pad1)*%
X105000000Y-70367677D03*
D25*
%TO.P,C20,2*%
%TO.N,Net-(C20-Pad2)*%
X105000000Y-65367677D03*
%TD*%
D26*
%TO.P,U5,1,GAIN*%
%TO.N,unconnected-(U5-GAIN-Pad1)*%
X138500000Y-70120000D03*
%TO.P,U5,2,-*%
%TO.N,GND*%
X138500000Y-67580000D03*
%TO.P,U5,3,+*%
%TO.N,Net-(U5-+)*%
X138500000Y-65040000D03*
%TO.P,U5,4,GND*%
%TO.N,GND*%
X138500000Y-62500000D03*
%TO.P,U5,5*%
%TO.N,Net-(C20-Pad1)*%
X130880000Y-62500000D03*
%TO.P,U5,6,V+*%
%TO.N,VCC*%
X130880000Y-65040000D03*
%TO.P,U5,7,BYPASS*%
%TO.N,unconnected-(U5-BYPASS-Pad7)*%
X130880000Y-67580000D03*
%TO.P,U5,8,GAIN*%
%TO.N,unconnected-(U5-GAIN-Pad8)*%
X130880000Y-70120000D03*
%TD*%
D13*
%TO.P,C14,1*%
%TO.N,GND*%
X69000000Y-134960000D03*
%TO.P,C14,2*%
%TO.N,-VCC*%
X64000000Y-134960000D03*
%TD*%
%TO.P,C2,1*%
%TO.N,Net-(U1A-1IN-)*%
X125960000Y-136420000D03*
%TO.P,C2,2*%
%TO.N,Net-(C1-Pad2)*%
X125960000Y-131420000D03*
%TD*%
D11*
%TO.P,U3,1,1OUT*%
%TO.N,Net-(U3A-1OUT)*%
X116620000Y-79310000D03*
D12*
%TO.P,U3,2,1IN-*%
%TO.N,Net-(U3A-1IN-)*%
X114080000Y-79310000D03*
%TO.P,U3,3,1IN+*%
%TO.N,GND*%
X111540000Y-79310000D03*
%TO.P,U3,4*%
%TO.N,-VCC*%
X109000000Y-79310000D03*
%TO.P,U3,5,2IN+*%
%TO.N,GND*%
X109000000Y-87250000D03*
%TO.P,U3,6,2IN-*%
%TO.N,Net-(U3B-2IN-)*%
X111540000Y-87250000D03*
%TO.P,U3,7,2OUT*%
%TO.N,Net-(U3B-2OUT)*%
X114080000Y-87250000D03*
%TO.P,U3,8*%
%TO.N,VCC*%
X116620000Y-87250000D03*
%TD*%
D15*
%TO.P,D4,1,K*%
%TO.N,Net-(D1-A)*%
X69000000Y-84920000D03*
D14*
%TO.P,D4,2,A*%
%TO.N,Net-(D3-A)*%
X69000000Y-95080000D03*
%TD*%
D13*
%TO.P,R3,1*%
%TO.N,Net-(C1-Pad2)*%
X124580000Y-114920000D03*
D14*
%TO.P,R3,2*%
%TO.N,Net-(U3B-2IN-)*%
X114420000Y-114920000D03*
%TD*%
D22*
%TO.P,U4,1,GND*%
%TO.N,GND*%
X65787500Y-124460000D03*
D23*
%TO.P,U4,2,VI*%
%TO.N,Net-(D3-A)*%
X65787500Y-127000000D03*
%TO.P,U4,3,VO*%
%TO.N,-VCC*%
X65787500Y-129540000D03*
%TD*%
D25*
%TO.P,R8,1*%
%TO.N,Net-(D1-K)*%
X96000000Y-111650000D03*
D27*
%TO.P,R8,2*%
%TO.N,GND*%
X96000000Y-124350000D03*
%TD*%
D13*
%TO.P,C10,1*%
%TO.N,VCC*%
X122500000Y-87000000D03*
%TO.P,C10,2*%
%TO.N,GND*%
X122500000Y-79500000D03*
%TD*%
%TO.P,C19,1*%
%TO.N,VCC*%
X131250000Y-75000000D03*
%TO.P,C19,2*%
%TO.N,GND*%
X138750000Y-75000000D03*
%TD*%
%TO.P,R11,1*%
%TO.N,Net-(J2-PadT)*%
X95340000Y-104500000D03*
D14*
%TO.P,R11,2*%
%TO.N,Net-(R1-Pad1)*%
X95340000Y-94340000D03*
%TD*%
D13*
%TO.P,C22,1*%
%TO.N,Net-(C22-Pad1)*%
X117500000Y-54500000D03*
%TO.P,C22,2*%
%TO.N,Net-(C20-Pad1)*%
X127500000Y-54500000D03*
%TD*%
%TO.P,RV3,1,1*%
%TO.N,Net-(U1B-2IN-)*%
X148000000Y-113500000D03*
%TO.P,RV3,2,2*%
%TO.N,Net-(C7-Pad2)*%
X148000000Y-108500000D03*
%TO.P,RV3,3,3*%
%TO.N,GND*%
X148000000Y-103500000D03*
%TD*%
%TO.P,R10,1*%
%TO.N,Net-(J2-PadR)*%
X98840000Y-104580000D03*
D14*
%TO.P,R10,2*%
%TO.N,Net-(R1-Pad1)*%
X98840000Y-94420000D03*
%TD*%
D13*
%TO.P,R7,1*%
%TO.N,Net-(R15-Pad2)*%
X124500000Y-100000000D03*
D14*
%TO.P,R7,2*%
%TO.N,Net-(U3B-2IN-)*%
X114340000Y-100000000D03*
%TD*%
D13*
%TO.P,R19,1*%
%TO.N,GND*%
X117260000Y-48920000D03*
D14*
%TO.P,R19,2*%
%TO.N,Net-(C22-Pad1)*%
X127420000Y-48920000D03*
%TD*%
D28*
%TO.P,C1,1*%
%TO.N,Net-(U1A-1IN-)*%
X133500000Y-134920000D03*
D13*
%TO.P,C1,2*%
%TO.N,Net-(C1-Pad2)*%
X133500000Y-132420000D03*
%TD*%
%TO.P,R16,1*%
%TO.N,Net-(U1A-1OUT)*%
X114340000Y-120920000D03*
D14*
%TO.P,R16,2*%
%TO.N,Net-(C1-Pad2)*%
X124500000Y-120920000D03*
%TD*%
D24*
%TO.P,C21,1*%
%TO.N,Net-(C20-Pad1)*%
X119000000Y-70000000D03*
D25*
%TO.P,C21,2*%
%TO.N,Net-(C20-Pad2)*%
X119000000Y-65000000D03*
%TD*%
D13*
%TO.P,RV4,1,1*%
%TO.N,Net-(R17-Pad2)*%
X147840000Y-69420000D03*
%TO.P,RV4,2,2*%
%TO.N,Net-(U5-+)*%
X147840000Y-64420000D03*
%TO.P,RV4,3,3*%
%TO.N,GND*%
X147840000Y-59420000D03*
%TD*%
%TO.P,C8,1*%
%TO.N,Net-(U1B-2IN-)*%
X130500000Y-119500000D03*
%TO.P,C8,2*%
%TO.N,Net-(C7-Pad2)*%
X130500000Y-114500000D03*
%TD*%
%TO.P,C4,1*%
%TO.N,Net-(C3-Pad1)*%
X90000000Y-65420000D03*
%TO.P,C4,2*%
%TO.N,Net-(U3A-1IN-)*%
X95000000Y-65420000D03*
%TD*%
%TO.P,C3,1*%
%TO.N,Net-(C3-Pad1)*%
X90000000Y-72000000D03*
%TO.P,C3,2*%
%TO.N,Net-(U3A-1IN-)*%
X95000000Y-72000000D03*
%TD*%
%TO.P,R1,1*%
%TO.N,Net-(R1-Pad1)*%
X108000000Y-94420000D03*
D14*
%TO.P,R1,2*%
%TO.N,Net-(U1A-1IN-)*%
X108000000Y-104580000D03*
%TD*%
D29*
%TO.P,J4,1,1*%
%TO.N,Net-(D2-A)*%
X56840000Y-90920000D03*
%TO.P,J4,2,2*%
%TO.N,GND*%
X56840000Y-85920000D03*
%TO.P,J4,3,3*%
%TO.N,Net-(D1-A)*%
X56840000Y-80920000D03*
%TD*%
D15*
%TO.P,D3,1,K*%
%TO.N,Net-(D2-A)*%
X85500000Y-84920000D03*
D14*
%TO.P,D3,2,A*%
%TO.N,Net-(D3-A)*%
X85500000Y-95080000D03*
%TD*%
D15*
%TO.P,C12,1*%
%TO.N,GND*%
X68500000Y-106500000D03*
D13*
%TO.P,C12,2*%
%TO.N,Net-(D3-A)*%
X63500000Y-106500000D03*
%TD*%
%TO.P,R4,1*%
%TO.N,Net-(U3B-2IN-)*%
X114340000Y-105500000D03*
D14*
%TO.P,R4,2*%
%TO.N,Net-(R17-Pad2)*%
X124500000Y-105500000D03*
%TD*%
D15*
%TO.P,C11,1*%
%TO.N,Net-(D1-K)*%
X81500000Y-106000000D03*
D13*
%TO.P,C11,2*%
%TO.N,GND*%
X76500000Y-106000000D03*
%TD*%
%TO.P,R5,1*%
%TO.N,Net-(R1-Pad1)*%
X96650000Y-88830000D03*
D14*
%TO.P,R5,2*%
%TO.N,Net-(C3-Pad1)*%
X96650000Y-78670000D03*
%TD*%
D18*
%TO.P,J3,R*%
%TO.N,Net-(C20-Pad2)*%
X109142500Y-54950000D03*
D19*
%TO.P,J3,RN*%
%TO.N,unconnected-(J3-PadRN)*%
X106442500Y-53750000D03*
D20*
%TO.P,J3,S*%
%TO.N,GND*%
X103942500Y-46950000D03*
D21*
%TO.P,J3,T*%
%TO.N,Net-(C20-Pad2)*%
X99342500Y-50850000D03*
D19*
%TO.P,J3,TN*%
%TO.N,unconnected-(J3-PadTN)*%
X99842500Y-58150000D03*
%TD*%
D13*
%TO.P,C5,1*%
%TO.N,Net-(C5-Pad1)*%
X105500000Y-112000000D03*
%TO.P,C5,2*%
%TO.N,Net-(C5-Pad2)*%
X105500000Y-122000000D03*
%TD*%
%TO.P,RV1,1,1*%
%TO.N,Net-(U1A-1IN-)*%
X148000000Y-135500000D03*
%TO.P,RV1,2,2*%
%TO.N,Net-(C1-Pad2)*%
X148000000Y-130500000D03*
%TO.P,RV1,3,3*%
%TO.N,GND*%
X148000000Y-125500000D03*
%TD*%
%TO.P,C16,1*%
%TO.N,VCC*%
X119380000Y-136500000D03*
%TO.P,C16,2*%
%TO.N,GND*%
X119380000Y-129000000D03*
%TD*%
%TO.P,C9,1*%
%TO.N,-VCC*%
X103000000Y-79750000D03*
%TO.P,C9,2*%
%TO.N,GND*%
X103000000Y-87250000D03*
%TD*%
D25*
%TO.P,R9,1*%
%TO.N,GND*%
X90000000Y-124350000D03*
D27*
%TO.P,R9,2*%
%TO.N,Net-(D3-A)*%
X90000000Y-111650000D03*
%TD*%
D13*
%TO.P,R15,1*%
%TO.N,Net-(U3A-1OUT)*%
X133000000Y-82920000D03*
D14*
%TO.P,R15,2*%
%TO.N,Net-(R15-Pad2)*%
X133000000Y-93080000D03*
%TD*%
D13*
%TO.P,C7,1*%
%TO.N,Net-(U1B-2IN-)*%
X136000000Y-119500000D03*
%TO.P,C7,2*%
%TO.N,Net-(C7-Pad2)*%
X136000000Y-114500000D03*
%TD*%
D30*
%TO.N,Net-(C1-Pad2)*%
X133500000Y-132420000D02*
X146080000Y-132420000D01*
X150340000Y-118920000D02*
X152840000Y-121420000D01*
X126960000Y-132420000D02*
X133500000Y-132420000D01*
X146340000Y-118920000D02*
X150340000Y-118920000D01*
X124500000Y-120920000D02*
X125580000Y-122000000D01*
X146080000Y-132420000D02*
X148000000Y-130500000D01*
X152840000Y-121420000D02*
X152840000Y-127920000D01*
X125960000Y-131420000D02*
X126960000Y-132420000D01*
X124500000Y-120920000D02*
X124500000Y-115000000D01*
X143260000Y-122000000D02*
X146340000Y-118920000D01*
X124500000Y-115000000D02*
X124580000Y-114920000D01*
X152840000Y-127920000D02*
X150260000Y-130500000D01*
X125580000Y-122000000D02*
X143260000Y-122000000D01*
X150260000Y-130500000D02*
X148000000Y-130500000D01*
%TO.N,Net-(U1A-1IN-)*%
X111840000Y-116920000D02*
X111840000Y-108420000D01*
X111840000Y-108420000D02*
X108000000Y-104580000D01*
X149840000Y-122420000D02*
X150840000Y-123420000D01*
X150840000Y-126420000D02*
X149340000Y-127920000D01*
X150840000Y-123420000D02*
X150840000Y-126420000D01*
X149340000Y-127920000D02*
X123840000Y-127920000D01*
X132000000Y-136420000D02*
X133500000Y-134920000D01*
X125960000Y-136420000D02*
X132000000Y-136420000D01*
X146340000Y-122420000D02*
X149840000Y-122420000D01*
X111840000Y-116920000D02*
X111840000Y-117420000D01*
X135000000Y-136420000D02*
X133500000Y-134920000D01*
X110960000Y-126800000D02*
X111840000Y-125920000D01*
X123840000Y-127920000D02*
X122340000Y-129420000D01*
X111840000Y-117420000D02*
X112340000Y-117920000D01*
X144840000Y-123920000D02*
X146340000Y-122420000D01*
X122340000Y-132800000D02*
X125960000Y-136420000D01*
X122340000Y-129420000D02*
X122340000Y-132800000D01*
X112340000Y-117920000D02*
X115840000Y-117920000D01*
X148000000Y-135500000D02*
X147080000Y-136420000D01*
X147080000Y-136420000D02*
X135000000Y-136420000D01*
X110960000Y-128560000D02*
X110960000Y-126800000D01*
X134000000Y-134920000D02*
X133500000Y-134920000D01*
X115840000Y-117920000D02*
X121840000Y-123920000D01*
X121840000Y-123920000D02*
X144840000Y-123920000D01*
X111840000Y-125920000D02*
X111840000Y-116920000D01*
X111840000Y-117420000D02*
X111840000Y-119420000D01*
%TO.N,Net-(C3-Pad1)*%
X90000000Y-72000000D02*
X90000000Y-72020000D01*
X90000000Y-72020000D02*
X96650000Y-78670000D01*
X90000000Y-65420000D02*
X90000000Y-72000000D01*
%TO.N,Net-(U3A-1IN-)*%
X135840000Y-76420000D02*
X135840000Y-61420000D01*
X95000000Y-72000000D02*
X98000000Y-72000000D01*
X140840000Y-56420000D02*
X140340000Y-56920000D01*
X154340000Y-61420000D02*
X149340000Y-56420000D01*
X132840000Y-79420000D02*
X135840000Y-76420000D01*
X137840000Y-59420000D02*
X140340000Y-56920000D01*
X130840000Y-79420000D02*
X132840000Y-79420000D01*
X150840000Y-91420000D02*
X154340000Y-87920000D01*
X112000000Y-75000000D02*
X113920000Y-76920000D01*
X98000000Y-72000000D02*
X101000000Y-75000000D01*
X117340000Y-73920000D02*
X125340000Y-73920000D01*
X114080000Y-77080000D02*
X114080000Y-79310000D01*
X135840000Y-61420000D02*
X137840000Y-59420000D01*
X113920000Y-76920000D02*
X114080000Y-77080000D01*
X95000000Y-65420000D02*
X95000000Y-72000000D01*
X114340000Y-76920000D02*
X117340000Y-73920000D01*
X149340000Y-56420000D02*
X140840000Y-56420000D01*
X113920000Y-76920000D02*
X114340000Y-76920000D01*
X125340000Y-73920000D02*
X130840000Y-79420000D01*
X154340000Y-87920000D02*
X154340000Y-61420000D01*
X147840000Y-91420000D02*
X150840000Y-91420000D01*
X101000000Y-75000000D02*
X112000000Y-75000000D01*
%TO.N,Net-(C5-Pad1)*%
X105500000Y-112000000D02*
X102340000Y-108840000D01*
X102340000Y-108840000D02*
X102340000Y-104500000D01*
%TO.N,Net-(C5-Pad2)*%
X92000000Y-131794888D02*
X101794888Y-122000000D01*
X101794888Y-122000000D02*
X105500000Y-122000000D01*
%TO.N,Net-(U1B-2IN-)*%
X122340000Y-135920000D02*
X122340000Y-137420000D01*
X154840000Y-120340000D02*
X148000000Y-113500000D01*
X124340000Y-139420000D02*
X147840000Y-139420000D01*
X142000000Y-113500000D02*
X148000000Y-113500000D01*
X154840000Y-132420000D02*
X154840000Y-120340000D01*
X147840000Y-139420000D02*
X154840000Y-132420000D01*
X108420000Y-135340000D02*
X110340000Y-133420000D01*
X110340000Y-133420000D02*
X119840000Y-133420000D01*
X108420000Y-137400000D02*
X108420000Y-136500000D01*
X119840000Y-133420000D02*
X122340000Y-135920000D01*
X92000000Y-134294888D02*
X97125112Y-139420000D01*
X108420000Y-136500000D02*
X108420000Y-135340000D01*
X122340000Y-137420000D02*
X124340000Y-139420000D01*
X106400000Y-139420000D02*
X108420000Y-137400000D01*
X97125112Y-139420000D02*
X106400000Y-139420000D01*
X136000000Y-119500000D02*
X142000000Y-113500000D01*
X130500000Y-119500000D02*
X136000000Y-119500000D01*
%TO.N,Net-(C7-Pad2)*%
X127000000Y-111000000D02*
X130500000Y-114500000D01*
X142500000Y-108500000D02*
X148000000Y-108500000D01*
X156840000Y-117340000D02*
X148000000Y-108500000D01*
X148840000Y-141420000D02*
X156840000Y-133420000D01*
X122340000Y-141420000D02*
X148840000Y-141420000D01*
X130500000Y-114500000D02*
X136000000Y-114500000D01*
X136000000Y-114500000D02*
X136500000Y-114500000D01*
X124500000Y-111000000D02*
X127000000Y-111000000D01*
X156840000Y-133420000D02*
X156840000Y-117340000D01*
X136500000Y-114500000D02*
X142500000Y-108500000D01*
X121340000Y-140420000D02*
X122340000Y-141420000D01*
%TO.N,Net-(C20-Pad1)*%
X127500000Y-54500000D02*
X127500000Y-59120000D01*
X119000000Y-70000000D02*
X127500000Y-61500000D01*
X127500000Y-61500000D02*
X127500000Y-54500000D01*
X105000000Y-70367677D02*
X118632323Y-70367677D01*
X127500000Y-59120000D02*
X130880000Y-62500000D01*
X118632323Y-70367677D02*
X119000000Y-70000000D01*
%TO.N,Net-(C20-Pad2)*%
X118632323Y-65367677D02*
X119000000Y-65000000D01*
X105000000Y-59092500D02*
X104592500Y-59092500D01*
X99342500Y-53842500D02*
X99342500Y-50850000D01*
X104592500Y-59092500D02*
X99342500Y-53842500D01*
X105000000Y-65367677D02*
X118632323Y-65367677D01*
X105000000Y-65367677D02*
X105000000Y-59092500D01*
X105000000Y-59092500D02*
X109142500Y-54950000D01*
%TO.N,Net-(J2-PadR)*%
X89260000Y-55000000D02*
X84840000Y-59420000D01*
X98840000Y-103420000D02*
X98840000Y-104580000D01*
X84840000Y-74920000D02*
X92340000Y-82420000D01*
X92340000Y-96920000D02*
X98840000Y-103420000D01*
X84840000Y-59420000D02*
X84840000Y-74920000D01*
X93200000Y-55000000D02*
X89260000Y-55000000D01*
X92340000Y-82420000D02*
X92340000Y-96920000D01*
%TO.N,Net-(J2-PadT)*%
X90340000Y-98420000D02*
X95340000Y-103420000D01*
X95340000Y-103420000D02*
X95340000Y-104500000D01*
X90340000Y-83840000D02*
X90340000Y-98420000D01*
X83400000Y-50900000D02*
X82340000Y-51960000D01*
X82340000Y-51960000D02*
X82340000Y-75840000D01*
X82340000Y-75840000D02*
X90340000Y-83840000D01*
%TO.N,Net-(R1-Pad1)*%
X95340000Y-94340000D02*
X95340000Y-90140000D01*
X97000000Y-89180000D02*
X96650000Y-88830000D01*
X107920000Y-94340000D02*
X108000000Y-94420000D01*
X95340000Y-90140000D02*
X96650000Y-88830000D01*
X95340000Y-94340000D02*
X107920000Y-94340000D01*
%TO.N,Net-(C22-Pad1)*%
X127420000Y-48920000D02*
X125340000Y-48920000D01*
X125340000Y-48920000D02*
X119760000Y-54500000D01*
X119760000Y-54500000D02*
X117500000Y-54500000D01*
%TO.N,Net-(U3B-2IN-)*%
X112340000Y-96840000D02*
X112340000Y-88050000D01*
X114420000Y-114920000D02*
X114420000Y-105580000D01*
X114340000Y-98840000D02*
X112340000Y-96840000D01*
X112340000Y-88050000D02*
X111540000Y-87250000D01*
X114340000Y-100000000D02*
X114340000Y-98840000D01*
X114420000Y-105580000D02*
X114340000Y-105500000D01*
X114340000Y-105500000D02*
X114340000Y-100000000D01*
%TO.N,Net-(U1B-2OUT)*%
X111180000Y-140420000D02*
X111180000Y-136720000D01*
X111180000Y-136720000D02*
X110960000Y-136500000D01*
%TO.N,Net-(U5-+)*%
X147220000Y-65040000D02*
X147840000Y-64420000D01*
X138500000Y-65040000D02*
X147220000Y-65040000D01*
%TO.N,Net-(R15-Pad2)*%
X124500000Y-100000000D02*
X126080000Y-100000000D01*
X135420000Y-93080000D02*
X142080000Y-86420000D01*
X142080000Y-86420000D02*
X147840000Y-86420000D01*
X133000000Y-93080000D02*
X135420000Y-93080000D01*
X126080000Y-100000000D02*
X133000000Y-93080000D01*
%TO.N,Net-(R17-Pad2)*%
X141840000Y-82920000D02*
X141840000Y-75420000D01*
X141840000Y-75420000D02*
X147840000Y-69420000D01*
X124760000Y-94500000D02*
X129840000Y-89420000D01*
X129840000Y-89420000D02*
X135340000Y-89420000D01*
X121500000Y-97580000D02*
X121500000Y-102500000D01*
X124580000Y-94500000D02*
X121500000Y-97580000D01*
X135340000Y-89420000D02*
X141840000Y-82920000D01*
X124580000Y-94500000D02*
X124760000Y-94500000D01*
X121500000Y-102500000D02*
X124500000Y-105500000D01*
%TO.N,VCC*%
X116620000Y-87250000D02*
X122250000Y-87250000D01*
X159340000Y-116420000D02*
X158840000Y-115920000D01*
X127340000Y-70920000D02*
X127340000Y-67420000D01*
X113840000Y-136840000D02*
X113500000Y-136500000D01*
X113840000Y-143420000D02*
X150340000Y-143420000D01*
X156340000Y-59920000D02*
X150840000Y-54420000D01*
X111840000Y-143420000D02*
X112840000Y-143420000D01*
X159340000Y-116420000D02*
X156340000Y-113420000D01*
X150340000Y-143420000D02*
X159340000Y-134420000D01*
X133840000Y-63420000D02*
X132220000Y-65040000D01*
X76500000Y-135000000D02*
X84920000Y-143420000D01*
X158840000Y-115920000D02*
X148840000Y-105920000D01*
X112840000Y-143420000D02*
X113840000Y-142420000D01*
X113840000Y-137250000D02*
X113840000Y-136840000D01*
X131250000Y-75000000D02*
X131250000Y-74830000D01*
X123569340Y-108420000D02*
X117840000Y-102690660D01*
X113840000Y-142420000D02*
X113840000Y-137250000D01*
X133840000Y-60420000D02*
X133840000Y-63420000D01*
X131250000Y-74830000D02*
X127340000Y-70920000D01*
X129720000Y-65040000D02*
X130880000Y-65040000D01*
X131340000Y-105957056D02*
X128877056Y-108420000D01*
X113500000Y-136500000D02*
X119380000Y-136500000D01*
X148840000Y-105920000D02*
X131340000Y-105920000D01*
X132220000Y-65040000D02*
X130880000Y-65040000D01*
X117840000Y-87250000D02*
X116620000Y-87250000D01*
X128877056Y-108420000D02*
X123569340Y-108420000D01*
X159340000Y-134420000D02*
X159340000Y-116420000D01*
X150840000Y-54420000D02*
X139840000Y-54420000D01*
X111840000Y-143420000D02*
X113840000Y-143420000D01*
X76500000Y-130827500D02*
X78287500Y-129040000D01*
X113840000Y-137250000D02*
X114590000Y-136500000D01*
X131340000Y-105920000D02*
X131340000Y-105957056D01*
X127340000Y-67420000D02*
X129720000Y-65040000D01*
X76500000Y-135000000D02*
X76500000Y-130827500D01*
X114590000Y-136500000D02*
X119380000Y-136500000D01*
X130880000Y-65040000D02*
X131000000Y-64920000D01*
X117840000Y-102690660D02*
X117840000Y-87250000D01*
X156340000Y-113420000D02*
X156340000Y-59920000D01*
X84920000Y-143420000D02*
X111840000Y-143420000D01*
X122250000Y-87250000D02*
X122500000Y-87000000D01*
X139840000Y-54420000D02*
X133840000Y-60420000D01*
%TO.N,Net-(U3B-2OUT)*%
X114420000Y-87590000D02*
X114080000Y-87250000D01*
X114420000Y-94500000D02*
X114420000Y-87590000D01*
%TO.N,-VCC*%
X64000000Y-131327500D02*
X65787500Y-129540000D01*
X71340000Y-87920000D02*
X83340000Y-87920000D01*
X105340000Y-106840000D02*
X105340000Y-101462944D01*
X108840000Y-115420000D02*
X109840000Y-116420000D01*
X88140000Y-92720000D02*
X88140000Y-103220000D01*
X59340000Y-99920000D02*
X71340000Y-87920000D01*
X61960000Y-129540000D02*
X59340000Y-126920000D01*
X105880000Y-128560000D02*
X105880000Y-127620000D01*
X88140000Y-103220000D02*
X92840000Y-107920000D01*
X108560000Y-79750000D02*
X109000000Y-79310000D01*
X99500000Y-83250000D02*
X103000000Y-79750000D01*
X105440000Y-129000000D02*
X105880000Y-128560000D01*
X105340000Y-101462944D02*
X110500000Y-96302944D01*
X109840000Y-116420000D02*
X109840000Y-111340000D01*
X97340000Y-107920000D02*
X104840000Y-115420000D01*
X110500000Y-92580000D02*
X107920000Y-90000000D01*
X103000000Y-79750000D02*
X108560000Y-79750000D01*
X104840000Y-115420000D02*
X108840000Y-115420000D01*
X107920000Y-90000000D02*
X101500000Y-90000000D01*
X105880000Y-127620000D02*
X108000000Y-125500000D01*
X109840000Y-111340000D02*
X105340000Y-106840000D01*
X92840000Y-107920000D02*
X97340000Y-107920000D01*
X108000000Y-125500000D02*
X109000000Y-125500000D01*
X109840000Y-124660000D02*
X109840000Y-116420000D01*
X64000000Y-134960000D02*
X64000000Y-131327500D01*
X99500000Y-88000000D02*
X99500000Y-83250000D01*
X109000000Y-125500000D02*
X109840000Y-124660000D01*
X65787500Y-129540000D02*
X61960000Y-129540000D01*
X101500000Y-90000000D02*
X99500000Y-88000000D01*
X101840000Y-129000000D02*
X105440000Y-129000000D01*
X110500000Y-96302944D02*
X110500000Y-92580000D01*
X83340000Y-87920000D02*
X88140000Y-92720000D01*
X59340000Y-126920000D02*
X59340000Y-99920000D01*
%TO.N,Net-(U3A-1OUT)*%
X124840000Y-76420000D02*
X131340000Y-82920000D01*
X119510000Y-76420000D02*
X124840000Y-76420000D01*
X131340000Y-82920000D02*
X133000000Y-82920000D01*
X116620000Y-79310000D02*
X119510000Y-76420000D01*
%TO.N,Net-(U1A-1OUT)*%
X114340000Y-127720000D02*
X113500000Y-128560000D01*
X114340000Y-127720000D02*
X114340000Y-120920000D01*
%TO.N,Net-(D3-A)*%
X61840000Y-118160000D02*
X61840000Y-125920000D01*
X85500000Y-95080000D02*
X85500000Y-107150000D01*
X61840000Y-125920000D02*
X62920000Y-127000000D01*
X73580000Y-90500000D02*
X69000000Y-95080000D01*
X85500000Y-94000000D02*
X82000000Y-90500000D01*
X85500000Y-107150000D02*
X90000000Y-111650000D01*
X62920000Y-127000000D02*
X65787500Y-127000000D01*
X63500000Y-106500000D02*
X63500000Y-116500000D01*
X63500000Y-116500000D02*
X61840000Y-118160000D01*
X85500000Y-95080000D02*
X85500000Y-94000000D01*
X82000000Y-90500000D02*
X73580000Y-90500000D01*
X63500000Y-100580000D02*
X69000000Y-95080000D01*
X63500000Y-106500000D02*
X63500000Y-100580000D01*
%TO.N,Net-(D1-A)*%
X56840000Y-80920000D02*
X65000000Y-80920000D01*
X65000000Y-80920000D02*
X69000000Y-84920000D01*
X74420000Y-84920000D02*
X74500000Y-85000000D01*
X69000000Y-84920000D02*
X74420000Y-84920000D01*
%TO.N,Net-(D2-A)*%
X54340000Y-79420000D02*
X56840000Y-76920000D01*
X80000000Y-84920000D02*
X85500000Y-84920000D01*
X56840000Y-90920000D02*
X54340000Y-88420000D01*
X72000000Y-76920000D02*
X80000000Y-84920000D01*
X56840000Y-76920000D02*
X72000000Y-76920000D01*
X54340000Y-88420000D02*
X54340000Y-79420000D01*
%TO.N,Net-(D1-K)*%
X89730000Y-117920000D02*
X96000000Y-111650000D01*
X81500000Y-106000000D02*
X81500000Y-115000000D01*
X81500000Y-120747500D02*
X78287500Y-123960000D01*
X81500000Y-115000000D02*
X81500000Y-120747500D01*
X81500000Y-115920000D02*
X83500000Y-117920000D01*
X81500000Y-96580000D02*
X80000000Y-95080000D01*
X74500000Y-95160000D02*
X79920000Y-95160000D01*
X79920000Y-95160000D02*
X80000000Y-95080000D01*
X83500000Y-117920000D02*
X89730000Y-117920000D01*
X81500000Y-115000000D02*
X81500000Y-115920000D01*
X81500000Y-106000000D02*
X81500000Y-96580000D01*
%TD*%
%TA.AperFunction,Conductor*%
%TO.N,GND*%
G36*
X148134006Y-45129729D02*
G01*
X148858937Y-45148100D01*
X148871523Y-45148738D01*
X149591445Y-45203562D01*
X149603989Y-45204837D01*
X150320256Y-45296061D01*
X150332668Y-45297963D01*
X151043379Y-45425345D01*
X151055696Y-45427875D01*
X151759068Y-45591096D01*
X151771218Y-45594242D01*
X152418858Y-45779555D01*
X152465406Y-45792874D01*
X152477443Y-45796651D01*
X153160626Y-46030170D01*
X153172456Y-46034551D01*
X153842970Y-46302387D01*
X153854517Y-46307341D01*
X154510642Y-46608813D01*
X154521917Y-46614343D01*
X155161913Y-46948650D01*
X155172912Y-46954755D01*
X155547284Y-47175135D01*
X155795124Y-47321031D01*
X155805830Y-47327704D01*
X155891559Y-47384204D01*
X156408700Y-47725028D01*
X156419033Y-47732220D01*
X157001008Y-48159572D01*
X157010939Y-48167258D01*
X157570541Y-48623555D01*
X157580103Y-48631764D01*
X158115843Y-49115787D01*
X158124987Y-49124478D01*
X158635521Y-49635012D01*
X158644212Y-49644156D01*
X159128235Y-50179896D01*
X159136447Y-50189461D01*
X159592737Y-50749055D01*
X159600431Y-50758996D01*
X160022606Y-51333921D01*
X160027771Y-51340955D01*
X160034978Y-51351309D01*
X160432295Y-51954169D01*
X160438968Y-51964875D01*
X160805235Y-52587071D01*
X160811358Y-52598102D01*
X161145651Y-53238073D01*
X161151194Y-53249373D01*
X161452649Y-53905463D01*
X161457615Y-53917036D01*
X161725448Y-54587543D01*
X161729829Y-54599373D01*
X161963348Y-55282556D01*
X161967125Y-55294593D01*
X162165749Y-55988750D01*
X162168911Y-56000963D01*
X162332120Y-56704287D01*
X162334659Y-56716644D01*
X162462030Y-57427296D01*
X162463941Y-57439767D01*
X162555161Y-58156009D01*
X162556437Y-58168560D01*
X162611260Y-58888469D01*
X162611899Y-58901068D01*
X162630270Y-59625993D01*
X162630350Y-59632301D01*
X162630350Y-133416848D01*
X162630270Y-133423156D01*
X162611899Y-134148081D01*
X162611260Y-134160680D01*
X162556437Y-134880589D01*
X162555161Y-134893140D01*
X162463941Y-135609382D01*
X162462030Y-135621853D01*
X162334659Y-136332505D01*
X162332120Y-136344862D01*
X162168911Y-137048186D01*
X162165749Y-137060399D01*
X161967125Y-137754556D01*
X161963348Y-137766593D01*
X161729829Y-138449776D01*
X161725448Y-138461606D01*
X161457615Y-139132113D01*
X161452642Y-139143700D01*
X161253969Y-139576098D01*
X161151207Y-139799750D01*
X161145651Y-139811076D01*
X160811358Y-140451047D01*
X160805235Y-140462078D01*
X160438968Y-141084274D01*
X160432295Y-141094980D01*
X160034978Y-141697840D01*
X160027771Y-141708194D01*
X159600445Y-142290135D01*
X159592723Y-142300112D01*
X159136453Y-142859681D01*
X159128235Y-142869253D01*
X158644212Y-143404993D01*
X158635521Y-143414137D01*
X158124987Y-143924671D01*
X158115843Y-143933362D01*
X157580103Y-144417385D01*
X157570531Y-144425603D01*
X157010962Y-144881873D01*
X157000985Y-144889595D01*
X156419044Y-145316921D01*
X156408690Y-145324128D01*
X155805830Y-145721445D01*
X155795124Y-145728118D01*
X155172928Y-146094385D01*
X155161897Y-146100508D01*
X154521926Y-146434801D01*
X154510610Y-146440351D01*
X153854557Y-146741790D01*
X153842963Y-146746765D01*
X153172456Y-147014598D01*
X153160626Y-147018979D01*
X152477443Y-147252498D01*
X152465406Y-147256275D01*
X151771249Y-147454899D01*
X151759036Y-147458061D01*
X151055712Y-147621270D01*
X151043355Y-147623809D01*
X150332703Y-147751180D01*
X150320232Y-147753091D01*
X149603990Y-147844311D01*
X149591439Y-147845587D01*
X148871530Y-147900410D01*
X148858931Y-147901049D01*
X148134007Y-147919420D01*
X148127699Y-147919500D01*
X63343151Y-147919500D01*
X63336843Y-147919420D01*
X62611918Y-147901049D01*
X62599319Y-147900410D01*
X61879410Y-147845587D01*
X61866859Y-147844311D01*
X61150617Y-147753091D01*
X61138146Y-147751180D01*
X60427494Y-147623809D01*
X60415137Y-147621270D01*
X59711813Y-147458061D01*
X59699600Y-147454899D01*
X59005443Y-147256275D01*
X58993406Y-147252498D01*
X58310223Y-147018979D01*
X58298393Y-147014598D01*
X57627886Y-146746765D01*
X57616313Y-146741799D01*
X56960223Y-146440344D01*
X56948923Y-146434801D01*
X56308952Y-146100508D01*
X56297921Y-146094385D01*
X55675725Y-145728118D01*
X55665019Y-145721445D01*
X55062159Y-145324128D01*
X55051805Y-145316921D01*
X54838995Y-145160652D01*
X54469846Y-144889581D01*
X54459905Y-144881887D01*
X53900311Y-144425597D01*
X53890746Y-144417385D01*
X53355006Y-143933362D01*
X53345862Y-143924671D01*
X52835328Y-143414137D01*
X52826637Y-143404993D01*
X52342614Y-142869253D01*
X52334396Y-142859681D01*
X51878108Y-142300089D01*
X51870422Y-142290158D01*
X51443070Y-141708183D01*
X51435871Y-141697840D01*
X51404696Y-141650538D01*
X51149891Y-141263915D01*
X51038554Y-141094980D01*
X51031881Y-141084274D01*
X50770816Y-140640790D01*
X50665605Y-140462062D01*
X50659500Y-140451063D01*
X50325193Y-139811067D01*
X50319663Y-139799792D01*
X50018191Y-139143667D01*
X50013234Y-139132113D01*
X49980238Y-139049510D01*
X49745401Y-138461606D01*
X49741020Y-138449776D01*
X49507501Y-137766593D01*
X49503724Y-137754556D01*
X49364332Y-137267404D01*
X49305092Y-137060368D01*
X49301946Y-137048218D01*
X49138725Y-136344846D01*
X49136195Y-136332529D01*
X49008813Y-135621818D01*
X49006911Y-135609406D01*
X48915687Y-134893139D01*
X48914412Y-134880589D01*
X48911638Y-134844168D01*
X48859588Y-134160673D01*
X48858950Y-134148081D01*
X48854718Y-133981091D01*
X48840580Y-133423156D01*
X48840500Y-133416848D01*
X48840500Y-79294028D01*
X52739500Y-79294028D01*
X52739500Y-88545971D01*
X52778909Y-88794782D01*
X52854273Y-89026730D01*
X52856759Y-89034379D01*
X52971130Y-89258845D01*
X53036430Y-89348723D01*
X53119207Y-89462656D01*
X53973933Y-90317382D01*
X54798888Y-91142337D01*
X54852864Y-91223119D01*
X54866128Y-91265478D01*
X54913996Y-91485526D01*
X54963949Y-91619454D01*
X55014082Y-91753866D01*
X55014084Y-91753870D01*
X55143435Y-91990760D01*
X55151340Y-92005236D01*
X55322973Y-92234511D01*
X55525489Y-92437027D01*
X55754764Y-92608660D01*
X56006132Y-92745917D01*
X56274474Y-92846004D01*
X56554329Y-92906882D01*
X56840000Y-92927314D01*
X57125671Y-92906882D01*
X57405526Y-92846004D01*
X57673868Y-92745917D01*
X57925236Y-92608660D01*
X58154511Y-92437027D01*
X58357027Y-92234511D01*
X58528660Y-92005236D01*
X58665917Y-91753868D01*
X58766004Y-91485526D01*
X58826882Y-91205671D01*
X58847314Y-90920000D01*
X58826882Y-90634329D01*
X58766004Y-90354474D01*
X58665917Y-90086132D01*
X58528660Y-89834764D01*
X58357027Y-89605489D01*
X58154511Y-89402973D01*
X57928314Y-89233644D01*
X57925235Y-89231339D01*
X57673870Y-89094084D01*
X57673866Y-89094082D01*
X57619507Y-89073807D01*
X57405526Y-88993996D01*
X57185478Y-88946128D01*
X57096396Y-88907352D01*
X57062337Y-88878888D01*
X56013430Y-87829981D01*
X55959454Y-87749199D01*
X55940500Y-87653911D01*
X55940500Y-83080065D01*
X55959454Y-82984777D01*
X56013430Y-82903995D01*
X56094212Y-82850019D01*
X56189500Y-82831065D01*
X56265560Y-82844792D01*
X56265941Y-82843498D01*
X56274467Y-82846001D01*
X56274474Y-82846004D01*
X56554329Y-82906882D01*
X56840000Y-82927314D01*
X57125671Y-82906882D01*
X57405526Y-82846004D01*
X57673868Y-82745917D01*
X57925236Y-82608660D01*
X57976659Y-82570164D01*
X58064300Y-82528235D01*
X58125879Y-82520500D01*
X64233911Y-82520500D01*
X64329199Y-82539454D01*
X64409981Y-82593430D01*
X66726570Y-84910019D01*
X66780546Y-84990801D01*
X66799500Y-85086089D01*
X66799500Y-86104046D01*
X66802311Y-86151241D01*
X66802314Y-86151259D01*
X66846986Y-86356610D01*
X66846988Y-86356617D01*
X66929718Y-86549807D01*
X66929721Y-86549813D01*
X66957209Y-86590426D01*
X66994921Y-86679957D01*
X67000000Y-86729991D01*
X67000000Y-89893411D01*
X66981046Y-89988699D01*
X66927070Y-90069481D01*
X58297344Y-98699207D01*
X58297343Y-98699206D01*
X58119209Y-98877341D01*
X58119206Y-98877345D01*
X57971134Y-99081148D01*
X57971131Y-99081153D01*
X57971130Y-99081155D01*
X57933258Y-99155483D01*
X57856757Y-99305625D01*
X57778909Y-99545217D01*
X57739500Y-99794028D01*
X57739500Y-127045971D01*
X57778909Y-127294782D01*
X57844959Y-127498064D01*
X57856759Y-127534379D01*
X57919516Y-127657546D01*
X57971134Y-127758852D01*
X58015719Y-127820217D01*
X58048293Y-127865051D01*
X58119207Y-127962656D01*
X59444389Y-129287837D01*
X60739204Y-130582652D01*
X60739204Y-130582653D01*
X60917337Y-130760787D01*
X60917348Y-130760796D01*
X61015989Y-130832463D01*
X61015990Y-130832463D01*
X61121156Y-130908871D01*
X61121160Y-130908873D01*
X61121159Y-130908873D01*
X61171004Y-130934270D01*
X61345622Y-131023242D01*
X61585216Y-131101091D01*
X61834038Y-131140500D01*
X62150500Y-131140500D01*
X62245788Y-131159454D01*
X62326570Y-131213430D01*
X62380546Y-131294212D01*
X62399500Y-131389500D01*
X62399500Y-133353904D01*
X62380546Y-133449192D01*
X62337710Y-133518078D01*
X62250480Y-133617546D01*
X62250478Y-133617548D01*
X62250477Y-133617550D01*
X62090226Y-133857382D01*
X62090216Y-133857399D01*
X61962646Y-134116084D01*
X61962639Y-134116103D01*
X61869920Y-134389239D01*
X61869919Y-134389246D01*
X61813645Y-134672150D01*
X61813643Y-134672162D01*
X61794778Y-134960000D01*
X61813643Y-135247837D01*
X61813645Y-135247849D01*
X61869919Y-135530753D01*
X61869920Y-135530760D01*
X61962639Y-135803896D01*
X61962646Y-135803915D01*
X62090216Y-136062600D01*
X62090219Y-136062606D01*
X62090222Y-136062611D01*
X62250480Y-136302454D01*
X62440673Y-136519327D01*
X62657546Y-136709520D01*
X62897389Y-136869778D01*
X62897398Y-136869782D01*
X62897399Y-136869783D01*
X63156084Y-136997353D01*
X63156091Y-136997355D01*
X63156098Y-136997359D01*
X63273916Y-137037353D01*
X63429239Y-137090079D01*
X63429242Y-137090079D01*
X63429247Y-137090081D01*
X63630331Y-137130079D01*
X63712150Y-137146354D01*
X63712155Y-137146354D01*
X63712161Y-137146356D01*
X64000000Y-137165222D01*
X64287839Y-137146356D01*
X64570753Y-137090081D01*
X64570758Y-137090079D01*
X64570760Y-137090079D01*
X64658193Y-137060399D01*
X64843902Y-136997359D01*
X64843911Y-136997354D01*
X64843915Y-136997353D01*
X64971134Y-136934614D01*
X65102611Y-136869778D01*
X65342454Y-136709520D01*
X65559327Y-136519327D01*
X65749520Y-136302454D01*
X65909778Y-136062611D01*
X66037359Y-135803902D01*
X66105392Y-135603482D01*
X66130079Y-135530760D01*
X66130079Y-135530758D01*
X66130081Y-135530753D01*
X66186356Y-135247839D01*
X66205222Y-134960000D01*
X66186356Y-134672161D01*
X66184657Y-134663622D01*
X66164171Y-134560631D01*
X66130081Y-134389247D01*
X66130079Y-134389242D01*
X66130079Y-134389239D01*
X66057086Y-134174212D01*
X66037359Y-134116098D01*
X66037355Y-134116091D01*
X66037353Y-134116084D01*
X65909783Y-133857399D01*
X65909782Y-133857398D01*
X65909778Y-133857389D01*
X65749520Y-133617546D01*
X65662289Y-133518078D01*
X65613714Y-133433942D01*
X65600500Y-133353904D01*
X65600500Y-132093589D01*
X65619454Y-131998301D01*
X65673430Y-131917519D01*
X66127519Y-131463430D01*
X66208301Y-131409454D01*
X66303589Y-131390500D01*
X67158788Y-131390500D01*
X67399289Y-131358838D01*
X67560775Y-131315567D01*
X67633582Y-131296059D01*
X67633584Y-131296058D01*
X67633600Y-131296054D01*
X67785266Y-131233231D01*
X67857701Y-131203229D01*
X67857706Y-131203226D01*
X67857712Y-131203224D01*
X68067789Y-131081936D01*
X68260238Y-130934265D01*
X68431765Y-130762738D01*
X68579436Y-130570289D01*
X68700724Y-130360212D01*
X68793554Y-130136100D01*
X68802528Y-130102611D01*
X68833065Y-129988645D01*
X68856338Y-129901789D01*
X68888000Y-129661288D01*
X68888000Y-129418712D01*
X68856338Y-129178211D01*
X68793554Y-128943900D01*
X68736277Y-128805621D01*
X68700729Y-128719798D01*
X68700721Y-128719782D01*
X68607806Y-128558849D01*
X68579436Y-128509711D01*
X68511808Y-128421576D01*
X68468841Y-128334446D01*
X68462486Y-128237499D01*
X68493716Y-128145500D01*
X68511801Y-128118431D01*
X68579436Y-128030289D01*
X68700724Y-127820212D01*
X68701944Y-127817268D01*
X68768102Y-127657546D01*
X68793554Y-127596100D01*
X68856338Y-127361789D01*
X68888000Y-127121288D01*
X68888000Y-126878712D01*
X68856338Y-126638211D01*
X68793554Y-126403900D01*
X68758594Y-126319500D01*
X68700729Y-126179798D01*
X68700721Y-126179782D01*
X68579441Y-125969720D01*
X68579435Y-125969710D01*
X68431770Y-125777268D01*
X68431761Y-125777258D01*
X68260241Y-125605738D01*
X68260231Y-125605729D01*
X68067789Y-125458064D01*
X68067779Y-125458058D01*
X67857717Y-125336778D01*
X67857701Y-125336770D01*
X67633605Y-125243948D01*
X67633603Y-125243947D01*
X67633600Y-125243946D01*
X67633596Y-125243945D01*
X67633582Y-125243940D01*
X67399295Y-125181163D01*
X67399290Y-125181162D01*
X67158788Y-125149500D01*
X64416212Y-125149500D01*
X64175709Y-125181162D01*
X64175704Y-125181163D01*
X63941417Y-125243940D01*
X63941407Y-125243943D01*
X63784787Y-125308817D01*
X63689498Y-125327770D01*
X63594210Y-125308815D01*
X63513429Y-125254838D01*
X63459453Y-125174057D01*
X63440500Y-125078770D01*
X63440500Y-118926087D01*
X63459454Y-118830799D01*
X63513428Y-118750019D01*
X64528463Y-117734983D01*
X64528468Y-117734980D01*
X64542654Y-117720793D01*
X64542656Y-117720793D01*
X64720793Y-117542656D01*
X64778927Y-117462641D01*
X64828376Y-117394581D01*
X64828377Y-117394579D01*
X64868870Y-117338845D01*
X64878727Y-117319500D01*
X64983242Y-117114378D01*
X65061091Y-116874784D01*
X65100500Y-116625962D01*
X65100500Y-116374038D01*
X65100500Y-108106095D01*
X65119454Y-108010807D01*
X65162292Y-107941918D01*
X65249520Y-107842454D01*
X65409778Y-107602611D01*
X65537359Y-107343902D01*
X65622401Y-107093377D01*
X65630079Y-107070760D01*
X65630079Y-107070758D01*
X65630081Y-107070753D01*
X65686356Y-106787839D01*
X65705222Y-106500000D01*
X65686356Y-106212161D01*
X65630081Y-105929247D01*
X65630079Y-105929242D01*
X65630079Y-105929239D01*
X65574715Y-105766144D01*
X65537359Y-105656098D01*
X65537355Y-105656091D01*
X65537353Y-105656084D01*
X65409783Y-105397399D01*
X65409782Y-105397398D01*
X65409778Y-105397389D01*
X65249520Y-105157546D01*
X65162289Y-105058078D01*
X65113714Y-104973942D01*
X65100500Y-104893904D01*
X65100500Y-101346088D01*
X65119454Y-101250800D01*
X65173428Y-101170020D01*
X68996046Y-97347401D01*
X69076825Y-97293428D01*
X69155825Y-97275008D01*
X69287839Y-97266356D01*
X69570753Y-97210081D01*
X69570758Y-97210079D01*
X69570769Y-97210077D01*
X69578638Y-97207969D01*
X69579149Y-97209878D01*
X69650471Y-97200484D01*
X69650471Y-97200000D01*
X69654146Y-97200000D01*
X69662724Y-97198870D01*
X69667572Y-97200000D01*
X69700000Y-97200000D01*
X72751182Y-97200000D01*
X72846470Y-97218954D01*
X72869758Y-97230095D01*
X72870185Y-97230278D01*
X72870187Y-97230279D01*
X72935151Y-97258098D01*
X73063382Y-97313011D01*
X73063385Y-97313012D01*
X73063388Y-97313013D01*
X73156338Y-97333233D01*
X73268740Y-97357685D01*
X73268745Y-97357685D01*
X73268755Y-97357688D01*
X73281629Y-97358454D01*
X73315954Y-97360500D01*
X73315962Y-97360500D01*
X75684046Y-97360500D01*
X75715509Y-97358625D01*
X75731245Y-97357688D01*
X75936612Y-97313013D01*
X76129813Y-97230279D01*
X76303865Y-97112477D01*
X76452477Y-96963865D01*
X76516052Y-96869932D01*
X76585159Y-96801644D01*
X76675138Y-96765000D01*
X76722261Y-96760500D01*
X77831885Y-96760500D01*
X77927173Y-96779454D01*
X78007955Y-96833430D01*
X78038094Y-96869934D01*
X78047523Y-96883865D01*
X78196135Y-97032477D01*
X78196138Y-97032479D01*
X78196140Y-97032481D01*
X78370179Y-97150274D01*
X78370181Y-97150275D01*
X78370187Y-97150279D01*
X78370192Y-97150281D01*
X78563382Y-97233011D01*
X78563385Y-97233012D01*
X78563388Y-97233013D01*
X78656338Y-97253233D01*
X78768740Y-97277685D01*
X78768745Y-97277685D01*
X78768755Y-97277688D01*
X78781629Y-97278454D01*
X78815954Y-97280500D01*
X78815962Y-97280500D01*
X79650500Y-97280500D01*
X79745788Y-97299454D01*
X79826570Y-97353430D01*
X79880546Y-97434212D01*
X79899500Y-97529500D01*
X79899500Y-103777739D01*
X79880546Y-103873027D01*
X79826570Y-103953809D01*
X79790067Y-103983948D01*
X79696137Y-104047521D01*
X79547518Y-104196140D01*
X79429725Y-104370179D01*
X79429718Y-104370192D01*
X79346988Y-104563382D01*
X79346986Y-104563389D01*
X79302314Y-104768740D01*
X79302311Y-104768758D01*
X79299500Y-104815953D01*
X79299500Y-107184046D01*
X79302311Y-107231241D01*
X79302314Y-107231259D01*
X79346986Y-107436610D01*
X79346988Y-107436617D01*
X79429718Y-107629807D01*
X79429725Y-107629820D01*
X79547518Y-107803859D01*
X79547520Y-107803861D01*
X79547523Y-107803865D01*
X79696135Y-107952477D01*
X79790067Y-108016052D01*
X79858355Y-108085156D01*
X79895000Y-108175135D01*
X79899500Y-108222260D01*
X79899500Y-119981411D01*
X79880546Y-120076699D01*
X79826570Y-120157481D01*
X77947481Y-122036570D01*
X77866699Y-122090546D01*
X77771411Y-122109500D01*
X76203454Y-122109500D01*
X76156258Y-122112311D01*
X76156240Y-122112314D01*
X75950889Y-122156986D01*
X75950882Y-122156988D01*
X75757692Y-122239718D01*
X75757679Y-122239725D01*
X75583640Y-122357518D01*
X75435018Y-122506140D01*
X75317225Y-122680179D01*
X75317218Y-122680192D01*
X75234488Y-122873382D01*
X75234486Y-122873389D01*
X75189814Y-123078740D01*
X75189811Y-123078758D01*
X75187000Y-123125953D01*
X75187000Y-124794046D01*
X75189811Y-124841241D01*
X75189814Y-124841259D01*
X75234486Y-125046610D01*
X75234488Y-125046617D01*
X75317218Y-125239807D01*
X75317225Y-125239820D01*
X75435018Y-125413859D01*
X75435020Y-125413861D01*
X75435023Y-125413865D01*
X75583635Y-125562477D01*
X75583638Y-125562479D01*
X75583640Y-125562481D01*
X75757679Y-125680274D01*
X75757681Y-125680275D01*
X75757687Y-125680279D01*
X75757692Y-125680281D01*
X75950882Y-125763011D01*
X75950885Y-125763012D01*
X75950888Y-125763013D01*
X76016417Y-125777268D01*
X76156240Y-125807685D01*
X76156245Y-125807685D01*
X76156255Y-125807688D01*
X76169129Y-125808454D01*
X76203454Y-125810500D01*
X76203462Y-125810500D01*
X80371546Y-125810500D01*
X80403009Y-125808625D01*
X80418745Y-125807688D01*
X80624112Y-125763013D01*
X80817313Y-125680279D01*
X80991365Y-125562477D01*
X81139977Y-125413865D01*
X81257779Y-125239813D01*
X81340513Y-125046612D01*
X81385188Y-124841245D01*
X81388000Y-124794038D01*
X81388000Y-123226088D01*
X81406954Y-123130800D01*
X81460930Y-123050018D01*
X82004813Y-122506135D01*
X82720793Y-121790156D01*
X82743542Y-121758844D01*
X82868870Y-121586345D01*
X82983241Y-121361879D01*
X83061090Y-121122285D01*
X83096709Y-120897399D01*
X83100499Y-120873471D01*
X83100500Y-120873459D01*
X83100500Y-119768338D01*
X83119454Y-119673050D01*
X83173430Y-119592268D01*
X83254212Y-119538292D01*
X83349500Y-119519338D01*
X83369049Y-119520107D01*
X83374037Y-119520499D01*
X83374038Y-119520500D01*
X83374039Y-119520500D01*
X89855959Y-119520500D01*
X89855962Y-119520500D01*
X89855965Y-119520499D01*
X89855971Y-119520499D01*
X89985393Y-119500000D01*
X90104785Y-119481090D01*
X90344379Y-119403241D01*
X90568845Y-119288870D01*
X90772656Y-119140793D01*
X90950793Y-118962656D01*
X95888802Y-114024645D01*
X95969581Y-113970672D01*
X96048581Y-113952251D01*
X96300920Y-113935713D01*
X96596691Y-113876880D01*
X96882252Y-113779945D01*
X96882261Y-113779940D01*
X96882265Y-113779939D01*
X97015267Y-113714349D01*
X97152718Y-113646566D01*
X97403461Y-113479025D01*
X97630189Y-113280189D01*
X97829025Y-113053461D01*
X97830456Y-113051318D01*
X97831371Y-113050403D01*
X97833990Y-113046991D01*
X97834438Y-113047335D01*
X97899145Y-112982618D01*
X97988901Y-112945430D01*
X98086056Y-112945421D01*
X98175819Y-112982592D01*
X98213570Y-113013571D01*
X98326982Y-113126982D01*
X98400000Y-113200000D01*
X100123732Y-113200000D01*
X100132982Y-113193819D01*
X100228270Y-113174863D01*
X100323559Y-113193815D01*
X100404341Y-113247790D01*
X103797344Y-116640793D01*
X103997551Y-116786252D01*
X104001152Y-116788868D01*
X104001151Y-116788868D01*
X104001153Y-116788869D01*
X104001156Y-116788871D01*
X104225622Y-116903242D01*
X104304892Y-116928998D01*
X104387365Y-116955795D01*
X104387369Y-116955795D01*
X104465215Y-116981090D01*
X104518309Y-116989499D01*
X104714028Y-117020499D01*
X104714035Y-117020499D01*
X104714038Y-117020500D01*
X107990500Y-117020500D01*
X108085788Y-117039454D01*
X108166570Y-117093430D01*
X108220546Y-117174212D01*
X108239500Y-117269500D01*
X108239500Y-123650500D01*
X108220546Y-123745788D01*
X108166570Y-123826570D01*
X108085788Y-123880546D01*
X107990500Y-123899500D01*
X107874028Y-123899500D01*
X107625225Y-123938907D01*
X107625216Y-123938909D01*
X107625215Y-123938910D01*
X107547367Y-123964204D01*
X107547364Y-123964204D01*
X107385629Y-124016755D01*
X107385621Y-124016758D01*
X107161146Y-124131134D01*
X107161135Y-124131141D01*
X107160364Y-124131702D01*
X107159786Y-124131968D01*
X107152805Y-124136246D01*
X107152298Y-124135419D01*
X107122301Y-124149244D01*
X107090049Y-124182791D01*
X106957344Y-124279207D01*
X104837344Y-126399207D01*
X104837343Y-126399206D01*
X104659209Y-126577341D01*
X104659206Y-126577345D01*
X104511134Y-126781148D01*
X104511131Y-126781153D01*
X104511130Y-126781155D01*
X104418658Y-126962641D01*
X104396757Y-127005625D01*
X104324684Y-127227445D01*
X104277212Y-127312212D01*
X104200915Y-127372360D01*
X104107408Y-127398732D01*
X104087871Y-127399500D01*
X103446096Y-127399500D01*
X103350808Y-127380546D01*
X103281919Y-127337709D01*
X103182454Y-127250480D01*
X103182452Y-127250478D01*
X103182449Y-127250476D01*
X102942617Y-127090226D01*
X102942616Y-127090225D01*
X102942611Y-127090222D01*
X102942606Y-127090219D01*
X102942600Y-127090216D01*
X102683915Y-126962646D01*
X102683903Y-126962641D01*
X102683902Y-126962641D01*
X102676794Y-126960228D01*
X102410760Y-126869920D01*
X102410753Y-126869919D01*
X102127849Y-126813645D01*
X102127837Y-126813643D01*
X101840000Y-126794778D01*
X101552162Y-126813643D01*
X101552150Y-126813645D01*
X101269246Y-126869919D01*
X101269239Y-126869920D01*
X100996103Y-126962639D01*
X100996084Y-126962646D01*
X100737399Y-127090216D01*
X100737382Y-127090226D01*
X100497545Y-127250480D01*
X100280674Y-127440672D01*
X100280672Y-127440674D01*
X100090480Y-127657545D01*
X99930226Y-127897382D01*
X99930216Y-127897399D01*
X99802646Y-128156084D01*
X99802639Y-128156103D01*
X99709920Y-128429239D01*
X99709919Y-128429246D01*
X99653645Y-128712150D01*
X99653643Y-128712162D01*
X99634778Y-129000000D01*
X99653643Y-129287837D01*
X99653645Y-129287849D01*
X99709919Y-129570753D01*
X99709920Y-129570760D01*
X99802639Y-129843896D01*
X99802646Y-129843915D01*
X99930216Y-130102600D01*
X99930219Y-130102606D01*
X99930222Y-130102611D01*
X100090480Y-130342454D01*
X100280673Y-130559327D01*
X100497546Y-130749520D01*
X100737389Y-130909778D01*
X100737398Y-130909782D01*
X100737399Y-130909783D01*
X100996084Y-131037353D01*
X100996091Y-131037355D01*
X100996098Y-131037359D01*
X101127414Y-131081935D01*
X101269239Y-131130079D01*
X101269242Y-131130079D01*
X101269247Y-131130081D01*
X101498369Y-131175656D01*
X101552150Y-131186354D01*
X101552155Y-131186354D01*
X101552161Y-131186356D01*
X101840000Y-131205222D01*
X102127839Y-131186356D01*
X102410753Y-131130081D01*
X102410758Y-131130079D01*
X102410760Y-131130079D01*
X102496154Y-131101091D01*
X102683902Y-131037359D01*
X102683911Y-131037354D01*
X102683915Y-131037353D01*
X102892964Y-130934261D01*
X102942611Y-130909778D01*
X103182454Y-130749520D01*
X103281919Y-130662290D01*
X103366058Y-130613714D01*
X103446096Y-130600500D01*
X105565959Y-130600500D01*
X105565962Y-130600500D01*
X105565965Y-130600499D01*
X105565971Y-130600499D01*
X105814779Y-130561091D01*
X105814779Y-130561090D01*
X105814785Y-130561090D01*
X105947478Y-130517974D01*
X106006656Y-130506422D01*
X106158294Y-130495578D01*
X106355322Y-130452717D01*
X106430910Y-130436274D01*
X106430911Y-130436273D01*
X106430923Y-130436271D01*
X106692337Y-130338769D01*
X106937213Y-130205056D01*
X107160568Y-130037855D01*
X107357855Y-129840568D01*
X107525056Y-129617213D01*
X107658769Y-129372337D01*
X107756271Y-129110923D01*
X107815578Y-128838294D01*
X107835482Y-128560000D01*
X107827297Y-128445563D01*
X107839405Y-128349168D01*
X107887481Y-128264742D01*
X107964206Y-128205140D01*
X108057899Y-128179436D01*
X108154297Y-128191544D01*
X108238723Y-128239620D01*
X108251718Y-128251718D01*
X108500000Y-128500000D01*
X108500001Y-128500000D01*
X108768400Y-128500000D01*
X108863688Y-128518954D01*
X108944470Y-128572930D01*
X108998446Y-128653712D01*
X109016764Y-128731231D01*
X109024422Y-128838294D01*
X109024423Y-128838301D01*
X109024423Y-128838302D01*
X109083725Y-129110910D01*
X109083727Y-129110918D01*
X109083729Y-129110923D01*
X109181231Y-129372337D01*
X109272484Y-129539454D01*
X109314945Y-129617215D01*
X109482140Y-129840562D01*
X109482142Y-129840564D01*
X109482145Y-129840568D01*
X109679432Y-130037855D01*
X109679435Y-130037857D01*
X109679437Y-130037859D01*
X109810672Y-130136100D01*
X109902787Y-130205056D01*
X110147663Y-130338769D01*
X110409077Y-130436271D01*
X110409086Y-130436273D01*
X110409089Y-130436274D01*
X110541486Y-130465075D01*
X110681706Y-130495578D01*
X110960000Y-130515482D01*
X111238294Y-130495578D01*
X111435322Y-130452717D01*
X111510910Y-130436274D01*
X111510911Y-130436273D01*
X111510923Y-130436271D01*
X111772337Y-130338769D01*
X111797705Y-130324916D01*
X111890419Y-130295883D01*
X111987188Y-130304541D01*
X112056606Y-130337246D01*
X112120187Y-130380279D01*
X112158568Y-130396714D01*
X112313382Y-130463011D01*
X112313385Y-130463012D01*
X112313388Y-130463013D01*
X112406338Y-130483233D01*
X112518740Y-130507685D01*
X112518745Y-130507685D01*
X112518755Y-130507688D01*
X112531629Y-130508454D01*
X112565954Y-130510500D01*
X112565962Y-130510500D01*
X114434046Y-130510500D01*
X114466119Y-130508589D01*
X114481245Y-130507688D01*
X114686612Y-130463013D01*
X114879813Y-130380279D01*
X115053865Y-130262477D01*
X115202477Y-130113865D01*
X115320279Y-129939813D01*
X115403013Y-129746612D01*
X115447688Y-129541245D01*
X115450500Y-129494038D01*
X115450500Y-128976088D01*
X115469454Y-128880800D01*
X115523427Y-128800021D01*
X115560793Y-128762656D01*
X115708870Y-128558845D01*
X115721336Y-128534379D01*
X115823241Y-128334379D01*
X115901090Y-128094785D01*
X115940500Y-127845962D01*
X115940500Y-125549000D01*
X115959454Y-125453712D01*
X116013430Y-125372930D01*
X116094212Y-125318954D01*
X116189500Y-125300000D01*
X120963219Y-125300000D01*
X121058507Y-125318954D01*
X121076262Y-125327139D01*
X121095164Y-125336770D01*
X121225621Y-125403241D01*
X121465215Y-125481090D01*
X121552729Y-125494951D01*
X121714028Y-125520499D01*
X121714035Y-125520499D01*
X121714038Y-125520500D01*
X121714041Y-125520500D01*
X144965959Y-125520500D01*
X144965962Y-125520500D01*
X144965965Y-125520499D01*
X144965971Y-125520499D01*
X145083513Y-125501881D01*
X145214785Y-125481090D01*
X145454379Y-125403241D01*
X145678845Y-125288870D01*
X145882656Y-125140793D01*
X146060793Y-124962656D01*
X146930019Y-124093430D01*
X147010801Y-124039454D01*
X147106089Y-124020500D01*
X148990500Y-124020500D01*
X149085788Y-124039454D01*
X149166570Y-124093430D01*
X149220546Y-124174212D01*
X149239500Y-124269500D01*
X149239500Y-125653911D01*
X149220546Y-125749199D01*
X149166570Y-125829981D01*
X148749981Y-126246570D01*
X148669199Y-126300546D01*
X148573911Y-126319500D01*
X123714028Y-126319500D01*
X123465217Y-126358909D01*
X123225625Y-126436757D01*
X123225620Y-126436759D01*
X123034032Y-126534378D01*
X123001159Y-126551127D01*
X123001151Y-126551132D01*
X122797350Y-126699201D01*
X121297344Y-128199207D01*
X121297343Y-128199206D01*
X121119209Y-128377341D01*
X121119206Y-128377345D01*
X120971134Y-128581148D01*
X120971131Y-128581153D01*
X120971130Y-128581155D01*
X120878654Y-128762649D01*
X120856757Y-128805625D01*
X120778909Y-129045217D01*
X120739500Y-129294028D01*
X120739500Y-131686681D01*
X120720546Y-131781969D01*
X120666570Y-131862751D01*
X120585788Y-131916727D01*
X120490500Y-131935681D01*
X120413555Y-131923494D01*
X120214782Y-131858909D01*
X119965971Y-131819500D01*
X119965962Y-131819500D01*
X110214038Y-131819500D01*
X110214028Y-131819500D01*
X109965217Y-131858909D01*
X109725625Y-131936757D01*
X109725621Y-131936758D01*
X109725621Y-131936759D01*
X109501155Y-132051130D01*
X109501153Y-132051131D01*
X109501148Y-132051134D01*
X109442715Y-132093589D01*
X109370225Y-132146256D01*
X109370224Y-132146257D01*
X109297348Y-132199203D01*
X107377344Y-134119207D01*
X107377343Y-134119206D01*
X107199209Y-134297341D01*
X107199206Y-134297345D01*
X107051134Y-134501148D01*
X107051131Y-134501153D01*
X107051130Y-134501155D01*
X106964857Y-134670476D01*
X106936757Y-134725625D01*
X106858909Y-134965217D01*
X106819500Y-135214028D01*
X106819500Y-135300391D01*
X106800546Y-135395679D01*
X106778481Y-135434483D01*
X106779754Y-135435302D01*
X106774948Y-135442779D01*
X106641230Y-135687665D01*
X106543729Y-135949078D01*
X106543725Y-135949089D01*
X106484423Y-136221697D01*
X106484422Y-136221703D01*
X106484422Y-136221706D01*
X106475786Y-136342454D01*
X106464518Y-136500000D01*
X106484422Y-136778297D01*
X106508020Y-136886773D01*
X106509754Y-136983912D01*
X106474182Y-137074321D01*
X106440780Y-137115770D01*
X105809982Y-137746569D01*
X105729200Y-137800546D01*
X105633912Y-137819500D01*
X97891201Y-137819500D01*
X97795913Y-137800546D01*
X97715131Y-137746570D01*
X93908098Y-133939537D01*
X93854122Y-133858755D01*
X93840859Y-133816399D01*
X93828175Y-133758087D01*
X93733172Y-133503375D01*
X93708034Y-133457337D01*
X93679005Y-133364625D01*
X93687665Y-133267857D01*
X93720367Y-133198444D01*
X93770279Y-133124701D01*
X93853013Y-132931500D01*
X93897688Y-132726133D01*
X93899542Y-132695007D01*
X93900500Y-132678934D01*
X93900500Y-132260977D01*
X93919454Y-132165689D01*
X93973430Y-132084907D01*
X102384907Y-123673430D01*
X102465689Y-123619454D01*
X102560977Y-123600500D01*
X103893904Y-123600500D01*
X103989192Y-123619454D01*
X104058080Y-123662290D01*
X104157546Y-123749520D01*
X104157548Y-123749521D01*
X104157550Y-123749523D01*
X104194647Y-123774310D01*
X104397389Y-123909778D01*
X104397398Y-123909782D01*
X104397399Y-123909783D01*
X104656084Y-124037353D01*
X104656091Y-124037355D01*
X104656098Y-124037359D01*
X104790401Y-124082949D01*
X104929239Y-124130079D01*
X104929242Y-124130079D01*
X104929247Y-124130081D01*
X105151109Y-124174212D01*
X105212150Y-124186354D01*
X105212155Y-124186354D01*
X105212161Y-124186356D01*
X105500000Y-124205222D01*
X105787839Y-124186356D01*
X106070753Y-124130081D01*
X106070758Y-124130079D01*
X106070760Y-124130079D01*
X106143482Y-124105392D01*
X106343902Y-124037359D01*
X106343911Y-124037354D01*
X106343915Y-124037353D01*
X106543543Y-123938907D01*
X106602611Y-123909778D01*
X106805356Y-123774307D01*
X106833213Y-123762769D01*
X106849845Y-123743037D01*
X107059327Y-123559327D01*
X107249520Y-123342454D01*
X107409778Y-123102611D01*
X107537359Y-122843902D01*
X107630081Y-122570753D01*
X107686356Y-122287839D01*
X107705222Y-122000000D01*
X107686356Y-121712161D01*
X107630081Y-121429247D01*
X107630079Y-121429242D01*
X107630079Y-121429239D01*
X107554926Y-121207849D01*
X107537359Y-121156098D01*
X107537355Y-121156091D01*
X107537353Y-121156084D01*
X107409783Y-120897399D01*
X107409782Y-120897398D01*
X107409778Y-120897389D01*
X107249520Y-120657546D01*
X107059327Y-120440673D01*
X106842454Y-120250480D01*
X106602611Y-120090222D01*
X106602606Y-120090219D01*
X106602600Y-120090216D01*
X106343915Y-119962646D01*
X106343903Y-119962641D01*
X106343902Y-119962641D01*
X106336794Y-119960228D01*
X106070760Y-119869920D01*
X106070753Y-119869919D01*
X105787849Y-119813645D01*
X105787837Y-119813643D01*
X105500000Y-119794778D01*
X105212162Y-119813643D01*
X105212150Y-119813645D01*
X104929246Y-119869919D01*
X104929239Y-119869920D01*
X104656103Y-119962639D01*
X104656084Y-119962646D01*
X104397399Y-120090216D01*
X104397382Y-120090226D01*
X104157550Y-120250476D01*
X104058081Y-120337709D01*
X103973942Y-120386286D01*
X103893904Y-120399500D01*
X101668916Y-120399500D01*
X101420105Y-120438909D01*
X101180513Y-120516757D01*
X101180509Y-120516758D01*
X101180509Y-120516759D01*
X100956043Y-120631130D01*
X100956041Y-120631131D01*
X100956036Y-120631134D01*
X100752235Y-120779204D01*
X91709981Y-129821458D01*
X91629199Y-129875434D01*
X91533911Y-129894388D01*
X91115954Y-129894388D01*
X91068758Y-129897199D01*
X91068740Y-129897202D01*
X90863389Y-129941874D01*
X90863382Y-129941876D01*
X90670192Y-130024606D01*
X90670179Y-130024613D01*
X90496140Y-130142406D01*
X90347518Y-130291028D01*
X90229725Y-130465067D01*
X90229718Y-130465080D01*
X90146988Y-130658270D01*
X90146986Y-130658277D01*
X90102314Y-130863628D01*
X90102311Y-130863646D01*
X90099500Y-130910841D01*
X90099500Y-132678934D01*
X90102311Y-132726129D01*
X90102314Y-132726147D01*
X90146986Y-132931498D01*
X90146988Y-132931505D01*
X90229718Y-133124695D01*
X90229725Y-133124708D01*
X90279630Y-133198442D01*
X90317343Y-133287978D01*
X90317921Y-133385132D01*
X90291965Y-133457338D01*
X90266828Y-133503373D01*
X90209325Y-133657546D01*
X90171825Y-133758087D01*
X90150221Y-133857399D01*
X90114039Y-134023726D01*
X90094645Y-134294888D01*
X90113651Y-134560631D01*
X90114039Y-134566048D01*
X90171825Y-134831689D01*
X90205947Y-134923173D01*
X90266827Y-135086399D01*
X90266829Y-135086403D01*
X90354985Y-135247849D01*
X90397113Y-135325001D01*
X90560029Y-135542630D01*
X90752258Y-135734859D01*
X90844505Y-135803915D01*
X90969886Y-135897774D01*
X90969885Y-135897774D01*
X90969887Y-135897775D01*
X91208487Y-136028060D01*
X91463199Y-136123063D01*
X91521508Y-136135747D01*
X91610588Y-136174521D01*
X91644649Y-136202986D01*
X95904319Y-140462656D01*
X95904318Y-140462656D01*
X96082453Y-140640790D01*
X96082456Y-140640793D01*
X96286267Y-140788870D01*
X96510733Y-140903241D01*
X96750327Y-140981090D01*
X96837841Y-140994951D01*
X96999140Y-141020499D01*
X96999147Y-141020499D01*
X96999150Y-141020500D01*
X96999153Y-141020500D01*
X106525959Y-141020500D01*
X106525962Y-141020500D01*
X106525965Y-141020499D01*
X106525971Y-141020499D01*
X106643513Y-141001881D01*
X106774785Y-140981090D01*
X107014379Y-140903241D01*
X107238845Y-140788870D01*
X107442656Y-140640793D01*
X107620793Y-140462656D01*
X108713997Y-139369451D01*
X108794776Y-139315478D01*
X108890064Y-139296524D01*
X108985352Y-139315478D01*
X109066134Y-139369454D01*
X109120110Y-139450236D01*
X109139064Y-139545524D01*
X109125850Y-139625563D01*
X109049918Y-139849249D01*
X108993645Y-140132150D01*
X108993643Y-140132162D01*
X108974778Y-140420000D01*
X108993643Y-140707837D01*
X108993645Y-140707849D01*
X109049919Y-140990753D01*
X109049920Y-140990760D01*
X109142639Y-141263896D01*
X109142646Y-141263915D01*
X109239528Y-141460370D01*
X109264674Y-141554214D01*
X109251993Y-141650538D01*
X109203415Y-141734677D01*
X109126337Y-141793821D01*
X109032493Y-141818967D01*
X109016207Y-141819500D01*
X85686089Y-141819500D01*
X85590801Y-141800546D01*
X85510019Y-141746570D01*
X78767404Y-135003955D01*
X78713428Y-134923173D01*
X78695007Y-134844172D01*
X78686356Y-134712161D01*
X78686354Y-134712150D01*
X78686354Y-134712148D01*
X78658178Y-134570500D01*
X78630081Y-134429247D01*
X78630079Y-134429242D01*
X78630079Y-134429239D01*
X78563682Y-134233644D01*
X78537359Y-134156098D01*
X78537355Y-134156091D01*
X78537353Y-134156084D01*
X78409783Y-133897399D01*
X78409782Y-133897398D01*
X78409778Y-133897389D01*
X78249520Y-133657546D01*
X78162289Y-133558078D01*
X78113714Y-133473942D01*
X78100500Y-133393904D01*
X78100500Y-131593589D01*
X78119454Y-131498301D01*
X78173430Y-131417519D01*
X78627519Y-130963430D01*
X78708301Y-130909454D01*
X78803589Y-130890500D01*
X79658788Y-130890500D01*
X79899289Y-130858838D01*
X80116836Y-130800546D01*
X80133582Y-130796059D01*
X80133584Y-130796058D01*
X80133600Y-130796054D01*
X80285266Y-130733231D01*
X80357701Y-130703229D01*
X80357706Y-130703226D01*
X80357712Y-130703224D01*
X80567789Y-130581936D01*
X80760238Y-130434265D01*
X80931765Y-130262738D01*
X81079436Y-130070289D01*
X81200724Y-129860212D01*
X81205145Y-129849540D01*
X81247776Y-129746617D01*
X81293554Y-129636100D01*
X81304988Y-129593430D01*
X81318967Y-129541259D01*
X81356338Y-129401789D01*
X81388000Y-129161288D01*
X81388000Y-128918712D01*
X81356338Y-128678211D01*
X81306044Y-128490512D01*
X81293559Y-128443917D01*
X81293557Y-128443911D01*
X81293554Y-128443900D01*
X81241099Y-128317262D01*
X81200729Y-128219798D01*
X81200721Y-128219782D01*
X81079441Y-128009720D01*
X81079435Y-128009710D01*
X81078949Y-128009077D01*
X80993256Y-127897399D01*
X80931770Y-127817268D01*
X80931761Y-127817258D01*
X80760241Y-127645738D01*
X80760231Y-127645729D01*
X80567789Y-127498064D01*
X80567779Y-127498058D01*
X80357717Y-127376778D01*
X80357701Y-127376770D01*
X80133605Y-127283948D01*
X80133603Y-127283947D01*
X80133600Y-127283946D01*
X80133596Y-127283945D01*
X80133582Y-127283940D01*
X79899295Y-127221163D01*
X79899290Y-127221162D01*
X79658788Y-127189500D01*
X76916212Y-127189500D01*
X76675709Y-127221162D01*
X76675704Y-127221163D01*
X76441417Y-127283940D01*
X76441394Y-127283948D01*
X76217298Y-127376770D01*
X76217282Y-127376778D01*
X76007220Y-127498058D01*
X76007210Y-127498064D01*
X75814768Y-127645729D01*
X75814758Y-127645738D01*
X75643238Y-127817258D01*
X75643229Y-127817268D01*
X75495564Y-128009710D01*
X75495558Y-128009720D01*
X75374278Y-128219782D01*
X75374270Y-128219798D01*
X75281448Y-128443894D01*
X75281440Y-128443917D01*
X75218663Y-128678204D01*
X75218662Y-128678209D01*
X75187000Y-128918712D01*
X75187000Y-129161287D01*
X75214784Y-129372337D01*
X75218662Y-129401789D01*
X75256033Y-129541259D01*
X75279221Y-129627796D01*
X75285575Y-129724743D01*
X75254345Y-129816742D01*
X75240150Y-129838600D01*
X75131136Y-129988645D01*
X75131135Y-129988645D01*
X75016757Y-130213125D01*
X74938909Y-130452717D01*
X74899500Y-130701528D01*
X74899500Y-133393904D01*
X74880546Y-133489192D01*
X74837710Y-133558078D01*
X74750480Y-133657546D01*
X74750478Y-133657548D01*
X74750477Y-133657550D01*
X74590226Y-133897382D01*
X74590216Y-133897399D01*
X74462646Y-134156084D01*
X74462639Y-134156103D01*
X74369920Y-134429239D01*
X74369919Y-134429246D01*
X74313645Y-134712150D01*
X74313643Y-134712162D01*
X74294778Y-135000000D01*
X74313643Y-135287837D01*
X74313645Y-135287849D01*
X74369919Y-135570753D01*
X74369920Y-135570760D01*
X74462639Y-135843896D01*
X74462646Y-135843915D01*
X74590216Y-136102600D01*
X74590219Y-136102606D01*
X74590222Y-136102611D01*
X74750480Y-136342454D01*
X74940673Y-136559327D01*
X75157546Y-136749520D01*
X75397389Y-136909778D01*
X75397398Y-136909782D01*
X75397399Y-136909783D01*
X75656084Y-137037353D01*
X75656091Y-137037355D01*
X75656098Y-137037359D01*
X75764984Y-137074321D01*
X75929239Y-137130079D01*
X75929242Y-137130079D01*
X75929247Y-137130081D01*
X76092647Y-137162583D01*
X76212148Y-137186354D01*
X76212153Y-137186354D01*
X76212161Y-137186356D01*
X76344171Y-137195007D01*
X76438013Y-137220152D01*
X76503955Y-137267404D01*
X83699207Y-144462656D01*
X83699206Y-144462656D01*
X83877341Y-144640790D01*
X83877344Y-144640793D01*
X84081155Y-144788870D01*
X84305621Y-144903241D01*
X84545215Y-144981090D01*
X84632729Y-144994951D01*
X84794028Y-145020499D01*
X84794035Y-145020499D01*
X84794038Y-145020500D01*
X84794041Y-145020500D01*
X150465959Y-145020500D01*
X150465962Y-145020500D01*
X150465965Y-145020499D01*
X150465971Y-145020499D01*
X150583513Y-145001881D01*
X150714785Y-144981090D01*
X150954379Y-144903241D01*
X151178845Y-144788870D01*
X151382656Y-144640793D01*
X151560793Y-144462656D01*
X160560793Y-135462656D01*
X160622034Y-135378365D01*
X160708870Y-135258845D01*
X160823241Y-135034379D01*
X160901090Y-134794785D01*
X160940500Y-134545962D01*
X160940500Y-116294038D01*
X160940499Y-116294035D01*
X160940499Y-116294028D01*
X160901090Y-116045217D01*
X160901090Y-116045215D01*
X160874265Y-115962656D01*
X160823242Y-115805622D01*
X160708871Y-115581156D01*
X160708869Y-115581153D01*
X160708868Y-115581151D01*
X160560795Y-115377347D01*
X160560793Y-115377344D01*
X158013430Y-112829981D01*
X157959454Y-112749199D01*
X157940500Y-112653911D01*
X157940500Y-59794042D01*
X157940500Y-59794038D01*
X157931051Y-59734378D01*
X157901091Y-59545216D01*
X157823242Y-59305622D01*
X157708871Y-59081156D01*
X157560793Y-58877344D01*
X151882656Y-53199207D01*
X151872394Y-53191751D01*
X151803568Y-53141746D01*
X151803566Y-53141745D01*
X151734004Y-53091205D01*
X151678851Y-53051134D01*
X151678849Y-53051133D01*
X151678845Y-53051130D01*
X151454379Y-52936759D01*
X151454376Y-52936758D01*
X151454374Y-52936757D01*
X151214782Y-52858909D01*
X150965971Y-52819500D01*
X150965962Y-52819500D01*
X139714038Y-52819500D01*
X139714028Y-52819500D01*
X139465217Y-52858909D01*
X139225625Y-52936757D01*
X139225621Y-52936758D01*
X139225621Y-52936759D01*
X139132831Y-52984038D01*
X139001155Y-53051130D01*
X139001153Y-53051131D01*
X139001148Y-53051134D01*
X138797350Y-53199201D01*
X132769481Y-59227070D01*
X132688699Y-59281046D01*
X132593411Y-59300000D01*
X130046589Y-59300000D01*
X129951301Y-59281046D01*
X129870519Y-59227070D01*
X129173430Y-58529981D01*
X129119454Y-58449199D01*
X129100500Y-58353911D01*
X129100500Y-56106095D01*
X129119454Y-56010807D01*
X129162292Y-55941918D01*
X129249520Y-55842454D01*
X129409778Y-55602611D01*
X129537359Y-55343902D01*
X129630081Y-55070753D01*
X129686356Y-54787839D01*
X129705222Y-54500000D01*
X129686356Y-54212161D01*
X129630081Y-53929247D01*
X129630079Y-53929242D01*
X129630079Y-53929239D01*
X129569235Y-53750001D01*
X129537359Y-53656098D01*
X129537355Y-53656091D01*
X129537353Y-53656084D01*
X129409783Y-53397399D01*
X129409782Y-53397398D01*
X129409778Y-53397389D01*
X129249520Y-53157546D01*
X129059327Y-52940673D01*
X128842454Y-52750480D01*
X128602611Y-52590222D01*
X128602606Y-52590219D01*
X128602600Y-52590216D01*
X128343915Y-52462646D01*
X128343903Y-52462641D01*
X128343902Y-52462641D01*
X128336794Y-52460228D01*
X128070760Y-52369920D01*
X128070753Y-52369919D01*
X127787849Y-52313645D01*
X127787837Y-52313643D01*
X127500000Y-52294778D01*
X127212162Y-52313643D01*
X127212150Y-52313645D01*
X126929246Y-52369919D01*
X126929239Y-52369920D01*
X126656103Y-52462639D01*
X126656084Y-52462646D01*
X126397399Y-52590216D01*
X126397382Y-52590226D01*
X126157545Y-52750480D01*
X125940674Y-52940672D01*
X125940672Y-52940674D01*
X125750480Y-53157545D01*
X125590226Y-53397382D01*
X125590216Y-53397399D01*
X125462646Y-53656084D01*
X125462639Y-53656103D01*
X125369920Y-53929239D01*
X125369919Y-53929246D01*
X125313645Y-54212150D01*
X125313643Y-54212162D01*
X125294778Y-54500000D01*
X125313643Y-54787837D01*
X125313645Y-54787849D01*
X125369919Y-55070753D01*
X125369920Y-55070760D01*
X125462639Y-55343896D01*
X125462646Y-55343915D01*
X125590216Y-55602600D01*
X125590226Y-55602617D01*
X125750479Y-55842453D01*
X125837708Y-55941918D01*
X125886285Y-56026056D01*
X125899500Y-56106095D01*
X125899500Y-60733910D01*
X125880546Y-60829198D01*
X125826570Y-60909980D01*
X121720549Y-65016001D01*
X121639767Y-65069977D01*
X121544479Y-65088931D01*
X121449191Y-65069977D01*
X121368409Y-65016001D01*
X121314433Y-64935219D01*
X121296012Y-64856216D01*
X121285713Y-64699081D01*
X121285711Y-64699069D01*
X121226880Y-64403310D01*
X121226878Y-64403302D01*
X121162947Y-64214969D01*
X121129945Y-64117748D01*
X121129941Y-64117741D01*
X121129939Y-64117734D01*
X120996571Y-63847292D01*
X120996570Y-63847291D01*
X120996566Y-63847282D01*
X120829025Y-63596539D01*
X120630189Y-63369811D01*
X120570425Y-63317399D01*
X120403460Y-63170974D01*
X120152724Y-63003438D01*
X120152723Y-63003437D01*
X120152718Y-63003434D01*
X120152713Y-63003431D01*
X120152707Y-63003428D01*
X119882265Y-62870060D01*
X119882253Y-62870055D01*
X119882252Y-62870055D01*
X119872476Y-62866736D01*
X119596697Y-62773121D01*
X119596689Y-62773119D01*
X119300930Y-62714288D01*
X119300918Y-62714286D01*
X119000000Y-62694564D01*
X118699081Y-62714286D01*
X118699069Y-62714288D01*
X118403310Y-62773119D01*
X118403302Y-62773121D01*
X118117753Y-62870053D01*
X118117734Y-62870060D01*
X117847292Y-63003428D01*
X117847275Y-63003438D01*
X117596539Y-63170974D01*
X117369819Y-63369803D01*
X117369803Y-63369819D01*
X117170974Y-63596539D01*
X117130901Y-63656514D01*
X117062202Y-63725213D01*
X116972442Y-63762393D01*
X116923865Y-63767177D01*
X106849500Y-63767177D01*
X106754212Y-63748223D01*
X106673430Y-63694247D01*
X106619454Y-63613465D01*
X106600500Y-63518177D01*
X106600500Y-59858588D01*
X106619454Y-59763300D01*
X106673428Y-59682520D01*
X108319466Y-58036481D01*
X108400245Y-57982508D01*
X108495533Y-57963554D01*
X108559975Y-57972038D01*
X108712283Y-58012849D01*
X108998272Y-58050500D01*
X109286728Y-58050500D01*
X109572717Y-58012849D01*
X109851345Y-57938191D01*
X110117845Y-57827804D01*
X110367656Y-57683575D01*
X110596504Y-57507974D01*
X110800474Y-57304004D01*
X110976075Y-57075156D01*
X111120304Y-56825345D01*
X111230691Y-56558845D01*
X111305349Y-56280217D01*
X111343000Y-55994228D01*
X111343000Y-54500000D01*
X115294778Y-54500000D01*
X115313643Y-54787837D01*
X115313645Y-54787849D01*
X115369919Y-55070753D01*
X115369920Y-55070760D01*
X115462639Y-55343896D01*
X115462646Y-55343915D01*
X115590216Y-55602600D01*
X115590219Y-55602606D01*
X115590222Y-55602611D01*
X115750480Y-55842454D01*
X115940673Y-56059327D01*
X116157546Y-56249520D01*
X116397389Y-56409778D01*
X116397398Y-56409782D01*
X116397399Y-56409783D01*
X116656084Y-56537353D01*
X116656091Y-56537355D01*
X116656098Y-56537359D01*
X116790895Y-56583116D01*
X116929239Y-56630079D01*
X116929242Y-56630079D01*
X116929247Y-56630081D01*
X117147178Y-56673430D01*
X117212150Y-56686354D01*
X117212155Y-56686354D01*
X117212161Y-56686356D01*
X117500000Y-56705222D01*
X117787839Y-56686356D01*
X118070753Y-56630081D01*
X118070758Y-56630079D01*
X118070760Y-56630079D01*
X118157895Y-56600500D01*
X118343902Y-56537359D01*
X118343911Y-56537354D01*
X118343915Y-56537353D01*
X118471134Y-56474614D01*
X118602611Y-56409778D01*
X118842454Y-56249520D01*
X118941919Y-56162290D01*
X119026058Y-56113714D01*
X119106096Y-56100500D01*
X119885959Y-56100500D01*
X119885962Y-56100500D01*
X119885965Y-56100499D01*
X119885971Y-56100499D01*
X120003513Y-56081881D01*
X120134785Y-56061090D01*
X120374379Y-55983241D01*
X120598845Y-55868870D01*
X120802656Y-55720793D01*
X120980793Y-55542656D01*
X125799003Y-50724444D01*
X125879782Y-50670471D01*
X125975070Y-50651517D01*
X126070358Y-50670471D01*
X126113402Y-50693478D01*
X126317389Y-50829778D01*
X126317398Y-50829782D01*
X126317399Y-50829783D01*
X126576084Y-50957353D01*
X126576091Y-50957355D01*
X126576098Y-50957359D01*
X126710895Y-51003116D01*
X126849239Y-51050079D01*
X126849242Y-51050079D01*
X126849247Y-51050081D01*
X127078369Y-51095656D01*
X127132150Y-51106354D01*
X127132155Y-51106354D01*
X127132161Y-51106356D01*
X127420000Y-51125222D01*
X127707839Y-51106356D01*
X127990753Y-51050081D01*
X127990758Y-51050079D01*
X127990760Y-51050079D01*
X128063482Y-51025392D01*
X128263902Y-50957359D01*
X128263911Y-50957354D01*
X128263915Y-50957353D01*
X128391134Y-50894614D01*
X128522611Y-50829778D01*
X128762454Y-50669520D01*
X128979327Y-50479327D01*
X129169520Y-50262454D01*
X129329778Y-50022611D01*
X129457359Y-49763902D01*
X129550081Y-49490753D01*
X129606356Y-49207839D01*
X129625222Y-48920000D01*
X129606356Y-48632161D01*
X129604642Y-48623546D01*
X129582731Y-48513389D01*
X129550081Y-48349247D01*
X129550079Y-48349242D01*
X129550079Y-48349239D01*
X129486959Y-48163297D01*
X129457359Y-48076098D01*
X129457355Y-48076091D01*
X129457353Y-48076084D01*
X129329783Y-47817399D01*
X129329782Y-47817398D01*
X129329778Y-47817389D01*
X129169520Y-47577546D01*
X128979327Y-47360673D01*
X128762454Y-47170480D01*
X128522611Y-47010222D01*
X128522606Y-47010219D01*
X128522600Y-47010216D01*
X128263915Y-46882646D01*
X128263903Y-46882641D01*
X128263902Y-46882641D01*
X128256794Y-46880228D01*
X127990760Y-46789920D01*
X127990753Y-46789919D01*
X127707849Y-46733645D01*
X127707837Y-46733643D01*
X127420000Y-46714778D01*
X127132162Y-46733643D01*
X127132150Y-46733645D01*
X126849246Y-46789919D01*
X126849239Y-46789920D01*
X126576103Y-46882639D01*
X126576084Y-46882646D01*
X126317399Y-47010216D01*
X126317382Y-47010226D01*
X126077550Y-47170476D01*
X125978081Y-47257709D01*
X125893942Y-47306286D01*
X125813904Y-47319500D01*
X125214028Y-47319500D01*
X124965225Y-47358907D01*
X124965216Y-47358909D01*
X124965215Y-47358910D01*
X124887367Y-47384204D01*
X124887364Y-47384204D01*
X124725629Y-47436755D01*
X124725621Y-47436758D01*
X124604314Y-47498567D01*
X124501156Y-47551129D01*
X124501154Y-47551130D01*
X124501149Y-47551133D01*
X124297347Y-47699204D01*
X119222396Y-52774154D01*
X119141614Y-52828130D01*
X119046326Y-52847084D01*
X118951038Y-52828130D01*
X118882148Y-52785291D01*
X118859813Y-52765704D01*
X118842454Y-52750480D01*
X118602611Y-52590222D01*
X118602606Y-52590219D01*
X118602600Y-52590216D01*
X118343915Y-52462646D01*
X118343903Y-52462641D01*
X118343902Y-52462641D01*
X118336794Y-52460228D01*
X118070760Y-52369920D01*
X118070753Y-52369919D01*
X117787849Y-52313645D01*
X117787837Y-52313643D01*
X117500000Y-52294778D01*
X117212162Y-52313643D01*
X117212150Y-52313645D01*
X116929246Y-52369919D01*
X116929239Y-52369920D01*
X116656103Y-52462639D01*
X116656084Y-52462646D01*
X116397399Y-52590216D01*
X116397382Y-52590226D01*
X116157545Y-52750480D01*
X115940674Y-52940672D01*
X115940672Y-52940674D01*
X115750480Y-53157545D01*
X115590226Y-53397382D01*
X115590216Y-53397399D01*
X115462646Y-53656084D01*
X115462639Y-53656103D01*
X115369920Y-53929239D01*
X115369919Y-53929246D01*
X115313645Y-54212150D01*
X115313643Y-54212162D01*
X115294778Y-54500000D01*
X111343000Y-54500000D01*
X111343000Y-53905772D01*
X111305349Y-53619783D01*
X111230691Y-53341155D01*
X111187993Y-53238073D01*
X111120306Y-53074660D01*
X111120304Y-53074656D01*
X111120304Y-53074655D01*
X110976075Y-52824844D01*
X110800474Y-52595996D01*
X110596504Y-52392026D01*
X110367656Y-52216425D01*
X110117845Y-52072196D01*
X110117843Y-52072195D01*
X110117839Y-52072193D01*
X109851352Y-51961811D01*
X109851345Y-51961809D01*
X109572717Y-51887151D01*
X109572710Y-51887150D01*
X109286728Y-51849500D01*
X108998272Y-51849500D01*
X108712289Y-51887150D01*
X108712287Y-51887150D01*
X108712283Y-51887151D01*
X108433655Y-51961809D01*
X108433648Y-51961811D01*
X108433647Y-51961811D01*
X108167160Y-52072193D01*
X108167156Y-52072195D01*
X107917343Y-52216425D01*
X107688496Y-52392026D01*
X107688492Y-52392029D01*
X107484523Y-52595998D01*
X107389635Y-52719659D01*
X107316590Y-52783717D01*
X107224591Y-52814946D01*
X107127644Y-52808591D01*
X107061010Y-52779781D01*
X107038275Y-52765704D01*
X106957519Y-52715702D01*
X106758698Y-52638679D01*
X106758695Y-52638678D01*
X106758694Y-52638678D01*
X106549113Y-52599500D01*
X106549110Y-52599500D01*
X106335890Y-52599500D01*
X106335887Y-52599500D01*
X106126305Y-52638678D01*
X106126302Y-52638678D01*
X106126302Y-52638679D01*
X106098370Y-52649500D01*
X105927480Y-52715702D01*
X105927477Y-52715704D01*
X105746205Y-52827942D01*
X105746199Y-52827947D01*
X105746198Y-52827948D01*
X105622545Y-52940673D01*
X105588629Y-52971592D01*
X105460131Y-53141748D01*
X105365095Y-53332611D01*
X105365091Y-53332620D01*
X105306744Y-53537685D01*
X105306743Y-53537693D01*
X105287071Y-53750000D01*
X105306743Y-53962306D01*
X105306744Y-53962314D01*
X105365091Y-54167379D01*
X105365095Y-54167388D01*
X105460131Y-54358251D01*
X105460133Y-54358254D01*
X105460134Y-54358255D01*
X105588628Y-54528407D01*
X105746198Y-54672052D01*
X105746202Y-54672054D01*
X105746205Y-54672057D01*
X105847700Y-54734900D01*
X105927481Y-54784298D01*
X106126302Y-54861321D01*
X106252054Y-54884828D01*
X106335888Y-54900500D01*
X106347348Y-54901562D01*
X106347083Y-54904413D01*
X106422699Y-54919454D01*
X106503481Y-54973430D01*
X106557457Y-55054212D01*
X106576411Y-55149500D01*
X106557457Y-55244788D01*
X106503481Y-55325570D01*
X104972320Y-56856731D01*
X104891538Y-56910707D01*
X104796250Y-56929661D01*
X104700962Y-56910707D01*
X104620180Y-56856731D01*
X101449368Y-53685919D01*
X101395392Y-53605137D01*
X101376438Y-53509849D01*
X101395392Y-53414561D01*
X101408201Y-53390836D01*
X101407091Y-53390230D01*
X101412774Y-53379820D01*
X101412779Y-53379813D01*
X101483806Y-53213949D01*
X101495511Y-53186617D01*
X101495511Y-53186616D01*
X101495513Y-53186612D01*
X101540188Y-52981245D01*
X101543000Y-52934038D01*
X101543000Y-48765962D01*
X101543000Y-48765953D01*
X101540188Y-48718758D01*
X101540185Y-48718740D01*
X101506390Y-48563388D01*
X101495513Y-48513388D01*
X101495512Y-48513385D01*
X101495511Y-48513382D01*
X101412781Y-48320192D01*
X101412779Y-48320187D01*
X101412774Y-48320179D01*
X101294981Y-48146140D01*
X101294979Y-48146138D01*
X101294977Y-48146135D01*
X101146365Y-47997523D01*
X101146361Y-47997520D01*
X101146359Y-47997518D01*
X100972320Y-47879725D01*
X100972307Y-47879718D01*
X100779117Y-47796988D01*
X100779110Y-47796986D01*
X100573759Y-47752314D01*
X100573741Y-47752311D01*
X100526546Y-47749500D01*
X100526538Y-47749500D01*
X98158462Y-47749500D01*
X98158454Y-47749500D01*
X98111258Y-47752311D01*
X98111240Y-47752314D01*
X97905889Y-47796986D01*
X97905882Y-47796988D01*
X97712692Y-47879718D01*
X97712679Y-47879725D01*
X97538640Y-47997518D01*
X97390018Y-48146140D01*
X97272225Y-48320179D01*
X97272218Y-48320192D01*
X97189488Y-48513382D01*
X97189486Y-48513389D01*
X97144814Y-48718740D01*
X97144811Y-48718758D01*
X97142000Y-48765953D01*
X97142000Y-52934046D01*
X97144811Y-52981241D01*
X97144814Y-52981259D01*
X97189486Y-53186610D01*
X97189488Y-53186617D01*
X97272218Y-53379807D01*
X97272225Y-53379820D01*
X97390018Y-53553859D01*
X97390020Y-53553861D01*
X97390023Y-53553865D01*
X97538635Y-53702477D01*
X97632567Y-53766052D01*
X97700855Y-53835156D01*
X97737500Y-53925135D01*
X97740710Y-53958753D01*
X97741233Y-53958712D01*
X97742000Y-53968471D01*
X97781409Y-54217282D01*
X97781410Y-54217285D01*
X97859259Y-54456879D01*
X97973630Y-54681345D01*
X98056048Y-54794784D01*
X98121707Y-54885156D01*
X99079004Y-55842453D01*
X99823250Y-56586699D01*
X99877226Y-56667481D01*
X99896180Y-56762769D01*
X99877226Y-56858057D01*
X99823250Y-56938839D01*
X99742468Y-56992815D01*
X99692935Y-57007529D01*
X99526304Y-57038678D01*
X99327480Y-57115702D01*
X99327477Y-57115704D01*
X99146205Y-57227942D01*
X98988629Y-57371592D01*
X98860131Y-57541748D01*
X98765095Y-57732611D01*
X98765091Y-57732620D01*
X98706744Y-57937685D01*
X98706743Y-57937693D01*
X98687071Y-58150000D01*
X98706743Y-58362306D01*
X98706744Y-58362314D01*
X98765091Y-58567379D01*
X98765095Y-58567388D01*
X98860131Y-58758251D01*
X98860133Y-58758254D01*
X98860134Y-58758255D01*
X98988628Y-58928407D01*
X99146198Y-59072052D01*
X99146202Y-59072054D01*
X99146205Y-59072057D01*
X99160901Y-59081156D01*
X99327481Y-59184298D01*
X99526302Y-59261321D01*
X99631096Y-59280910D01*
X99735887Y-59300500D01*
X99735890Y-59300500D01*
X99949113Y-59300500D01*
X100053179Y-59281046D01*
X100158698Y-59261321D01*
X100357519Y-59184298D01*
X100538802Y-59072052D01*
X100696372Y-58928407D01*
X100824866Y-58758255D01*
X100919905Y-58567389D01*
X100951300Y-58457051D01*
X100978255Y-58362314D01*
X100978255Y-58362313D01*
X100978256Y-58362310D01*
X100981945Y-58322499D01*
X101009609Y-58229366D01*
X101070809Y-58153909D01*
X101156225Y-58107616D01*
X101252856Y-58097534D01*
X101345989Y-58125198D01*
X101405953Y-58169402D01*
X103326570Y-60090019D01*
X103380546Y-60170801D01*
X103399500Y-60266089D01*
X103399500Y-63609916D01*
X103380546Y-63705204D01*
X103337708Y-63774093D01*
X103170975Y-63964216D01*
X103003438Y-64214952D01*
X103003428Y-64214969D01*
X102870060Y-64485411D01*
X102870053Y-64485430D01*
X102773121Y-64770979D01*
X102773119Y-64770987D01*
X102714288Y-65066746D01*
X102714286Y-65066758D01*
X102694564Y-65367677D01*
X102714286Y-65668595D01*
X102714288Y-65668607D01*
X102773119Y-65964366D01*
X102773121Y-65964374D01*
X102870053Y-66249923D01*
X102870060Y-66249942D01*
X103003428Y-66520384D01*
X103003438Y-66520401D01*
X103170974Y-66771137D01*
X103366294Y-66993856D01*
X103369811Y-66997866D01*
X103596539Y-67196702D01*
X103847282Y-67364243D01*
X103847291Y-67364247D01*
X103847292Y-67364248D01*
X104117734Y-67497616D01*
X104117741Y-67497618D01*
X104117748Y-67497622D01*
X104241128Y-67539504D01*
X104367470Y-67582392D01*
X104451609Y-67630969D01*
X104510753Y-67708048D01*
X104535898Y-67801892D01*
X104523216Y-67898216D01*
X104474639Y-67982355D01*
X104397560Y-68041499D01*
X104303716Y-68066644D01*
X104287431Y-68067177D01*
X103715954Y-68067177D01*
X103668758Y-68069988D01*
X103668740Y-68069991D01*
X103463389Y-68114663D01*
X103463382Y-68114665D01*
X103270192Y-68197395D01*
X103270179Y-68197402D01*
X103096140Y-68315195D01*
X102947518Y-68463817D01*
X102829725Y-68637856D01*
X102829718Y-68637869D01*
X102746988Y-68831059D01*
X102746986Y-68831066D01*
X102702314Y-69036417D01*
X102702311Y-69036435D01*
X102699500Y-69083630D01*
X102699500Y-71651731D01*
X102701208Y-71680404D01*
X102687954Y-71776650D01*
X102638876Y-71860498D01*
X102628719Y-71871279D01*
X101557794Y-72942205D01*
X101477012Y-72996181D01*
X101381724Y-73015135D01*
X101286436Y-72996181D01*
X101205654Y-72942205D01*
X99042658Y-70779209D01*
X99042656Y-70779207D01*
X99007584Y-70753726D01*
X98913471Y-70685349D01*
X98838851Y-70631134D01*
X98838849Y-70631133D01*
X98838845Y-70631130D01*
X98614379Y-70516759D01*
X98614376Y-70516758D01*
X98614374Y-70516757D01*
X98374782Y-70438909D01*
X98125971Y-70399500D01*
X98125962Y-70399500D01*
X96849500Y-70399500D01*
X96754212Y-70380546D01*
X96673430Y-70326570D01*
X96619454Y-70245788D01*
X96600500Y-70150500D01*
X96600500Y-67026095D01*
X96619454Y-66930807D01*
X96662292Y-66861918D01*
X96682511Y-66838863D01*
X96749520Y-66762454D01*
X96909778Y-66522611D01*
X97037359Y-66263902D01*
X97130081Y-65990753D01*
X97186356Y-65707839D01*
X97205222Y-65420000D01*
X97186356Y-65132161D01*
X97130081Y-64849247D01*
X97130079Y-64849242D01*
X97130079Y-64849239D01*
X97079102Y-64699069D01*
X97037359Y-64576098D01*
X97037355Y-64576091D01*
X97037353Y-64576084D01*
X96909783Y-64317399D01*
X96909782Y-64317398D01*
X96909778Y-64317389D01*
X96749520Y-64077546D01*
X96559327Y-63860673D01*
X96342454Y-63670480D01*
X96251814Y-63609916D01*
X96102617Y-63510226D01*
X96102616Y-63510225D01*
X96102611Y-63510222D01*
X96102606Y-63510219D01*
X96102600Y-63510216D01*
X95843915Y-63382646D01*
X95843903Y-63382641D01*
X95843902Y-63382641D01*
X95806130Y-63369819D01*
X95570760Y-63289920D01*
X95570753Y-63289919D01*
X95287849Y-63233645D01*
X95287837Y-63233643D01*
X95000000Y-63214778D01*
X94712162Y-63233643D01*
X94712150Y-63233645D01*
X94429246Y-63289919D01*
X94429239Y-63289920D01*
X94156103Y-63382639D01*
X94156084Y-63382646D01*
X93897399Y-63510216D01*
X93897382Y-63510226D01*
X93657546Y-63670479D01*
X93657544Y-63670481D01*
X93580317Y-63738208D01*
X93496178Y-63786786D01*
X93416140Y-63800000D01*
X91583860Y-63800000D01*
X91488572Y-63781046D01*
X91419682Y-63738207D01*
X91342458Y-63670483D01*
X91342452Y-63670479D01*
X91102611Y-63510222D01*
X91102606Y-63510219D01*
X91102600Y-63510216D01*
X90843915Y-63382646D01*
X90843903Y-63382641D01*
X90843902Y-63382641D01*
X90806130Y-63369819D01*
X90570760Y-63289920D01*
X90570753Y-63289919D01*
X90287849Y-63233645D01*
X90287837Y-63233643D01*
X90000000Y-63214778D01*
X89712162Y-63233643D01*
X89712150Y-63233645D01*
X89429246Y-63289919D01*
X89429239Y-63289920D01*
X89156103Y-63382639D01*
X89156084Y-63382646D01*
X88897399Y-63510216D01*
X88897382Y-63510226D01*
X88657545Y-63670480D01*
X88440674Y-63860672D01*
X88440672Y-63860674D01*
X88250480Y-64077545D01*
X88090226Y-64317382D01*
X88090216Y-64317399D01*
X87962646Y-64576084D01*
X87962639Y-64576103D01*
X87869920Y-64849239D01*
X87869919Y-64849246D01*
X87813645Y-65132150D01*
X87813643Y-65132162D01*
X87794778Y-65420000D01*
X87813643Y-65707837D01*
X87813645Y-65707849D01*
X87869919Y-65990753D01*
X87869920Y-65990760D01*
X87962639Y-66263896D01*
X87962646Y-66263915D01*
X88090216Y-66522600D01*
X88090226Y-66522617D01*
X88250479Y-66762453D01*
X88337708Y-66861918D01*
X88386285Y-66946056D01*
X88399500Y-67026095D01*
X88399500Y-70393904D01*
X88380546Y-70489192D01*
X88337710Y-70558078D01*
X88250480Y-70657546D01*
X88250478Y-70657548D01*
X88250477Y-70657550D01*
X88090226Y-70897382D01*
X88090216Y-70897399D01*
X87962646Y-71156084D01*
X87962639Y-71156103D01*
X87869920Y-71429239D01*
X87869919Y-71429246D01*
X87813645Y-71712150D01*
X87813643Y-71712162D01*
X87794778Y-72000000D01*
X87813643Y-72287837D01*
X87813645Y-72287849D01*
X87869919Y-72570753D01*
X87869920Y-72570760D01*
X87962639Y-72843896D01*
X87962646Y-72843915D01*
X88090216Y-73102600D01*
X88090219Y-73102606D01*
X88090222Y-73102611D01*
X88250480Y-73342454D01*
X88440673Y-73559327D01*
X88657546Y-73749520D01*
X88897389Y-73909778D01*
X88897398Y-73909782D01*
X88897399Y-73909783D01*
X89156084Y-74037353D01*
X89156091Y-74037355D01*
X89156098Y-74037359D01*
X89290895Y-74083116D01*
X89429239Y-74130079D01*
X89429242Y-74130079D01*
X89429247Y-74130081D01*
X89658369Y-74175656D01*
X89712150Y-74186354D01*
X89712154Y-74186354D01*
X89712161Y-74186356D01*
X89822769Y-74193605D01*
X89916612Y-74218750D01*
X89982553Y-74266002D01*
X94382594Y-78666043D01*
X94436570Y-78746825D01*
X94454991Y-78825827D01*
X94463643Y-78957837D01*
X94463645Y-78957849D01*
X94519919Y-79240753D01*
X94519920Y-79240760D01*
X94612639Y-79513896D01*
X94612646Y-79513915D01*
X94740216Y-79772600D01*
X94740219Y-79772606D01*
X94740222Y-79772611D01*
X94900480Y-80012454D01*
X95090673Y-80229327D01*
X95307546Y-80419520D01*
X95547389Y-80579778D01*
X95547398Y-80579782D01*
X95547399Y-80579783D01*
X95806084Y-80707353D01*
X95806091Y-80707355D01*
X95806098Y-80707359D01*
X95940895Y-80753116D01*
X96079239Y-80800079D01*
X96079242Y-80800079D01*
X96079247Y-80800081D01*
X96308369Y-80845656D01*
X96362150Y-80856354D01*
X96362155Y-80856354D01*
X96362161Y-80856356D01*
X96650000Y-80875222D01*
X96937839Y-80856356D01*
X97220753Y-80800081D01*
X97220758Y-80800079D01*
X97220760Y-80800079D01*
X97293482Y-80775392D01*
X97493902Y-80707359D01*
X97493911Y-80707354D01*
X97493915Y-80707353D01*
X97621134Y-80644614D01*
X97752611Y-80579778D01*
X97992454Y-80419520D01*
X98209327Y-80229327D01*
X98399520Y-80012454D01*
X98559778Y-79772611D01*
X98650673Y-79588294D01*
X98687353Y-79513915D01*
X98687354Y-79513911D01*
X98687359Y-79513902D01*
X98761993Y-79294038D01*
X98780079Y-79240760D01*
X98780079Y-79240758D01*
X98780081Y-79240753D01*
X98836356Y-78957839D01*
X98855222Y-78670000D01*
X98836356Y-78382161D01*
X98780081Y-78099247D01*
X98780079Y-78099242D01*
X98780079Y-78099239D01*
X98733116Y-77960895D01*
X98687359Y-77826098D01*
X98687355Y-77826091D01*
X98687353Y-77826084D01*
X98559783Y-77567399D01*
X98559782Y-77567398D01*
X98559778Y-77567389D01*
X98399520Y-77327546D01*
X98209327Y-77110673D01*
X97992454Y-76920480D01*
X97752611Y-76760222D01*
X97752606Y-76760219D01*
X97752600Y-76760216D01*
X97493915Y-76632646D01*
X97493903Y-76632641D01*
X97493902Y-76632641D01*
X97455055Y-76619454D01*
X97220760Y-76539920D01*
X97220753Y-76539919D01*
X96937849Y-76483645D01*
X96937837Y-76483643D01*
X96805827Y-76474991D01*
X96711982Y-76449845D01*
X96646043Y-76402594D01*
X94871178Y-74627729D01*
X94817202Y-74546947D01*
X94798248Y-74451659D01*
X94817202Y-74356371D01*
X94871178Y-74275589D01*
X94951960Y-74221613D01*
X95030959Y-74203192D01*
X95287839Y-74186356D01*
X95570753Y-74130081D01*
X95570758Y-74130079D01*
X95570760Y-74130079D01*
X95643482Y-74105392D01*
X95843902Y-74037359D01*
X95843911Y-74037354D01*
X95843915Y-74037353D01*
X95971134Y-73974614D01*
X96102611Y-73909778D01*
X96342454Y-73749520D01*
X96441919Y-73662290D01*
X96526058Y-73613714D01*
X96606096Y-73600500D01*
X97233911Y-73600500D01*
X97329199Y-73619454D01*
X97409981Y-73673430D01*
X99957344Y-76220793D01*
X99957347Y-76220795D01*
X100161152Y-76368868D01*
X100161151Y-76368868D01*
X100161153Y-76368869D01*
X100161156Y-76368871D01*
X100385622Y-76483242D01*
X100500292Y-76520500D01*
X100625215Y-76561090D01*
X100712729Y-76574951D01*
X100874028Y-76600499D01*
X100874035Y-76600499D01*
X100874038Y-76600500D01*
X111233911Y-76600500D01*
X111329199Y-76619454D01*
X111409981Y-76673430D01*
X112406570Y-77670019D01*
X112460546Y-77750801D01*
X112479500Y-77846089D01*
X112479500Y-78110391D01*
X112460546Y-78205679D01*
X112438481Y-78244483D01*
X112439754Y-78245302D01*
X112434948Y-78252779D01*
X112301230Y-78497665D01*
X112265512Y-78593430D01*
X112223185Y-78706915D01*
X112203729Y-78759078D01*
X112203725Y-78759089D01*
X112144423Y-79031697D01*
X112144422Y-79031703D01*
X112144422Y-79031706D01*
X112124518Y-79310000D01*
X112141764Y-79551134D01*
X112144423Y-79588302D01*
X112203725Y-79860910D01*
X112203727Y-79860918D01*
X112203729Y-79860923D01*
X112301231Y-80122337D01*
X112393460Y-80291241D01*
X112434945Y-80367215D01*
X112602140Y-80590562D01*
X112602142Y-80590564D01*
X112602145Y-80590568D01*
X112799432Y-80787855D01*
X112799435Y-80787857D01*
X112799437Y-80787859D01*
X112916141Y-80875222D01*
X113022787Y-80955056D01*
X113267663Y-81088769D01*
X113529077Y-81186271D01*
X113529086Y-81186273D01*
X113529089Y-81186274D01*
X113775072Y-81239784D01*
X113801706Y-81245578D01*
X114080000Y-81265482D01*
X114358294Y-81245578D01*
X114522291Y-81209902D01*
X114630910Y-81186274D01*
X114630911Y-81186273D01*
X114630923Y-81186271D01*
X114892337Y-81088769D01*
X114917705Y-81074916D01*
X115010419Y-81045883D01*
X115107188Y-81054541D01*
X115176606Y-81087246D01*
X115240187Y-81130279D01*
X115240192Y-81130281D01*
X115433382Y-81213011D01*
X115433385Y-81213012D01*
X115433388Y-81213013D01*
X115526338Y-81233233D01*
X115638740Y-81257685D01*
X115638745Y-81257685D01*
X115638755Y-81257688D01*
X115651629Y-81258454D01*
X115685954Y-81260500D01*
X115685962Y-81260500D01*
X117554046Y-81260500D01*
X117586119Y-81258589D01*
X117601245Y-81257688D01*
X117806612Y-81213013D01*
X117999813Y-81130279D01*
X118173865Y-81012477D01*
X118322477Y-80863865D01*
X118440279Y-80689813D01*
X118523013Y-80496612D01*
X118567688Y-80291245D01*
X118570500Y-80244038D01*
X118570500Y-79726089D01*
X118589454Y-79630801D01*
X118643430Y-79550019D01*
X120100019Y-78093430D01*
X120180801Y-78039454D01*
X120276089Y-78020500D01*
X124073911Y-78020500D01*
X124169199Y-78039454D01*
X124249981Y-78093430D01*
X130119207Y-83962656D01*
X130119206Y-83962656D01*
X130221640Y-84065089D01*
X130297344Y-84140793D01*
X130501155Y-84288870D01*
X130725621Y-84403241D01*
X130965215Y-84481090D01*
X131052729Y-84494951D01*
X131214028Y-84520499D01*
X131214035Y-84520499D01*
X131214038Y-84520500D01*
X131393904Y-84520500D01*
X131489192Y-84539454D01*
X131558080Y-84582290D01*
X131657546Y-84669520D01*
X131657548Y-84669521D01*
X131657550Y-84669523D01*
X131721348Y-84712151D01*
X131897389Y-84829778D01*
X131897398Y-84829782D01*
X131897399Y-84829783D01*
X132156084Y-84957353D01*
X132156091Y-84957355D01*
X132156098Y-84957359D01*
X132254615Y-84990801D01*
X132429239Y-85050079D01*
X132429242Y-85050079D01*
X132429247Y-85050081D01*
X132631020Y-85090216D01*
X132712150Y-85106354D01*
X132712155Y-85106354D01*
X132712161Y-85106356D01*
X133000000Y-85125222D01*
X133287839Y-85106356D01*
X133570753Y-85050081D01*
X133570758Y-85050079D01*
X133570760Y-85050079D01*
X133643482Y-85025392D01*
X133843902Y-84957359D01*
X133843911Y-84957354D01*
X133843915Y-84957353D01*
X134021213Y-84869919D01*
X134102611Y-84829778D01*
X134342454Y-84669520D01*
X134559327Y-84479327D01*
X134749520Y-84262454D01*
X134909778Y-84022611D01*
X135037359Y-83763902D01*
X135130081Y-83490753D01*
X135186356Y-83207839D01*
X135205222Y-82920000D01*
X135186356Y-82632161D01*
X135130081Y-82349247D01*
X135130079Y-82349242D01*
X135130079Y-82349239D01*
X135063773Y-82153911D01*
X135037359Y-82076098D01*
X135037355Y-82076091D01*
X135037353Y-82076084D01*
X134909783Y-81817399D01*
X134909782Y-81817398D01*
X134909778Y-81817389D01*
X134772099Y-81611338D01*
X134734921Y-81521581D01*
X134734920Y-81424426D01*
X134772100Y-81334666D01*
X134799440Y-81301352D01*
X134800000Y-81300001D01*
X134800000Y-79826588D01*
X134818954Y-79731300D01*
X134872927Y-79650521D01*
X137060793Y-77462656D01*
X137208871Y-77258844D01*
X137323242Y-77034378D01*
X137401090Y-76794784D01*
X137406565Y-76760222D01*
X137416103Y-76700000D01*
X137426771Y-76632646D01*
X137440500Y-76545962D01*
X137440500Y-72179725D01*
X137459454Y-72084437D01*
X137513430Y-72003655D01*
X137594212Y-71949679D01*
X137689500Y-71930725D01*
X137776515Y-71946424D01*
X137945236Y-72009354D01*
X138219765Y-72069074D01*
X138500000Y-72089117D01*
X138780235Y-72069074D01*
X139054764Y-72009354D01*
X139318001Y-71911172D01*
X139564585Y-71776527D01*
X139789497Y-71608159D01*
X139988159Y-71409497D01*
X140156527Y-71184585D01*
X140291172Y-70938001D01*
X140389354Y-70674764D01*
X140449074Y-70400235D01*
X140469117Y-70120000D01*
X140449074Y-69839765D01*
X140389354Y-69565236D01*
X140291172Y-69301999D01*
X140156527Y-69055415D01*
X139988159Y-68830503D01*
X139789497Y-68631841D01*
X139564585Y-68463473D01*
X139564586Y-68463473D01*
X139318003Y-68328829D01*
X139317999Y-68328827D01*
X139160791Y-68270192D01*
X139054764Y-68230646D01*
X138839956Y-68183917D01*
X138780236Y-68170926D01*
X138500000Y-68150883D01*
X138219763Y-68170926D01*
X138008336Y-68216919D01*
X137945236Y-68230646D01*
X137945235Y-68230646D01*
X137945232Y-68230647D01*
X137776515Y-68293575D01*
X137680611Y-68309115D01*
X137586061Y-68286772D01*
X137507257Y-68229946D01*
X137456199Y-68147289D01*
X137440500Y-68060274D01*
X137440500Y-67099725D01*
X137459454Y-67004437D01*
X137513430Y-66923655D01*
X137594212Y-66869679D01*
X137689500Y-66850725D01*
X137776515Y-66866424D01*
X137945236Y-66929354D01*
X138219765Y-66989074D01*
X138500000Y-67009117D01*
X138780235Y-66989074D01*
X139054764Y-66929354D01*
X139318001Y-66831172D01*
X139564585Y-66696527D01*
X139573081Y-66690167D01*
X139660721Y-66648235D01*
X139722303Y-66640500D01*
X147345959Y-66640500D01*
X147345962Y-66640500D01*
X147531317Y-66611141D01*
X147586546Y-66608609D01*
X147840000Y-66625222D01*
X148127839Y-66606356D01*
X148410753Y-66550081D01*
X148410758Y-66550079D01*
X148410760Y-66550079D01*
X148498237Y-66520384D01*
X148683902Y-66457359D01*
X148683911Y-66457354D01*
X148683915Y-66457353D01*
X148820768Y-66389864D01*
X148942611Y-66329778D01*
X149182454Y-66169520D01*
X149399327Y-65979327D01*
X149589520Y-65762454D01*
X149749778Y-65522611D01*
X149877359Y-65263902D01*
X149945392Y-65063482D01*
X149970079Y-64990760D01*
X149970079Y-64990758D01*
X149970081Y-64990753D01*
X150026356Y-64707839D01*
X150045222Y-64420000D01*
X150026356Y-64132161D01*
X149970081Y-63849247D01*
X149970079Y-63849242D01*
X149970079Y-63849239D01*
X149909618Y-63671130D01*
X149877359Y-63576098D01*
X149877355Y-63576091D01*
X149877353Y-63576084D01*
X149749783Y-63317399D01*
X149749782Y-63317398D01*
X149749778Y-63317389D01*
X149589520Y-63077546D01*
X149399327Y-62860673D01*
X149182454Y-62670480D01*
X148942611Y-62510222D01*
X148942606Y-62510219D01*
X148942600Y-62510216D01*
X148683915Y-62382646D01*
X148683903Y-62382641D01*
X148683902Y-62382641D01*
X148676794Y-62380228D01*
X148410760Y-62289920D01*
X148410753Y-62289919D01*
X148127849Y-62233645D01*
X148127837Y-62233643D01*
X147840000Y-62214778D01*
X147552162Y-62233643D01*
X147552150Y-62233645D01*
X147269246Y-62289919D01*
X147269239Y-62289920D01*
X146996103Y-62382639D01*
X146996084Y-62382646D01*
X146737399Y-62510216D01*
X146737382Y-62510226D01*
X146497545Y-62670480D01*
X146280674Y-62860672D01*
X146280672Y-62860674D01*
X146090480Y-63077545D01*
X145925693Y-63324167D01*
X145924348Y-63323268D01*
X145867550Y-63388039D01*
X145780416Y-63431013D01*
X145715961Y-63439500D01*
X139722303Y-63439500D01*
X139627015Y-63420546D01*
X139573081Y-63389833D01*
X139564586Y-63383474D01*
X139564586Y-63383473D01*
X139318003Y-63248829D01*
X139317999Y-63248827D01*
X139205244Y-63206772D01*
X139054764Y-63150646D01*
X138839956Y-63103917D01*
X138780236Y-63090926D01*
X138500000Y-63070883D01*
X138219763Y-63090926D01*
X138008336Y-63136919D01*
X137945236Y-63150646D01*
X137945235Y-63150646D01*
X137945232Y-63150647D01*
X137776515Y-63213575D01*
X137680611Y-63229115D01*
X137586061Y-63206772D01*
X137507257Y-63149946D01*
X137456199Y-63067289D01*
X137440500Y-62980274D01*
X137440500Y-62186089D01*
X137459454Y-62090801D01*
X137513430Y-62010019D01*
X141430019Y-58093430D01*
X141510801Y-58039454D01*
X141606089Y-58020500D01*
X148573911Y-58020500D01*
X148669199Y-58039454D01*
X148749981Y-58093430D01*
X152666570Y-62010019D01*
X152720546Y-62090801D01*
X152739500Y-62186089D01*
X152739500Y-87153911D01*
X152720546Y-87249199D01*
X152666570Y-87329981D01*
X150249981Y-89746570D01*
X150169199Y-89800546D01*
X150073911Y-89819500D01*
X149446096Y-89819500D01*
X149350808Y-89800546D01*
X149281919Y-89757709D01*
X149182454Y-89670480D01*
X149182452Y-89670478D01*
X149182449Y-89670476D01*
X148942617Y-89510226D01*
X148942616Y-89510225D01*
X148942611Y-89510222D01*
X148942606Y-89510219D01*
X148942600Y-89510216D01*
X148683915Y-89382646D01*
X148683903Y-89382641D01*
X148683902Y-89382641D01*
X148676794Y-89380228D01*
X148410760Y-89289920D01*
X148410753Y-89289919D01*
X148127849Y-89233645D01*
X148127837Y-89233643D01*
X147840000Y-89214778D01*
X147552162Y-89233643D01*
X147552150Y-89233645D01*
X147269246Y-89289919D01*
X147269239Y-89289920D01*
X146996103Y-89382639D01*
X146996084Y-89382646D01*
X146737399Y-89510216D01*
X146737382Y-89510226D01*
X146497545Y-89670480D01*
X146280674Y-89860672D01*
X146280672Y-89860674D01*
X146090480Y-90077545D01*
X145930226Y-90317382D01*
X145930216Y-90317399D01*
X145802646Y-90576084D01*
X145802639Y-90576103D01*
X145709920Y-90849239D01*
X145709919Y-90849246D01*
X145653645Y-91132150D01*
X145653643Y-91132162D01*
X145634778Y-91420000D01*
X145653643Y-91707837D01*
X145653645Y-91707849D01*
X145709919Y-91990753D01*
X145709920Y-91990760D01*
X145802639Y-92263896D01*
X145802646Y-92263915D01*
X145930216Y-92522600D01*
X145930219Y-92522606D01*
X145930222Y-92522611D01*
X146090480Y-92762454D01*
X146280673Y-92979327D01*
X146497546Y-93169520D01*
X146737389Y-93329778D01*
X146737398Y-93329782D01*
X146737399Y-93329783D01*
X146996084Y-93457353D01*
X146996091Y-93457355D01*
X146996098Y-93457359D01*
X147130895Y-93503116D01*
X147269239Y-93550079D01*
X147269242Y-93550079D01*
X147269247Y-93550081D01*
X147498369Y-93595656D01*
X147552150Y-93606354D01*
X147552155Y-93606354D01*
X147552161Y-93606356D01*
X147840000Y-93625222D01*
X148127839Y-93606356D01*
X148410753Y-93550081D01*
X148410758Y-93550079D01*
X148410760Y-93550079D01*
X148504214Y-93518355D01*
X148683902Y-93457359D01*
X148683911Y-93457354D01*
X148683915Y-93457353D01*
X148811134Y-93394614D01*
X148942611Y-93329778D01*
X149182454Y-93169520D01*
X149281919Y-93082290D01*
X149366058Y-93033714D01*
X149446096Y-93020500D01*
X150965959Y-93020500D01*
X150965962Y-93020500D01*
X150965965Y-93020499D01*
X150965971Y-93020499D01*
X151083513Y-93001881D01*
X151214785Y-92981090D01*
X151454379Y-92903241D01*
X151678845Y-92788870D01*
X151882656Y-92640793D01*
X152060793Y-92462656D01*
X153135654Y-91387793D01*
X153216436Y-91333818D01*
X153311724Y-91314864D01*
X153407012Y-91333818D01*
X153487794Y-91387794D01*
X154666570Y-92566570D01*
X154720546Y-92647352D01*
X154739500Y-92742640D01*
X154739500Y-106857359D01*
X154720546Y-106952647D01*
X154666570Y-107033429D01*
X153617794Y-108082205D01*
X153537012Y-108136181D01*
X153441724Y-108155135D01*
X153346436Y-108136181D01*
X153265654Y-108082205D01*
X149882656Y-104699207D01*
X149823320Y-104656097D01*
X149678851Y-104551134D01*
X149678849Y-104551133D01*
X149678845Y-104551130D01*
X149454379Y-104436759D01*
X149454376Y-104436758D01*
X149454374Y-104436757D01*
X149214782Y-104358909D01*
X148965971Y-104319500D01*
X148965962Y-104319500D01*
X131465962Y-104319500D01*
X131249000Y-104319500D01*
X131153712Y-104300546D01*
X131072930Y-104246570D01*
X131018954Y-104165788D01*
X131000000Y-104070500D01*
X131000000Y-103500001D01*
X131000000Y-103500000D01*
X128097790Y-100597790D01*
X128043817Y-100517012D01*
X128024863Y-100421724D01*
X128043817Y-100326436D01*
X128097790Y-100245657D01*
X132996046Y-95347401D01*
X133076825Y-95293428D01*
X133155825Y-95275008D01*
X133287839Y-95266356D01*
X133287847Y-95266354D01*
X133287851Y-95266354D01*
X133366777Y-95250654D01*
X133570753Y-95210081D01*
X133570758Y-95210079D01*
X133570760Y-95210079D01*
X133643482Y-95185392D01*
X133843902Y-95117359D01*
X133843911Y-95117354D01*
X133843915Y-95117353D01*
X134046015Y-95017688D01*
X134102611Y-94989778D01*
X134342454Y-94829520D01*
X134441919Y-94742290D01*
X134526058Y-94693714D01*
X134606096Y-94680500D01*
X135545959Y-94680500D01*
X135545962Y-94680500D01*
X135545965Y-94680499D01*
X135545971Y-94680499D01*
X135663513Y-94661881D01*
X135794785Y-94641090D01*
X136034379Y-94563241D01*
X136258845Y-94448870D01*
X136462656Y-94300793D01*
X136640793Y-94122656D01*
X142670019Y-88093430D01*
X142750801Y-88039454D01*
X142846089Y-88020500D01*
X146233904Y-88020500D01*
X146329192Y-88039454D01*
X146398080Y-88082290D01*
X146497546Y-88169520D01*
X146737389Y-88329778D01*
X146737398Y-88329782D01*
X146737399Y-88329783D01*
X146996084Y-88457353D01*
X146996091Y-88457355D01*
X146996098Y-88457359D01*
X147130895Y-88503116D01*
X147269239Y-88550079D01*
X147269242Y-88550079D01*
X147269247Y-88550081D01*
X147498369Y-88595656D01*
X147552150Y-88606354D01*
X147552155Y-88606354D01*
X147552161Y-88606356D01*
X147840000Y-88625222D01*
X148127839Y-88606356D01*
X148410753Y-88550081D01*
X148410758Y-88550079D01*
X148410760Y-88550079D01*
X148508922Y-88516757D01*
X148683902Y-88457359D01*
X148683911Y-88457354D01*
X148683915Y-88457353D01*
X148811134Y-88394614D01*
X148942611Y-88329778D01*
X149182454Y-88169520D01*
X149399327Y-87979327D01*
X149589520Y-87762454D01*
X149749778Y-87522611D01*
X149841286Y-87337051D01*
X149877353Y-87263915D01*
X149877354Y-87263911D01*
X149877359Y-87263902D01*
X149970081Y-86990753D01*
X150026356Y-86707839D01*
X150045222Y-86420000D01*
X150026356Y-86132161D01*
X149970081Y-85849247D01*
X149970079Y-85849242D01*
X149970079Y-85849239D01*
X149917538Y-85694460D01*
X149877359Y-85576098D01*
X149877355Y-85576091D01*
X149877353Y-85576084D01*
X149749783Y-85317399D01*
X149749782Y-85317398D01*
X149749778Y-85317389D01*
X149589520Y-85077546D01*
X149399327Y-84860673D01*
X149182454Y-84670480D01*
X148942611Y-84510222D01*
X148942606Y-84510219D01*
X148942600Y-84510216D01*
X148683915Y-84382646D01*
X148683903Y-84382641D01*
X148683902Y-84382641D01*
X148642427Y-84368562D01*
X148410760Y-84289920D01*
X148410753Y-84289919D01*
X148127849Y-84233645D01*
X148127837Y-84233643D01*
X147840000Y-84214778D01*
X147552162Y-84233643D01*
X147552150Y-84233645D01*
X147269246Y-84289919D01*
X147269239Y-84289920D01*
X146996103Y-84382639D01*
X146996084Y-84382646D01*
X146737399Y-84510216D01*
X146737382Y-84510226D01*
X146497550Y-84670476D01*
X146398081Y-84757709D01*
X146313942Y-84806286D01*
X146233904Y-84819500D01*
X142805089Y-84819500D01*
X142709801Y-84800546D01*
X142629019Y-84746570D01*
X142575043Y-84665788D01*
X142556089Y-84570500D01*
X142575043Y-84475212D01*
X142629019Y-84394431D01*
X142882659Y-84140790D01*
X143060793Y-83962656D01*
X143088318Y-83924771D01*
X143208870Y-83758845D01*
X143323241Y-83534379D01*
X143401090Y-83294785D01*
X143440500Y-83045962D01*
X143440500Y-76186088D01*
X143459454Y-76090800D01*
X143513428Y-76010020D01*
X147836046Y-71687401D01*
X147916825Y-71633428D01*
X147995825Y-71615008D01*
X148127839Y-71606356D01*
X148127847Y-71606354D01*
X148127851Y-71606354D01*
X148206777Y-71590654D01*
X148410753Y-71550081D01*
X148410758Y-71550079D01*
X148410760Y-71550079D01*
X148483482Y-71525392D01*
X148683902Y-71457359D01*
X148683911Y-71457354D01*
X148683915Y-71457353D01*
X148811134Y-71394614D01*
X148942611Y-71329778D01*
X149182454Y-71169520D01*
X149399327Y-70979327D01*
X149589520Y-70762454D01*
X149749778Y-70522611D01*
X149877359Y-70263902D01*
X149970081Y-69990753D01*
X150026356Y-69707839D01*
X150045222Y-69420000D01*
X150026356Y-69132161D01*
X149970081Y-68849247D01*
X149970079Y-68849242D01*
X149970079Y-68849239D01*
X149900606Y-68644581D01*
X149877359Y-68576098D01*
X149877355Y-68576091D01*
X149877353Y-68576084D01*
X149749783Y-68317399D01*
X149749782Y-68317398D01*
X149749778Y-68317389D01*
X149589520Y-68077546D01*
X149399327Y-67860673D01*
X149182454Y-67670480D01*
X148942611Y-67510222D01*
X148942606Y-67510219D01*
X148942600Y-67510216D01*
X148683915Y-67382646D01*
X148683903Y-67382641D01*
X148683902Y-67382641D01*
X148676794Y-67380228D01*
X148410760Y-67289920D01*
X148410753Y-67289919D01*
X148127849Y-67233645D01*
X148127837Y-67233643D01*
X147840000Y-67214778D01*
X147552162Y-67233643D01*
X147552150Y-67233645D01*
X147269246Y-67289919D01*
X147269239Y-67289920D01*
X146996103Y-67382639D01*
X146996084Y-67382646D01*
X146737399Y-67510216D01*
X146737382Y-67510226D01*
X146497545Y-67670480D01*
X146280674Y-67860672D01*
X146280672Y-67860674D01*
X146090480Y-68077545D01*
X145930226Y-68317382D01*
X145930216Y-68317399D01*
X145802646Y-68576084D01*
X145802639Y-68576103D01*
X145709920Y-68849239D01*
X145709919Y-68849246D01*
X145653645Y-69132150D01*
X145653643Y-69132162D01*
X145644991Y-69264171D01*
X145619845Y-69358016D01*
X145572594Y-69423955D01*
X140797344Y-74199207D01*
X140797343Y-74199206D01*
X140619209Y-74377341D01*
X140619206Y-74377345D01*
X140471134Y-74581148D01*
X140471131Y-74581153D01*
X140471130Y-74581155D01*
X140404385Y-74712150D01*
X140356757Y-74805625D01*
X140278909Y-75045217D01*
X140239500Y-75294028D01*
X140239500Y-82153911D01*
X140220546Y-82249199D01*
X140166570Y-82329981D01*
X134749981Y-87746570D01*
X134669199Y-87800546D01*
X134573911Y-87819500D01*
X129714028Y-87819500D01*
X129465220Y-87858908D01*
X129303669Y-87911399D01*
X129207187Y-87922817D01*
X129113680Y-87896445D01*
X129050655Y-87850655D01*
X128529199Y-87329199D01*
X128000000Y-86800000D01*
X127999999Y-86800000D01*
X125503140Y-86800000D01*
X125407852Y-86781046D01*
X125327070Y-86727070D01*
X124198060Y-85598060D01*
X124186922Y-85586167D01*
X124178079Y-85576084D01*
X124059327Y-85440673D01*
X123913831Y-85313076D01*
X123901938Y-85301938D01*
X123400000Y-84800000D01*
X123248566Y-84862726D01*
X123246288Y-84864249D01*
X123151000Y-84883203D01*
X123078835Y-84871291D01*
X123078637Y-84872031D01*
X123071132Y-84870020D01*
X123070984Y-84869996D01*
X123070769Y-84869923D01*
X123070753Y-84869919D01*
X122787849Y-84813645D01*
X122787837Y-84813643D01*
X122500000Y-84794778D01*
X122212162Y-84813643D01*
X122212150Y-84813645D01*
X121929246Y-84869919D01*
X121929239Y-84869920D01*
X121656103Y-84962639D01*
X121656084Y-84962646D01*
X121397399Y-85090216D01*
X121397382Y-85090226D01*
X121157545Y-85250480D01*
X120940674Y-85440672D01*
X120940665Y-85440681D01*
X120831924Y-85564677D01*
X120754845Y-85623822D01*
X120661001Y-85648967D01*
X120644716Y-85649500D01*
X117819608Y-85649500D01*
X117724320Y-85630546D01*
X117685526Y-85608460D01*
X117684696Y-85609753D01*
X117677219Y-85604948D01*
X117677216Y-85604946D01*
X117677213Y-85604944D01*
X117432337Y-85471231D01*
X117170923Y-85373729D01*
X117170918Y-85373727D01*
X117170910Y-85373725D01*
X116898302Y-85314423D01*
X116898296Y-85314422D01*
X116898294Y-85314422D01*
X116620000Y-85294518D01*
X116341706Y-85314422D01*
X116341703Y-85314422D01*
X116341697Y-85314423D01*
X116069089Y-85373725D01*
X116069079Y-85373728D01*
X116069077Y-85373729D01*
X115913578Y-85431726D01*
X115807665Y-85471230D01*
X115807663Y-85471230D01*
X115807663Y-85471231D01*
X115562787Y-85604944D01*
X115562785Y-85604945D01*
X115562784Y-85604946D01*
X115499219Y-85652530D01*
X115411578Y-85694460D01*
X115314562Y-85699659D01*
X115222942Y-85667337D01*
X115200781Y-85652530D01*
X115196021Y-85648967D01*
X115137213Y-85604944D01*
X114892337Y-85471231D01*
X114630923Y-85373729D01*
X114630918Y-85373727D01*
X114630910Y-85373725D01*
X114358302Y-85314423D01*
X114358296Y-85314422D01*
X114358294Y-85314422D01*
X114080000Y-85294518D01*
X113801706Y-85314422D01*
X113801703Y-85314422D01*
X113801697Y-85314423D01*
X113529089Y-85373725D01*
X113529079Y-85373728D01*
X113529077Y-85373729D01*
X113373578Y-85431726D01*
X113267665Y-85471230D01*
X113267663Y-85471230D01*
X113267663Y-85471231D01*
X113022787Y-85604944D01*
X113022785Y-85604945D01*
X113022784Y-85604946D01*
X112959219Y-85652530D01*
X112871578Y-85694460D01*
X112774562Y-85699659D01*
X112682942Y-85667337D01*
X112660781Y-85652530D01*
X112656021Y-85648967D01*
X112597213Y-85604944D01*
X112352337Y-85471231D01*
X112090923Y-85373729D01*
X112090918Y-85373727D01*
X112090910Y-85373725D01*
X111818302Y-85314423D01*
X111818296Y-85314422D01*
X111818294Y-85314422D01*
X111540000Y-85294518D01*
X111261706Y-85314422D01*
X111261703Y-85314422D01*
X111261697Y-85314423D01*
X110989089Y-85373725D01*
X110989079Y-85373728D01*
X110989077Y-85373729D01*
X110833578Y-85431726D01*
X110727665Y-85471230D01*
X110482784Y-85604945D01*
X110259437Y-85772140D01*
X110259435Y-85772142D01*
X110259432Y-85772145D01*
X110062145Y-85969432D01*
X110062142Y-85969435D01*
X110062142Y-85969436D01*
X110062140Y-85969437D01*
X109894945Y-86192784D01*
X109839775Y-86293821D01*
X109761231Y-86437663D01*
X109670861Y-86679957D01*
X109663729Y-86699078D01*
X109663725Y-86699089D01*
X109604423Y-86971697D01*
X109604422Y-86971703D01*
X109604422Y-86971706D01*
X109584518Y-87250000D01*
X109590182Y-87329199D01*
X109604423Y-87528302D01*
X109663725Y-87800910D01*
X109663727Y-87800918D01*
X109663729Y-87800923D01*
X109761231Y-88062337D01*
X109878082Y-88276333D01*
X109894945Y-88307215D01*
X110062140Y-88530562D01*
X110062142Y-88530564D01*
X110062145Y-88530568D01*
X110259432Y-88727855D01*
X110482787Y-88895056D01*
X110609835Y-88964429D01*
X110684382Y-89026730D01*
X110729414Y-89112818D01*
X110739500Y-89182970D01*
X110739500Y-89954911D01*
X110720546Y-90050199D01*
X110666570Y-90130981D01*
X110585788Y-90184957D01*
X110490500Y-90203911D01*
X110395212Y-90184957D01*
X110314430Y-90130981D01*
X109646103Y-89462654D01*
X108962656Y-88779207D01*
X108891976Y-88727855D01*
X108758845Y-88631130D01*
X108534379Y-88516759D01*
X108534376Y-88516758D01*
X108534374Y-88516757D01*
X108294782Y-88438909D01*
X108045971Y-88399500D01*
X108045962Y-88399500D01*
X102266089Y-88399500D01*
X102170801Y-88380546D01*
X102090019Y-88326570D01*
X101173430Y-87409981D01*
X101119454Y-87329199D01*
X101100500Y-87233911D01*
X101100500Y-84016088D01*
X101119454Y-83920800D01*
X101173428Y-83840020D01*
X102996046Y-82017401D01*
X103076825Y-81963428D01*
X103155825Y-81945008D01*
X103287839Y-81936356D01*
X103287847Y-81936354D01*
X103287851Y-81936354D01*
X103366777Y-81920654D01*
X103570753Y-81880081D01*
X103570758Y-81880079D01*
X103570760Y-81880079D01*
X103643482Y-81855392D01*
X103843902Y-81787359D01*
X103843911Y-81787354D01*
X103843915Y-81787353D01*
X103971134Y-81724614D01*
X104102611Y-81659778D01*
X104342454Y-81499520D01*
X104441919Y-81412290D01*
X104526058Y-81363714D01*
X104606096Y-81350500D01*
X108685959Y-81350500D01*
X108685962Y-81350500D01*
X108685965Y-81350499D01*
X108685971Y-81350499D01*
X108934779Y-81311091D01*
X108934779Y-81311090D01*
X108934785Y-81311090D01*
X109067478Y-81267974D01*
X109126656Y-81256422D01*
X109278294Y-81245578D01*
X109442291Y-81209902D01*
X109550910Y-81186274D01*
X109550911Y-81186273D01*
X109550923Y-81186271D01*
X109812337Y-81088769D01*
X110057213Y-80955056D01*
X110280568Y-80787855D01*
X110477855Y-80590568D01*
X110645056Y-80367213D01*
X110778769Y-80122337D01*
X110876271Y-79860923D01*
X110935578Y-79588294D01*
X110955482Y-79310000D01*
X110935578Y-79031706D01*
X110927375Y-78993996D01*
X110876274Y-78759089D01*
X110876273Y-78759086D01*
X110876271Y-78759077D01*
X110778769Y-78497663D01*
X110645056Y-78252787D01*
X110638840Y-78244483D01*
X110477859Y-78029437D01*
X110477856Y-78029434D01*
X110477855Y-78029432D01*
X110280568Y-77832145D01*
X110280564Y-77832142D01*
X110280562Y-77832140D01*
X110057215Y-77664945D01*
X109878573Y-77567399D01*
X109812337Y-77531231D01*
X109550923Y-77433729D01*
X109550918Y-77433727D01*
X109550910Y-77433725D01*
X109278302Y-77374423D01*
X109278296Y-77374422D01*
X109278294Y-77374422D01*
X109000000Y-77354518D01*
X108721706Y-77374422D01*
X108721703Y-77374422D01*
X108721697Y-77374423D01*
X108449089Y-77433725D01*
X108449079Y-77433728D01*
X108449077Y-77433729D01*
X108293578Y-77491726D01*
X108187665Y-77531230D01*
X108187663Y-77531230D01*
X108187663Y-77531231D01*
X108162854Y-77544778D01*
X107942784Y-77664945D01*
X107719437Y-77832140D01*
X107719435Y-77832142D01*
X107719432Y-77832145D01*
X107551101Y-78000476D01*
X107522143Y-78029434D01*
X107522138Y-78029440D01*
X107506959Y-78049718D01*
X107434682Y-78114642D01*
X107343062Y-78146965D01*
X107307623Y-78149500D01*
X104606096Y-78149500D01*
X104510808Y-78130546D01*
X104441919Y-78087709D01*
X104375473Y-78029437D01*
X104342454Y-78000480D01*
X104342452Y-78000478D01*
X104342449Y-78000476D01*
X104102617Y-77840226D01*
X104102616Y-77840225D01*
X104102611Y-77840222D01*
X104102606Y-77840219D01*
X104102600Y-77840216D01*
X103843915Y-77712646D01*
X103843903Y-77712641D01*
X103843902Y-77712641D01*
X103836794Y-77710228D01*
X103570760Y-77619920D01*
X103570753Y-77619919D01*
X103287849Y-77563645D01*
X103287837Y-77563643D01*
X103000000Y-77544778D01*
X102712162Y-77563643D01*
X102712150Y-77563645D01*
X102429246Y-77619919D01*
X102429239Y-77619920D01*
X102156103Y-77712639D01*
X102156084Y-77712646D01*
X101897399Y-77840216D01*
X101897382Y-77840226D01*
X101657545Y-78000480D01*
X101440674Y-78190672D01*
X101440672Y-78190674D01*
X101250480Y-78407545D01*
X101090226Y-78647382D01*
X101090216Y-78647399D01*
X100962646Y-78906084D01*
X100962639Y-78906103D01*
X100869920Y-79179239D01*
X100869919Y-79179246D01*
X100813645Y-79462150D01*
X100813643Y-79462162D01*
X100804991Y-79594171D01*
X100779845Y-79688016D01*
X100732594Y-79753955D01*
X98559481Y-81927070D01*
X98478699Y-81981046D01*
X98383411Y-82000000D01*
X94067308Y-82000000D01*
X93972020Y-81981046D01*
X93891238Y-81927070D01*
X93837262Y-81846288D01*
X93830501Y-81827963D01*
X93823242Y-81805622D01*
X93708871Y-81581156D01*
X93560793Y-81377344D01*
X86513430Y-74329981D01*
X86459454Y-74249199D01*
X86440500Y-74153911D01*
X86440500Y-60186089D01*
X86459454Y-60090801D01*
X86513430Y-60010019D01*
X89850019Y-56673430D01*
X89930801Y-56619454D01*
X90026089Y-56600500D01*
X90941975Y-56600500D01*
X91037263Y-56619454D01*
X91118045Y-56673430D01*
X91172021Y-56754212D01*
X91222193Y-56875339D01*
X91222195Y-56875343D01*
X91222196Y-56875345D01*
X91366425Y-57125156D01*
X91542026Y-57354004D01*
X91745996Y-57557974D01*
X91974844Y-57733575D01*
X92224655Y-57877804D01*
X92224660Y-57877806D01*
X92491147Y-57988188D01*
X92491149Y-57988188D01*
X92491155Y-57988191D01*
X92769783Y-58062849D01*
X93055772Y-58100500D01*
X93344228Y-58100500D01*
X93630217Y-58062849D01*
X93908845Y-57988191D01*
X94175345Y-57877804D01*
X94425156Y-57733575D01*
X94654004Y-57557974D01*
X94857974Y-57354004D01*
X95033575Y-57125156D01*
X95177804Y-56875345D01*
X95288191Y-56608845D01*
X95362849Y-56330217D01*
X95400500Y-56044228D01*
X95400500Y-53955772D01*
X95362849Y-53669783D01*
X95288191Y-53391155D01*
X95267480Y-53341155D01*
X95177806Y-53124660D01*
X95177804Y-53124656D01*
X95177804Y-53124655D01*
X95033575Y-52874844D01*
X94857974Y-52645996D01*
X94654004Y-52442026D01*
X94425156Y-52266425D01*
X94175345Y-52122196D01*
X94175343Y-52122195D01*
X94175339Y-52122193D01*
X93908852Y-52011811D01*
X93908845Y-52011809D01*
X93630217Y-51937151D01*
X93630210Y-51937150D01*
X93344228Y-51899500D01*
X93055772Y-51899500D01*
X92769789Y-51937150D01*
X92769787Y-51937150D01*
X92769783Y-51937151D01*
X92491155Y-52011809D01*
X92491148Y-52011811D01*
X92491147Y-52011811D01*
X92224660Y-52122193D01*
X92224656Y-52122195D01*
X91974843Y-52266425D01*
X91745996Y-52442026D01*
X91745992Y-52442029D01*
X91542023Y-52645998D01*
X91447135Y-52769659D01*
X91374090Y-52833717D01*
X91282091Y-52864946D01*
X91185144Y-52858591D01*
X91118510Y-52829781D01*
X91108076Y-52823320D01*
X91015019Y-52765702D01*
X90816198Y-52688679D01*
X90816195Y-52688678D01*
X90816194Y-52688678D01*
X90606613Y-52649500D01*
X90606610Y-52649500D01*
X90393390Y-52649500D01*
X90393387Y-52649500D01*
X90183805Y-52688678D01*
X89984980Y-52765702D01*
X89984977Y-52765704D01*
X89803705Y-52877942D01*
X89803699Y-52877947D01*
X89803698Y-52877948D01*
X89646128Y-53021593D01*
X89517634Y-53191745D01*
X89517632Y-53191747D01*
X89517630Y-53191751D01*
X89517628Y-53191754D01*
X89482906Y-53261487D01*
X89423466Y-53338338D01*
X89339142Y-53386591D01*
X89260010Y-53399500D01*
X89134028Y-53399500D01*
X88885217Y-53438909D01*
X88645625Y-53516757D01*
X88421151Y-53631132D01*
X88367945Y-53669789D01*
X88257544Y-53750000D01*
X88257543Y-53750001D01*
X88217348Y-53779203D01*
X84811297Y-57185252D01*
X84730515Y-57239228D01*
X84635227Y-57258182D01*
X84539939Y-57239228D01*
X84504147Y-57220887D01*
X84415019Y-57165702D01*
X84216196Y-57088678D01*
X84143743Y-57075134D01*
X84053561Y-57038992D01*
X83984074Y-56971090D01*
X83945861Y-56881766D01*
X83940500Y-56830374D01*
X83940500Y-54249500D01*
X83959454Y-54154212D01*
X84013430Y-54073430D01*
X84094212Y-54019454D01*
X84189500Y-54000500D01*
X84584046Y-54000500D01*
X84615509Y-53998625D01*
X84631245Y-53997688D01*
X84836612Y-53953013D01*
X85029813Y-53870279D01*
X85203865Y-53752477D01*
X85352477Y-53603865D01*
X85470279Y-53429813D01*
X85553013Y-53236612D01*
X85597688Y-53031245D01*
X85600500Y-52984038D01*
X85600500Y-48815962D01*
X85600500Y-48815953D01*
X85597688Y-48768758D01*
X85597685Y-48768740D01*
X85553013Y-48563389D01*
X85553011Y-48563382D01*
X85470281Y-48370192D01*
X85470279Y-48370187D01*
X85470274Y-48370179D01*
X85352481Y-48196140D01*
X85352479Y-48196138D01*
X85352477Y-48196135D01*
X85203865Y-48047523D01*
X85203861Y-48047520D01*
X85203859Y-48047518D01*
X85029820Y-47929725D01*
X85029807Y-47929718D01*
X84836617Y-47846988D01*
X84836610Y-47846986D01*
X84631259Y-47802314D01*
X84631241Y-47802311D01*
X84584046Y-47799500D01*
X84584038Y-47799500D01*
X82215962Y-47799500D01*
X82215954Y-47799500D01*
X82168758Y-47802311D01*
X82168740Y-47802314D01*
X81963389Y-47846986D01*
X81963382Y-47846988D01*
X81770192Y-47929718D01*
X81770179Y-47929725D01*
X81596140Y-48047518D01*
X81447518Y-48196140D01*
X81329725Y-48370179D01*
X81329718Y-48370192D01*
X81246988Y-48563382D01*
X81246986Y-48563389D01*
X81202314Y-48768740D01*
X81202311Y-48768758D01*
X81199500Y-48815953D01*
X81199500Y-50733911D01*
X81180546Y-50829199D01*
X81126576Y-50909974D01*
X81119211Y-50917338D01*
X81119206Y-50917345D01*
X80971134Y-51121148D01*
X80971131Y-51121153D01*
X80971130Y-51121155D01*
X80969058Y-51125222D01*
X80856757Y-51345625D01*
X80778909Y-51585217D01*
X80739500Y-51834028D01*
X80739500Y-66389864D01*
X80720546Y-66485152D01*
X80666570Y-66565934D01*
X71985934Y-75246570D01*
X71905152Y-75300546D01*
X71809864Y-75319500D01*
X56714028Y-75319500D01*
X56465217Y-75358909D01*
X56225625Y-75436757D01*
X56001151Y-75551132D01*
X55911231Y-75616462D01*
X55839135Y-75668844D01*
X55839134Y-75668845D01*
X55797348Y-75699203D01*
X53297344Y-78199207D01*
X53297343Y-78199206D01*
X53119209Y-78377341D01*
X53119206Y-78377345D01*
X52971134Y-78581148D01*
X52971131Y-78581153D01*
X52971130Y-78581155D01*
X52907052Y-78706915D01*
X52856757Y-78805625D01*
X52778909Y-79045217D01*
X52739500Y-79294028D01*
X48840500Y-79294028D01*
X48840500Y-63146728D01*
X51415050Y-63146728D01*
X55808846Y-67540524D01*
X71257826Y-52091545D01*
X66864030Y-47697748D01*
X51415050Y-63146728D01*
X48840500Y-63146728D01*
X48840500Y-59632301D01*
X48840580Y-59625993D01*
X48849821Y-59261321D01*
X48858950Y-58901060D01*
X48859589Y-58888469D01*
X48869505Y-58758255D01*
X48914412Y-58168550D01*
X48915688Y-58156009D01*
X49006912Y-57439737D01*
X49008812Y-57427337D01*
X49136196Y-56716612D01*
X49138723Y-56704311D01*
X49301948Y-56000922D01*
X49305089Y-55988791D01*
X49503727Y-55294582D01*
X49507501Y-55282556D01*
X49520411Y-55244788D01*
X49741024Y-54599361D01*
X49745401Y-54587543D01*
X49836990Y-54358255D01*
X50013243Y-53917014D01*
X50018185Y-53905496D01*
X50319670Y-53249341D01*
X50325185Y-53238098D01*
X50659509Y-52598069D01*
X50665595Y-52587104D01*
X51031885Y-51964868D01*
X51038554Y-51954169D01*
X51049770Y-51937151D01*
X51435890Y-51351280D01*
X51443057Y-51340984D01*
X51870436Y-50758971D01*
X51878093Y-50749079D01*
X52334421Y-50189438D01*
X52342614Y-50179896D01*
X52423941Y-50089880D01*
X52826637Y-49644156D01*
X52835308Y-49635032D01*
X53345882Y-49124458D01*
X53355006Y-49115787D01*
X53552114Y-48937707D01*
X53890753Y-48631757D01*
X53900288Y-48623571D01*
X54459929Y-48167243D01*
X54469821Y-48159586D01*
X55051834Y-47732207D01*
X55062130Y-47725040D01*
X55665025Y-47327699D01*
X55675725Y-47321031D01*
X55678326Y-47319500D01*
X56297954Y-46954745D01*
X56308919Y-46948659D01*
X56948948Y-46614335D01*
X56960191Y-46608820D01*
X57616346Y-46307335D01*
X57627864Y-46302393D01*
X58298405Y-46034546D01*
X58310211Y-46030174D01*
X58993418Y-45796647D01*
X59005432Y-45792877D01*
X59699641Y-45594239D01*
X59711772Y-45591098D01*
X60415161Y-45427873D01*
X60427462Y-45425346D01*
X61138187Y-45297962D01*
X61150587Y-45296062D01*
X61866863Y-45204837D01*
X61879400Y-45203562D01*
X62599327Y-45148738D01*
X62611910Y-45148100D01*
X63336843Y-45129729D01*
X63343151Y-45129650D01*
X63405892Y-45129650D01*
X148064958Y-45129650D01*
X148127699Y-45129650D01*
X148134006Y-45129729D01*
G37*
%TD.AperFunction*%
%TD*%
M02*
