%TF.GenerationSoftware,KiCad,Pcbnew,8.0.8*%
%TF.CreationDate,2025-03-09T10:58:12-03:00*%
%TF.ProjectId,equalizador,65717561-6c69-47a6-9164-6f722e6b6963,rev?*%
%TF.SameCoordinates,Original*%
%TF.FileFunction,Other,User*%
%FSLAX46Y46*%
G04 Gerber Fmt 4.6, Leading zero omitted, Abs format (unit mm)*
G04 Created by KiCad (PCBNEW 8.0.8) date 2025-03-09 10:58:12*
%MOMM*%
%LPD*%
G01*
G04 APERTURE LIST*
%ADD10C,0.050000*%
%ADD11C,0.152400*%
G04 APERTURE END LIST*
D10*
%TO.C,U1*%
X104140000Y-127730000D02*
X115240000Y-127730000D01*
X104140000Y-137330000D02*
X104140000Y-127730000D01*
X115240000Y-127730000D02*
X115240000Y-137330000D01*
X115240000Y-137330000D02*
X104140000Y-137330000D01*
%TO.C,R6*%
X100840000Y-93290000D02*
X100840000Y-105550000D01*
X100840000Y-105550000D02*
X103840000Y-105550000D01*
X103840000Y-93290000D02*
X100840000Y-93290000D01*
X103840000Y-105550000D02*
X103840000Y-93290000D01*
%TO.C,D2*%
X78400000Y-83570000D02*
X78400000Y-96430000D01*
X78400000Y-96430000D02*
X81600000Y-96430000D01*
X81600000Y-83570000D02*
X78400000Y-83570000D01*
X81600000Y-96430000D02*
X81600000Y-83570000D01*
%TO.C,R17*%
X113370000Y-93000000D02*
X113370000Y-96000000D01*
X113370000Y-96000000D02*
X125630000Y-96000000D01*
X125630000Y-93000000D02*
X113370000Y-93000000D01*
X125630000Y-96000000D02*
X125630000Y-93000000D01*
%TO.C,R2*%
X113290000Y-109500000D02*
X113290000Y-112500000D01*
X113290000Y-112500000D02*
X125550000Y-112500000D01*
X125550000Y-109500000D02*
X113290000Y-109500000D01*
X125550000Y-112500000D02*
X125550000Y-109500000D01*
%TO.C,R13*%
X110130000Y-138920000D02*
X110130000Y-141920000D01*
X110130000Y-141920000D02*
X122390000Y-141920000D01*
X122390000Y-138920000D02*
X110130000Y-138920000D01*
X122390000Y-141920000D02*
X122390000Y-138920000D01*
%TO.C,C6*%
X94750000Y-133044888D02*
G75*
G02*
X89250000Y-133044888I-2750000J0D01*
G01*
X89250000Y-133044888D02*
G75*
G02*
X94750000Y-133044888I2750000J0D01*
G01*
%TO.C,C13*%
X75150000Y-133500000D02*
X75150000Y-136500000D01*
X75150000Y-136500000D02*
X82850000Y-136500000D01*
X82850000Y-133500000D02*
X75150000Y-133500000D01*
X82850000Y-136500000D02*
X82850000Y-133500000D01*
%TO.C,J2*%
X81400000Y-41100000D02*
X81400000Y-60000000D01*
X81400000Y-60000000D02*
X94800000Y-60000000D01*
X94800000Y-41100000D02*
X81400000Y-41100000D01*
X94800000Y-60000000D02*
X94800000Y-41100000D01*
%TO.C,D1*%
X72900000Y-83650000D02*
X72900000Y-96510000D01*
X72900000Y-96510000D02*
X76100000Y-96510000D01*
X76100000Y-83650000D02*
X72900000Y-83650000D01*
X76100000Y-96510000D02*
X76100000Y-83650000D01*
%TO.C,C15*%
X100240000Y-127950000D02*
X100240000Y-137550000D01*
X100240000Y-137550000D02*
X103440000Y-137550000D01*
X103440000Y-127950000D02*
X100240000Y-127950000D01*
X103440000Y-137550000D02*
X103440000Y-127950000D01*
%TO.C,U2*%
X76777500Y-121250000D02*
X76777500Y-131750000D01*
X76777500Y-131750000D02*
X81687500Y-131750000D01*
X81687500Y-121250000D02*
X76777500Y-121250000D01*
X81687500Y-131750000D02*
X81687500Y-121250000D01*
%TO.C,C20*%
X110250000Y-67867677D02*
G75*
G02*
X99750000Y-67867677I-5250000J0D01*
G01*
X99750000Y-67867677D02*
G75*
G02*
X110250000Y-67867677I5250000J0D01*
G01*
%TO.C,C14*%
X62650000Y-133460000D02*
X62650000Y-136460000D01*
X62650000Y-136460000D02*
X70350000Y-136460000D01*
X70350000Y-133460000D02*
X62650000Y-133460000D01*
X70350000Y-136460000D02*
X70350000Y-133460000D01*
%TO.C,C2*%
X124460000Y-130070000D02*
X124460000Y-137770000D01*
X124460000Y-137770000D02*
X127460000Y-137770000D01*
X127460000Y-130070000D02*
X124460000Y-130070000D01*
X127460000Y-137770000D02*
X127460000Y-130070000D01*
%TO.C,U3*%
X107260000Y-78480000D02*
X118360000Y-78480000D01*
X107260000Y-88080000D02*
X107260000Y-78480000D01*
X118360000Y-78480000D02*
X118360000Y-88080000D01*
X118360000Y-88080000D02*
X107260000Y-88080000D01*
%TO.C,D4*%
X67400000Y-83570000D02*
X67400000Y-96430000D01*
X67400000Y-96430000D02*
X70600000Y-96430000D01*
X70600000Y-83570000D02*
X67400000Y-83570000D01*
X70600000Y-96430000D02*
X70600000Y-83570000D01*
%TO.C,R3*%
X113370000Y-113420000D02*
X113370000Y-116420000D01*
X113370000Y-116420000D02*
X125630000Y-116420000D01*
X125630000Y-113420000D02*
X113370000Y-113420000D01*
X125630000Y-116420000D02*
X125630000Y-113420000D01*
%TO.C,U4*%
X64277500Y-121750000D02*
X64277500Y-132250000D01*
X64277500Y-132250000D02*
X69187500Y-132250000D01*
X69187500Y-121750000D02*
X64277500Y-121750000D01*
X69187500Y-132250000D02*
X69187500Y-121750000D01*
%TO.C,R8*%
X93950000Y-110200000D02*
X93950000Y-125800000D01*
X93950000Y-125800000D02*
X98050000Y-125800000D01*
X98050000Y-110200000D02*
X93950000Y-110200000D01*
X98050000Y-125800000D02*
X98050000Y-110200000D01*
%TO.C,C10*%
X120900000Y-78450000D02*
X120900000Y-88050000D01*
X120900000Y-88050000D02*
X124100000Y-88050000D01*
X124100000Y-78450000D02*
X120900000Y-78450000D01*
X124100000Y-88050000D02*
X124100000Y-78450000D01*
%TO.C,C19*%
X130200000Y-73400000D02*
X130200000Y-76600000D01*
X130200000Y-76600000D02*
X139800000Y-76600000D01*
X139800000Y-73400000D02*
X130200000Y-73400000D01*
X139800000Y-76600000D02*
X139800000Y-73400000D01*
%TO.C,R11*%
X93840000Y-93290000D02*
X93840000Y-105550000D01*
X93840000Y-105550000D02*
X96840000Y-105550000D01*
X96840000Y-93290000D02*
X93840000Y-93290000D01*
X96840000Y-105550000D02*
X96840000Y-93290000D01*
%TO.C,C22*%
X116450000Y-51700000D02*
X116450000Y-57300000D01*
X116450000Y-57300000D02*
X128550000Y-57300000D01*
X128550000Y-51700000D02*
X116450000Y-51700000D01*
X128550000Y-57300000D02*
X128550000Y-51700000D01*
%TO.C,R10*%
X97340000Y-93370000D02*
X97340000Y-105630000D01*
X97340000Y-105630000D02*
X100340000Y-105630000D01*
X100340000Y-93370000D02*
X97340000Y-93370000D01*
X100340000Y-105630000D02*
X100340000Y-93370000D01*
%TO.C,R7*%
X113290000Y-98500000D02*
X113290000Y-101500000D01*
X113290000Y-101500000D02*
X125550000Y-101500000D01*
X125550000Y-98500000D02*
X113290000Y-98500000D01*
X125550000Y-101500000D02*
X125550000Y-98500000D01*
%TO.C,R19*%
X116210000Y-47420000D02*
X116210000Y-50420000D01*
X116210000Y-50420000D02*
X128470000Y-50420000D01*
X128470000Y-47420000D02*
X116210000Y-47420000D01*
X128470000Y-50420000D02*
X128470000Y-47420000D01*
%TO.C,C1*%
X136250000Y-133670000D02*
G75*
G02*
X130750000Y-133670000I-2750000J0D01*
G01*
X130750000Y-133670000D02*
G75*
G02*
X136250000Y-133670000I2750000J0D01*
G01*
%TO.C,R16*%
X113290000Y-119420000D02*
X113290000Y-122420000D01*
X113290000Y-122420000D02*
X125550000Y-122420000D01*
X125550000Y-119420000D02*
X113290000Y-119420000D01*
X125550000Y-122420000D02*
X125550000Y-119420000D01*
%TO.C,C21*%
X125750000Y-67500000D02*
G75*
G02*
X112250000Y-67500000I-6750000J0D01*
G01*
X112250000Y-67500000D02*
G75*
G02*
X125750000Y-67500000I6750000J0D01*
G01*
%TO.C,C8*%
X129000000Y-113150000D02*
X129000000Y-120850000D01*
X129000000Y-120850000D02*
X132000000Y-120850000D01*
X132000000Y-113150000D02*
X129000000Y-113150000D01*
X132000000Y-120850000D02*
X132000000Y-113150000D01*
%TO.C,C4*%
X88650000Y-63920000D02*
X88650000Y-66920000D01*
X88650000Y-66920000D02*
X96350000Y-66920000D01*
X96350000Y-63920000D02*
X88650000Y-63920000D01*
X96350000Y-66920000D02*
X96350000Y-63920000D01*
%TO.C,C3*%
X88650000Y-70500000D02*
X88650000Y-73500000D01*
X88650000Y-73500000D02*
X96350000Y-73500000D01*
X96350000Y-70500000D02*
X88650000Y-70500000D01*
X96350000Y-73500000D02*
X96350000Y-70500000D01*
%TO.C,R1*%
X106500000Y-93370000D02*
X106500000Y-105630000D01*
X106500000Y-105630000D02*
X109500000Y-105630000D01*
X109500000Y-93370000D02*
X106500000Y-93370000D01*
X109500000Y-105630000D02*
X109500000Y-93370000D01*
D11*
%TO.C,J4*%
X52386001Y-77563400D02*
X52386001Y-94276600D01*
X52386001Y-94276600D02*
X60387001Y-94276600D01*
X60387001Y-77563400D02*
X52386001Y-77563400D01*
X60387001Y-94276600D02*
X60387001Y-77563400D01*
D10*
%TO.C,D3*%
X83900000Y-83570000D02*
X83900000Y-96430000D01*
X83900000Y-96430000D02*
X87100000Y-96430000D01*
X87100000Y-83570000D02*
X83900000Y-83570000D01*
X87100000Y-96430000D02*
X87100000Y-83570000D01*
%TO.C,C12*%
X71250000Y-106500000D02*
G75*
G02*
X60750000Y-106500000I-5250000J0D01*
G01*
X60750000Y-106500000D02*
G75*
G02*
X71250000Y-106500000I5250000J0D01*
G01*
%TO.C,R4*%
X113290000Y-104000000D02*
X113290000Y-107000000D01*
X113290000Y-107000000D02*
X125550000Y-107000000D01*
X125550000Y-104000000D02*
X113290000Y-104000000D01*
X125550000Y-107000000D02*
X125550000Y-104000000D01*
%TO.C,C11*%
X84250000Y-106000000D02*
G75*
G02*
X73750000Y-106000000I-5250000J0D01*
G01*
X73750000Y-106000000D02*
G75*
G02*
X84250000Y-106000000I5250000J0D01*
G01*
%TO.C,R5*%
X95150000Y-77620000D02*
X95150000Y-89880000D01*
X95150000Y-89880000D02*
X98150000Y-89880000D01*
X98150000Y-77620000D02*
X95150000Y-77620000D01*
X98150000Y-89880000D02*
X98150000Y-77620000D01*
%TO.C,J3*%
X97342500Y-41050000D02*
X97342500Y-59950000D01*
X97342500Y-59950000D02*
X110742500Y-59950000D01*
X110742500Y-41050000D02*
X97342500Y-41050000D01*
X110742500Y-59950000D02*
X110742500Y-41050000D01*
%TO.C,C5*%
X102750000Y-110250000D02*
X102750000Y-123750000D01*
X102750000Y-123750000D02*
X108250000Y-123750000D01*
X108250000Y-110250000D02*
X102750000Y-110250000D01*
X108250000Y-123750000D02*
X108250000Y-110250000D01*
%TO.C,C16*%
X117780000Y-127950000D02*
X117780000Y-137550000D01*
X117780000Y-137550000D02*
X120980000Y-137550000D01*
X120980000Y-127950000D02*
X117780000Y-127950000D01*
X120980000Y-137550000D02*
X120980000Y-127950000D01*
%TO.C,C9*%
X101400000Y-78700000D02*
X101400000Y-88300000D01*
X101400000Y-88300000D02*
X104600000Y-88300000D01*
X104600000Y-78700000D02*
X101400000Y-78700000D01*
X104600000Y-88300000D02*
X104600000Y-78700000D01*
%TO.C,R9*%
X87950000Y-110200000D02*
X87950000Y-125800000D01*
X87950000Y-125800000D02*
X92050000Y-125800000D01*
X92050000Y-110200000D02*
X87950000Y-110200000D01*
X92050000Y-125800000D02*
X92050000Y-110200000D01*
%TO.C,R15*%
X131500000Y-81870000D02*
X131500000Y-94130000D01*
X131500000Y-94130000D02*
X134500000Y-94130000D01*
X134500000Y-81870000D02*
X131500000Y-81870000D01*
X134500000Y-94130000D02*
X134500000Y-81870000D01*
%TO.C,C7*%
X134500000Y-113150000D02*
X134500000Y-120850000D01*
X134500000Y-120850000D02*
X137500000Y-120850000D01*
X137500000Y-113150000D02*
X134500000Y-113150000D01*
X137500000Y-120850000D02*
X137500000Y-113150000D01*
%TD*%
M02*
