%TF.GenerationSoftware,KiCad,Pcbnew,8.0.8*%
%TF.CreationDate,2025-03-09T10:58:12-03:00*%
%TF.ProjectId,equalizador,65717561-6c69-47a6-9164-6f722e6b6963,rev?*%
%TF.SameCoordinates,Original*%
%TF.FileFunction,AssemblyDrawing,Top*%
%FSLAX46Y46*%
G04 Gerber Fmt 4.6, Leading zero omitted, Abs format (unit mm)*
G04 Created by KiCad (PCBNEW 8.0.8) date 2025-03-09 10:58:12*
%MOMM*%
%LPD*%
G01*
G04 APERTURE LIST*
%ADD10C,0.150000*%
%ADD11C,0.127000*%
%ADD12C,0.200000*%
%ADD13C,0.100000*%
%ADD14C,0.120000*%
%ADD15C,0.025400*%
%ADD16C,0.508000*%
G04 APERTURE END LIST*
D10*
X102794819Y-99586666D02*
X102318628Y-99919999D01*
X102794819Y-100158094D02*
X101794819Y-100158094D01*
X101794819Y-100158094D02*
X101794819Y-99777142D01*
X101794819Y-99777142D02*
X101842438Y-99681904D01*
X101842438Y-99681904D02*
X101890057Y-99634285D01*
X101890057Y-99634285D02*
X101985295Y-99586666D01*
X101985295Y-99586666D02*
X102128152Y-99586666D01*
X102128152Y-99586666D02*
X102223390Y-99634285D01*
X102223390Y-99634285D02*
X102271009Y-99681904D01*
X102271009Y-99681904D02*
X102318628Y-99777142D01*
X102318628Y-99777142D02*
X102318628Y-100158094D01*
X101794819Y-98729523D02*
X101794819Y-98919999D01*
X101794819Y-98919999D02*
X101842438Y-99015237D01*
X101842438Y-99015237D02*
X101890057Y-99062856D01*
X101890057Y-99062856D02*
X102032914Y-99158094D01*
X102032914Y-99158094D02*
X102223390Y-99205713D01*
X102223390Y-99205713D02*
X102604342Y-99205713D01*
X102604342Y-99205713D02*
X102699580Y-99158094D01*
X102699580Y-99158094D02*
X102747200Y-99110475D01*
X102747200Y-99110475D02*
X102794819Y-99015237D01*
X102794819Y-99015237D02*
X102794819Y-98824761D01*
X102794819Y-98824761D02*
X102747200Y-98729523D01*
X102747200Y-98729523D02*
X102699580Y-98681904D01*
X102699580Y-98681904D02*
X102604342Y-98634285D01*
X102604342Y-98634285D02*
X102366247Y-98634285D01*
X102366247Y-98634285D02*
X102271009Y-98681904D01*
X102271009Y-98681904D02*
X102223390Y-98729523D01*
X102223390Y-98729523D02*
X102175771Y-98824761D01*
X102175771Y-98824761D02*
X102175771Y-99015237D01*
X102175771Y-99015237D02*
X102223390Y-99110475D01*
X102223390Y-99110475D02*
X102271009Y-99158094D01*
X102271009Y-99158094D02*
X102366247Y-99205713D01*
X80454819Y-90348094D02*
X79454819Y-90348094D01*
X79454819Y-90348094D02*
X79454819Y-90109999D01*
X79454819Y-90109999D02*
X79502438Y-89967142D01*
X79502438Y-89967142D02*
X79597676Y-89871904D01*
X79597676Y-89871904D02*
X79692914Y-89824285D01*
X79692914Y-89824285D02*
X79883390Y-89776666D01*
X79883390Y-89776666D02*
X80026247Y-89776666D01*
X80026247Y-89776666D02*
X80216723Y-89824285D01*
X80216723Y-89824285D02*
X80311961Y-89871904D01*
X80311961Y-89871904D02*
X80407200Y-89967142D01*
X80407200Y-89967142D02*
X80454819Y-90109999D01*
X80454819Y-90109999D02*
X80454819Y-90348094D01*
X79550057Y-89395713D02*
X79502438Y-89348094D01*
X79502438Y-89348094D02*
X79454819Y-89252856D01*
X79454819Y-89252856D02*
X79454819Y-89014761D01*
X79454819Y-89014761D02*
X79502438Y-88919523D01*
X79502438Y-88919523D02*
X79550057Y-88871904D01*
X79550057Y-88871904D02*
X79645295Y-88824285D01*
X79645295Y-88824285D02*
X79740533Y-88824285D01*
X79740533Y-88824285D02*
X79883390Y-88871904D01*
X79883390Y-88871904D02*
X80454819Y-89443332D01*
X80454819Y-89443332D02*
X80454819Y-88824285D01*
X78354819Y-95341904D02*
X77354819Y-95341904D01*
X78354819Y-94770476D02*
X77783390Y-95199047D01*
X77354819Y-94770476D02*
X77926247Y-95341904D01*
X118857142Y-94954819D02*
X118523809Y-94478628D01*
X118285714Y-94954819D02*
X118285714Y-93954819D01*
X118285714Y-93954819D02*
X118666666Y-93954819D01*
X118666666Y-93954819D02*
X118761904Y-94002438D01*
X118761904Y-94002438D02*
X118809523Y-94050057D01*
X118809523Y-94050057D02*
X118857142Y-94145295D01*
X118857142Y-94145295D02*
X118857142Y-94288152D01*
X118857142Y-94288152D02*
X118809523Y-94383390D01*
X118809523Y-94383390D02*
X118761904Y-94431009D01*
X118761904Y-94431009D02*
X118666666Y-94478628D01*
X118666666Y-94478628D02*
X118285714Y-94478628D01*
X119809523Y-94954819D02*
X119238095Y-94954819D01*
X119523809Y-94954819D02*
X119523809Y-93954819D01*
X119523809Y-93954819D02*
X119428571Y-94097676D01*
X119428571Y-94097676D02*
X119333333Y-94192914D01*
X119333333Y-94192914D02*
X119238095Y-94240533D01*
X120142857Y-93954819D02*
X120809523Y-93954819D01*
X120809523Y-93954819D02*
X120380952Y-94954819D01*
X119253333Y-111454819D02*
X118920000Y-110978628D01*
X118681905Y-111454819D02*
X118681905Y-110454819D01*
X118681905Y-110454819D02*
X119062857Y-110454819D01*
X119062857Y-110454819D02*
X119158095Y-110502438D01*
X119158095Y-110502438D02*
X119205714Y-110550057D01*
X119205714Y-110550057D02*
X119253333Y-110645295D01*
X119253333Y-110645295D02*
X119253333Y-110788152D01*
X119253333Y-110788152D02*
X119205714Y-110883390D01*
X119205714Y-110883390D02*
X119158095Y-110931009D01*
X119158095Y-110931009D02*
X119062857Y-110978628D01*
X119062857Y-110978628D02*
X118681905Y-110978628D01*
X119634286Y-110550057D02*
X119681905Y-110502438D01*
X119681905Y-110502438D02*
X119777143Y-110454819D01*
X119777143Y-110454819D02*
X120015238Y-110454819D01*
X120015238Y-110454819D02*
X120110476Y-110502438D01*
X120110476Y-110502438D02*
X120158095Y-110550057D01*
X120158095Y-110550057D02*
X120205714Y-110645295D01*
X120205714Y-110645295D02*
X120205714Y-110740533D01*
X120205714Y-110740533D02*
X120158095Y-110883390D01*
X120158095Y-110883390D02*
X119586667Y-111454819D01*
X119586667Y-111454819D02*
X120205714Y-111454819D01*
X115617142Y-140874819D02*
X115283809Y-140398628D01*
X115045714Y-140874819D02*
X115045714Y-139874819D01*
X115045714Y-139874819D02*
X115426666Y-139874819D01*
X115426666Y-139874819D02*
X115521904Y-139922438D01*
X115521904Y-139922438D02*
X115569523Y-139970057D01*
X115569523Y-139970057D02*
X115617142Y-140065295D01*
X115617142Y-140065295D02*
X115617142Y-140208152D01*
X115617142Y-140208152D02*
X115569523Y-140303390D01*
X115569523Y-140303390D02*
X115521904Y-140351009D01*
X115521904Y-140351009D02*
X115426666Y-140398628D01*
X115426666Y-140398628D02*
X115045714Y-140398628D01*
X116569523Y-140874819D02*
X115998095Y-140874819D01*
X116283809Y-140874819D02*
X116283809Y-139874819D01*
X116283809Y-139874819D02*
X116188571Y-140017676D01*
X116188571Y-140017676D02*
X116093333Y-140112914D01*
X116093333Y-140112914D02*
X115998095Y-140160533D01*
X116902857Y-139874819D02*
X117521904Y-139874819D01*
X117521904Y-139874819D02*
X117188571Y-140255771D01*
X117188571Y-140255771D02*
X117331428Y-140255771D01*
X117331428Y-140255771D02*
X117426666Y-140303390D01*
X117426666Y-140303390D02*
X117474285Y-140351009D01*
X117474285Y-140351009D02*
X117521904Y-140446247D01*
X117521904Y-140446247D02*
X117521904Y-140684342D01*
X117521904Y-140684342D02*
X117474285Y-140779580D01*
X117474285Y-140779580D02*
X117426666Y-140827200D01*
X117426666Y-140827200D02*
X117331428Y-140874819D01*
X117331428Y-140874819D02*
X117045714Y-140874819D01*
X117045714Y-140874819D02*
X116950476Y-140827200D01*
X116950476Y-140827200D02*
X116902857Y-140779580D01*
X92359580Y-133211554D02*
X92407200Y-133259173D01*
X92407200Y-133259173D02*
X92454819Y-133402030D01*
X92454819Y-133402030D02*
X92454819Y-133497268D01*
X92454819Y-133497268D02*
X92407200Y-133640125D01*
X92407200Y-133640125D02*
X92311961Y-133735363D01*
X92311961Y-133735363D02*
X92216723Y-133782982D01*
X92216723Y-133782982D02*
X92026247Y-133830601D01*
X92026247Y-133830601D02*
X91883390Y-133830601D01*
X91883390Y-133830601D02*
X91692914Y-133782982D01*
X91692914Y-133782982D02*
X91597676Y-133735363D01*
X91597676Y-133735363D02*
X91502438Y-133640125D01*
X91502438Y-133640125D02*
X91454819Y-133497268D01*
X91454819Y-133497268D02*
X91454819Y-133402030D01*
X91454819Y-133402030D02*
X91502438Y-133259173D01*
X91502438Y-133259173D02*
X91550057Y-133211554D01*
X91454819Y-132354411D02*
X91454819Y-132544887D01*
X91454819Y-132544887D02*
X91502438Y-132640125D01*
X91502438Y-132640125D02*
X91550057Y-132687744D01*
X91550057Y-132687744D02*
X91692914Y-132782982D01*
X91692914Y-132782982D02*
X91883390Y-132830601D01*
X91883390Y-132830601D02*
X92264342Y-132830601D01*
X92264342Y-132830601D02*
X92359580Y-132782982D01*
X92359580Y-132782982D02*
X92407200Y-132735363D01*
X92407200Y-132735363D02*
X92454819Y-132640125D01*
X92454819Y-132640125D02*
X92454819Y-132449649D01*
X92454819Y-132449649D02*
X92407200Y-132354411D01*
X92407200Y-132354411D02*
X92359580Y-132306792D01*
X92359580Y-132306792D02*
X92264342Y-132259173D01*
X92264342Y-132259173D02*
X92026247Y-132259173D01*
X92026247Y-132259173D02*
X91931009Y-132306792D01*
X91931009Y-132306792D02*
X91883390Y-132354411D01*
X91883390Y-132354411D02*
X91835771Y-132449649D01*
X91835771Y-132449649D02*
X91835771Y-132640125D01*
X91835771Y-132640125D02*
X91883390Y-132735363D01*
X91883390Y-132735363D02*
X91931009Y-132782982D01*
X91931009Y-132782982D02*
X92026247Y-132830601D01*
X78357142Y-135359580D02*
X78309523Y-135407200D01*
X78309523Y-135407200D02*
X78166666Y-135454819D01*
X78166666Y-135454819D02*
X78071428Y-135454819D01*
X78071428Y-135454819D02*
X77928571Y-135407200D01*
X77928571Y-135407200D02*
X77833333Y-135311961D01*
X77833333Y-135311961D02*
X77785714Y-135216723D01*
X77785714Y-135216723D02*
X77738095Y-135026247D01*
X77738095Y-135026247D02*
X77738095Y-134883390D01*
X77738095Y-134883390D02*
X77785714Y-134692914D01*
X77785714Y-134692914D02*
X77833333Y-134597676D01*
X77833333Y-134597676D02*
X77928571Y-134502438D01*
X77928571Y-134502438D02*
X78071428Y-134454819D01*
X78071428Y-134454819D02*
X78166666Y-134454819D01*
X78166666Y-134454819D02*
X78309523Y-134502438D01*
X78309523Y-134502438D02*
X78357142Y-134550057D01*
X79309523Y-135454819D02*
X78738095Y-135454819D01*
X79023809Y-135454819D02*
X79023809Y-134454819D01*
X79023809Y-134454819D02*
X78928571Y-134597676D01*
X78928571Y-134597676D02*
X78833333Y-134692914D01*
X78833333Y-134692914D02*
X78738095Y-134740533D01*
X79642857Y-134454819D02*
X80261904Y-134454819D01*
X80261904Y-134454819D02*
X79928571Y-134835771D01*
X79928571Y-134835771D02*
X80071428Y-134835771D01*
X80071428Y-134835771D02*
X80166666Y-134883390D01*
X80166666Y-134883390D02*
X80214285Y-134931009D01*
X80214285Y-134931009D02*
X80261904Y-135026247D01*
X80261904Y-135026247D02*
X80261904Y-135264342D01*
X80261904Y-135264342D02*
X80214285Y-135359580D01*
X80214285Y-135359580D02*
X80166666Y-135407200D01*
X80166666Y-135407200D02*
X80071428Y-135454819D01*
X80071428Y-135454819D02*
X79785714Y-135454819D01*
X79785714Y-135454819D02*
X79690476Y-135407200D01*
X79690476Y-135407200D02*
X79642857Y-135359580D01*
X87454819Y-53933333D02*
X88169104Y-53933333D01*
X88169104Y-53933333D02*
X88311961Y-53980952D01*
X88311961Y-53980952D02*
X88407200Y-54076190D01*
X88407200Y-54076190D02*
X88454819Y-54219047D01*
X88454819Y-54219047D02*
X88454819Y-54314285D01*
X87550057Y-53504761D02*
X87502438Y-53457142D01*
X87502438Y-53457142D02*
X87454819Y-53361904D01*
X87454819Y-53361904D02*
X87454819Y-53123809D01*
X87454819Y-53123809D02*
X87502438Y-53028571D01*
X87502438Y-53028571D02*
X87550057Y-52980952D01*
X87550057Y-52980952D02*
X87645295Y-52933333D01*
X87645295Y-52933333D02*
X87740533Y-52933333D01*
X87740533Y-52933333D02*
X87883390Y-52980952D01*
X87883390Y-52980952D02*
X88454819Y-53552380D01*
X88454819Y-53552380D02*
X88454819Y-52933333D01*
X74954819Y-90428094D02*
X73954819Y-90428094D01*
X73954819Y-90428094D02*
X73954819Y-90189999D01*
X73954819Y-90189999D02*
X74002438Y-90047142D01*
X74002438Y-90047142D02*
X74097676Y-89951904D01*
X74097676Y-89951904D02*
X74192914Y-89904285D01*
X74192914Y-89904285D02*
X74383390Y-89856666D01*
X74383390Y-89856666D02*
X74526247Y-89856666D01*
X74526247Y-89856666D02*
X74716723Y-89904285D01*
X74716723Y-89904285D02*
X74811961Y-89951904D01*
X74811961Y-89951904D02*
X74907200Y-90047142D01*
X74907200Y-90047142D02*
X74954819Y-90189999D01*
X74954819Y-90189999D02*
X74954819Y-90428094D01*
X74954819Y-88904285D02*
X74954819Y-89475713D01*
X74954819Y-89189999D02*
X73954819Y-89189999D01*
X73954819Y-89189999D02*
X74097676Y-89285237D01*
X74097676Y-89285237D02*
X74192914Y-89380475D01*
X74192914Y-89380475D02*
X74240533Y-89475713D01*
X72854819Y-95421904D02*
X71854819Y-95421904D01*
X72854819Y-94850476D02*
X72283390Y-95279047D01*
X71854819Y-94850476D02*
X72426247Y-95421904D01*
X102199580Y-133392857D02*
X102247200Y-133440476D01*
X102247200Y-133440476D02*
X102294819Y-133583333D01*
X102294819Y-133583333D02*
X102294819Y-133678571D01*
X102294819Y-133678571D02*
X102247200Y-133821428D01*
X102247200Y-133821428D02*
X102151961Y-133916666D01*
X102151961Y-133916666D02*
X102056723Y-133964285D01*
X102056723Y-133964285D02*
X101866247Y-134011904D01*
X101866247Y-134011904D02*
X101723390Y-134011904D01*
X101723390Y-134011904D02*
X101532914Y-133964285D01*
X101532914Y-133964285D02*
X101437676Y-133916666D01*
X101437676Y-133916666D02*
X101342438Y-133821428D01*
X101342438Y-133821428D02*
X101294819Y-133678571D01*
X101294819Y-133678571D02*
X101294819Y-133583333D01*
X101294819Y-133583333D02*
X101342438Y-133440476D01*
X101342438Y-133440476D02*
X101390057Y-133392857D01*
X102294819Y-132440476D02*
X102294819Y-133011904D01*
X102294819Y-132726190D02*
X101294819Y-132726190D01*
X101294819Y-132726190D02*
X101437676Y-132821428D01*
X101437676Y-132821428D02*
X101532914Y-132916666D01*
X101532914Y-132916666D02*
X101580533Y-133011904D01*
X101294819Y-131535714D02*
X101294819Y-132011904D01*
X101294819Y-132011904D02*
X101771009Y-132059523D01*
X101771009Y-132059523D02*
X101723390Y-132011904D01*
X101723390Y-132011904D02*
X101675771Y-131916666D01*
X101675771Y-131916666D02*
X101675771Y-131678571D01*
X101675771Y-131678571D02*
X101723390Y-131583333D01*
X101723390Y-131583333D02*
X101771009Y-131535714D01*
X101771009Y-131535714D02*
X101866247Y-131488095D01*
X101866247Y-131488095D02*
X102104342Y-131488095D01*
X102104342Y-131488095D02*
X102199580Y-131535714D01*
X102199580Y-131535714D02*
X102247200Y-131583333D01*
X102247200Y-131583333D02*
X102294819Y-131678571D01*
X102294819Y-131678571D02*
X102294819Y-131916666D01*
X102294819Y-131916666D02*
X102247200Y-132011904D01*
X102247200Y-132011904D02*
X102199580Y-132059523D01*
X82012319Y-127261904D02*
X82821842Y-127261904D01*
X82821842Y-127261904D02*
X82917080Y-127214285D01*
X82917080Y-127214285D02*
X82964700Y-127166666D01*
X82964700Y-127166666D02*
X83012319Y-127071428D01*
X83012319Y-127071428D02*
X83012319Y-126880952D01*
X83012319Y-126880952D02*
X82964700Y-126785714D01*
X82964700Y-126785714D02*
X82917080Y-126738095D01*
X82917080Y-126738095D02*
X82821842Y-126690476D01*
X82821842Y-126690476D02*
X82012319Y-126690476D01*
X82107557Y-126261904D02*
X82059938Y-126214285D01*
X82059938Y-126214285D02*
X82012319Y-126119047D01*
X82012319Y-126119047D02*
X82012319Y-125880952D01*
X82012319Y-125880952D02*
X82059938Y-125785714D01*
X82059938Y-125785714D02*
X82107557Y-125738095D01*
X82107557Y-125738095D02*
X82202795Y-125690476D01*
X82202795Y-125690476D02*
X82298033Y-125690476D01*
X82298033Y-125690476D02*
X82440890Y-125738095D01*
X82440890Y-125738095D02*
X83012319Y-126309523D01*
X83012319Y-126309523D02*
X83012319Y-125690476D01*
X105359580Y-68510534D02*
X105407200Y-68558153D01*
X105407200Y-68558153D02*
X105454819Y-68701010D01*
X105454819Y-68701010D02*
X105454819Y-68796248D01*
X105454819Y-68796248D02*
X105407200Y-68939105D01*
X105407200Y-68939105D02*
X105311961Y-69034343D01*
X105311961Y-69034343D02*
X105216723Y-69081962D01*
X105216723Y-69081962D02*
X105026247Y-69129581D01*
X105026247Y-69129581D02*
X104883390Y-69129581D01*
X104883390Y-69129581D02*
X104692914Y-69081962D01*
X104692914Y-69081962D02*
X104597676Y-69034343D01*
X104597676Y-69034343D02*
X104502438Y-68939105D01*
X104502438Y-68939105D02*
X104454819Y-68796248D01*
X104454819Y-68796248D02*
X104454819Y-68701010D01*
X104454819Y-68701010D02*
X104502438Y-68558153D01*
X104502438Y-68558153D02*
X104550057Y-68510534D01*
X104550057Y-68129581D02*
X104502438Y-68081962D01*
X104502438Y-68081962D02*
X104454819Y-67986724D01*
X104454819Y-67986724D02*
X104454819Y-67748629D01*
X104454819Y-67748629D02*
X104502438Y-67653391D01*
X104502438Y-67653391D02*
X104550057Y-67605772D01*
X104550057Y-67605772D02*
X104645295Y-67558153D01*
X104645295Y-67558153D02*
X104740533Y-67558153D01*
X104740533Y-67558153D02*
X104883390Y-67605772D01*
X104883390Y-67605772D02*
X105454819Y-68177200D01*
X105454819Y-68177200D02*
X105454819Y-67558153D01*
X104454819Y-66939105D02*
X104454819Y-66843867D01*
X104454819Y-66843867D02*
X104502438Y-66748629D01*
X104502438Y-66748629D02*
X104550057Y-66701010D01*
X104550057Y-66701010D02*
X104645295Y-66653391D01*
X104645295Y-66653391D02*
X104835771Y-66605772D01*
X104835771Y-66605772D02*
X105073866Y-66605772D01*
X105073866Y-66605772D02*
X105264342Y-66653391D01*
X105264342Y-66653391D02*
X105359580Y-66701010D01*
X105359580Y-66701010D02*
X105407200Y-66748629D01*
X105407200Y-66748629D02*
X105454819Y-66843867D01*
X105454819Y-66843867D02*
X105454819Y-66939105D01*
X105454819Y-66939105D02*
X105407200Y-67034343D01*
X105407200Y-67034343D02*
X105359580Y-67081962D01*
X105359580Y-67081962D02*
X105264342Y-67129581D01*
X105264342Y-67129581D02*
X105073866Y-67177200D01*
X105073866Y-67177200D02*
X104835771Y-67177200D01*
X104835771Y-67177200D02*
X104645295Y-67129581D01*
X104645295Y-67129581D02*
X104550057Y-67081962D01*
X104550057Y-67081962D02*
X104502438Y-67034343D01*
X104502438Y-67034343D02*
X104454819Y-66939105D01*
X65857142Y-135319580D02*
X65809523Y-135367200D01*
X65809523Y-135367200D02*
X65666666Y-135414819D01*
X65666666Y-135414819D02*
X65571428Y-135414819D01*
X65571428Y-135414819D02*
X65428571Y-135367200D01*
X65428571Y-135367200D02*
X65333333Y-135271961D01*
X65333333Y-135271961D02*
X65285714Y-135176723D01*
X65285714Y-135176723D02*
X65238095Y-134986247D01*
X65238095Y-134986247D02*
X65238095Y-134843390D01*
X65238095Y-134843390D02*
X65285714Y-134652914D01*
X65285714Y-134652914D02*
X65333333Y-134557676D01*
X65333333Y-134557676D02*
X65428571Y-134462438D01*
X65428571Y-134462438D02*
X65571428Y-134414819D01*
X65571428Y-134414819D02*
X65666666Y-134414819D01*
X65666666Y-134414819D02*
X65809523Y-134462438D01*
X65809523Y-134462438D02*
X65857142Y-134510057D01*
X66809523Y-135414819D02*
X66238095Y-135414819D01*
X66523809Y-135414819D02*
X66523809Y-134414819D01*
X66523809Y-134414819D02*
X66428571Y-134557676D01*
X66428571Y-134557676D02*
X66333333Y-134652914D01*
X66333333Y-134652914D02*
X66238095Y-134700533D01*
X67666666Y-134748152D02*
X67666666Y-135414819D01*
X67428571Y-134367200D02*
X67190476Y-135081485D01*
X67190476Y-135081485D02*
X67809523Y-135081485D01*
X126319580Y-134086666D02*
X126367200Y-134134285D01*
X126367200Y-134134285D02*
X126414819Y-134277142D01*
X126414819Y-134277142D02*
X126414819Y-134372380D01*
X126414819Y-134372380D02*
X126367200Y-134515237D01*
X126367200Y-134515237D02*
X126271961Y-134610475D01*
X126271961Y-134610475D02*
X126176723Y-134658094D01*
X126176723Y-134658094D02*
X125986247Y-134705713D01*
X125986247Y-134705713D02*
X125843390Y-134705713D01*
X125843390Y-134705713D02*
X125652914Y-134658094D01*
X125652914Y-134658094D02*
X125557676Y-134610475D01*
X125557676Y-134610475D02*
X125462438Y-134515237D01*
X125462438Y-134515237D02*
X125414819Y-134372380D01*
X125414819Y-134372380D02*
X125414819Y-134277142D01*
X125414819Y-134277142D02*
X125462438Y-134134285D01*
X125462438Y-134134285D02*
X125510057Y-134086666D01*
X125510057Y-133705713D02*
X125462438Y-133658094D01*
X125462438Y-133658094D02*
X125414819Y-133562856D01*
X125414819Y-133562856D02*
X125414819Y-133324761D01*
X125414819Y-133324761D02*
X125462438Y-133229523D01*
X125462438Y-133229523D02*
X125510057Y-133181904D01*
X125510057Y-133181904D02*
X125605295Y-133134285D01*
X125605295Y-133134285D02*
X125700533Y-133134285D01*
X125700533Y-133134285D02*
X125843390Y-133181904D01*
X125843390Y-133181904D02*
X126414819Y-133753332D01*
X126414819Y-133753332D02*
X126414819Y-133134285D01*
X71554819Y-85181904D02*
X70554819Y-85181904D01*
X71554819Y-84610476D02*
X70983390Y-85039047D01*
X70554819Y-84610476D02*
X71126247Y-85181904D01*
X69454819Y-91128094D02*
X68454819Y-91128094D01*
X68454819Y-91128094D02*
X68454819Y-90889999D01*
X68454819Y-90889999D02*
X68502438Y-90747142D01*
X68502438Y-90747142D02*
X68597676Y-90651904D01*
X68597676Y-90651904D02*
X68692914Y-90604285D01*
X68692914Y-90604285D02*
X68883390Y-90556666D01*
X68883390Y-90556666D02*
X69026247Y-90556666D01*
X69026247Y-90556666D02*
X69216723Y-90604285D01*
X69216723Y-90604285D02*
X69311961Y-90651904D01*
X69311961Y-90651904D02*
X69407200Y-90747142D01*
X69407200Y-90747142D02*
X69454819Y-90889999D01*
X69454819Y-90889999D02*
X69454819Y-91128094D01*
X68788152Y-89699523D02*
X69454819Y-89699523D01*
X68407200Y-89937618D02*
X69121485Y-90175713D01*
X69121485Y-90175713D02*
X69121485Y-89556666D01*
X119333333Y-115374819D02*
X119000000Y-114898628D01*
X118761905Y-115374819D02*
X118761905Y-114374819D01*
X118761905Y-114374819D02*
X119142857Y-114374819D01*
X119142857Y-114374819D02*
X119238095Y-114422438D01*
X119238095Y-114422438D02*
X119285714Y-114470057D01*
X119285714Y-114470057D02*
X119333333Y-114565295D01*
X119333333Y-114565295D02*
X119333333Y-114708152D01*
X119333333Y-114708152D02*
X119285714Y-114803390D01*
X119285714Y-114803390D02*
X119238095Y-114851009D01*
X119238095Y-114851009D02*
X119142857Y-114898628D01*
X119142857Y-114898628D02*
X118761905Y-114898628D01*
X119666667Y-114374819D02*
X120285714Y-114374819D01*
X120285714Y-114374819D02*
X119952381Y-114755771D01*
X119952381Y-114755771D02*
X120095238Y-114755771D01*
X120095238Y-114755771D02*
X120190476Y-114803390D01*
X120190476Y-114803390D02*
X120238095Y-114851009D01*
X120238095Y-114851009D02*
X120285714Y-114946247D01*
X120285714Y-114946247D02*
X120285714Y-115184342D01*
X120285714Y-115184342D02*
X120238095Y-115279580D01*
X120238095Y-115279580D02*
X120190476Y-115327200D01*
X120190476Y-115327200D02*
X120095238Y-115374819D01*
X120095238Y-115374819D02*
X119809524Y-115374819D01*
X119809524Y-115374819D02*
X119714286Y-115327200D01*
X119714286Y-115327200D02*
X119666667Y-115279580D01*
X69512319Y-127761904D02*
X70321842Y-127761904D01*
X70321842Y-127761904D02*
X70417080Y-127714285D01*
X70417080Y-127714285D02*
X70464700Y-127666666D01*
X70464700Y-127666666D02*
X70512319Y-127571428D01*
X70512319Y-127571428D02*
X70512319Y-127380952D01*
X70512319Y-127380952D02*
X70464700Y-127285714D01*
X70464700Y-127285714D02*
X70417080Y-127238095D01*
X70417080Y-127238095D02*
X70321842Y-127190476D01*
X70321842Y-127190476D02*
X69512319Y-127190476D01*
X69845652Y-126285714D02*
X70512319Y-126285714D01*
X69464700Y-126523809D02*
X70178985Y-126761904D01*
X70178985Y-126761904D02*
X70178985Y-126142857D01*
X95833333Y-118454819D02*
X95500000Y-117978628D01*
X95261905Y-118454819D02*
X95261905Y-117454819D01*
X95261905Y-117454819D02*
X95642857Y-117454819D01*
X95642857Y-117454819D02*
X95738095Y-117502438D01*
X95738095Y-117502438D02*
X95785714Y-117550057D01*
X95785714Y-117550057D02*
X95833333Y-117645295D01*
X95833333Y-117645295D02*
X95833333Y-117788152D01*
X95833333Y-117788152D02*
X95785714Y-117883390D01*
X95785714Y-117883390D02*
X95738095Y-117931009D01*
X95738095Y-117931009D02*
X95642857Y-117978628D01*
X95642857Y-117978628D02*
X95261905Y-117978628D01*
X96404762Y-117883390D02*
X96309524Y-117835771D01*
X96309524Y-117835771D02*
X96261905Y-117788152D01*
X96261905Y-117788152D02*
X96214286Y-117692914D01*
X96214286Y-117692914D02*
X96214286Y-117645295D01*
X96214286Y-117645295D02*
X96261905Y-117550057D01*
X96261905Y-117550057D02*
X96309524Y-117502438D01*
X96309524Y-117502438D02*
X96404762Y-117454819D01*
X96404762Y-117454819D02*
X96595238Y-117454819D01*
X96595238Y-117454819D02*
X96690476Y-117502438D01*
X96690476Y-117502438D02*
X96738095Y-117550057D01*
X96738095Y-117550057D02*
X96785714Y-117645295D01*
X96785714Y-117645295D02*
X96785714Y-117692914D01*
X96785714Y-117692914D02*
X96738095Y-117788152D01*
X96738095Y-117788152D02*
X96690476Y-117835771D01*
X96690476Y-117835771D02*
X96595238Y-117883390D01*
X96595238Y-117883390D02*
X96404762Y-117883390D01*
X96404762Y-117883390D02*
X96309524Y-117931009D01*
X96309524Y-117931009D02*
X96261905Y-117978628D01*
X96261905Y-117978628D02*
X96214286Y-118073866D01*
X96214286Y-118073866D02*
X96214286Y-118264342D01*
X96214286Y-118264342D02*
X96261905Y-118359580D01*
X96261905Y-118359580D02*
X96309524Y-118407200D01*
X96309524Y-118407200D02*
X96404762Y-118454819D01*
X96404762Y-118454819D02*
X96595238Y-118454819D01*
X96595238Y-118454819D02*
X96690476Y-118407200D01*
X96690476Y-118407200D02*
X96738095Y-118359580D01*
X96738095Y-118359580D02*
X96785714Y-118264342D01*
X96785714Y-118264342D02*
X96785714Y-118073866D01*
X96785714Y-118073866D02*
X96738095Y-117978628D01*
X96738095Y-117978628D02*
X96690476Y-117931009D01*
X96690476Y-117931009D02*
X96595238Y-117883390D01*
X122859580Y-83892857D02*
X122907200Y-83940476D01*
X122907200Y-83940476D02*
X122954819Y-84083333D01*
X122954819Y-84083333D02*
X122954819Y-84178571D01*
X122954819Y-84178571D02*
X122907200Y-84321428D01*
X122907200Y-84321428D02*
X122811961Y-84416666D01*
X122811961Y-84416666D02*
X122716723Y-84464285D01*
X122716723Y-84464285D02*
X122526247Y-84511904D01*
X122526247Y-84511904D02*
X122383390Y-84511904D01*
X122383390Y-84511904D02*
X122192914Y-84464285D01*
X122192914Y-84464285D02*
X122097676Y-84416666D01*
X122097676Y-84416666D02*
X122002438Y-84321428D01*
X122002438Y-84321428D02*
X121954819Y-84178571D01*
X121954819Y-84178571D02*
X121954819Y-84083333D01*
X121954819Y-84083333D02*
X122002438Y-83940476D01*
X122002438Y-83940476D02*
X122050057Y-83892857D01*
X122954819Y-82940476D02*
X122954819Y-83511904D01*
X122954819Y-83226190D02*
X121954819Y-83226190D01*
X121954819Y-83226190D02*
X122097676Y-83321428D01*
X122097676Y-83321428D02*
X122192914Y-83416666D01*
X122192914Y-83416666D02*
X122240533Y-83511904D01*
X121954819Y-82321428D02*
X121954819Y-82226190D01*
X121954819Y-82226190D02*
X122002438Y-82130952D01*
X122002438Y-82130952D02*
X122050057Y-82083333D01*
X122050057Y-82083333D02*
X122145295Y-82035714D01*
X122145295Y-82035714D02*
X122335771Y-81988095D01*
X122335771Y-81988095D02*
X122573866Y-81988095D01*
X122573866Y-81988095D02*
X122764342Y-82035714D01*
X122764342Y-82035714D02*
X122859580Y-82083333D01*
X122859580Y-82083333D02*
X122907200Y-82130952D01*
X122907200Y-82130952D02*
X122954819Y-82226190D01*
X122954819Y-82226190D02*
X122954819Y-82321428D01*
X122954819Y-82321428D02*
X122907200Y-82416666D01*
X122907200Y-82416666D02*
X122859580Y-82464285D01*
X122859580Y-82464285D02*
X122764342Y-82511904D01*
X122764342Y-82511904D02*
X122573866Y-82559523D01*
X122573866Y-82559523D02*
X122335771Y-82559523D01*
X122335771Y-82559523D02*
X122145295Y-82511904D01*
X122145295Y-82511904D02*
X122050057Y-82464285D01*
X122050057Y-82464285D02*
X122002438Y-82416666D01*
X122002438Y-82416666D02*
X121954819Y-82321428D01*
X134357142Y-75359580D02*
X134309523Y-75407200D01*
X134309523Y-75407200D02*
X134166666Y-75454819D01*
X134166666Y-75454819D02*
X134071428Y-75454819D01*
X134071428Y-75454819D02*
X133928571Y-75407200D01*
X133928571Y-75407200D02*
X133833333Y-75311961D01*
X133833333Y-75311961D02*
X133785714Y-75216723D01*
X133785714Y-75216723D02*
X133738095Y-75026247D01*
X133738095Y-75026247D02*
X133738095Y-74883390D01*
X133738095Y-74883390D02*
X133785714Y-74692914D01*
X133785714Y-74692914D02*
X133833333Y-74597676D01*
X133833333Y-74597676D02*
X133928571Y-74502438D01*
X133928571Y-74502438D02*
X134071428Y-74454819D01*
X134071428Y-74454819D02*
X134166666Y-74454819D01*
X134166666Y-74454819D02*
X134309523Y-74502438D01*
X134309523Y-74502438D02*
X134357142Y-74550057D01*
X135309523Y-75454819D02*
X134738095Y-75454819D01*
X135023809Y-75454819D02*
X135023809Y-74454819D01*
X135023809Y-74454819D02*
X134928571Y-74597676D01*
X134928571Y-74597676D02*
X134833333Y-74692914D01*
X134833333Y-74692914D02*
X134738095Y-74740533D01*
X135785714Y-75454819D02*
X135976190Y-75454819D01*
X135976190Y-75454819D02*
X136071428Y-75407200D01*
X136071428Y-75407200D02*
X136119047Y-75359580D01*
X136119047Y-75359580D02*
X136214285Y-75216723D01*
X136214285Y-75216723D02*
X136261904Y-75026247D01*
X136261904Y-75026247D02*
X136261904Y-74645295D01*
X136261904Y-74645295D02*
X136214285Y-74550057D01*
X136214285Y-74550057D02*
X136166666Y-74502438D01*
X136166666Y-74502438D02*
X136071428Y-74454819D01*
X136071428Y-74454819D02*
X135880952Y-74454819D01*
X135880952Y-74454819D02*
X135785714Y-74502438D01*
X135785714Y-74502438D02*
X135738095Y-74550057D01*
X135738095Y-74550057D02*
X135690476Y-74645295D01*
X135690476Y-74645295D02*
X135690476Y-74883390D01*
X135690476Y-74883390D02*
X135738095Y-74978628D01*
X135738095Y-74978628D02*
X135785714Y-75026247D01*
X135785714Y-75026247D02*
X135880952Y-75073866D01*
X135880952Y-75073866D02*
X136071428Y-75073866D01*
X136071428Y-75073866D02*
X136166666Y-75026247D01*
X136166666Y-75026247D02*
X136214285Y-74978628D01*
X136214285Y-74978628D02*
X136261904Y-74883390D01*
X95794819Y-100062857D02*
X95318628Y-100396190D01*
X95794819Y-100634285D02*
X94794819Y-100634285D01*
X94794819Y-100634285D02*
X94794819Y-100253333D01*
X94794819Y-100253333D02*
X94842438Y-100158095D01*
X94842438Y-100158095D02*
X94890057Y-100110476D01*
X94890057Y-100110476D02*
X94985295Y-100062857D01*
X94985295Y-100062857D02*
X95128152Y-100062857D01*
X95128152Y-100062857D02*
X95223390Y-100110476D01*
X95223390Y-100110476D02*
X95271009Y-100158095D01*
X95271009Y-100158095D02*
X95318628Y-100253333D01*
X95318628Y-100253333D02*
X95318628Y-100634285D01*
X95794819Y-99110476D02*
X95794819Y-99681904D01*
X95794819Y-99396190D02*
X94794819Y-99396190D01*
X94794819Y-99396190D02*
X94937676Y-99491428D01*
X94937676Y-99491428D02*
X95032914Y-99586666D01*
X95032914Y-99586666D02*
X95080533Y-99681904D01*
X95794819Y-98158095D02*
X95794819Y-98729523D01*
X95794819Y-98443809D02*
X94794819Y-98443809D01*
X94794819Y-98443809D02*
X94937676Y-98539047D01*
X94937676Y-98539047D02*
X95032914Y-98634285D01*
X95032914Y-98634285D02*
X95080533Y-98729523D01*
X121857142Y-54859580D02*
X121809523Y-54907200D01*
X121809523Y-54907200D02*
X121666666Y-54954819D01*
X121666666Y-54954819D02*
X121571428Y-54954819D01*
X121571428Y-54954819D02*
X121428571Y-54907200D01*
X121428571Y-54907200D02*
X121333333Y-54811961D01*
X121333333Y-54811961D02*
X121285714Y-54716723D01*
X121285714Y-54716723D02*
X121238095Y-54526247D01*
X121238095Y-54526247D02*
X121238095Y-54383390D01*
X121238095Y-54383390D02*
X121285714Y-54192914D01*
X121285714Y-54192914D02*
X121333333Y-54097676D01*
X121333333Y-54097676D02*
X121428571Y-54002438D01*
X121428571Y-54002438D02*
X121571428Y-53954819D01*
X121571428Y-53954819D02*
X121666666Y-53954819D01*
X121666666Y-53954819D02*
X121809523Y-54002438D01*
X121809523Y-54002438D02*
X121857142Y-54050057D01*
X122238095Y-54050057D02*
X122285714Y-54002438D01*
X122285714Y-54002438D02*
X122380952Y-53954819D01*
X122380952Y-53954819D02*
X122619047Y-53954819D01*
X122619047Y-53954819D02*
X122714285Y-54002438D01*
X122714285Y-54002438D02*
X122761904Y-54050057D01*
X122761904Y-54050057D02*
X122809523Y-54145295D01*
X122809523Y-54145295D02*
X122809523Y-54240533D01*
X122809523Y-54240533D02*
X122761904Y-54383390D01*
X122761904Y-54383390D02*
X122190476Y-54954819D01*
X122190476Y-54954819D02*
X122809523Y-54954819D01*
X123190476Y-54050057D02*
X123238095Y-54002438D01*
X123238095Y-54002438D02*
X123333333Y-53954819D01*
X123333333Y-53954819D02*
X123571428Y-53954819D01*
X123571428Y-53954819D02*
X123666666Y-54002438D01*
X123666666Y-54002438D02*
X123714285Y-54050057D01*
X123714285Y-54050057D02*
X123761904Y-54145295D01*
X123761904Y-54145295D02*
X123761904Y-54240533D01*
X123761904Y-54240533D02*
X123714285Y-54383390D01*
X123714285Y-54383390D02*
X123142857Y-54954819D01*
X123142857Y-54954819D02*
X123761904Y-54954819D01*
X98554819Y-107842857D02*
X98078628Y-108176190D01*
X98554819Y-108414285D02*
X97554819Y-108414285D01*
X97554819Y-108414285D02*
X97554819Y-108033333D01*
X97554819Y-108033333D02*
X97602438Y-107938095D01*
X97602438Y-107938095D02*
X97650057Y-107890476D01*
X97650057Y-107890476D02*
X97745295Y-107842857D01*
X97745295Y-107842857D02*
X97888152Y-107842857D01*
X97888152Y-107842857D02*
X97983390Y-107890476D01*
X97983390Y-107890476D02*
X98031009Y-107938095D01*
X98031009Y-107938095D02*
X98078628Y-108033333D01*
X98078628Y-108033333D02*
X98078628Y-108414285D01*
X98554819Y-106890476D02*
X98554819Y-107461904D01*
X98554819Y-107176190D02*
X97554819Y-107176190D01*
X97554819Y-107176190D02*
X97697676Y-107271428D01*
X97697676Y-107271428D02*
X97792914Y-107366666D01*
X97792914Y-107366666D02*
X97840533Y-107461904D01*
X97554819Y-106271428D02*
X97554819Y-106176190D01*
X97554819Y-106176190D02*
X97602438Y-106080952D01*
X97602438Y-106080952D02*
X97650057Y-106033333D01*
X97650057Y-106033333D02*
X97745295Y-105985714D01*
X97745295Y-105985714D02*
X97935771Y-105938095D01*
X97935771Y-105938095D02*
X98173866Y-105938095D01*
X98173866Y-105938095D02*
X98364342Y-105985714D01*
X98364342Y-105985714D02*
X98459580Y-106033333D01*
X98459580Y-106033333D02*
X98507200Y-106080952D01*
X98507200Y-106080952D02*
X98554819Y-106176190D01*
X98554819Y-106176190D02*
X98554819Y-106271428D01*
X98554819Y-106271428D02*
X98507200Y-106366666D01*
X98507200Y-106366666D02*
X98459580Y-106414285D01*
X98459580Y-106414285D02*
X98364342Y-106461904D01*
X98364342Y-106461904D02*
X98173866Y-106509523D01*
X98173866Y-106509523D02*
X97935771Y-106509523D01*
X97935771Y-106509523D02*
X97745295Y-106461904D01*
X97745295Y-106461904D02*
X97650057Y-106414285D01*
X97650057Y-106414285D02*
X97602438Y-106366666D01*
X97602438Y-106366666D02*
X97554819Y-106271428D01*
X119253333Y-100454819D02*
X118920000Y-99978628D01*
X118681905Y-100454819D02*
X118681905Y-99454819D01*
X118681905Y-99454819D02*
X119062857Y-99454819D01*
X119062857Y-99454819D02*
X119158095Y-99502438D01*
X119158095Y-99502438D02*
X119205714Y-99550057D01*
X119205714Y-99550057D02*
X119253333Y-99645295D01*
X119253333Y-99645295D02*
X119253333Y-99788152D01*
X119253333Y-99788152D02*
X119205714Y-99883390D01*
X119205714Y-99883390D02*
X119158095Y-99931009D01*
X119158095Y-99931009D02*
X119062857Y-99978628D01*
X119062857Y-99978628D02*
X118681905Y-99978628D01*
X119586667Y-99454819D02*
X120253333Y-99454819D01*
X120253333Y-99454819D02*
X119824762Y-100454819D01*
X121697142Y-49374819D02*
X121363809Y-48898628D01*
X121125714Y-49374819D02*
X121125714Y-48374819D01*
X121125714Y-48374819D02*
X121506666Y-48374819D01*
X121506666Y-48374819D02*
X121601904Y-48422438D01*
X121601904Y-48422438D02*
X121649523Y-48470057D01*
X121649523Y-48470057D02*
X121697142Y-48565295D01*
X121697142Y-48565295D02*
X121697142Y-48708152D01*
X121697142Y-48708152D02*
X121649523Y-48803390D01*
X121649523Y-48803390D02*
X121601904Y-48851009D01*
X121601904Y-48851009D02*
X121506666Y-48898628D01*
X121506666Y-48898628D02*
X121125714Y-48898628D01*
X122649523Y-49374819D02*
X122078095Y-49374819D01*
X122363809Y-49374819D02*
X122363809Y-48374819D01*
X122363809Y-48374819D02*
X122268571Y-48517676D01*
X122268571Y-48517676D02*
X122173333Y-48612914D01*
X122173333Y-48612914D02*
X122078095Y-48660533D01*
X123125714Y-49374819D02*
X123316190Y-49374819D01*
X123316190Y-49374819D02*
X123411428Y-49327200D01*
X123411428Y-49327200D02*
X123459047Y-49279580D01*
X123459047Y-49279580D02*
X123554285Y-49136723D01*
X123554285Y-49136723D02*
X123601904Y-48946247D01*
X123601904Y-48946247D02*
X123601904Y-48565295D01*
X123601904Y-48565295D02*
X123554285Y-48470057D01*
X123554285Y-48470057D02*
X123506666Y-48422438D01*
X123506666Y-48422438D02*
X123411428Y-48374819D01*
X123411428Y-48374819D02*
X123220952Y-48374819D01*
X123220952Y-48374819D02*
X123125714Y-48422438D01*
X123125714Y-48422438D02*
X123078095Y-48470057D01*
X123078095Y-48470057D02*
X123030476Y-48565295D01*
X123030476Y-48565295D02*
X123030476Y-48803390D01*
X123030476Y-48803390D02*
X123078095Y-48898628D01*
X123078095Y-48898628D02*
X123125714Y-48946247D01*
X123125714Y-48946247D02*
X123220952Y-48993866D01*
X123220952Y-48993866D02*
X123411428Y-48993866D01*
X123411428Y-48993866D02*
X123506666Y-48946247D01*
X123506666Y-48946247D02*
X123554285Y-48898628D01*
X123554285Y-48898628D02*
X123601904Y-48803390D01*
X133859580Y-133836666D02*
X133907200Y-133884285D01*
X133907200Y-133884285D02*
X133954819Y-134027142D01*
X133954819Y-134027142D02*
X133954819Y-134122380D01*
X133954819Y-134122380D02*
X133907200Y-134265237D01*
X133907200Y-134265237D02*
X133811961Y-134360475D01*
X133811961Y-134360475D02*
X133716723Y-134408094D01*
X133716723Y-134408094D02*
X133526247Y-134455713D01*
X133526247Y-134455713D02*
X133383390Y-134455713D01*
X133383390Y-134455713D02*
X133192914Y-134408094D01*
X133192914Y-134408094D02*
X133097676Y-134360475D01*
X133097676Y-134360475D02*
X133002438Y-134265237D01*
X133002438Y-134265237D02*
X132954819Y-134122380D01*
X132954819Y-134122380D02*
X132954819Y-134027142D01*
X132954819Y-134027142D02*
X133002438Y-133884285D01*
X133002438Y-133884285D02*
X133050057Y-133836666D01*
X133954819Y-132884285D02*
X133954819Y-133455713D01*
X133954819Y-133169999D02*
X132954819Y-133169999D01*
X132954819Y-133169999D02*
X133097676Y-133265237D01*
X133097676Y-133265237D02*
X133192914Y-133360475D01*
X133192914Y-133360475D02*
X133240533Y-133455713D01*
X118777142Y-121374819D02*
X118443809Y-120898628D01*
X118205714Y-121374819D02*
X118205714Y-120374819D01*
X118205714Y-120374819D02*
X118586666Y-120374819D01*
X118586666Y-120374819D02*
X118681904Y-120422438D01*
X118681904Y-120422438D02*
X118729523Y-120470057D01*
X118729523Y-120470057D02*
X118777142Y-120565295D01*
X118777142Y-120565295D02*
X118777142Y-120708152D01*
X118777142Y-120708152D02*
X118729523Y-120803390D01*
X118729523Y-120803390D02*
X118681904Y-120851009D01*
X118681904Y-120851009D02*
X118586666Y-120898628D01*
X118586666Y-120898628D02*
X118205714Y-120898628D01*
X119729523Y-121374819D02*
X119158095Y-121374819D01*
X119443809Y-121374819D02*
X119443809Y-120374819D01*
X119443809Y-120374819D02*
X119348571Y-120517676D01*
X119348571Y-120517676D02*
X119253333Y-120612914D01*
X119253333Y-120612914D02*
X119158095Y-120660533D01*
X120586666Y-120374819D02*
X120396190Y-120374819D01*
X120396190Y-120374819D02*
X120300952Y-120422438D01*
X120300952Y-120422438D02*
X120253333Y-120470057D01*
X120253333Y-120470057D02*
X120158095Y-120612914D01*
X120158095Y-120612914D02*
X120110476Y-120803390D01*
X120110476Y-120803390D02*
X120110476Y-121184342D01*
X120110476Y-121184342D02*
X120158095Y-121279580D01*
X120158095Y-121279580D02*
X120205714Y-121327200D01*
X120205714Y-121327200D02*
X120300952Y-121374819D01*
X120300952Y-121374819D02*
X120491428Y-121374819D01*
X120491428Y-121374819D02*
X120586666Y-121327200D01*
X120586666Y-121327200D02*
X120634285Y-121279580D01*
X120634285Y-121279580D02*
X120681904Y-121184342D01*
X120681904Y-121184342D02*
X120681904Y-120946247D01*
X120681904Y-120946247D02*
X120634285Y-120851009D01*
X120634285Y-120851009D02*
X120586666Y-120803390D01*
X120586666Y-120803390D02*
X120491428Y-120755771D01*
X120491428Y-120755771D02*
X120300952Y-120755771D01*
X120300952Y-120755771D02*
X120205714Y-120803390D01*
X120205714Y-120803390D02*
X120158095Y-120851009D01*
X120158095Y-120851009D02*
X120110476Y-120946247D01*
X119359580Y-68142857D02*
X119407200Y-68190476D01*
X119407200Y-68190476D02*
X119454819Y-68333333D01*
X119454819Y-68333333D02*
X119454819Y-68428571D01*
X119454819Y-68428571D02*
X119407200Y-68571428D01*
X119407200Y-68571428D02*
X119311961Y-68666666D01*
X119311961Y-68666666D02*
X119216723Y-68714285D01*
X119216723Y-68714285D02*
X119026247Y-68761904D01*
X119026247Y-68761904D02*
X118883390Y-68761904D01*
X118883390Y-68761904D02*
X118692914Y-68714285D01*
X118692914Y-68714285D02*
X118597676Y-68666666D01*
X118597676Y-68666666D02*
X118502438Y-68571428D01*
X118502438Y-68571428D02*
X118454819Y-68428571D01*
X118454819Y-68428571D02*
X118454819Y-68333333D01*
X118454819Y-68333333D02*
X118502438Y-68190476D01*
X118502438Y-68190476D02*
X118550057Y-68142857D01*
X118550057Y-67761904D02*
X118502438Y-67714285D01*
X118502438Y-67714285D02*
X118454819Y-67619047D01*
X118454819Y-67619047D02*
X118454819Y-67380952D01*
X118454819Y-67380952D02*
X118502438Y-67285714D01*
X118502438Y-67285714D02*
X118550057Y-67238095D01*
X118550057Y-67238095D02*
X118645295Y-67190476D01*
X118645295Y-67190476D02*
X118740533Y-67190476D01*
X118740533Y-67190476D02*
X118883390Y-67238095D01*
X118883390Y-67238095D02*
X119454819Y-67809523D01*
X119454819Y-67809523D02*
X119454819Y-67190476D01*
X119454819Y-66238095D02*
X119454819Y-66809523D01*
X119454819Y-66523809D02*
X118454819Y-66523809D01*
X118454819Y-66523809D02*
X118597676Y-66619047D01*
X118597676Y-66619047D02*
X118692914Y-66714285D01*
X118692914Y-66714285D02*
X118740533Y-66809523D01*
X130859580Y-117166666D02*
X130907200Y-117214285D01*
X130907200Y-117214285D02*
X130954819Y-117357142D01*
X130954819Y-117357142D02*
X130954819Y-117452380D01*
X130954819Y-117452380D02*
X130907200Y-117595237D01*
X130907200Y-117595237D02*
X130811961Y-117690475D01*
X130811961Y-117690475D02*
X130716723Y-117738094D01*
X130716723Y-117738094D02*
X130526247Y-117785713D01*
X130526247Y-117785713D02*
X130383390Y-117785713D01*
X130383390Y-117785713D02*
X130192914Y-117738094D01*
X130192914Y-117738094D02*
X130097676Y-117690475D01*
X130097676Y-117690475D02*
X130002438Y-117595237D01*
X130002438Y-117595237D02*
X129954819Y-117452380D01*
X129954819Y-117452380D02*
X129954819Y-117357142D01*
X129954819Y-117357142D02*
X130002438Y-117214285D01*
X130002438Y-117214285D02*
X130050057Y-117166666D01*
X130383390Y-116595237D02*
X130335771Y-116690475D01*
X130335771Y-116690475D02*
X130288152Y-116738094D01*
X130288152Y-116738094D02*
X130192914Y-116785713D01*
X130192914Y-116785713D02*
X130145295Y-116785713D01*
X130145295Y-116785713D02*
X130050057Y-116738094D01*
X130050057Y-116738094D02*
X130002438Y-116690475D01*
X130002438Y-116690475D02*
X129954819Y-116595237D01*
X129954819Y-116595237D02*
X129954819Y-116404761D01*
X129954819Y-116404761D02*
X130002438Y-116309523D01*
X130002438Y-116309523D02*
X130050057Y-116261904D01*
X130050057Y-116261904D02*
X130145295Y-116214285D01*
X130145295Y-116214285D02*
X130192914Y-116214285D01*
X130192914Y-116214285D02*
X130288152Y-116261904D01*
X130288152Y-116261904D02*
X130335771Y-116309523D01*
X130335771Y-116309523D02*
X130383390Y-116404761D01*
X130383390Y-116404761D02*
X130383390Y-116595237D01*
X130383390Y-116595237D02*
X130431009Y-116690475D01*
X130431009Y-116690475D02*
X130478628Y-116738094D01*
X130478628Y-116738094D02*
X130573866Y-116785713D01*
X130573866Y-116785713D02*
X130764342Y-116785713D01*
X130764342Y-116785713D02*
X130859580Y-116738094D01*
X130859580Y-116738094D02*
X130907200Y-116690475D01*
X130907200Y-116690475D02*
X130954819Y-116595237D01*
X130954819Y-116595237D02*
X130954819Y-116404761D01*
X130954819Y-116404761D02*
X130907200Y-116309523D01*
X130907200Y-116309523D02*
X130859580Y-116261904D01*
X130859580Y-116261904D02*
X130764342Y-116214285D01*
X130764342Y-116214285D02*
X130573866Y-116214285D01*
X130573866Y-116214285D02*
X130478628Y-116261904D01*
X130478628Y-116261904D02*
X130431009Y-116309523D01*
X130431009Y-116309523D02*
X130383390Y-116404761D01*
X92333333Y-65779580D02*
X92285714Y-65827200D01*
X92285714Y-65827200D02*
X92142857Y-65874819D01*
X92142857Y-65874819D02*
X92047619Y-65874819D01*
X92047619Y-65874819D02*
X91904762Y-65827200D01*
X91904762Y-65827200D02*
X91809524Y-65731961D01*
X91809524Y-65731961D02*
X91761905Y-65636723D01*
X91761905Y-65636723D02*
X91714286Y-65446247D01*
X91714286Y-65446247D02*
X91714286Y-65303390D01*
X91714286Y-65303390D02*
X91761905Y-65112914D01*
X91761905Y-65112914D02*
X91809524Y-65017676D01*
X91809524Y-65017676D02*
X91904762Y-64922438D01*
X91904762Y-64922438D02*
X92047619Y-64874819D01*
X92047619Y-64874819D02*
X92142857Y-64874819D01*
X92142857Y-64874819D02*
X92285714Y-64922438D01*
X92285714Y-64922438D02*
X92333333Y-64970057D01*
X93190476Y-65208152D02*
X93190476Y-65874819D01*
X92952381Y-64827200D02*
X92714286Y-65541485D01*
X92714286Y-65541485D02*
X93333333Y-65541485D01*
X92333333Y-72359580D02*
X92285714Y-72407200D01*
X92285714Y-72407200D02*
X92142857Y-72454819D01*
X92142857Y-72454819D02*
X92047619Y-72454819D01*
X92047619Y-72454819D02*
X91904762Y-72407200D01*
X91904762Y-72407200D02*
X91809524Y-72311961D01*
X91809524Y-72311961D02*
X91761905Y-72216723D01*
X91761905Y-72216723D02*
X91714286Y-72026247D01*
X91714286Y-72026247D02*
X91714286Y-71883390D01*
X91714286Y-71883390D02*
X91761905Y-71692914D01*
X91761905Y-71692914D02*
X91809524Y-71597676D01*
X91809524Y-71597676D02*
X91904762Y-71502438D01*
X91904762Y-71502438D02*
X92047619Y-71454819D01*
X92047619Y-71454819D02*
X92142857Y-71454819D01*
X92142857Y-71454819D02*
X92285714Y-71502438D01*
X92285714Y-71502438D02*
X92333333Y-71550057D01*
X92666667Y-71454819D02*
X93285714Y-71454819D01*
X93285714Y-71454819D02*
X92952381Y-71835771D01*
X92952381Y-71835771D02*
X93095238Y-71835771D01*
X93095238Y-71835771D02*
X93190476Y-71883390D01*
X93190476Y-71883390D02*
X93238095Y-71931009D01*
X93238095Y-71931009D02*
X93285714Y-72026247D01*
X93285714Y-72026247D02*
X93285714Y-72264342D01*
X93285714Y-72264342D02*
X93238095Y-72359580D01*
X93238095Y-72359580D02*
X93190476Y-72407200D01*
X93190476Y-72407200D02*
X93095238Y-72454819D01*
X93095238Y-72454819D02*
X92809524Y-72454819D01*
X92809524Y-72454819D02*
X92714286Y-72407200D01*
X92714286Y-72407200D02*
X92666667Y-72359580D01*
X108454819Y-99666666D02*
X107978628Y-99999999D01*
X108454819Y-100238094D02*
X107454819Y-100238094D01*
X107454819Y-100238094D02*
X107454819Y-99857142D01*
X107454819Y-99857142D02*
X107502438Y-99761904D01*
X107502438Y-99761904D02*
X107550057Y-99714285D01*
X107550057Y-99714285D02*
X107645295Y-99666666D01*
X107645295Y-99666666D02*
X107788152Y-99666666D01*
X107788152Y-99666666D02*
X107883390Y-99714285D01*
X107883390Y-99714285D02*
X107931009Y-99761904D01*
X107931009Y-99761904D02*
X107978628Y-99857142D01*
X107978628Y-99857142D02*
X107978628Y-100238094D01*
X108454819Y-98714285D02*
X108454819Y-99285713D01*
X108454819Y-98999999D02*
X107454819Y-98999999D01*
X107454819Y-98999999D02*
X107597676Y-99095237D01*
X107597676Y-99095237D02*
X107692914Y-99190475D01*
X107692914Y-99190475D02*
X107740533Y-99285713D01*
X56294819Y-86253333D02*
X57009104Y-86253333D01*
X57009104Y-86253333D02*
X57151961Y-86300952D01*
X57151961Y-86300952D02*
X57247200Y-86396190D01*
X57247200Y-86396190D02*
X57294819Y-86539047D01*
X57294819Y-86539047D02*
X57294819Y-86634285D01*
X56628152Y-85348571D02*
X57294819Y-85348571D01*
X56247200Y-85586666D02*
X56961485Y-85824761D01*
X56961485Y-85824761D02*
X56961485Y-85205714D01*
X88054819Y-85181904D02*
X87054819Y-85181904D01*
X88054819Y-84610476D02*
X87483390Y-85039047D01*
X87054819Y-84610476D02*
X87626247Y-85181904D01*
X85954819Y-91128094D02*
X84954819Y-91128094D01*
X84954819Y-91128094D02*
X84954819Y-90889999D01*
X84954819Y-90889999D02*
X85002438Y-90747142D01*
X85002438Y-90747142D02*
X85097676Y-90651904D01*
X85097676Y-90651904D02*
X85192914Y-90604285D01*
X85192914Y-90604285D02*
X85383390Y-90556666D01*
X85383390Y-90556666D02*
X85526247Y-90556666D01*
X85526247Y-90556666D02*
X85716723Y-90604285D01*
X85716723Y-90604285D02*
X85811961Y-90651904D01*
X85811961Y-90651904D02*
X85907200Y-90747142D01*
X85907200Y-90747142D02*
X85954819Y-90889999D01*
X85954819Y-90889999D02*
X85954819Y-91128094D01*
X84954819Y-90223332D02*
X84954819Y-89604285D01*
X84954819Y-89604285D02*
X85335771Y-89937618D01*
X85335771Y-89937618D02*
X85335771Y-89794761D01*
X85335771Y-89794761D02*
X85383390Y-89699523D01*
X85383390Y-89699523D02*
X85431009Y-89651904D01*
X85431009Y-89651904D02*
X85526247Y-89604285D01*
X85526247Y-89604285D02*
X85764342Y-89604285D01*
X85764342Y-89604285D02*
X85859580Y-89651904D01*
X85859580Y-89651904D02*
X85907200Y-89699523D01*
X85907200Y-89699523D02*
X85954819Y-89794761D01*
X85954819Y-89794761D02*
X85954819Y-90080475D01*
X85954819Y-90080475D02*
X85907200Y-90175713D01*
X85907200Y-90175713D02*
X85859580Y-90223332D01*
X65357142Y-106859580D02*
X65309523Y-106907200D01*
X65309523Y-106907200D02*
X65166666Y-106954819D01*
X65166666Y-106954819D02*
X65071428Y-106954819D01*
X65071428Y-106954819D02*
X64928571Y-106907200D01*
X64928571Y-106907200D02*
X64833333Y-106811961D01*
X64833333Y-106811961D02*
X64785714Y-106716723D01*
X64785714Y-106716723D02*
X64738095Y-106526247D01*
X64738095Y-106526247D02*
X64738095Y-106383390D01*
X64738095Y-106383390D02*
X64785714Y-106192914D01*
X64785714Y-106192914D02*
X64833333Y-106097676D01*
X64833333Y-106097676D02*
X64928571Y-106002438D01*
X64928571Y-106002438D02*
X65071428Y-105954819D01*
X65071428Y-105954819D02*
X65166666Y-105954819D01*
X65166666Y-105954819D02*
X65309523Y-106002438D01*
X65309523Y-106002438D02*
X65357142Y-106050057D01*
X66309523Y-106954819D02*
X65738095Y-106954819D01*
X66023809Y-106954819D02*
X66023809Y-105954819D01*
X66023809Y-105954819D02*
X65928571Y-106097676D01*
X65928571Y-106097676D02*
X65833333Y-106192914D01*
X65833333Y-106192914D02*
X65738095Y-106240533D01*
X66690476Y-106050057D02*
X66738095Y-106002438D01*
X66738095Y-106002438D02*
X66833333Y-105954819D01*
X66833333Y-105954819D02*
X67071428Y-105954819D01*
X67071428Y-105954819D02*
X67166666Y-106002438D01*
X67166666Y-106002438D02*
X67214285Y-106050057D01*
X67214285Y-106050057D02*
X67261904Y-106145295D01*
X67261904Y-106145295D02*
X67261904Y-106240533D01*
X67261904Y-106240533D02*
X67214285Y-106383390D01*
X67214285Y-106383390D02*
X66642857Y-106954819D01*
X66642857Y-106954819D02*
X67261904Y-106954819D01*
X119253333Y-105954819D02*
X118920000Y-105478628D01*
X118681905Y-105954819D02*
X118681905Y-104954819D01*
X118681905Y-104954819D02*
X119062857Y-104954819D01*
X119062857Y-104954819D02*
X119158095Y-105002438D01*
X119158095Y-105002438D02*
X119205714Y-105050057D01*
X119205714Y-105050057D02*
X119253333Y-105145295D01*
X119253333Y-105145295D02*
X119253333Y-105288152D01*
X119253333Y-105288152D02*
X119205714Y-105383390D01*
X119205714Y-105383390D02*
X119158095Y-105431009D01*
X119158095Y-105431009D02*
X119062857Y-105478628D01*
X119062857Y-105478628D02*
X118681905Y-105478628D01*
X120110476Y-105288152D02*
X120110476Y-105954819D01*
X119872381Y-104907200D02*
X119634286Y-105621485D01*
X119634286Y-105621485D02*
X120253333Y-105621485D01*
X78357142Y-106359580D02*
X78309523Y-106407200D01*
X78309523Y-106407200D02*
X78166666Y-106454819D01*
X78166666Y-106454819D02*
X78071428Y-106454819D01*
X78071428Y-106454819D02*
X77928571Y-106407200D01*
X77928571Y-106407200D02*
X77833333Y-106311961D01*
X77833333Y-106311961D02*
X77785714Y-106216723D01*
X77785714Y-106216723D02*
X77738095Y-106026247D01*
X77738095Y-106026247D02*
X77738095Y-105883390D01*
X77738095Y-105883390D02*
X77785714Y-105692914D01*
X77785714Y-105692914D02*
X77833333Y-105597676D01*
X77833333Y-105597676D02*
X77928571Y-105502438D01*
X77928571Y-105502438D02*
X78071428Y-105454819D01*
X78071428Y-105454819D02*
X78166666Y-105454819D01*
X78166666Y-105454819D02*
X78309523Y-105502438D01*
X78309523Y-105502438D02*
X78357142Y-105550057D01*
X79309523Y-106454819D02*
X78738095Y-106454819D01*
X79023809Y-106454819D02*
X79023809Y-105454819D01*
X79023809Y-105454819D02*
X78928571Y-105597676D01*
X78928571Y-105597676D02*
X78833333Y-105692914D01*
X78833333Y-105692914D02*
X78738095Y-105740533D01*
X80261904Y-106454819D02*
X79690476Y-106454819D01*
X79976190Y-106454819D02*
X79976190Y-105454819D01*
X79976190Y-105454819D02*
X79880952Y-105597676D01*
X79880952Y-105597676D02*
X79785714Y-105692914D01*
X79785714Y-105692914D02*
X79690476Y-105740533D01*
X97104819Y-83916666D02*
X96628628Y-84249999D01*
X97104819Y-84488094D02*
X96104819Y-84488094D01*
X96104819Y-84488094D02*
X96104819Y-84107142D01*
X96104819Y-84107142D02*
X96152438Y-84011904D01*
X96152438Y-84011904D02*
X96200057Y-83964285D01*
X96200057Y-83964285D02*
X96295295Y-83916666D01*
X96295295Y-83916666D02*
X96438152Y-83916666D01*
X96438152Y-83916666D02*
X96533390Y-83964285D01*
X96533390Y-83964285D02*
X96581009Y-84011904D01*
X96581009Y-84011904D02*
X96628628Y-84107142D01*
X96628628Y-84107142D02*
X96628628Y-84488094D01*
X96104819Y-83011904D02*
X96104819Y-83488094D01*
X96104819Y-83488094D02*
X96581009Y-83535713D01*
X96581009Y-83535713D02*
X96533390Y-83488094D01*
X96533390Y-83488094D02*
X96485771Y-83392856D01*
X96485771Y-83392856D02*
X96485771Y-83154761D01*
X96485771Y-83154761D02*
X96533390Y-83059523D01*
X96533390Y-83059523D02*
X96581009Y-83011904D01*
X96581009Y-83011904D02*
X96676247Y-82964285D01*
X96676247Y-82964285D02*
X96914342Y-82964285D01*
X96914342Y-82964285D02*
X97009580Y-83011904D01*
X97009580Y-83011904D02*
X97057200Y-83059523D01*
X97057200Y-83059523D02*
X97104819Y-83154761D01*
X97104819Y-83154761D02*
X97104819Y-83392856D01*
X97104819Y-83392856D02*
X97057200Y-83488094D01*
X97057200Y-83488094D02*
X97009580Y-83535713D01*
X103397319Y-53883333D02*
X104111604Y-53883333D01*
X104111604Y-53883333D02*
X104254461Y-53930952D01*
X104254461Y-53930952D02*
X104349700Y-54026190D01*
X104349700Y-54026190D02*
X104397319Y-54169047D01*
X104397319Y-54169047D02*
X104397319Y-54264285D01*
X103397319Y-53502380D02*
X103397319Y-52883333D01*
X103397319Y-52883333D02*
X103778271Y-53216666D01*
X103778271Y-53216666D02*
X103778271Y-53073809D01*
X103778271Y-53073809D02*
X103825890Y-52978571D01*
X103825890Y-52978571D02*
X103873509Y-52930952D01*
X103873509Y-52930952D02*
X103968747Y-52883333D01*
X103968747Y-52883333D02*
X104206842Y-52883333D01*
X104206842Y-52883333D02*
X104302080Y-52930952D01*
X104302080Y-52930952D02*
X104349700Y-52978571D01*
X104349700Y-52978571D02*
X104397319Y-53073809D01*
X104397319Y-53073809D02*
X104397319Y-53359523D01*
X104397319Y-53359523D02*
X104349700Y-53454761D01*
X104349700Y-53454761D02*
X104302080Y-53502380D01*
X105859580Y-117166666D02*
X105907200Y-117214285D01*
X105907200Y-117214285D02*
X105954819Y-117357142D01*
X105954819Y-117357142D02*
X105954819Y-117452380D01*
X105954819Y-117452380D02*
X105907200Y-117595237D01*
X105907200Y-117595237D02*
X105811961Y-117690475D01*
X105811961Y-117690475D02*
X105716723Y-117738094D01*
X105716723Y-117738094D02*
X105526247Y-117785713D01*
X105526247Y-117785713D02*
X105383390Y-117785713D01*
X105383390Y-117785713D02*
X105192914Y-117738094D01*
X105192914Y-117738094D02*
X105097676Y-117690475D01*
X105097676Y-117690475D02*
X105002438Y-117595237D01*
X105002438Y-117595237D02*
X104954819Y-117452380D01*
X104954819Y-117452380D02*
X104954819Y-117357142D01*
X104954819Y-117357142D02*
X105002438Y-117214285D01*
X105002438Y-117214285D02*
X105050057Y-117166666D01*
X104954819Y-116261904D02*
X104954819Y-116738094D01*
X104954819Y-116738094D02*
X105431009Y-116785713D01*
X105431009Y-116785713D02*
X105383390Y-116738094D01*
X105383390Y-116738094D02*
X105335771Y-116642856D01*
X105335771Y-116642856D02*
X105335771Y-116404761D01*
X105335771Y-116404761D02*
X105383390Y-116309523D01*
X105383390Y-116309523D02*
X105431009Y-116261904D01*
X105431009Y-116261904D02*
X105526247Y-116214285D01*
X105526247Y-116214285D02*
X105764342Y-116214285D01*
X105764342Y-116214285D02*
X105859580Y-116261904D01*
X105859580Y-116261904D02*
X105907200Y-116309523D01*
X105907200Y-116309523D02*
X105954819Y-116404761D01*
X105954819Y-116404761D02*
X105954819Y-116642856D01*
X105954819Y-116642856D02*
X105907200Y-116738094D01*
X105907200Y-116738094D02*
X105859580Y-116785713D01*
X119739580Y-133392857D02*
X119787200Y-133440476D01*
X119787200Y-133440476D02*
X119834819Y-133583333D01*
X119834819Y-133583333D02*
X119834819Y-133678571D01*
X119834819Y-133678571D02*
X119787200Y-133821428D01*
X119787200Y-133821428D02*
X119691961Y-133916666D01*
X119691961Y-133916666D02*
X119596723Y-133964285D01*
X119596723Y-133964285D02*
X119406247Y-134011904D01*
X119406247Y-134011904D02*
X119263390Y-134011904D01*
X119263390Y-134011904D02*
X119072914Y-133964285D01*
X119072914Y-133964285D02*
X118977676Y-133916666D01*
X118977676Y-133916666D02*
X118882438Y-133821428D01*
X118882438Y-133821428D02*
X118834819Y-133678571D01*
X118834819Y-133678571D02*
X118834819Y-133583333D01*
X118834819Y-133583333D02*
X118882438Y-133440476D01*
X118882438Y-133440476D02*
X118930057Y-133392857D01*
X119834819Y-132440476D02*
X119834819Y-133011904D01*
X119834819Y-132726190D02*
X118834819Y-132726190D01*
X118834819Y-132726190D02*
X118977676Y-132821428D01*
X118977676Y-132821428D02*
X119072914Y-132916666D01*
X119072914Y-132916666D02*
X119120533Y-133011904D01*
X118834819Y-131583333D02*
X118834819Y-131773809D01*
X118834819Y-131773809D02*
X118882438Y-131869047D01*
X118882438Y-131869047D02*
X118930057Y-131916666D01*
X118930057Y-131916666D02*
X119072914Y-132011904D01*
X119072914Y-132011904D02*
X119263390Y-132059523D01*
X119263390Y-132059523D02*
X119644342Y-132059523D01*
X119644342Y-132059523D02*
X119739580Y-132011904D01*
X119739580Y-132011904D02*
X119787200Y-131964285D01*
X119787200Y-131964285D02*
X119834819Y-131869047D01*
X119834819Y-131869047D02*
X119834819Y-131678571D01*
X119834819Y-131678571D02*
X119787200Y-131583333D01*
X119787200Y-131583333D02*
X119739580Y-131535714D01*
X119739580Y-131535714D02*
X119644342Y-131488095D01*
X119644342Y-131488095D02*
X119406247Y-131488095D01*
X119406247Y-131488095D02*
X119311009Y-131535714D01*
X119311009Y-131535714D02*
X119263390Y-131583333D01*
X119263390Y-131583333D02*
X119215771Y-131678571D01*
X119215771Y-131678571D02*
X119215771Y-131869047D01*
X119215771Y-131869047D02*
X119263390Y-131964285D01*
X119263390Y-131964285D02*
X119311009Y-132011904D01*
X119311009Y-132011904D02*
X119406247Y-132059523D01*
X103359580Y-83666666D02*
X103407200Y-83714285D01*
X103407200Y-83714285D02*
X103454819Y-83857142D01*
X103454819Y-83857142D02*
X103454819Y-83952380D01*
X103454819Y-83952380D02*
X103407200Y-84095237D01*
X103407200Y-84095237D02*
X103311961Y-84190475D01*
X103311961Y-84190475D02*
X103216723Y-84238094D01*
X103216723Y-84238094D02*
X103026247Y-84285713D01*
X103026247Y-84285713D02*
X102883390Y-84285713D01*
X102883390Y-84285713D02*
X102692914Y-84238094D01*
X102692914Y-84238094D02*
X102597676Y-84190475D01*
X102597676Y-84190475D02*
X102502438Y-84095237D01*
X102502438Y-84095237D02*
X102454819Y-83952380D01*
X102454819Y-83952380D02*
X102454819Y-83857142D01*
X102454819Y-83857142D02*
X102502438Y-83714285D01*
X102502438Y-83714285D02*
X102550057Y-83666666D01*
X103454819Y-83190475D02*
X103454819Y-82999999D01*
X103454819Y-82999999D02*
X103407200Y-82904761D01*
X103407200Y-82904761D02*
X103359580Y-82857142D01*
X103359580Y-82857142D02*
X103216723Y-82761904D01*
X103216723Y-82761904D02*
X103026247Y-82714285D01*
X103026247Y-82714285D02*
X102645295Y-82714285D01*
X102645295Y-82714285D02*
X102550057Y-82761904D01*
X102550057Y-82761904D02*
X102502438Y-82809523D01*
X102502438Y-82809523D02*
X102454819Y-82904761D01*
X102454819Y-82904761D02*
X102454819Y-83095237D01*
X102454819Y-83095237D02*
X102502438Y-83190475D01*
X102502438Y-83190475D02*
X102550057Y-83238094D01*
X102550057Y-83238094D02*
X102645295Y-83285713D01*
X102645295Y-83285713D02*
X102883390Y-83285713D01*
X102883390Y-83285713D02*
X102978628Y-83238094D01*
X102978628Y-83238094D02*
X103026247Y-83190475D01*
X103026247Y-83190475D02*
X103073866Y-83095237D01*
X103073866Y-83095237D02*
X103073866Y-82904761D01*
X103073866Y-82904761D02*
X103026247Y-82809523D01*
X103026247Y-82809523D02*
X102978628Y-82761904D01*
X102978628Y-82761904D02*
X102883390Y-82714285D01*
X90454819Y-118166666D02*
X89978628Y-118499999D01*
X90454819Y-118738094D02*
X89454819Y-118738094D01*
X89454819Y-118738094D02*
X89454819Y-118357142D01*
X89454819Y-118357142D02*
X89502438Y-118261904D01*
X89502438Y-118261904D02*
X89550057Y-118214285D01*
X89550057Y-118214285D02*
X89645295Y-118166666D01*
X89645295Y-118166666D02*
X89788152Y-118166666D01*
X89788152Y-118166666D02*
X89883390Y-118214285D01*
X89883390Y-118214285D02*
X89931009Y-118261904D01*
X89931009Y-118261904D02*
X89978628Y-118357142D01*
X89978628Y-118357142D02*
X89978628Y-118738094D01*
X90454819Y-117690475D02*
X90454819Y-117499999D01*
X90454819Y-117499999D02*
X90407200Y-117404761D01*
X90407200Y-117404761D02*
X90359580Y-117357142D01*
X90359580Y-117357142D02*
X90216723Y-117261904D01*
X90216723Y-117261904D02*
X90026247Y-117214285D01*
X90026247Y-117214285D02*
X89645295Y-117214285D01*
X89645295Y-117214285D02*
X89550057Y-117261904D01*
X89550057Y-117261904D02*
X89502438Y-117309523D01*
X89502438Y-117309523D02*
X89454819Y-117404761D01*
X89454819Y-117404761D02*
X89454819Y-117595237D01*
X89454819Y-117595237D02*
X89502438Y-117690475D01*
X89502438Y-117690475D02*
X89550057Y-117738094D01*
X89550057Y-117738094D02*
X89645295Y-117785713D01*
X89645295Y-117785713D02*
X89883390Y-117785713D01*
X89883390Y-117785713D02*
X89978628Y-117738094D01*
X89978628Y-117738094D02*
X90026247Y-117690475D01*
X90026247Y-117690475D02*
X90073866Y-117595237D01*
X90073866Y-117595237D02*
X90073866Y-117404761D01*
X90073866Y-117404761D02*
X90026247Y-117309523D01*
X90026247Y-117309523D02*
X89978628Y-117261904D01*
X89978628Y-117261904D02*
X89883390Y-117214285D01*
X133454819Y-88642857D02*
X132978628Y-88976190D01*
X133454819Y-89214285D02*
X132454819Y-89214285D01*
X132454819Y-89214285D02*
X132454819Y-88833333D01*
X132454819Y-88833333D02*
X132502438Y-88738095D01*
X132502438Y-88738095D02*
X132550057Y-88690476D01*
X132550057Y-88690476D02*
X132645295Y-88642857D01*
X132645295Y-88642857D02*
X132788152Y-88642857D01*
X132788152Y-88642857D02*
X132883390Y-88690476D01*
X132883390Y-88690476D02*
X132931009Y-88738095D01*
X132931009Y-88738095D02*
X132978628Y-88833333D01*
X132978628Y-88833333D02*
X132978628Y-89214285D01*
X133454819Y-87690476D02*
X133454819Y-88261904D01*
X133454819Y-87976190D02*
X132454819Y-87976190D01*
X132454819Y-87976190D02*
X132597676Y-88071428D01*
X132597676Y-88071428D02*
X132692914Y-88166666D01*
X132692914Y-88166666D02*
X132740533Y-88261904D01*
X132454819Y-86785714D02*
X132454819Y-87261904D01*
X132454819Y-87261904D02*
X132931009Y-87309523D01*
X132931009Y-87309523D02*
X132883390Y-87261904D01*
X132883390Y-87261904D02*
X132835771Y-87166666D01*
X132835771Y-87166666D02*
X132835771Y-86928571D01*
X132835771Y-86928571D02*
X132883390Y-86833333D01*
X132883390Y-86833333D02*
X132931009Y-86785714D01*
X132931009Y-86785714D02*
X133026247Y-86738095D01*
X133026247Y-86738095D02*
X133264342Y-86738095D01*
X133264342Y-86738095D02*
X133359580Y-86785714D01*
X133359580Y-86785714D02*
X133407200Y-86833333D01*
X133407200Y-86833333D02*
X133454819Y-86928571D01*
X133454819Y-86928571D02*
X133454819Y-87166666D01*
X133454819Y-87166666D02*
X133407200Y-87261904D01*
X133407200Y-87261904D02*
X133359580Y-87309523D01*
X136359580Y-117166666D02*
X136407200Y-117214285D01*
X136407200Y-117214285D02*
X136454819Y-117357142D01*
X136454819Y-117357142D02*
X136454819Y-117452380D01*
X136454819Y-117452380D02*
X136407200Y-117595237D01*
X136407200Y-117595237D02*
X136311961Y-117690475D01*
X136311961Y-117690475D02*
X136216723Y-117738094D01*
X136216723Y-117738094D02*
X136026247Y-117785713D01*
X136026247Y-117785713D02*
X135883390Y-117785713D01*
X135883390Y-117785713D02*
X135692914Y-117738094D01*
X135692914Y-117738094D02*
X135597676Y-117690475D01*
X135597676Y-117690475D02*
X135502438Y-117595237D01*
X135502438Y-117595237D02*
X135454819Y-117452380D01*
X135454819Y-117452380D02*
X135454819Y-117357142D01*
X135454819Y-117357142D02*
X135502438Y-117214285D01*
X135502438Y-117214285D02*
X135550057Y-117166666D01*
X135454819Y-116833332D02*
X135454819Y-116166666D01*
X135454819Y-116166666D02*
X136454819Y-116595237D01*
D11*
%TO.C,U1*%
X104390000Y-129230000D02*
X114990000Y-129230000D01*
X104390000Y-135830000D02*
X104390000Y-129230000D01*
X114990000Y-129230000D02*
X114990000Y-135830000D01*
X114990000Y-135830000D02*
X104390000Y-135830000D01*
D12*
X113600000Y-129720000D02*
G75*
G02*
X113400000Y-129720000I-100000J0D01*
G01*
X113400000Y-129720000D02*
G75*
G02*
X113600000Y-129720000I100000J0D01*
G01*
D13*
%TO.C,R6*%
X101090000Y-96270000D02*
X101090000Y-102570000D01*
X101090000Y-102570000D02*
X103590000Y-102570000D01*
X102340000Y-94340000D02*
X102340000Y-96270000D01*
X102340000Y-104500000D02*
X102340000Y-102570000D01*
X103590000Y-96270000D02*
X101090000Y-96270000D01*
X103590000Y-102570000D02*
X103590000Y-96270000D01*
%TO.C,D2*%
X78650000Y-87400000D02*
X78650000Y-92600000D01*
X78650000Y-91720000D02*
X81350000Y-91720000D01*
X78650000Y-91820000D02*
X81350000Y-91820000D01*
X78650000Y-91920000D02*
X81350000Y-91920000D01*
X78650000Y-92600000D02*
X81350000Y-92600000D01*
X80000000Y-84920000D02*
X80000000Y-87400000D01*
X80000000Y-95080000D02*
X80000000Y-92600000D01*
X81350000Y-87400000D02*
X78650000Y-87400000D01*
X81350000Y-92600000D02*
X81350000Y-87400000D01*
%TO.C,R17*%
X114420000Y-94500000D02*
X116350000Y-94500000D01*
X116350000Y-93250000D02*
X116350000Y-95750000D01*
X116350000Y-95750000D02*
X122650000Y-95750000D01*
X122650000Y-93250000D02*
X116350000Y-93250000D01*
X122650000Y-95750000D02*
X122650000Y-93250000D01*
X124580000Y-94500000D02*
X122650000Y-94500000D01*
%TO.C,R2*%
X114340000Y-111000000D02*
X116270000Y-111000000D01*
X116270000Y-109750000D02*
X116270000Y-112250000D01*
X116270000Y-112250000D02*
X122570000Y-112250000D01*
X122570000Y-109750000D02*
X116270000Y-109750000D01*
X122570000Y-112250000D02*
X122570000Y-109750000D01*
X124500000Y-111000000D02*
X122570000Y-111000000D01*
%TO.C,R13*%
X111180000Y-140420000D02*
X113110000Y-140420000D01*
X113110000Y-139170000D02*
X113110000Y-141670000D01*
X113110000Y-141670000D02*
X119410000Y-141670000D01*
X119410000Y-139170000D02*
X113110000Y-139170000D01*
X119410000Y-141670000D02*
X119410000Y-139170000D01*
X121340000Y-140420000D02*
X119410000Y-140420000D01*
%TO.C,C6*%
X93087500Y-130911283D02*
X93087500Y-131411283D01*
X93337500Y-131161283D02*
X92837500Y-131161283D01*
X94500000Y-133044888D02*
G75*
G02*
X89500000Y-133044888I-2500000J0D01*
G01*
X89500000Y-133044888D02*
G75*
G02*
X94500000Y-133044888I2500000J0D01*
G01*
%TO.C,C13*%
X75400000Y-133750000D02*
X75400000Y-136250000D01*
X75400000Y-136250000D02*
X82600000Y-136250000D01*
X82600000Y-133750000D02*
X75400000Y-133750000D01*
X82600000Y-136250000D02*
X82600000Y-133750000D01*
%TO.C,J2*%
X82500000Y-45200000D02*
X82500000Y-59500000D01*
X82500000Y-59500000D02*
X94100000Y-59500000D01*
X85000000Y-41600000D02*
X85000000Y-45200000D01*
X91000000Y-41600000D02*
X85000000Y-41600000D01*
X91000000Y-41600000D02*
X91000000Y-45200000D01*
X94100000Y-45200000D02*
X82500000Y-45200000D01*
X94100000Y-59500000D02*
X94100000Y-45200000D01*
D14*
X85510555Y-51000000D02*
G75*
G02*
X84789445Y-51000000I-360555J0D01*
G01*
X84789445Y-51000000D02*
G75*
G02*
X85510555Y-51000000I360555J0D01*
G01*
D13*
%TO.C,D1*%
X73150000Y-87480000D02*
X73150000Y-92680000D01*
X73150000Y-91800000D02*
X75850000Y-91800000D01*
X73150000Y-91900000D02*
X75850000Y-91900000D01*
X73150000Y-92000000D02*
X75850000Y-92000000D01*
X73150000Y-92680000D02*
X75850000Y-92680000D01*
X74500000Y-85000000D02*
X74500000Y-87480000D01*
X74500000Y-95160000D02*
X74500000Y-92680000D01*
X75850000Y-87480000D02*
X73150000Y-87480000D01*
X75850000Y-92680000D02*
X75850000Y-87480000D01*
%TO.C,C15*%
X100490000Y-128250000D02*
X100490000Y-137250000D01*
X100490000Y-137250000D02*
X103190000Y-137250000D01*
X103190000Y-128250000D02*
X100490000Y-128250000D01*
X103190000Y-137250000D02*
X103190000Y-128250000D01*
%TO.C,U2*%
X77037500Y-121500000D02*
X77037500Y-131500000D01*
X77037500Y-131500000D02*
X81437500Y-131500000D01*
X80167500Y-121500000D02*
X80167500Y-131500000D01*
X81437500Y-121500000D02*
X77037500Y-121500000D01*
X81437500Y-124650000D02*
X80167500Y-124650000D01*
X81437500Y-128350000D02*
X80167500Y-128350000D01*
X81437500Y-131500000D02*
X81437500Y-121500000D01*
%TO.C,C20*%
X102312500Y-71656538D02*
X103312500Y-71656538D01*
X102812500Y-72156538D02*
X102812500Y-71156538D01*
X110000000Y-67867677D02*
G75*
G02*
X100000000Y-67867677I-5000000J0D01*
G01*
X100000000Y-67867677D02*
G75*
G02*
X110000000Y-67867677I5000000J0D01*
G01*
%TO.C,C14*%
X62900000Y-133710000D02*
X62900000Y-136210000D01*
X62900000Y-136210000D02*
X70100000Y-136210000D01*
X70100000Y-133710000D02*
X62900000Y-133710000D01*
X70100000Y-136210000D02*
X70100000Y-133710000D01*
%TO.C,C2*%
X124710000Y-130320000D02*
X124710000Y-137520000D01*
X124710000Y-137520000D02*
X127210000Y-137520000D01*
X127210000Y-130320000D02*
X124710000Y-130320000D01*
X127210000Y-137520000D02*
X127210000Y-130320000D01*
D11*
%TO.C,U3*%
X107510000Y-79980000D02*
X118110000Y-79980000D01*
X107510000Y-86580000D02*
X107510000Y-79980000D01*
X118110000Y-79980000D02*
X118110000Y-86580000D01*
X118110000Y-86580000D02*
X107510000Y-86580000D01*
D12*
X116720000Y-80470000D02*
G75*
G02*
X116520000Y-80470000I-100000J0D01*
G01*
X116520000Y-80470000D02*
G75*
G02*
X116720000Y-80470000I100000J0D01*
G01*
D13*
%TO.C,D4*%
X67650000Y-87400000D02*
X67650000Y-92600000D01*
X67650000Y-92600000D02*
X70350000Y-92600000D01*
X69000000Y-84920000D02*
X69000000Y-87400000D01*
X69000000Y-95080000D02*
X69000000Y-92600000D01*
X70350000Y-87400000D02*
X67650000Y-87400000D01*
X70350000Y-88080000D02*
X67650000Y-88080000D01*
X70350000Y-88180000D02*
X67650000Y-88180000D01*
X70350000Y-88280000D02*
X67650000Y-88280000D01*
X70350000Y-92600000D02*
X70350000Y-87400000D01*
%TO.C,R3*%
X114420000Y-114920000D02*
X116350000Y-114920000D01*
X116350000Y-113670000D02*
X116350000Y-116170000D01*
X116350000Y-116170000D02*
X122650000Y-116170000D01*
X122650000Y-113670000D02*
X116350000Y-113670000D01*
X122650000Y-116170000D02*
X122650000Y-113670000D01*
X124580000Y-114920000D02*
X122650000Y-114920000D01*
%TO.C,U4*%
X64537500Y-122000000D02*
X64537500Y-132000000D01*
X64537500Y-132000000D02*
X68937500Y-132000000D01*
X67667500Y-122000000D02*
X67667500Y-132000000D01*
X68937500Y-122000000D02*
X64537500Y-122000000D01*
X68937500Y-125150000D02*
X67667500Y-125150000D01*
X68937500Y-128850000D02*
X67667500Y-128850000D01*
X68937500Y-132000000D02*
X68937500Y-122000000D01*
%TO.C,R8*%
X94200000Y-113050000D02*
X94200000Y-122950000D01*
X94200000Y-122950000D02*
X97800000Y-122950000D01*
X96000000Y-111650000D02*
X96000000Y-113050000D01*
X96000000Y-124350000D02*
X96000000Y-122950000D01*
X97800000Y-113050000D02*
X94200000Y-113050000D01*
X97800000Y-122950000D02*
X97800000Y-113050000D01*
%TO.C,C10*%
X121150000Y-78750000D02*
X121150000Y-87750000D01*
X121150000Y-87750000D02*
X123850000Y-87750000D01*
X123850000Y-78750000D02*
X121150000Y-78750000D01*
X123850000Y-87750000D02*
X123850000Y-78750000D01*
%TO.C,C19*%
X130500000Y-73650000D02*
X130500000Y-76350000D01*
X130500000Y-76350000D02*
X139500000Y-76350000D01*
X139500000Y-73650000D02*
X130500000Y-73650000D01*
X139500000Y-76350000D02*
X139500000Y-73650000D01*
%TO.C,R11*%
X94090000Y-96270000D02*
X94090000Y-102570000D01*
X94090000Y-102570000D02*
X96590000Y-102570000D01*
X95340000Y-94340000D02*
X95340000Y-96270000D01*
X95340000Y-104500000D02*
X95340000Y-102570000D01*
X96590000Y-96270000D02*
X94090000Y-96270000D01*
X96590000Y-102570000D02*
X96590000Y-96270000D01*
%TO.C,C22*%
X116750000Y-51950000D02*
X116750000Y-57050000D01*
X116750000Y-57050000D02*
X128250000Y-57050000D01*
X128250000Y-51950000D02*
X116750000Y-51950000D01*
X128250000Y-57050000D02*
X128250000Y-51950000D01*
%TO.C,R10*%
X97590000Y-96350000D02*
X97590000Y-102650000D01*
X97590000Y-102650000D02*
X100090000Y-102650000D01*
X98840000Y-94420000D02*
X98840000Y-96350000D01*
X98840000Y-104580000D02*
X98840000Y-102650000D01*
X100090000Y-96350000D02*
X97590000Y-96350000D01*
X100090000Y-102650000D02*
X100090000Y-96350000D01*
%TO.C,R7*%
X114340000Y-100000000D02*
X116270000Y-100000000D01*
X116270000Y-98750000D02*
X116270000Y-101250000D01*
X116270000Y-101250000D02*
X122570000Y-101250000D01*
X122570000Y-98750000D02*
X116270000Y-98750000D01*
X122570000Y-101250000D02*
X122570000Y-98750000D01*
X124500000Y-100000000D02*
X122570000Y-100000000D01*
%TO.C,R19*%
X117260000Y-48920000D02*
X119190000Y-48920000D01*
X119190000Y-47670000D02*
X119190000Y-50170000D01*
X119190000Y-50170000D02*
X125490000Y-50170000D01*
X125490000Y-47670000D02*
X119190000Y-47670000D01*
X125490000Y-50170000D02*
X125490000Y-47670000D01*
X127420000Y-48920000D02*
X125490000Y-48920000D01*
%TO.C,C1*%
X132162500Y-135553605D02*
X132662500Y-135553605D01*
X132412500Y-135803605D02*
X132412500Y-135303605D01*
X136000000Y-133670000D02*
G75*
G02*
X131000000Y-133670000I-2500000J0D01*
G01*
X131000000Y-133670000D02*
G75*
G02*
X136000000Y-133670000I2500000J0D01*
G01*
%TO.C,R16*%
X114340000Y-120920000D02*
X116270000Y-120920000D01*
X116270000Y-119670000D02*
X116270000Y-122170000D01*
X116270000Y-122170000D02*
X122570000Y-122170000D01*
X122570000Y-119670000D02*
X116270000Y-119670000D01*
X122570000Y-122170000D02*
X122570000Y-119670000D01*
X124500000Y-120920000D02*
X122570000Y-120920000D01*
%TO.C,C21*%
X115502500Y-72432015D02*
X116802500Y-72432015D01*
X116152500Y-73082015D02*
X116152500Y-71782015D01*
X125500000Y-67500000D02*
G75*
G02*
X112500000Y-67500000I-6500000J0D01*
G01*
X112500000Y-67500000D02*
G75*
G02*
X125500000Y-67500000I6500000J0D01*
G01*
%TO.C,C8*%
X129250000Y-113400000D02*
X129250000Y-120600000D01*
X129250000Y-120600000D02*
X131750000Y-120600000D01*
X131750000Y-113400000D02*
X129250000Y-113400000D01*
X131750000Y-120600000D02*
X131750000Y-113400000D01*
%TO.C,C4*%
X88900000Y-64170000D02*
X88900000Y-66670000D01*
X88900000Y-66670000D02*
X96100000Y-66670000D01*
X96100000Y-64170000D02*
X88900000Y-64170000D01*
X96100000Y-66670000D02*
X96100000Y-64170000D01*
%TO.C,C3*%
X88900000Y-70750000D02*
X88900000Y-73250000D01*
X88900000Y-73250000D02*
X96100000Y-73250000D01*
X96100000Y-70750000D02*
X88900000Y-70750000D01*
X96100000Y-73250000D02*
X96100000Y-70750000D01*
%TO.C,R1*%
X106750000Y-96350000D02*
X106750000Y-102650000D01*
X106750000Y-102650000D02*
X109250000Y-102650000D01*
X108000000Y-94420000D02*
X108000000Y-96350000D01*
X108000000Y-104580000D02*
X108000000Y-102650000D01*
X109250000Y-96350000D02*
X106750000Y-96350000D01*
X109250000Y-102650000D02*
X109250000Y-96350000D01*
D15*
%TO.C,J4*%
X52640001Y-77817400D02*
X52640001Y-94022600D01*
X52640001Y-94022600D02*
X60133001Y-94022600D01*
X60133001Y-77817400D02*
X52640001Y-77817400D01*
X60133001Y-94022600D02*
X60133001Y-77817400D01*
D16*
X55316000Y-90920000D02*
G75*
G02*
X54554000Y-90920000I-381000J0D01*
G01*
X54554000Y-90920000D02*
G75*
G02*
X55316000Y-90920000I381000J0D01*
G01*
D13*
%TO.C,D3*%
X84150000Y-87400000D02*
X84150000Y-92600000D01*
X84150000Y-92600000D02*
X86850000Y-92600000D01*
X85500000Y-84920000D02*
X85500000Y-87400000D01*
X85500000Y-95080000D02*
X85500000Y-92600000D01*
X86850000Y-87400000D02*
X84150000Y-87400000D01*
X86850000Y-88080000D02*
X84150000Y-88080000D01*
X86850000Y-88180000D02*
X84150000Y-88180000D01*
X86850000Y-88280000D02*
X84150000Y-88280000D01*
X86850000Y-92600000D02*
X86850000Y-87400000D01*
%TO.C,C12*%
X69788861Y-109187500D02*
X69788861Y-108187500D01*
X70288861Y-108687500D02*
X69288861Y-108687500D01*
X71000000Y-106500000D02*
G75*
G02*
X61000000Y-106500000I-5000000J0D01*
G01*
X61000000Y-106500000D02*
G75*
G02*
X71000000Y-106500000I5000000J0D01*
G01*
%TO.C,R4*%
X114340000Y-105500000D02*
X116270000Y-105500000D01*
X116270000Y-104250000D02*
X116270000Y-106750000D01*
X116270000Y-106750000D02*
X122570000Y-106750000D01*
X122570000Y-104250000D02*
X116270000Y-104250000D01*
X122570000Y-106750000D02*
X122570000Y-104250000D01*
X124500000Y-105500000D02*
X122570000Y-105500000D01*
%TO.C,C11*%
X82788861Y-108687500D02*
X82788861Y-107687500D01*
X83288861Y-108187500D02*
X82288861Y-108187500D01*
X84000000Y-106000000D02*
G75*
G02*
X74000000Y-106000000I-5000000J0D01*
G01*
X74000000Y-106000000D02*
G75*
G02*
X84000000Y-106000000I5000000J0D01*
G01*
%TO.C,R5*%
X95400000Y-80600000D02*
X95400000Y-86900000D01*
X95400000Y-86900000D02*
X97900000Y-86900000D01*
X96650000Y-78670000D02*
X96650000Y-80600000D01*
X96650000Y-88830000D02*
X96650000Y-86900000D01*
X97900000Y-80600000D02*
X95400000Y-80600000D01*
X97900000Y-86900000D02*
X97900000Y-80600000D01*
%TO.C,J3*%
X98442500Y-45150000D02*
X98442500Y-59450000D01*
X98442500Y-59450000D02*
X110042500Y-59450000D01*
X100942500Y-41550000D02*
X100942500Y-45150000D01*
X106942500Y-41550000D02*
X100942500Y-41550000D01*
X106942500Y-41550000D02*
X106942500Y-45150000D01*
X110042500Y-45150000D02*
X98442500Y-45150000D01*
X110042500Y-59450000D02*
X110042500Y-45150000D01*
D14*
X101453055Y-50950000D02*
G75*
G02*
X100731945Y-50950000I-360555J0D01*
G01*
X100731945Y-50950000D02*
G75*
G02*
X101453055Y-50950000I360555J0D01*
G01*
D13*
%TO.C,C5*%
X103000000Y-110500000D02*
X103000000Y-123500000D01*
X103000000Y-123500000D02*
X108000000Y-123500000D01*
X108000000Y-110500000D02*
X103000000Y-110500000D01*
X108000000Y-123500000D02*
X108000000Y-110500000D01*
%TO.C,C16*%
X118030000Y-128250000D02*
X118030000Y-137250000D01*
X118030000Y-137250000D02*
X120730000Y-137250000D01*
X120730000Y-128250000D02*
X118030000Y-128250000D01*
X120730000Y-137250000D02*
X120730000Y-128250000D01*
%TO.C,C9*%
X101650000Y-79000000D02*
X101650000Y-88000000D01*
X101650000Y-88000000D02*
X104350000Y-88000000D01*
X104350000Y-79000000D02*
X101650000Y-79000000D01*
X104350000Y-88000000D02*
X104350000Y-79000000D01*
%TO.C,R9*%
X88200000Y-113050000D02*
X88200000Y-122950000D01*
X88200000Y-122950000D02*
X91800000Y-122950000D01*
X90000000Y-111650000D02*
X90000000Y-113050000D01*
X90000000Y-124350000D02*
X90000000Y-122950000D01*
X91800000Y-113050000D02*
X88200000Y-113050000D01*
X91800000Y-122950000D02*
X91800000Y-113050000D01*
%TO.C,R15*%
X131750000Y-84850000D02*
X131750000Y-91150000D01*
X131750000Y-91150000D02*
X134250000Y-91150000D01*
X133000000Y-82920000D02*
X133000000Y-84850000D01*
X133000000Y-93080000D02*
X133000000Y-91150000D01*
X134250000Y-84850000D02*
X131750000Y-84850000D01*
X134250000Y-91150000D02*
X134250000Y-84850000D01*
%TO.C,C7*%
X134750000Y-113400000D02*
X134750000Y-120600000D01*
X134750000Y-120600000D02*
X137250000Y-120600000D01*
X137250000Y-113400000D02*
X134750000Y-113400000D01*
X137250000Y-120600000D02*
X137250000Y-113400000D01*
%TD*%
M02*
