%TF.GenerationSoftware,KiCad,Pcbnew,8.0.8*%
%TF.CreationDate,2025-03-09T10:58:12-03:00*%
%TF.ProjectId,equalizador,65717561-6c69-47a6-9164-6f722e6b6963,rev?*%
%TF.SameCoordinates,Original*%
%TF.FileFunction,Legend,Top*%
%TF.FilePolarity,Positive*%
%FSLAX46Y46*%
G04 Gerber Fmt 4.6, Leading zero omitted, Abs format (unit mm)*
G04 Created by KiCad (PCBNEW 8.0.8) date 2025-03-09 10:58:12*
%MOMM*%
%LPD*%
G01*
G04 APERTURE LIST*
%ADD10C,0.150000*%
%ADD11C,0.127000*%
%ADD12C,0.200000*%
%ADD13C,0.120000*%
%ADD14C,0.203200*%
%ADD15C,0.254000*%
%ADD16C,0.152400*%
%ADD17C,0.508000*%
G04 APERTURE END LIST*
D10*
X115661476Y-132866076D02*
X116474710Y-132866076D01*
X116474710Y-132866076D02*
X116570384Y-132818239D01*
X116570384Y-132818239D02*
X116618222Y-132770402D01*
X116618222Y-132770402D02*
X116666059Y-132674727D01*
X116666059Y-132674727D02*
X116666059Y-132483378D01*
X116666059Y-132483378D02*
X116618222Y-132387703D01*
X116618222Y-132387703D02*
X116570384Y-132339866D01*
X116570384Y-132339866D02*
X116474710Y-132292029D01*
X116474710Y-132292029D02*
X115661476Y-132292029D01*
X116666059Y-131287446D02*
X116666059Y-131861493D01*
X116666059Y-131574470D02*
X115661476Y-131574470D01*
X115661476Y-131574470D02*
X115804988Y-131670144D01*
X115804988Y-131670144D02*
X115900662Y-131765819D01*
X115900662Y-131765819D02*
X115948500Y-131861493D01*
X104854819Y-104966666D02*
X104378628Y-105299999D01*
X104854819Y-105538094D02*
X103854819Y-105538094D01*
X103854819Y-105538094D02*
X103854819Y-105157142D01*
X103854819Y-105157142D02*
X103902438Y-105061904D01*
X103902438Y-105061904D02*
X103950057Y-105014285D01*
X103950057Y-105014285D02*
X104045295Y-104966666D01*
X104045295Y-104966666D02*
X104188152Y-104966666D01*
X104188152Y-104966666D02*
X104283390Y-105014285D01*
X104283390Y-105014285D02*
X104331009Y-105061904D01*
X104331009Y-105061904D02*
X104378628Y-105157142D01*
X104378628Y-105157142D02*
X104378628Y-105538094D01*
X103854819Y-104109523D02*
X103854819Y-104299999D01*
X103854819Y-104299999D02*
X103902438Y-104395237D01*
X103902438Y-104395237D02*
X103950057Y-104442856D01*
X103950057Y-104442856D02*
X104092914Y-104538094D01*
X104092914Y-104538094D02*
X104283390Y-104585713D01*
X104283390Y-104585713D02*
X104664342Y-104585713D01*
X104664342Y-104585713D02*
X104759580Y-104538094D01*
X104759580Y-104538094D02*
X104807200Y-104490475D01*
X104807200Y-104490475D02*
X104854819Y-104395237D01*
X104854819Y-104395237D02*
X104854819Y-104204761D01*
X104854819Y-104204761D02*
X104807200Y-104109523D01*
X104807200Y-104109523D02*
X104759580Y-104061904D01*
X104759580Y-104061904D02*
X104664342Y-104014285D01*
X104664342Y-104014285D02*
X104426247Y-104014285D01*
X104426247Y-104014285D02*
X104331009Y-104061904D01*
X104331009Y-104061904D02*
X104283390Y-104109523D01*
X104283390Y-104109523D02*
X104235771Y-104204761D01*
X104235771Y-104204761D02*
X104235771Y-104395237D01*
X104235771Y-104395237D02*
X104283390Y-104490475D01*
X104283390Y-104490475D02*
X104331009Y-104538094D01*
X104331009Y-104538094D02*
X104426247Y-104585713D01*
X141309819Y-92730238D02*
X140833628Y-93063571D01*
X141309819Y-93301666D02*
X140309819Y-93301666D01*
X140309819Y-93301666D02*
X140309819Y-92920714D01*
X140309819Y-92920714D02*
X140357438Y-92825476D01*
X140357438Y-92825476D02*
X140405057Y-92777857D01*
X140405057Y-92777857D02*
X140500295Y-92730238D01*
X140500295Y-92730238D02*
X140643152Y-92730238D01*
X140643152Y-92730238D02*
X140738390Y-92777857D01*
X140738390Y-92777857D02*
X140786009Y-92825476D01*
X140786009Y-92825476D02*
X140833628Y-92920714D01*
X140833628Y-92920714D02*
X140833628Y-93301666D01*
X140309819Y-92444523D02*
X141309819Y-92111190D01*
X141309819Y-92111190D02*
X140309819Y-91777857D01*
X140405057Y-91492142D02*
X140357438Y-91444523D01*
X140357438Y-91444523D02*
X140309819Y-91349285D01*
X140309819Y-91349285D02*
X140309819Y-91111190D01*
X140309819Y-91111190D02*
X140357438Y-91015952D01*
X140357438Y-91015952D02*
X140405057Y-90968333D01*
X140405057Y-90968333D02*
X140500295Y-90920714D01*
X140500295Y-90920714D02*
X140595533Y-90920714D01*
X140595533Y-90920714D02*
X140738390Y-90968333D01*
X140738390Y-90968333D02*
X141309819Y-91539761D01*
X141309819Y-91539761D02*
X141309819Y-90920714D01*
X77954819Y-93838094D02*
X76954819Y-93838094D01*
X76954819Y-93838094D02*
X76954819Y-93599999D01*
X76954819Y-93599999D02*
X77002438Y-93457142D01*
X77002438Y-93457142D02*
X77097676Y-93361904D01*
X77097676Y-93361904D02*
X77192914Y-93314285D01*
X77192914Y-93314285D02*
X77383390Y-93266666D01*
X77383390Y-93266666D02*
X77526247Y-93266666D01*
X77526247Y-93266666D02*
X77716723Y-93314285D01*
X77716723Y-93314285D02*
X77811961Y-93361904D01*
X77811961Y-93361904D02*
X77907200Y-93457142D01*
X77907200Y-93457142D02*
X77954819Y-93599999D01*
X77954819Y-93599999D02*
X77954819Y-93838094D01*
X77050057Y-92885713D02*
X77002438Y-92838094D01*
X77002438Y-92838094D02*
X76954819Y-92742856D01*
X76954819Y-92742856D02*
X76954819Y-92504761D01*
X76954819Y-92504761D02*
X77002438Y-92409523D01*
X77002438Y-92409523D02*
X77050057Y-92361904D01*
X77050057Y-92361904D02*
X77145295Y-92314285D01*
X77145295Y-92314285D02*
X77240533Y-92314285D01*
X77240533Y-92314285D02*
X77383390Y-92361904D01*
X77383390Y-92361904D02*
X77954819Y-92933332D01*
X77954819Y-92933332D02*
X77954819Y-92314285D01*
X78354819Y-95341904D02*
X77354819Y-95341904D01*
X78354819Y-94770476D02*
X77783390Y-95199047D01*
X77354819Y-94770476D02*
X77926247Y-95341904D01*
X115757142Y-97354819D02*
X115423809Y-96878628D01*
X115185714Y-97354819D02*
X115185714Y-96354819D01*
X115185714Y-96354819D02*
X115566666Y-96354819D01*
X115566666Y-96354819D02*
X115661904Y-96402438D01*
X115661904Y-96402438D02*
X115709523Y-96450057D01*
X115709523Y-96450057D02*
X115757142Y-96545295D01*
X115757142Y-96545295D02*
X115757142Y-96688152D01*
X115757142Y-96688152D02*
X115709523Y-96783390D01*
X115709523Y-96783390D02*
X115661904Y-96831009D01*
X115661904Y-96831009D02*
X115566666Y-96878628D01*
X115566666Y-96878628D02*
X115185714Y-96878628D01*
X116709523Y-97354819D02*
X116138095Y-97354819D01*
X116423809Y-97354819D02*
X116423809Y-96354819D01*
X116423809Y-96354819D02*
X116328571Y-96497676D01*
X116328571Y-96497676D02*
X116233333Y-96592914D01*
X116233333Y-96592914D02*
X116138095Y-96640533D01*
X117042857Y-96354819D02*
X117709523Y-96354819D01*
X117709523Y-96354819D02*
X117280952Y-97354819D01*
X116233333Y-113354819D02*
X115900000Y-112878628D01*
X115661905Y-113354819D02*
X115661905Y-112354819D01*
X115661905Y-112354819D02*
X116042857Y-112354819D01*
X116042857Y-112354819D02*
X116138095Y-112402438D01*
X116138095Y-112402438D02*
X116185714Y-112450057D01*
X116185714Y-112450057D02*
X116233333Y-112545295D01*
X116233333Y-112545295D02*
X116233333Y-112688152D01*
X116233333Y-112688152D02*
X116185714Y-112783390D01*
X116185714Y-112783390D02*
X116138095Y-112831009D01*
X116138095Y-112831009D02*
X116042857Y-112878628D01*
X116042857Y-112878628D02*
X115661905Y-112878628D01*
X116614286Y-112450057D02*
X116661905Y-112402438D01*
X116661905Y-112402438D02*
X116757143Y-112354819D01*
X116757143Y-112354819D02*
X116995238Y-112354819D01*
X116995238Y-112354819D02*
X117090476Y-112402438D01*
X117090476Y-112402438D02*
X117138095Y-112450057D01*
X117138095Y-112450057D02*
X117185714Y-112545295D01*
X117185714Y-112545295D02*
X117185714Y-112640533D01*
X117185714Y-112640533D02*
X117138095Y-112783390D01*
X117138095Y-112783390D02*
X116566667Y-113354819D01*
X116566667Y-113354819D02*
X117185714Y-113354819D01*
X112357142Y-143354819D02*
X112023809Y-142878628D01*
X111785714Y-143354819D02*
X111785714Y-142354819D01*
X111785714Y-142354819D02*
X112166666Y-142354819D01*
X112166666Y-142354819D02*
X112261904Y-142402438D01*
X112261904Y-142402438D02*
X112309523Y-142450057D01*
X112309523Y-142450057D02*
X112357142Y-142545295D01*
X112357142Y-142545295D02*
X112357142Y-142688152D01*
X112357142Y-142688152D02*
X112309523Y-142783390D01*
X112309523Y-142783390D02*
X112261904Y-142831009D01*
X112261904Y-142831009D02*
X112166666Y-142878628D01*
X112166666Y-142878628D02*
X111785714Y-142878628D01*
X113309523Y-143354819D02*
X112738095Y-143354819D01*
X113023809Y-143354819D02*
X113023809Y-142354819D01*
X113023809Y-142354819D02*
X112928571Y-142497676D01*
X112928571Y-142497676D02*
X112833333Y-142592914D01*
X112833333Y-142592914D02*
X112738095Y-142640533D01*
X113642857Y-142354819D02*
X114261904Y-142354819D01*
X114261904Y-142354819D02*
X113928571Y-142735771D01*
X113928571Y-142735771D02*
X114071428Y-142735771D01*
X114071428Y-142735771D02*
X114166666Y-142783390D01*
X114166666Y-142783390D02*
X114214285Y-142831009D01*
X114214285Y-142831009D02*
X114261904Y-142926247D01*
X114261904Y-142926247D02*
X114261904Y-143164342D01*
X114261904Y-143164342D02*
X114214285Y-143259580D01*
X114214285Y-143259580D02*
X114166666Y-143307200D01*
X114166666Y-143307200D02*
X114071428Y-143354819D01*
X114071428Y-143354819D02*
X113785714Y-143354819D01*
X113785714Y-143354819D02*
X113690476Y-143307200D01*
X113690476Y-143307200D02*
X113642857Y-143259580D01*
X96109580Y-133211554D02*
X96157200Y-133259173D01*
X96157200Y-133259173D02*
X96204819Y-133402030D01*
X96204819Y-133402030D02*
X96204819Y-133497268D01*
X96204819Y-133497268D02*
X96157200Y-133640125D01*
X96157200Y-133640125D02*
X96061961Y-133735363D01*
X96061961Y-133735363D02*
X95966723Y-133782982D01*
X95966723Y-133782982D02*
X95776247Y-133830601D01*
X95776247Y-133830601D02*
X95633390Y-133830601D01*
X95633390Y-133830601D02*
X95442914Y-133782982D01*
X95442914Y-133782982D02*
X95347676Y-133735363D01*
X95347676Y-133735363D02*
X95252438Y-133640125D01*
X95252438Y-133640125D02*
X95204819Y-133497268D01*
X95204819Y-133497268D02*
X95204819Y-133402030D01*
X95204819Y-133402030D02*
X95252438Y-133259173D01*
X95252438Y-133259173D02*
X95300057Y-133211554D01*
X95204819Y-132354411D02*
X95204819Y-132544887D01*
X95204819Y-132544887D02*
X95252438Y-132640125D01*
X95252438Y-132640125D02*
X95300057Y-132687744D01*
X95300057Y-132687744D02*
X95442914Y-132782982D01*
X95442914Y-132782982D02*
X95633390Y-132830601D01*
X95633390Y-132830601D02*
X96014342Y-132830601D01*
X96014342Y-132830601D02*
X96109580Y-132782982D01*
X96109580Y-132782982D02*
X96157200Y-132735363D01*
X96157200Y-132735363D02*
X96204819Y-132640125D01*
X96204819Y-132640125D02*
X96204819Y-132449649D01*
X96204819Y-132449649D02*
X96157200Y-132354411D01*
X96157200Y-132354411D02*
X96109580Y-132306792D01*
X96109580Y-132306792D02*
X96014342Y-132259173D01*
X96014342Y-132259173D02*
X95776247Y-132259173D01*
X95776247Y-132259173D02*
X95681009Y-132306792D01*
X95681009Y-132306792D02*
X95633390Y-132354411D01*
X95633390Y-132354411D02*
X95585771Y-132449649D01*
X95585771Y-132449649D02*
X95585771Y-132640125D01*
X95585771Y-132640125D02*
X95633390Y-132735363D01*
X95633390Y-132735363D02*
X95681009Y-132782982D01*
X95681009Y-132782982D02*
X95776247Y-132830601D01*
X75957142Y-138059580D02*
X75909523Y-138107200D01*
X75909523Y-138107200D02*
X75766666Y-138154819D01*
X75766666Y-138154819D02*
X75671428Y-138154819D01*
X75671428Y-138154819D02*
X75528571Y-138107200D01*
X75528571Y-138107200D02*
X75433333Y-138011961D01*
X75433333Y-138011961D02*
X75385714Y-137916723D01*
X75385714Y-137916723D02*
X75338095Y-137726247D01*
X75338095Y-137726247D02*
X75338095Y-137583390D01*
X75338095Y-137583390D02*
X75385714Y-137392914D01*
X75385714Y-137392914D02*
X75433333Y-137297676D01*
X75433333Y-137297676D02*
X75528571Y-137202438D01*
X75528571Y-137202438D02*
X75671428Y-137154819D01*
X75671428Y-137154819D02*
X75766666Y-137154819D01*
X75766666Y-137154819D02*
X75909523Y-137202438D01*
X75909523Y-137202438D02*
X75957142Y-137250057D01*
X76909523Y-138154819D02*
X76338095Y-138154819D01*
X76623809Y-138154819D02*
X76623809Y-137154819D01*
X76623809Y-137154819D02*
X76528571Y-137297676D01*
X76528571Y-137297676D02*
X76433333Y-137392914D01*
X76433333Y-137392914D02*
X76338095Y-137440533D01*
X77242857Y-137154819D02*
X77861904Y-137154819D01*
X77861904Y-137154819D02*
X77528571Y-137535771D01*
X77528571Y-137535771D02*
X77671428Y-137535771D01*
X77671428Y-137535771D02*
X77766666Y-137583390D01*
X77766666Y-137583390D02*
X77814285Y-137631009D01*
X77814285Y-137631009D02*
X77861904Y-137726247D01*
X77861904Y-137726247D02*
X77861904Y-137964342D01*
X77861904Y-137964342D02*
X77814285Y-138059580D01*
X77814285Y-138059580D02*
X77766666Y-138107200D01*
X77766666Y-138107200D02*
X77671428Y-138154819D01*
X77671428Y-138154819D02*
X77385714Y-138154819D01*
X77385714Y-138154819D02*
X77290476Y-138107200D01*
X77290476Y-138107200D02*
X77242857Y-138059580D01*
X80554819Y-47733333D02*
X81269104Y-47733333D01*
X81269104Y-47733333D02*
X81411961Y-47780952D01*
X81411961Y-47780952D02*
X81507200Y-47876190D01*
X81507200Y-47876190D02*
X81554819Y-48019047D01*
X81554819Y-48019047D02*
X81554819Y-48114285D01*
X80650057Y-47304761D02*
X80602438Y-47257142D01*
X80602438Y-47257142D02*
X80554819Y-47161904D01*
X80554819Y-47161904D02*
X80554819Y-46923809D01*
X80554819Y-46923809D02*
X80602438Y-46828571D01*
X80602438Y-46828571D02*
X80650057Y-46780952D01*
X80650057Y-46780952D02*
X80745295Y-46733333D01*
X80745295Y-46733333D02*
X80840533Y-46733333D01*
X80840533Y-46733333D02*
X80983390Y-46780952D01*
X80983390Y-46780952D02*
X81554819Y-47352380D01*
X81554819Y-47352380D02*
X81554819Y-46733333D01*
X72454819Y-93938094D02*
X71454819Y-93938094D01*
X71454819Y-93938094D02*
X71454819Y-93699999D01*
X71454819Y-93699999D02*
X71502438Y-93557142D01*
X71502438Y-93557142D02*
X71597676Y-93461904D01*
X71597676Y-93461904D02*
X71692914Y-93414285D01*
X71692914Y-93414285D02*
X71883390Y-93366666D01*
X71883390Y-93366666D02*
X72026247Y-93366666D01*
X72026247Y-93366666D02*
X72216723Y-93414285D01*
X72216723Y-93414285D02*
X72311961Y-93461904D01*
X72311961Y-93461904D02*
X72407200Y-93557142D01*
X72407200Y-93557142D02*
X72454819Y-93699999D01*
X72454819Y-93699999D02*
X72454819Y-93938094D01*
X72454819Y-92414285D02*
X72454819Y-92985713D01*
X72454819Y-92699999D02*
X71454819Y-92699999D01*
X71454819Y-92699999D02*
X71597676Y-92795237D01*
X71597676Y-92795237D02*
X71692914Y-92890475D01*
X71692914Y-92890475D02*
X71740533Y-92985713D01*
X72854819Y-95421904D02*
X71854819Y-95421904D01*
X72854819Y-94850476D02*
X72283390Y-95279047D01*
X71854819Y-94850476D02*
X72426247Y-95421904D01*
X99559580Y-135142857D02*
X99607200Y-135190476D01*
X99607200Y-135190476D02*
X99654819Y-135333333D01*
X99654819Y-135333333D02*
X99654819Y-135428571D01*
X99654819Y-135428571D02*
X99607200Y-135571428D01*
X99607200Y-135571428D02*
X99511961Y-135666666D01*
X99511961Y-135666666D02*
X99416723Y-135714285D01*
X99416723Y-135714285D02*
X99226247Y-135761904D01*
X99226247Y-135761904D02*
X99083390Y-135761904D01*
X99083390Y-135761904D02*
X98892914Y-135714285D01*
X98892914Y-135714285D02*
X98797676Y-135666666D01*
X98797676Y-135666666D02*
X98702438Y-135571428D01*
X98702438Y-135571428D02*
X98654819Y-135428571D01*
X98654819Y-135428571D02*
X98654819Y-135333333D01*
X98654819Y-135333333D02*
X98702438Y-135190476D01*
X98702438Y-135190476D02*
X98750057Y-135142857D01*
X99654819Y-134190476D02*
X99654819Y-134761904D01*
X99654819Y-134476190D02*
X98654819Y-134476190D01*
X98654819Y-134476190D02*
X98797676Y-134571428D01*
X98797676Y-134571428D02*
X98892914Y-134666666D01*
X98892914Y-134666666D02*
X98940533Y-134761904D01*
X98654819Y-133285714D02*
X98654819Y-133761904D01*
X98654819Y-133761904D02*
X99131009Y-133809523D01*
X99131009Y-133809523D02*
X99083390Y-133761904D01*
X99083390Y-133761904D02*
X99035771Y-133666666D01*
X99035771Y-133666666D02*
X99035771Y-133428571D01*
X99035771Y-133428571D02*
X99083390Y-133333333D01*
X99083390Y-133333333D02*
X99131009Y-133285714D01*
X99131009Y-133285714D02*
X99226247Y-133238095D01*
X99226247Y-133238095D02*
X99464342Y-133238095D01*
X99464342Y-133238095D02*
X99559580Y-133285714D01*
X99559580Y-133285714D02*
X99607200Y-133333333D01*
X99607200Y-133333333D02*
X99654819Y-133428571D01*
X99654819Y-133428571D02*
X99654819Y-133666666D01*
X99654819Y-133666666D02*
X99607200Y-133761904D01*
X99607200Y-133761904D02*
X99559580Y-133809523D01*
X82012319Y-127261904D02*
X82821842Y-127261904D01*
X82821842Y-127261904D02*
X82917080Y-127214285D01*
X82917080Y-127214285D02*
X82964700Y-127166666D01*
X82964700Y-127166666D02*
X83012319Y-127071428D01*
X83012319Y-127071428D02*
X83012319Y-126880952D01*
X83012319Y-126880952D02*
X82964700Y-126785714D01*
X82964700Y-126785714D02*
X82917080Y-126738095D01*
X82917080Y-126738095D02*
X82821842Y-126690476D01*
X82821842Y-126690476D02*
X82012319Y-126690476D01*
X82107557Y-126261904D02*
X82059938Y-126214285D01*
X82059938Y-126214285D02*
X82012319Y-126119047D01*
X82012319Y-126119047D02*
X82012319Y-125880952D01*
X82012319Y-125880952D02*
X82059938Y-125785714D01*
X82059938Y-125785714D02*
X82107557Y-125738095D01*
X82107557Y-125738095D02*
X82202795Y-125690476D01*
X82202795Y-125690476D02*
X82298033Y-125690476D01*
X82298033Y-125690476D02*
X82440890Y-125738095D01*
X82440890Y-125738095D02*
X83012319Y-126309523D01*
X83012319Y-126309523D02*
X83012319Y-125690476D01*
X99109580Y-68510534D02*
X99157200Y-68558153D01*
X99157200Y-68558153D02*
X99204819Y-68701010D01*
X99204819Y-68701010D02*
X99204819Y-68796248D01*
X99204819Y-68796248D02*
X99157200Y-68939105D01*
X99157200Y-68939105D02*
X99061961Y-69034343D01*
X99061961Y-69034343D02*
X98966723Y-69081962D01*
X98966723Y-69081962D02*
X98776247Y-69129581D01*
X98776247Y-69129581D02*
X98633390Y-69129581D01*
X98633390Y-69129581D02*
X98442914Y-69081962D01*
X98442914Y-69081962D02*
X98347676Y-69034343D01*
X98347676Y-69034343D02*
X98252438Y-68939105D01*
X98252438Y-68939105D02*
X98204819Y-68796248D01*
X98204819Y-68796248D02*
X98204819Y-68701010D01*
X98204819Y-68701010D02*
X98252438Y-68558153D01*
X98252438Y-68558153D02*
X98300057Y-68510534D01*
X98300057Y-68129581D02*
X98252438Y-68081962D01*
X98252438Y-68081962D02*
X98204819Y-67986724D01*
X98204819Y-67986724D02*
X98204819Y-67748629D01*
X98204819Y-67748629D02*
X98252438Y-67653391D01*
X98252438Y-67653391D02*
X98300057Y-67605772D01*
X98300057Y-67605772D02*
X98395295Y-67558153D01*
X98395295Y-67558153D02*
X98490533Y-67558153D01*
X98490533Y-67558153D02*
X98633390Y-67605772D01*
X98633390Y-67605772D02*
X99204819Y-68177200D01*
X99204819Y-68177200D02*
X99204819Y-67558153D01*
X98204819Y-66939105D02*
X98204819Y-66843867D01*
X98204819Y-66843867D02*
X98252438Y-66748629D01*
X98252438Y-66748629D02*
X98300057Y-66701010D01*
X98300057Y-66701010D02*
X98395295Y-66653391D01*
X98395295Y-66653391D02*
X98585771Y-66605772D01*
X98585771Y-66605772D02*
X98823866Y-66605772D01*
X98823866Y-66605772D02*
X99014342Y-66653391D01*
X99014342Y-66653391D02*
X99109580Y-66701010D01*
X99109580Y-66701010D02*
X99157200Y-66748629D01*
X99157200Y-66748629D02*
X99204819Y-66843867D01*
X99204819Y-66843867D02*
X99204819Y-66939105D01*
X99204819Y-66939105D02*
X99157200Y-67034343D01*
X99157200Y-67034343D02*
X99109580Y-67081962D01*
X99109580Y-67081962D02*
X99014342Y-67129581D01*
X99014342Y-67129581D02*
X98823866Y-67177200D01*
X98823866Y-67177200D02*
X98585771Y-67177200D01*
X98585771Y-67177200D02*
X98395295Y-67129581D01*
X98395295Y-67129581D02*
X98300057Y-67081962D01*
X98300057Y-67081962D02*
X98252438Y-67034343D01*
X98252438Y-67034343D02*
X98204819Y-66939105D01*
X134779951Y-73432310D02*
X135590661Y-73432310D01*
X135590661Y-73432310D02*
X135686039Y-73384622D01*
X135686039Y-73384622D02*
X135733728Y-73336933D01*
X135733728Y-73336933D02*
X135781416Y-73241555D01*
X135781416Y-73241555D02*
X135781416Y-73050800D01*
X135781416Y-73050800D02*
X135733728Y-72955422D01*
X135733728Y-72955422D02*
X135686039Y-72907734D01*
X135686039Y-72907734D02*
X135590661Y-72860045D01*
X135590661Y-72860045D02*
X134779951Y-72860045D01*
X134779951Y-71906268D02*
X134779951Y-72383156D01*
X134779951Y-72383156D02*
X135256839Y-72430845D01*
X135256839Y-72430845D02*
X135209151Y-72383156D01*
X135209151Y-72383156D02*
X135161462Y-72287779D01*
X135161462Y-72287779D02*
X135161462Y-72049335D01*
X135161462Y-72049335D02*
X135209151Y-71953957D01*
X135209151Y-71953957D02*
X135256839Y-71906268D01*
X135256839Y-71906268D02*
X135352217Y-71858580D01*
X135352217Y-71858580D02*
X135590661Y-71858580D01*
X135590661Y-71858580D02*
X135686039Y-71906268D01*
X135686039Y-71906268D02*
X135733728Y-71953957D01*
X135733728Y-71953957D02*
X135781416Y-72049335D01*
X135781416Y-72049335D02*
X135781416Y-72287779D01*
X135781416Y-72287779D02*
X135733728Y-72383156D01*
X135733728Y-72383156D02*
X135686039Y-72430845D01*
X62257142Y-138059580D02*
X62209523Y-138107200D01*
X62209523Y-138107200D02*
X62066666Y-138154819D01*
X62066666Y-138154819D02*
X61971428Y-138154819D01*
X61971428Y-138154819D02*
X61828571Y-138107200D01*
X61828571Y-138107200D02*
X61733333Y-138011961D01*
X61733333Y-138011961D02*
X61685714Y-137916723D01*
X61685714Y-137916723D02*
X61638095Y-137726247D01*
X61638095Y-137726247D02*
X61638095Y-137583390D01*
X61638095Y-137583390D02*
X61685714Y-137392914D01*
X61685714Y-137392914D02*
X61733333Y-137297676D01*
X61733333Y-137297676D02*
X61828571Y-137202438D01*
X61828571Y-137202438D02*
X61971428Y-137154819D01*
X61971428Y-137154819D02*
X62066666Y-137154819D01*
X62066666Y-137154819D02*
X62209523Y-137202438D01*
X62209523Y-137202438D02*
X62257142Y-137250057D01*
X63209523Y-138154819D02*
X62638095Y-138154819D01*
X62923809Y-138154819D02*
X62923809Y-137154819D01*
X62923809Y-137154819D02*
X62828571Y-137297676D01*
X62828571Y-137297676D02*
X62733333Y-137392914D01*
X62733333Y-137392914D02*
X62638095Y-137440533D01*
X64066666Y-137488152D02*
X64066666Y-138154819D01*
X63828571Y-137107200D02*
X63590476Y-137821485D01*
X63590476Y-137821485D02*
X64209523Y-137821485D01*
X128959580Y-137166666D02*
X129007200Y-137214285D01*
X129007200Y-137214285D02*
X129054819Y-137357142D01*
X129054819Y-137357142D02*
X129054819Y-137452380D01*
X129054819Y-137452380D02*
X129007200Y-137595237D01*
X129007200Y-137595237D02*
X128911961Y-137690475D01*
X128911961Y-137690475D02*
X128816723Y-137738094D01*
X128816723Y-137738094D02*
X128626247Y-137785713D01*
X128626247Y-137785713D02*
X128483390Y-137785713D01*
X128483390Y-137785713D02*
X128292914Y-137738094D01*
X128292914Y-137738094D02*
X128197676Y-137690475D01*
X128197676Y-137690475D02*
X128102438Y-137595237D01*
X128102438Y-137595237D02*
X128054819Y-137452380D01*
X128054819Y-137452380D02*
X128054819Y-137357142D01*
X128054819Y-137357142D02*
X128102438Y-137214285D01*
X128102438Y-137214285D02*
X128150057Y-137166666D01*
X128150057Y-136785713D02*
X128102438Y-136738094D01*
X128102438Y-136738094D02*
X128054819Y-136642856D01*
X128054819Y-136642856D02*
X128054819Y-136404761D01*
X128054819Y-136404761D02*
X128102438Y-136309523D01*
X128102438Y-136309523D02*
X128150057Y-136261904D01*
X128150057Y-136261904D02*
X128245295Y-136214285D01*
X128245295Y-136214285D02*
X128340533Y-136214285D01*
X128340533Y-136214285D02*
X128483390Y-136261904D01*
X128483390Y-136261904D02*
X129054819Y-136833332D01*
X129054819Y-136833332D02*
X129054819Y-136214285D01*
X118781476Y-83616076D02*
X119594710Y-83616076D01*
X119594710Y-83616076D02*
X119690384Y-83568239D01*
X119690384Y-83568239D02*
X119738222Y-83520402D01*
X119738222Y-83520402D02*
X119786059Y-83424727D01*
X119786059Y-83424727D02*
X119786059Y-83233378D01*
X119786059Y-83233378D02*
X119738222Y-83137703D01*
X119738222Y-83137703D02*
X119690384Y-83089866D01*
X119690384Y-83089866D02*
X119594710Y-83042029D01*
X119594710Y-83042029D02*
X118781476Y-83042029D01*
X118781476Y-82659331D02*
X118781476Y-82037446D01*
X118781476Y-82037446D02*
X119164174Y-82372307D01*
X119164174Y-82372307D02*
X119164174Y-82228795D01*
X119164174Y-82228795D02*
X119212011Y-82133121D01*
X119212011Y-82133121D02*
X119259849Y-82085283D01*
X119259849Y-82085283D02*
X119355523Y-82037446D01*
X119355523Y-82037446D02*
X119594710Y-82037446D01*
X119594710Y-82037446D02*
X119690384Y-82085283D01*
X119690384Y-82085283D02*
X119738222Y-82133121D01*
X119738222Y-82133121D02*
X119786059Y-82228795D01*
X119786059Y-82228795D02*
X119786059Y-82515819D01*
X119786059Y-82515819D02*
X119738222Y-82611493D01*
X119738222Y-82611493D02*
X119690384Y-82659331D01*
X66954819Y-95138094D02*
X65954819Y-95138094D01*
X65954819Y-95138094D02*
X65954819Y-94899999D01*
X65954819Y-94899999D02*
X66002438Y-94757142D01*
X66002438Y-94757142D02*
X66097676Y-94661904D01*
X66097676Y-94661904D02*
X66192914Y-94614285D01*
X66192914Y-94614285D02*
X66383390Y-94566666D01*
X66383390Y-94566666D02*
X66526247Y-94566666D01*
X66526247Y-94566666D02*
X66716723Y-94614285D01*
X66716723Y-94614285D02*
X66811961Y-94661904D01*
X66811961Y-94661904D02*
X66907200Y-94757142D01*
X66907200Y-94757142D02*
X66954819Y-94899999D01*
X66954819Y-94899999D02*
X66954819Y-95138094D01*
X66288152Y-93709523D02*
X66954819Y-93709523D01*
X65907200Y-93947618D02*
X66621485Y-94185713D01*
X66621485Y-94185713D02*
X66621485Y-93566666D01*
X71554819Y-85181904D02*
X70554819Y-85181904D01*
X71554819Y-84610476D02*
X70983390Y-85039047D01*
X70554819Y-84610476D02*
X71126247Y-85181904D01*
X116133333Y-117854819D02*
X115800000Y-117378628D01*
X115561905Y-117854819D02*
X115561905Y-116854819D01*
X115561905Y-116854819D02*
X115942857Y-116854819D01*
X115942857Y-116854819D02*
X116038095Y-116902438D01*
X116038095Y-116902438D02*
X116085714Y-116950057D01*
X116085714Y-116950057D02*
X116133333Y-117045295D01*
X116133333Y-117045295D02*
X116133333Y-117188152D01*
X116133333Y-117188152D02*
X116085714Y-117283390D01*
X116085714Y-117283390D02*
X116038095Y-117331009D01*
X116038095Y-117331009D02*
X115942857Y-117378628D01*
X115942857Y-117378628D02*
X115561905Y-117378628D01*
X116466667Y-116854819D02*
X117085714Y-116854819D01*
X117085714Y-116854819D02*
X116752381Y-117235771D01*
X116752381Y-117235771D02*
X116895238Y-117235771D01*
X116895238Y-117235771D02*
X116990476Y-117283390D01*
X116990476Y-117283390D02*
X117038095Y-117331009D01*
X117038095Y-117331009D02*
X117085714Y-117426247D01*
X117085714Y-117426247D02*
X117085714Y-117664342D01*
X117085714Y-117664342D02*
X117038095Y-117759580D01*
X117038095Y-117759580D02*
X116990476Y-117807200D01*
X116990476Y-117807200D02*
X116895238Y-117854819D01*
X116895238Y-117854819D02*
X116609524Y-117854819D01*
X116609524Y-117854819D02*
X116514286Y-117807200D01*
X116514286Y-117807200D02*
X116466667Y-117759580D01*
X69512319Y-127761904D02*
X70321842Y-127761904D01*
X70321842Y-127761904D02*
X70417080Y-127714285D01*
X70417080Y-127714285D02*
X70464700Y-127666666D01*
X70464700Y-127666666D02*
X70512319Y-127571428D01*
X70512319Y-127571428D02*
X70512319Y-127380952D01*
X70512319Y-127380952D02*
X70464700Y-127285714D01*
X70464700Y-127285714D02*
X70417080Y-127238095D01*
X70417080Y-127238095D02*
X70321842Y-127190476D01*
X70321842Y-127190476D02*
X69512319Y-127190476D01*
X69845652Y-126285714D02*
X70512319Y-126285714D01*
X69464700Y-126523809D02*
X70178985Y-126761904D01*
X70178985Y-126761904D02*
X70178985Y-126142857D01*
X93654819Y-118166666D02*
X93178628Y-118499999D01*
X93654819Y-118738094D02*
X92654819Y-118738094D01*
X92654819Y-118738094D02*
X92654819Y-118357142D01*
X92654819Y-118357142D02*
X92702438Y-118261904D01*
X92702438Y-118261904D02*
X92750057Y-118214285D01*
X92750057Y-118214285D02*
X92845295Y-118166666D01*
X92845295Y-118166666D02*
X92988152Y-118166666D01*
X92988152Y-118166666D02*
X93083390Y-118214285D01*
X93083390Y-118214285D02*
X93131009Y-118261904D01*
X93131009Y-118261904D02*
X93178628Y-118357142D01*
X93178628Y-118357142D02*
X93178628Y-118738094D01*
X93083390Y-117595237D02*
X93035771Y-117690475D01*
X93035771Y-117690475D02*
X92988152Y-117738094D01*
X92988152Y-117738094D02*
X92892914Y-117785713D01*
X92892914Y-117785713D02*
X92845295Y-117785713D01*
X92845295Y-117785713D02*
X92750057Y-117738094D01*
X92750057Y-117738094D02*
X92702438Y-117690475D01*
X92702438Y-117690475D02*
X92654819Y-117595237D01*
X92654819Y-117595237D02*
X92654819Y-117404761D01*
X92654819Y-117404761D02*
X92702438Y-117309523D01*
X92702438Y-117309523D02*
X92750057Y-117261904D01*
X92750057Y-117261904D02*
X92845295Y-117214285D01*
X92845295Y-117214285D02*
X92892914Y-117214285D01*
X92892914Y-117214285D02*
X92988152Y-117261904D01*
X92988152Y-117261904D02*
X93035771Y-117309523D01*
X93035771Y-117309523D02*
X93083390Y-117404761D01*
X93083390Y-117404761D02*
X93083390Y-117595237D01*
X93083390Y-117595237D02*
X93131009Y-117690475D01*
X93131009Y-117690475D02*
X93178628Y-117738094D01*
X93178628Y-117738094D02*
X93273866Y-117785713D01*
X93273866Y-117785713D02*
X93464342Y-117785713D01*
X93464342Y-117785713D02*
X93559580Y-117738094D01*
X93559580Y-117738094D02*
X93607200Y-117690475D01*
X93607200Y-117690475D02*
X93654819Y-117595237D01*
X93654819Y-117595237D02*
X93654819Y-117404761D01*
X93654819Y-117404761D02*
X93607200Y-117309523D01*
X93607200Y-117309523D02*
X93559580Y-117261904D01*
X93559580Y-117261904D02*
X93464342Y-117214285D01*
X93464342Y-117214285D02*
X93273866Y-117214285D01*
X93273866Y-117214285D02*
X93178628Y-117261904D01*
X93178628Y-117261904D02*
X93131009Y-117309523D01*
X93131009Y-117309523D02*
X93083390Y-117404761D01*
X125559580Y-85742857D02*
X125607200Y-85790476D01*
X125607200Y-85790476D02*
X125654819Y-85933333D01*
X125654819Y-85933333D02*
X125654819Y-86028571D01*
X125654819Y-86028571D02*
X125607200Y-86171428D01*
X125607200Y-86171428D02*
X125511961Y-86266666D01*
X125511961Y-86266666D02*
X125416723Y-86314285D01*
X125416723Y-86314285D02*
X125226247Y-86361904D01*
X125226247Y-86361904D02*
X125083390Y-86361904D01*
X125083390Y-86361904D02*
X124892914Y-86314285D01*
X124892914Y-86314285D02*
X124797676Y-86266666D01*
X124797676Y-86266666D02*
X124702438Y-86171428D01*
X124702438Y-86171428D02*
X124654819Y-86028571D01*
X124654819Y-86028571D02*
X124654819Y-85933333D01*
X124654819Y-85933333D02*
X124702438Y-85790476D01*
X124702438Y-85790476D02*
X124750057Y-85742857D01*
X125654819Y-84790476D02*
X125654819Y-85361904D01*
X125654819Y-85076190D02*
X124654819Y-85076190D01*
X124654819Y-85076190D02*
X124797676Y-85171428D01*
X124797676Y-85171428D02*
X124892914Y-85266666D01*
X124892914Y-85266666D02*
X124940533Y-85361904D01*
X124654819Y-84171428D02*
X124654819Y-84076190D01*
X124654819Y-84076190D02*
X124702438Y-83980952D01*
X124702438Y-83980952D02*
X124750057Y-83933333D01*
X124750057Y-83933333D02*
X124845295Y-83885714D01*
X124845295Y-83885714D02*
X125035771Y-83838095D01*
X125035771Y-83838095D02*
X125273866Y-83838095D01*
X125273866Y-83838095D02*
X125464342Y-83885714D01*
X125464342Y-83885714D02*
X125559580Y-83933333D01*
X125559580Y-83933333D02*
X125607200Y-83980952D01*
X125607200Y-83980952D02*
X125654819Y-84076190D01*
X125654819Y-84076190D02*
X125654819Y-84171428D01*
X125654819Y-84171428D02*
X125607200Y-84266666D01*
X125607200Y-84266666D02*
X125559580Y-84314285D01*
X125559580Y-84314285D02*
X125464342Y-84361904D01*
X125464342Y-84361904D02*
X125273866Y-84409523D01*
X125273866Y-84409523D02*
X125035771Y-84409523D01*
X125035771Y-84409523D02*
X124845295Y-84361904D01*
X124845295Y-84361904D02*
X124750057Y-84314285D01*
X124750057Y-84314285D02*
X124702438Y-84266666D01*
X124702438Y-84266666D02*
X124654819Y-84171428D01*
X130857142Y-78059580D02*
X130809523Y-78107200D01*
X130809523Y-78107200D02*
X130666666Y-78154819D01*
X130666666Y-78154819D02*
X130571428Y-78154819D01*
X130571428Y-78154819D02*
X130428571Y-78107200D01*
X130428571Y-78107200D02*
X130333333Y-78011961D01*
X130333333Y-78011961D02*
X130285714Y-77916723D01*
X130285714Y-77916723D02*
X130238095Y-77726247D01*
X130238095Y-77726247D02*
X130238095Y-77583390D01*
X130238095Y-77583390D02*
X130285714Y-77392914D01*
X130285714Y-77392914D02*
X130333333Y-77297676D01*
X130333333Y-77297676D02*
X130428571Y-77202438D01*
X130428571Y-77202438D02*
X130571428Y-77154819D01*
X130571428Y-77154819D02*
X130666666Y-77154819D01*
X130666666Y-77154819D02*
X130809523Y-77202438D01*
X130809523Y-77202438D02*
X130857142Y-77250057D01*
X131809523Y-78154819D02*
X131238095Y-78154819D01*
X131523809Y-78154819D02*
X131523809Y-77154819D01*
X131523809Y-77154819D02*
X131428571Y-77297676D01*
X131428571Y-77297676D02*
X131333333Y-77392914D01*
X131333333Y-77392914D02*
X131238095Y-77440533D01*
X132285714Y-78154819D02*
X132476190Y-78154819D01*
X132476190Y-78154819D02*
X132571428Y-78107200D01*
X132571428Y-78107200D02*
X132619047Y-78059580D01*
X132619047Y-78059580D02*
X132714285Y-77916723D01*
X132714285Y-77916723D02*
X132761904Y-77726247D01*
X132761904Y-77726247D02*
X132761904Y-77345295D01*
X132761904Y-77345295D02*
X132714285Y-77250057D01*
X132714285Y-77250057D02*
X132666666Y-77202438D01*
X132666666Y-77202438D02*
X132571428Y-77154819D01*
X132571428Y-77154819D02*
X132380952Y-77154819D01*
X132380952Y-77154819D02*
X132285714Y-77202438D01*
X132285714Y-77202438D02*
X132238095Y-77250057D01*
X132238095Y-77250057D02*
X132190476Y-77345295D01*
X132190476Y-77345295D02*
X132190476Y-77583390D01*
X132190476Y-77583390D02*
X132238095Y-77678628D01*
X132238095Y-77678628D02*
X132285714Y-77726247D01*
X132285714Y-77726247D02*
X132380952Y-77773866D01*
X132380952Y-77773866D02*
X132571428Y-77773866D01*
X132571428Y-77773866D02*
X132666666Y-77726247D01*
X132666666Y-77726247D02*
X132714285Y-77678628D01*
X132714285Y-77678628D02*
X132761904Y-77583390D01*
X93424819Y-100062857D02*
X92948628Y-100396190D01*
X93424819Y-100634285D02*
X92424819Y-100634285D01*
X92424819Y-100634285D02*
X92424819Y-100253333D01*
X92424819Y-100253333D02*
X92472438Y-100158095D01*
X92472438Y-100158095D02*
X92520057Y-100110476D01*
X92520057Y-100110476D02*
X92615295Y-100062857D01*
X92615295Y-100062857D02*
X92758152Y-100062857D01*
X92758152Y-100062857D02*
X92853390Y-100110476D01*
X92853390Y-100110476D02*
X92901009Y-100158095D01*
X92901009Y-100158095D02*
X92948628Y-100253333D01*
X92948628Y-100253333D02*
X92948628Y-100634285D01*
X93424819Y-99110476D02*
X93424819Y-99681904D01*
X93424819Y-99396190D02*
X92424819Y-99396190D01*
X92424819Y-99396190D02*
X92567676Y-99491428D01*
X92567676Y-99491428D02*
X92662914Y-99586666D01*
X92662914Y-99586666D02*
X92710533Y-99681904D01*
X93424819Y-98158095D02*
X93424819Y-98729523D01*
X93424819Y-98443809D02*
X92424819Y-98443809D01*
X92424819Y-98443809D02*
X92567676Y-98539047D01*
X92567676Y-98539047D02*
X92662914Y-98634285D01*
X92662914Y-98634285D02*
X92710533Y-98729523D01*
X118957142Y-58659580D02*
X118909523Y-58707200D01*
X118909523Y-58707200D02*
X118766666Y-58754819D01*
X118766666Y-58754819D02*
X118671428Y-58754819D01*
X118671428Y-58754819D02*
X118528571Y-58707200D01*
X118528571Y-58707200D02*
X118433333Y-58611961D01*
X118433333Y-58611961D02*
X118385714Y-58516723D01*
X118385714Y-58516723D02*
X118338095Y-58326247D01*
X118338095Y-58326247D02*
X118338095Y-58183390D01*
X118338095Y-58183390D02*
X118385714Y-57992914D01*
X118385714Y-57992914D02*
X118433333Y-57897676D01*
X118433333Y-57897676D02*
X118528571Y-57802438D01*
X118528571Y-57802438D02*
X118671428Y-57754819D01*
X118671428Y-57754819D02*
X118766666Y-57754819D01*
X118766666Y-57754819D02*
X118909523Y-57802438D01*
X118909523Y-57802438D02*
X118957142Y-57850057D01*
X119338095Y-57850057D02*
X119385714Y-57802438D01*
X119385714Y-57802438D02*
X119480952Y-57754819D01*
X119480952Y-57754819D02*
X119719047Y-57754819D01*
X119719047Y-57754819D02*
X119814285Y-57802438D01*
X119814285Y-57802438D02*
X119861904Y-57850057D01*
X119861904Y-57850057D02*
X119909523Y-57945295D01*
X119909523Y-57945295D02*
X119909523Y-58040533D01*
X119909523Y-58040533D02*
X119861904Y-58183390D01*
X119861904Y-58183390D02*
X119290476Y-58754819D01*
X119290476Y-58754819D02*
X119909523Y-58754819D01*
X120290476Y-57850057D02*
X120338095Y-57802438D01*
X120338095Y-57802438D02*
X120433333Y-57754819D01*
X120433333Y-57754819D02*
X120671428Y-57754819D01*
X120671428Y-57754819D02*
X120766666Y-57802438D01*
X120766666Y-57802438D02*
X120814285Y-57850057D01*
X120814285Y-57850057D02*
X120861904Y-57945295D01*
X120861904Y-57945295D02*
X120861904Y-58040533D01*
X120861904Y-58040533D02*
X120814285Y-58183390D01*
X120814285Y-58183390D02*
X120242857Y-58754819D01*
X120242857Y-58754819D02*
X120861904Y-58754819D01*
X141469819Y-114810238D02*
X140993628Y-115143571D01*
X141469819Y-115381666D02*
X140469819Y-115381666D01*
X140469819Y-115381666D02*
X140469819Y-115000714D01*
X140469819Y-115000714D02*
X140517438Y-114905476D01*
X140517438Y-114905476D02*
X140565057Y-114857857D01*
X140565057Y-114857857D02*
X140660295Y-114810238D01*
X140660295Y-114810238D02*
X140803152Y-114810238D01*
X140803152Y-114810238D02*
X140898390Y-114857857D01*
X140898390Y-114857857D02*
X140946009Y-114905476D01*
X140946009Y-114905476D02*
X140993628Y-115000714D01*
X140993628Y-115000714D02*
X140993628Y-115381666D01*
X140469819Y-114524523D02*
X141469819Y-114191190D01*
X141469819Y-114191190D02*
X140469819Y-113857857D01*
X140469819Y-113619761D02*
X140469819Y-113000714D01*
X140469819Y-113000714D02*
X140850771Y-113334047D01*
X140850771Y-113334047D02*
X140850771Y-113191190D01*
X140850771Y-113191190D02*
X140898390Y-113095952D01*
X140898390Y-113095952D02*
X140946009Y-113048333D01*
X140946009Y-113048333D02*
X141041247Y-113000714D01*
X141041247Y-113000714D02*
X141279342Y-113000714D01*
X141279342Y-113000714D02*
X141374580Y-113048333D01*
X141374580Y-113048333D02*
X141422200Y-113095952D01*
X141422200Y-113095952D02*
X141469819Y-113191190D01*
X141469819Y-113191190D02*
X141469819Y-113476904D01*
X141469819Y-113476904D02*
X141422200Y-113572142D01*
X141422200Y-113572142D02*
X141374580Y-113619761D01*
X99254819Y-100242857D02*
X98778628Y-100576190D01*
X99254819Y-100814285D02*
X98254819Y-100814285D01*
X98254819Y-100814285D02*
X98254819Y-100433333D01*
X98254819Y-100433333D02*
X98302438Y-100338095D01*
X98302438Y-100338095D02*
X98350057Y-100290476D01*
X98350057Y-100290476D02*
X98445295Y-100242857D01*
X98445295Y-100242857D02*
X98588152Y-100242857D01*
X98588152Y-100242857D02*
X98683390Y-100290476D01*
X98683390Y-100290476D02*
X98731009Y-100338095D01*
X98731009Y-100338095D02*
X98778628Y-100433333D01*
X98778628Y-100433333D02*
X98778628Y-100814285D01*
X99254819Y-99290476D02*
X99254819Y-99861904D01*
X99254819Y-99576190D02*
X98254819Y-99576190D01*
X98254819Y-99576190D02*
X98397676Y-99671428D01*
X98397676Y-99671428D02*
X98492914Y-99766666D01*
X98492914Y-99766666D02*
X98540533Y-99861904D01*
X98254819Y-98671428D02*
X98254819Y-98576190D01*
X98254819Y-98576190D02*
X98302438Y-98480952D01*
X98302438Y-98480952D02*
X98350057Y-98433333D01*
X98350057Y-98433333D02*
X98445295Y-98385714D01*
X98445295Y-98385714D02*
X98635771Y-98338095D01*
X98635771Y-98338095D02*
X98873866Y-98338095D01*
X98873866Y-98338095D02*
X99064342Y-98385714D01*
X99064342Y-98385714D02*
X99159580Y-98433333D01*
X99159580Y-98433333D02*
X99207200Y-98480952D01*
X99207200Y-98480952D02*
X99254819Y-98576190D01*
X99254819Y-98576190D02*
X99254819Y-98671428D01*
X99254819Y-98671428D02*
X99207200Y-98766666D01*
X99207200Y-98766666D02*
X99159580Y-98814285D01*
X99159580Y-98814285D02*
X99064342Y-98861904D01*
X99064342Y-98861904D02*
X98873866Y-98909523D01*
X98873866Y-98909523D02*
X98635771Y-98909523D01*
X98635771Y-98909523D02*
X98445295Y-98861904D01*
X98445295Y-98861904D02*
X98350057Y-98814285D01*
X98350057Y-98814285D02*
X98302438Y-98766666D01*
X98302438Y-98766666D02*
X98254819Y-98671428D01*
X116633333Y-102754819D02*
X116300000Y-102278628D01*
X116061905Y-102754819D02*
X116061905Y-101754819D01*
X116061905Y-101754819D02*
X116442857Y-101754819D01*
X116442857Y-101754819D02*
X116538095Y-101802438D01*
X116538095Y-101802438D02*
X116585714Y-101850057D01*
X116585714Y-101850057D02*
X116633333Y-101945295D01*
X116633333Y-101945295D02*
X116633333Y-102088152D01*
X116633333Y-102088152D02*
X116585714Y-102183390D01*
X116585714Y-102183390D02*
X116538095Y-102231009D01*
X116538095Y-102231009D02*
X116442857Y-102278628D01*
X116442857Y-102278628D02*
X116061905Y-102278628D01*
X116966667Y-101754819D02*
X117633333Y-101754819D01*
X117633333Y-101754819D02*
X117204762Y-102754819D01*
X119157142Y-47154819D02*
X118823809Y-46678628D01*
X118585714Y-47154819D02*
X118585714Y-46154819D01*
X118585714Y-46154819D02*
X118966666Y-46154819D01*
X118966666Y-46154819D02*
X119061904Y-46202438D01*
X119061904Y-46202438D02*
X119109523Y-46250057D01*
X119109523Y-46250057D02*
X119157142Y-46345295D01*
X119157142Y-46345295D02*
X119157142Y-46488152D01*
X119157142Y-46488152D02*
X119109523Y-46583390D01*
X119109523Y-46583390D02*
X119061904Y-46631009D01*
X119061904Y-46631009D02*
X118966666Y-46678628D01*
X118966666Y-46678628D02*
X118585714Y-46678628D01*
X120109523Y-47154819D02*
X119538095Y-47154819D01*
X119823809Y-47154819D02*
X119823809Y-46154819D01*
X119823809Y-46154819D02*
X119728571Y-46297676D01*
X119728571Y-46297676D02*
X119633333Y-46392914D01*
X119633333Y-46392914D02*
X119538095Y-46440533D01*
X120585714Y-47154819D02*
X120776190Y-47154819D01*
X120776190Y-47154819D02*
X120871428Y-47107200D01*
X120871428Y-47107200D02*
X120919047Y-47059580D01*
X120919047Y-47059580D02*
X121014285Y-46916723D01*
X121014285Y-46916723D02*
X121061904Y-46726247D01*
X121061904Y-46726247D02*
X121061904Y-46345295D01*
X121061904Y-46345295D02*
X121014285Y-46250057D01*
X121014285Y-46250057D02*
X120966666Y-46202438D01*
X120966666Y-46202438D02*
X120871428Y-46154819D01*
X120871428Y-46154819D02*
X120680952Y-46154819D01*
X120680952Y-46154819D02*
X120585714Y-46202438D01*
X120585714Y-46202438D02*
X120538095Y-46250057D01*
X120538095Y-46250057D02*
X120490476Y-46345295D01*
X120490476Y-46345295D02*
X120490476Y-46583390D01*
X120490476Y-46583390D02*
X120538095Y-46678628D01*
X120538095Y-46678628D02*
X120585714Y-46726247D01*
X120585714Y-46726247D02*
X120680952Y-46773866D01*
X120680952Y-46773866D02*
X120871428Y-46773866D01*
X120871428Y-46773866D02*
X120966666Y-46726247D01*
X120966666Y-46726247D02*
X121014285Y-46678628D01*
X121014285Y-46678628D02*
X121061904Y-46583390D01*
X137659580Y-137166666D02*
X137707200Y-137214285D01*
X137707200Y-137214285D02*
X137754819Y-137357142D01*
X137754819Y-137357142D02*
X137754819Y-137452380D01*
X137754819Y-137452380D02*
X137707200Y-137595237D01*
X137707200Y-137595237D02*
X137611961Y-137690475D01*
X137611961Y-137690475D02*
X137516723Y-137738094D01*
X137516723Y-137738094D02*
X137326247Y-137785713D01*
X137326247Y-137785713D02*
X137183390Y-137785713D01*
X137183390Y-137785713D02*
X136992914Y-137738094D01*
X136992914Y-137738094D02*
X136897676Y-137690475D01*
X136897676Y-137690475D02*
X136802438Y-137595237D01*
X136802438Y-137595237D02*
X136754819Y-137452380D01*
X136754819Y-137452380D02*
X136754819Y-137357142D01*
X136754819Y-137357142D02*
X136802438Y-137214285D01*
X136802438Y-137214285D02*
X136850057Y-137166666D01*
X137754819Y-136214285D02*
X137754819Y-136785713D01*
X137754819Y-136499999D02*
X136754819Y-136499999D01*
X136754819Y-136499999D02*
X136897676Y-136595237D01*
X136897676Y-136595237D02*
X136992914Y-136690475D01*
X136992914Y-136690475D02*
X137040533Y-136785713D01*
X116157142Y-123854819D02*
X115823809Y-123378628D01*
X115585714Y-123854819D02*
X115585714Y-122854819D01*
X115585714Y-122854819D02*
X115966666Y-122854819D01*
X115966666Y-122854819D02*
X116061904Y-122902438D01*
X116061904Y-122902438D02*
X116109523Y-122950057D01*
X116109523Y-122950057D02*
X116157142Y-123045295D01*
X116157142Y-123045295D02*
X116157142Y-123188152D01*
X116157142Y-123188152D02*
X116109523Y-123283390D01*
X116109523Y-123283390D02*
X116061904Y-123331009D01*
X116061904Y-123331009D02*
X115966666Y-123378628D01*
X115966666Y-123378628D02*
X115585714Y-123378628D01*
X117109523Y-123854819D02*
X116538095Y-123854819D01*
X116823809Y-123854819D02*
X116823809Y-122854819D01*
X116823809Y-122854819D02*
X116728571Y-122997676D01*
X116728571Y-122997676D02*
X116633333Y-123092914D01*
X116633333Y-123092914D02*
X116538095Y-123140533D01*
X117966666Y-122854819D02*
X117776190Y-122854819D01*
X117776190Y-122854819D02*
X117680952Y-122902438D01*
X117680952Y-122902438D02*
X117633333Y-122950057D01*
X117633333Y-122950057D02*
X117538095Y-123092914D01*
X117538095Y-123092914D02*
X117490476Y-123283390D01*
X117490476Y-123283390D02*
X117490476Y-123664342D01*
X117490476Y-123664342D02*
X117538095Y-123759580D01*
X117538095Y-123759580D02*
X117585714Y-123807200D01*
X117585714Y-123807200D02*
X117680952Y-123854819D01*
X117680952Y-123854819D02*
X117871428Y-123854819D01*
X117871428Y-123854819D02*
X117966666Y-123807200D01*
X117966666Y-123807200D02*
X118014285Y-123759580D01*
X118014285Y-123759580D02*
X118061904Y-123664342D01*
X118061904Y-123664342D02*
X118061904Y-123426247D01*
X118061904Y-123426247D02*
X118014285Y-123331009D01*
X118014285Y-123331009D02*
X117966666Y-123283390D01*
X117966666Y-123283390D02*
X117871428Y-123235771D01*
X117871428Y-123235771D02*
X117680952Y-123235771D01*
X117680952Y-123235771D02*
X117585714Y-123283390D01*
X117585714Y-123283390D02*
X117538095Y-123331009D01*
X117538095Y-123331009D02*
X117490476Y-123426247D01*
X111609580Y-68142857D02*
X111657200Y-68190476D01*
X111657200Y-68190476D02*
X111704819Y-68333333D01*
X111704819Y-68333333D02*
X111704819Y-68428571D01*
X111704819Y-68428571D02*
X111657200Y-68571428D01*
X111657200Y-68571428D02*
X111561961Y-68666666D01*
X111561961Y-68666666D02*
X111466723Y-68714285D01*
X111466723Y-68714285D02*
X111276247Y-68761904D01*
X111276247Y-68761904D02*
X111133390Y-68761904D01*
X111133390Y-68761904D02*
X110942914Y-68714285D01*
X110942914Y-68714285D02*
X110847676Y-68666666D01*
X110847676Y-68666666D02*
X110752438Y-68571428D01*
X110752438Y-68571428D02*
X110704819Y-68428571D01*
X110704819Y-68428571D02*
X110704819Y-68333333D01*
X110704819Y-68333333D02*
X110752438Y-68190476D01*
X110752438Y-68190476D02*
X110800057Y-68142857D01*
X110800057Y-67761904D02*
X110752438Y-67714285D01*
X110752438Y-67714285D02*
X110704819Y-67619047D01*
X110704819Y-67619047D02*
X110704819Y-67380952D01*
X110704819Y-67380952D02*
X110752438Y-67285714D01*
X110752438Y-67285714D02*
X110800057Y-67238095D01*
X110800057Y-67238095D02*
X110895295Y-67190476D01*
X110895295Y-67190476D02*
X110990533Y-67190476D01*
X110990533Y-67190476D02*
X111133390Y-67238095D01*
X111133390Y-67238095D02*
X111704819Y-67809523D01*
X111704819Y-67809523D02*
X111704819Y-67190476D01*
X111704819Y-66238095D02*
X111704819Y-66809523D01*
X111704819Y-66523809D02*
X110704819Y-66523809D01*
X110704819Y-66523809D02*
X110847676Y-66619047D01*
X110847676Y-66619047D02*
X110942914Y-66714285D01*
X110942914Y-66714285D02*
X110990533Y-66809523D01*
X141309819Y-70730238D02*
X140833628Y-71063571D01*
X141309819Y-71301666D02*
X140309819Y-71301666D01*
X140309819Y-71301666D02*
X140309819Y-70920714D01*
X140309819Y-70920714D02*
X140357438Y-70825476D01*
X140357438Y-70825476D02*
X140405057Y-70777857D01*
X140405057Y-70777857D02*
X140500295Y-70730238D01*
X140500295Y-70730238D02*
X140643152Y-70730238D01*
X140643152Y-70730238D02*
X140738390Y-70777857D01*
X140738390Y-70777857D02*
X140786009Y-70825476D01*
X140786009Y-70825476D02*
X140833628Y-70920714D01*
X140833628Y-70920714D02*
X140833628Y-71301666D01*
X140309819Y-70444523D02*
X141309819Y-70111190D01*
X141309819Y-70111190D02*
X140309819Y-69777857D01*
X140643152Y-69015952D02*
X141309819Y-69015952D01*
X140262200Y-69254047D02*
X140976485Y-69492142D01*
X140976485Y-69492142D02*
X140976485Y-68873095D01*
X128459580Y-119566666D02*
X128507200Y-119614285D01*
X128507200Y-119614285D02*
X128554819Y-119757142D01*
X128554819Y-119757142D02*
X128554819Y-119852380D01*
X128554819Y-119852380D02*
X128507200Y-119995237D01*
X128507200Y-119995237D02*
X128411961Y-120090475D01*
X128411961Y-120090475D02*
X128316723Y-120138094D01*
X128316723Y-120138094D02*
X128126247Y-120185713D01*
X128126247Y-120185713D02*
X127983390Y-120185713D01*
X127983390Y-120185713D02*
X127792914Y-120138094D01*
X127792914Y-120138094D02*
X127697676Y-120090475D01*
X127697676Y-120090475D02*
X127602438Y-119995237D01*
X127602438Y-119995237D02*
X127554819Y-119852380D01*
X127554819Y-119852380D02*
X127554819Y-119757142D01*
X127554819Y-119757142D02*
X127602438Y-119614285D01*
X127602438Y-119614285D02*
X127650057Y-119566666D01*
X127983390Y-118995237D02*
X127935771Y-119090475D01*
X127935771Y-119090475D02*
X127888152Y-119138094D01*
X127888152Y-119138094D02*
X127792914Y-119185713D01*
X127792914Y-119185713D02*
X127745295Y-119185713D01*
X127745295Y-119185713D02*
X127650057Y-119138094D01*
X127650057Y-119138094D02*
X127602438Y-119090475D01*
X127602438Y-119090475D02*
X127554819Y-118995237D01*
X127554819Y-118995237D02*
X127554819Y-118804761D01*
X127554819Y-118804761D02*
X127602438Y-118709523D01*
X127602438Y-118709523D02*
X127650057Y-118661904D01*
X127650057Y-118661904D02*
X127745295Y-118614285D01*
X127745295Y-118614285D02*
X127792914Y-118614285D01*
X127792914Y-118614285D02*
X127888152Y-118661904D01*
X127888152Y-118661904D02*
X127935771Y-118709523D01*
X127935771Y-118709523D02*
X127983390Y-118804761D01*
X127983390Y-118804761D02*
X127983390Y-118995237D01*
X127983390Y-118995237D02*
X128031009Y-119090475D01*
X128031009Y-119090475D02*
X128078628Y-119138094D01*
X128078628Y-119138094D02*
X128173866Y-119185713D01*
X128173866Y-119185713D02*
X128364342Y-119185713D01*
X128364342Y-119185713D02*
X128459580Y-119138094D01*
X128459580Y-119138094D02*
X128507200Y-119090475D01*
X128507200Y-119090475D02*
X128554819Y-118995237D01*
X128554819Y-118995237D02*
X128554819Y-118804761D01*
X128554819Y-118804761D02*
X128507200Y-118709523D01*
X128507200Y-118709523D02*
X128459580Y-118661904D01*
X128459580Y-118661904D02*
X128364342Y-118614285D01*
X128364342Y-118614285D02*
X128173866Y-118614285D01*
X128173866Y-118614285D02*
X128078628Y-118661904D01*
X128078628Y-118661904D02*
X128031009Y-118709523D01*
X128031009Y-118709523D02*
X127983390Y-118804761D01*
X92333333Y-63279580D02*
X92285714Y-63327200D01*
X92285714Y-63327200D02*
X92142857Y-63374819D01*
X92142857Y-63374819D02*
X92047619Y-63374819D01*
X92047619Y-63374819D02*
X91904762Y-63327200D01*
X91904762Y-63327200D02*
X91809524Y-63231961D01*
X91809524Y-63231961D02*
X91761905Y-63136723D01*
X91761905Y-63136723D02*
X91714286Y-62946247D01*
X91714286Y-62946247D02*
X91714286Y-62803390D01*
X91714286Y-62803390D02*
X91761905Y-62612914D01*
X91761905Y-62612914D02*
X91809524Y-62517676D01*
X91809524Y-62517676D02*
X91904762Y-62422438D01*
X91904762Y-62422438D02*
X92047619Y-62374819D01*
X92047619Y-62374819D02*
X92142857Y-62374819D01*
X92142857Y-62374819D02*
X92285714Y-62422438D01*
X92285714Y-62422438D02*
X92333333Y-62470057D01*
X93190476Y-62708152D02*
X93190476Y-63374819D01*
X92952381Y-62327200D02*
X92714286Y-63041485D01*
X92714286Y-63041485D02*
X93333333Y-63041485D01*
X92333333Y-69859580D02*
X92285714Y-69907200D01*
X92285714Y-69907200D02*
X92142857Y-69954819D01*
X92142857Y-69954819D02*
X92047619Y-69954819D01*
X92047619Y-69954819D02*
X91904762Y-69907200D01*
X91904762Y-69907200D02*
X91809524Y-69811961D01*
X91809524Y-69811961D02*
X91761905Y-69716723D01*
X91761905Y-69716723D02*
X91714286Y-69526247D01*
X91714286Y-69526247D02*
X91714286Y-69383390D01*
X91714286Y-69383390D02*
X91761905Y-69192914D01*
X91761905Y-69192914D02*
X91809524Y-69097676D01*
X91809524Y-69097676D02*
X91904762Y-69002438D01*
X91904762Y-69002438D02*
X92047619Y-68954819D01*
X92047619Y-68954819D02*
X92142857Y-68954819D01*
X92142857Y-68954819D02*
X92285714Y-69002438D01*
X92285714Y-69002438D02*
X92333333Y-69050057D01*
X92666667Y-68954819D02*
X93285714Y-68954819D01*
X93285714Y-68954819D02*
X92952381Y-69335771D01*
X92952381Y-69335771D02*
X93095238Y-69335771D01*
X93095238Y-69335771D02*
X93190476Y-69383390D01*
X93190476Y-69383390D02*
X93238095Y-69431009D01*
X93238095Y-69431009D02*
X93285714Y-69526247D01*
X93285714Y-69526247D02*
X93285714Y-69764342D01*
X93285714Y-69764342D02*
X93238095Y-69859580D01*
X93238095Y-69859580D02*
X93190476Y-69907200D01*
X93190476Y-69907200D02*
X93095238Y-69954819D01*
X93095238Y-69954819D02*
X92809524Y-69954819D01*
X92809524Y-69954819D02*
X92714286Y-69907200D01*
X92714286Y-69907200D02*
X92666667Y-69859580D01*
X110654819Y-104766666D02*
X110178628Y-105099999D01*
X110654819Y-105338094D02*
X109654819Y-105338094D01*
X109654819Y-105338094D02*
X109654819Y-104957142D01*
X109654819Y-104957142D02*
X109702438Y-104861904D01*
X109702438Y-104861904D02*
X109750057Y-104814285D01*
X109750057Y-104814285D02*
X109845295Y-104766666D01*
X109845295Y-104766666D02*
X109988152Y-104766666D01*
X109988152Y-104766666D02*
X110083390Y-104814285D01*
X110083390Y-104814285D02*
X110131009Y-104861904D01*
X110131009Y-104861904D02*
X110178628Y-104957142D01*
X110178628Y-104957142D02*
X110178628Y-105338094D01*
X110654819Y-103814285D02*
X110654819Y-104385713D01*
X110654819Y-104099999D02*
X109654819Y-104099999D01*
X109654819Y-104099999D02*
X109797676Y-104195237D01*
X109797676Y-104195237D02*
X109892914Y-104290475D01*
X109892914Y-104290475D02*
X109940533Y-104385713D01*
X56294819Y-86253333D02*
X57009104Y-86253333D01*
X57009104Y-86253333D02*
X57151961Y-86300952D01*
X57151961Y-86300952D02*
X57247200Y-86396190D01*
X57247200Y-86396190D02*
X57294819Y-86539047D01*
X57294819Y-86539047D02*
X57294819Y-86634285D01*
X56628152Y-85348571D02*
X57294819Y-85348571D01*
X56247200Y-85586666D02*
X56961485Y-85824761D01*
X56961485Y-85824761D02*
X56961485Y-85205714D01*
X83554819Y-94938094D02*
X82554819Y-94938094D01*
X82554819Y-94938094D02*
X82554819Y-94699999D01*
X82554819Y-94699999D02*
X82602438Y-94557142D01*
X82602438Y-94557142D02*
X82697676Y-94461904D01*
X82697676Y-94461904D02*
X82792914Y-94414285D01*
X82792914Y-94414285D02*
X82983390Y-94366666D01*
X82983390Y-94366666D02*
X83126247Y-94366666D01*
X83126247Y-94366666D02*
X83316723Y-94414285D01*
X83316723Y-94414285D02*
X83411961Y-94461904D01*
X83411961Y-94461904D02*
X83507200Y-94557142D01*
X83507200Y-94557142D02*
X83554819Y-94699999D01*
X83554819Y-94699999D02*
X83554819Y-94938094D01*
X82554819Y-94033332D02*
X82554819Y-93414285D01*
X82554819Y-93414285D02*
X82935771Y-93747618D01*
X82935771Y-93747618D02*
X82935771Y-93604761D01*
X82935771Y-93604761D02*
X82983390Y-93509523D01*
X82983390Y-93509523D02*
X83031009Y-93461904D01*
X83031009Y-93461904D02*
X83126247Y-93414285D01*
X83126247Y-93414285D02*
X83364342Y-93414285D01*
X83364342Y-93414285D02*
X83459580Y-93461904D01*
X83459580Y-93461904D02*
X83507200Y-93509523D01*
X83507200Y-93509523D02*
X83554819Y-93604761D01*
X83554819Y-93604761D02*
X83554819Y-93890475D01*
X83554819Y-93890475D02*
X83507200Y-93985713D01*
X83507200Y-93985713D02*
X83459580Y-94033332D01*
X88054819Y-85181904D02*
X87054819Y-85181904D01*
X88054819Y-84610476D02*
X87483390Y-85039047D01*
X87054819Y-84610476D02*
X87626247Y-85181904D01*
X65357142Y-113109580D02*
X65309523Y-113157200D01*
X65309523Y-113157200D02*
X65166666Y-113204819D01*
X65166666Y-113204819D02*
X65071428Y-113204819D01*
X65071428Y-113204819D02*
X64928571Y-113157200D01*
X64928571Y-113157200D02*
X64833333Y-113061961D01*
X64833333Y-113061961D02*
X64785714Y-112966723D01*
X64785714Y-112966723D02*
X64738095Y-112776247D01*
X64738095Y-112776247D02*
X64738095Y-112633390D01*
X64738095Y-112633390D02*
X64785714Y-112442914D01*
X64785714Y-112442914D02*
X64833333Y-112347676D01*
X64833333Y-112347676D02*
X64928571Y-112252438D01*
X64928571Y-112252438D02*
X65071428Y-112204819D01*
X65071428Y-112204819D02*
X65166666Y-112204819D01*
X65166666Y-112204819D02*
X65309523Y-112252438D01*
X65309523Y-112252438D02*
X65357142Y-112300057D01*
X66309523Y-113204819D02*
X65738095Y-113204819D01*
X66023809Y-113204819D02*
X66023809Y-112204819D01*
X66023809Y-112204819D02*
X65928571Y-112347676D01*
X65928571Y-112347676D02*
X65833333Y-112442914D01*
X65833333Y-112442914D02*
X65738095Y-112490533D01*
X66690476Y-112300057D02*
X66738095Y-112252438D01*
X66738095Y-112252438D02*
X66833333Y-112204819D01*
X66833333Y-112204819D02*
X67071428Y-112204819D01*
X67071428Y-112204819D02*
X67166666Y-112252438D01*
X67166666Y-112252438D02*
X67214285Y-112300057D01*
X67214285Y-112300057D02*
X67261904Y-112395295D01*
X67261904Y-112395295D02*
X67261904Y-112490533D01*
X67261904Y-112490533D02*
X67214285Y-112633390D01*
X67214285Y-112633390D02*
X66642857Y-113204819D01*
X66642857Y-113204819D02*
X67261904Y-113204819D01*
X116933333Y-108254819D02*
X116600000Y-107778628D01*
X116361905Y-108254819D02*
X116361905Y-107254819D01*
X116361905Y-107254819D02*
X116742857Y-107254819D01*
X116742857Y-107254819D02*
X116838095Y-107302438D01*
X116838095Y-107302438D02*
X116885714Y-107350057D01*
X116885714Y-107350057D02*
X116933333Y-107445295D01*
X116933333Y-107445295D02*
X116933333Y-107588152D01*
X116933333Y-107588152D02*
X116885714Y-107683390D01*
X116885714Y-107683390D02*
X116838095Y-107731009D01*
X116838095Y-107731009D02*
X116742857Y-107778628D01*
X116742857Y-107778628D02*
X116361905Y-107778628D01*
X117790476Y-107588152D02*
X117790476Y-108254819D01*
X117552381Y-107207200D02*
X117314286Y-107921485D01*
X117314286Y-107921485D02*
X117933333Y-107921485D01*
X78357142Y-112609580D02*
X78309523Y-112657200D01*
X78309523Y-112657200D02*
X78166666Y-112704819D01*
X78166666Y-112704819D02*
X78071428Y-112704819D01*
X78071428Y-112704819D02*
X77928571Y-112657200D01*
X77928571Y-112657200D02*
X77833333Y-112561961D01*
X77833333Y-112561961D02*
X77785714Y-112466723D01*
X77785714Y-112466723D02*
X77738095Y-112276247D01*
X77738095Y-112276247D02*
X77738095Y-112133390D01*
X77738095Y-112133390D02*
X77785714Y-111942914D01*
X77785714Y-111942914D02*
X77833333Y-111847676D01*
X77833333Y-111847676D02*
X77928571Y-111752438D01*
X77928571Y-111752438D02*
X78071428Y-111704819D01*
X78071428Y-111704819D02*
X78166666Y-111704819D01*
X78166666Y-111704819D02*
X78309523Y-111752438D01*
X78309523Y-111752438D02*
X78357142Y-111800057D01*
X79309523Y-112704819D02*
X78738095Y-112704819D01*
X79023809Y-112704819D02*
X79023809Y-111704819D01*
X79023809Y-111704819D02*
X78928571Y-111847676D01*
X78928571Y-111847676D02*
X78833333Y-111942914D01*
X78833333Y-111942914D02*
X78738095Y-111990533D01*
X80261904Y-112704819D02*
X79690476Y-112704819D01*
X79976190Y-112704819D02*
X79976190Y-111704819D01*
X79976190Y-111704819D02*
X79880952Y-111847676D01*
X79880952Y-111847676D02*
X79785714Y-111942914D01*
X79785714Y-111942914D02*
X79690476Y-111990533D01*
X94734819Y-83916666D02*
X94258628Y-84249999D01*
X94734819Y-84488094D02*
X93734819Y-84488094D01*
X93734819Y-84488094D02*
X93734819Y-84107142D01*
X93734819Y-84107142D02*
X93782438Y-84011904D01*
X93782438Y-84011904D02*
X93830057Y-83964285D01*
X93830057Y-83964285D02*
X93925295Y-83916666D01*
X93925295Y-83916666D02*
X94068152Y-83916666D01*
X94068152Y-83916666D02*
X94163390Y-83964285D01*
X94163390Y-83964285D02*
X94211009Y-84011904D01*
X94211009Y-84011904D02*
X94258628Y-84107142D01*
X94258628Y-84107142D02*
X94258628Y-84488094D01*
X93734819Y-83011904D02*
X93734819Y-83488094D01*
X93734819Y-83488094D02*
X94211009Y-83535713D01*
X94211009Y-83535713D02*
X94163390Y-83488094D01*
X94163390Y-83488094D02*
X94115771Y-83392856D01*
X94115771Y-83392856D02*
X94115771Y-83154761D01*
X94115771Y-83154761D02*
X94163390Y-83059523D01*
X94163390Y-83059523D02*
X94211009Y-83011904D01*
X94211009Y-83011904D02*
X94306247Y-82964285D01*
X94306247Y-82964285D02*
X94544342Y-82964285D01*
X94544342Y-82964285D02*
X94639580Y-83011904D01*
X94639580Y-83011904D02*
X94687200Y-83059523D01*
X94687200Y-83059523D02*
X94734819Y-83154761D01*
X94734819Y-83154761D02*
X94734819Y-83392856D01*
X94734819Y-83392856D02*
X94687200Y-83488094D01*
X94687200Y-83488094D02*
X94639580Y-83535713D01*
X96497319Y-47683333D02*
X97211604Y-47683333D01*
X97211604Y-47683333D02*
X97354461Y-47730952D01*
X97354461Y-47730952D02*
X97449700Y-47826190D01*
X97449700Y-47826190D02*
X97497319Y-47969047D01*
X97497319Y-47969047D02*
X97497319Y-48064285D01*
X96497319Y-47302380D02*
X96497319Y-46683333D01*
X96497319Y-46683333D02*
X96878271Y-47016666D01*
X96878271Y-47016666D02*
X96878271Y-46873809D01*
X96878271Y-46873809D02*
X96925890Y-46778571D01*
X96925890Y-46778571D02*
X96973509Y-46730952D01*
X96973509Y-46730952D02*
X97068747Y-46683333D01*
X97068747Y-46683333D02*
X97306842Y-46683333D01*
X97306842Y-46683333D02*
X97402080Y-46730952D01*
X97402080Y-46730952D02*
X97449700Y-46778571D01*
X97449700Y-46778571D02*
X97497319Y-46873809D01*
X97497319Y-46873809D02*
X97497319Y-47159523D01*
X97497319Y-47159523D02*
X97449700Y-47254761D01*
X97449700Y-47254761D02*
X97402080Y-47302380D01*
X109609580Y-117166666D02*
X109657200Y-117214285D01*
X109657200Y-117214285D02*
X109704819Y-117357142D01*
X109704819Y-117357142D02*
X109704819Y-117452380D01*
X109704819Y-117452380D02*
X109657200Y-117595237D01*
X109657200Y-117595237D02*
X109561961Y-117690475D01*
X109561961Y-117690475D02*
X109466723Y-117738094D01*
X109466723Y-117738094D02*
X109276247Y-117785713D01*
X109276247Y-117785713D02*
X109133390Y-117785713D01*
X109133390Y-117785713D02*
X108942914Y-117738094D01*
X108942914Y-117738094D02*
X108847676Y-117690475D01*
X108847676Y-117690475D02*
X108752438Y-117595237D01*
X108752438Y-117595237D02*
X108704819Y-117452380D01*
X108704819Y-117452380D02*
X108704819Y-117357142D01*
X108704819Y-117357142D02*
X108752438Y-117214285D01*
X108752438Y-117214285D02*
X108800057Y-117166666D01*
X108704819Y-116261904D02*
X108704819Y-116738094D01*
X108704819Y-116738094D02*
X109181009Y-116785713D01*
X109181009Y-116785713D02*
X109133390Y-116738094D01*
X109133390Y-116738094D02*
X109085771Y-116642856D01*
X109085771Y-116642856D02*
X109085771Y-116404761D01*
X109085771Y-116404761D02*
X109133390Y-116309523D01*
X109133390Y-116309523D02*
X109181009Y-116261904D01*
X109181009Y-116261904D02*
X109276247Y-116214285D01*
X109276247Y-116214285D02*
X109514342Y-116214285D01*
X109514342Y-116214285D02*
X109609580Y-116261904D01*
X109609580Y-116261904D02*
X109657200Y-116309523D01*
X109657200Y-116309523D02*
X109704819Y-116404761D01*
X109704819Y-116404761D02*
X109704819Y-116642856D01*
X109704819Y-116642856D02*
X109657200Y-116738094D01*
X109657200Y-116738094D02*
X109609580Y-116785713D01*
X141469819Y-136810238D02*
X140993628Y-137143571D01*
X141469819Y-137381666D02*
X140469819Y-137381666D01*
X140469819Y-137381666D02*
X140469819Y-137000714D01*
X140469819Y-137000714D02*
X140517438Y-136905476D01*
X140517438Y-136905476D02*
X140565057Y-136857857D01*
X140565057Y-136857857D02*
X140660295Y-136810238D01*
X140660295Y-136810238D02*
X140803152Y-136810238D01*
X140803152Y-136810238D02*
X140898390Y-136857857D01*
X140898390Y-136857857D02*
X140946009Y-136905476D01*
X140946009Y-136905476D02*
X140993628Y-137000714D01*
X140993628Y-137000714D02*
X140993628Y-137381666D01*
X140469819Y-136524523D02*
X141469819Y-136191190D01*
X141469819Y-136191190D02*
X140469819Y-135857857D01*
X141469819Y-135000714D02*
X141469819Y-135572142D01*
X141469819Y-135286428D02*
X140469819Y-135286428D01*
X140469819Y-135286428D02*
X140612676Y-135381666D01*
X140612676Y-135381666D02*
X140707914Y-135476904D01*
X140707914Y-135476904D02*
X140755533Y-135572142D01*
X122259580Y-136042857D02*
X122307200Y-136090476D01*
X122307200Y-136090476D02*
X122354819Y-136233333D01*
X122354819Y-136233333D02*
X122354819Y-136328571D01*
X122354819Y-136328571D02*
X122307200Y-136471428D01*
X122307200Y-136471428D02*
X122211961Y-136566666D01*
X122211961Y-136566666D02*
X122116723Y-136614285D01*
X122116723Y-136614285D02*
X121926247Y-136661904D01*
X121926247Y-136661904D02*
X121783390Y-136661904D01*
X121783390Y-136661904D02*
X121592914Y-136614285D01*
X121592914Y-136614285D02*
X121497676Y-136566666D01*
X121497676Y-136566666D02*
X121402438Y-136471428D01*
X121402438Y-136471428D02*
X121354819Y-136328571D01*
X121354819Y-136328571D02*
X121354819Y-136233333D01*
X121354819Y-136233333D02*
X121402438Y-136090476D01*
X121402438Y-136090476D02*
X121450057Y-136042857D01*
X122354819Y-135090476D02*
X122354819Y-135661904D01*
X122354819Y-135376190D02*
X121354819Y-135376190D01*
X121354819Y-135376190D02*
X121497676Y-135471428D01*
X121497676Y-135471428D02*
X121592914Y-135566666D01*
X121592914Y-135566666D02*
X121640533Y-135661904D01*
X121354819Y-134233333D02*
X121354819Y-134423809D01*
X121354819Y-134423809D02*
X121402438Y-134519047D01*
X121402438Y-134519047D02*
X121450057Y-134566666D01*
X121450057Y-134566666D02*
X121592914Y-134661904D01*
X121592914Y-134661904D02*
X121783390Y-134709523D01*
X121783390Y-134709523D02*
X122164342Y-134709523D01*
X122164342Y-134709523D02*
X122259580Y-134661904D01*
X122259580Y-134661904D02*
X122307200Y-134614285D01*
X122307200Y-134614285D02*
X122354819Y-134519047D01*
X122354819Y-134519047D02*
X122354819Y-134328571D01*
X122354819Y-134328571D02*
X122307200Y-134233333D01*
X122307200Y-134233333D02*
X122259580Y-134185714D01*
X122259580Y-134185714D02*
X122164342Y-134138095D01*
X122164342Y-134138095D02*
X121926247Y-134138095D01*
X121926247Y-134138095D02*
X121831009Y-134185714D01*
X121831009Y-134185714D02*
X121783390Y-134233333D01*
X121783390Y-134233333D02*
X121735771Y-134328571D01*
X121735771Y-134328571D02*
X121735771Y-134519047D01*
X121735771Y-134519047D02*
X121783390Y-134614285D01*
X121783390Y-134614285D02*
X121831009Y-134661904D01*
X121831009Y-134661904D02*
X121926247Y-134709523D01*
X100859580Y-86866666D02*
X100907200Y-86914285D01*
X100907200Y-86914285D02*
X100954819Y-87057142D01*
X100954819Y-87057142D02*
X100954819Y-87152380D01*
X100954819Y-87152380D02*
X100907200Y-87295237D01*
X100907200Y-87295237D02*
X100811961Y-87390475D01*
X100811961Y-87390475D02*
X100716723Y-87438094D01*
X100716723Y-87438094D02*
X100526247Y-87485713D01*
X100526247Y-87485713D02*
X100383390Y-87485713D01*
X100383390Y-87485713D02*
X100192914Y-87438094D01*
X100192914Y-87438094D02*
X100097676Y-87390475D01*
X100097676Y-87390475D02*
X100002438Y-87295237D01*
X100002438Y-87295237D02*
X99954819Y-87152380D01*
X99954819Y-87152380D02*
X99954819Y-87057142D01*
X99954819Y-87057142D02*
X100002438Y-86914285D01*
X100002438Y-86914285D02*
X100050057Y-86866666D01*
X100954819Y-86390475D02*
X100954819Y-86199999D01*
X100954819Y-86199999D02*
X100907200Y-86104761D01*
X100907200Y-86104761D02*
X100859580Y-86057142D01*
X100859580Y-86057142D02*
X100716723Y-85961904D01*
X100716723Y-85961904D02*
X100526247Y-85914285D01*
X100526247Y-85914285D02*
X100145295Y-85914285D01*
X100145295Y-85914285D02*
X100050057Y-85961904D01*
X100050057Y-85961904D02*
X100002438Y-86009523D01*
X100002438Y-86009523D02*
X99954819Y-86104761D01*
X99954819Y-86104761D02*
X99954819Y-86295237D01*
X99954819Y-86295237D02*
X100002438Y-86390475D01*
X100002438Y-86390475D02*
X100050057Y-86438094D01*
X100050057Y-86438094D02*
X100145295Y-86485713D01*
X100145295Y-86485713D02*
X100383390Y-86485713D01*
X100383390Y-86485713D02*
X100478628Y-86438094D01*
X100478628Y-86438094D02*
X100526247Y-86390475D01*
X100526247Y-86390475D02*
X100573866Y-86295237D01*
X100573866Y-86295237D02*
X100573866Y-86104761D01*
X100573866Y-86104761D02*
X100526247Y-86009523D01*
X100526247Y-86009523D02*
X100478628Y-85961904D01*
X100478628Y-85961904D02*
X100383390Y-85914285D01*
X87534819Y-118166666D02*
X87058628Y-118499999D01*
X87534819Y-118738094D02*
X86534819Y-118738094D01*
X86534819Y-118738094D02*
X86534819Y-118357142D01*
X86534819Y-118357142D02*
X86582438Y-118261904D01*
X86582438Y-118261904D02*
X86630057Y-118214285D01*
X86630057Y-118214285D02*
X86725295Y-118166666D01*
X86725295Y-118166666D02*
X86868152Y-118166666D01*
X86868152Y-118166666D02*
X86963390Y-118214285D01*
X86963390Y-118214285D02*
X87011009Y-118261904D01*
X87011009Y-118261904D02*
X87058628Y-118357142D01*
X87058628Y-118357142D02*
X87058628Y-118738094D01*
X87534819Y-117690475D02*
X87534819Y-117499999D01*
X87534819Y-117499999D02*
X87487200Y-117404761D01*
X87487200Y-117404761D02*
X87439580Y-117357142D01*
X87439580Y-117357142D02*
X87296723Y-117261904D01*
X87296723Y-117261904D02*
X87106247Y-117214285D01*
X87106247Y-117214285D02*
X86725295Y-117214285D01*
X86725295Y-117214285D02*
X86630057Y-117261904D01*
X86630057Y-117261904D02*
X86582438Y-117309523D01*
X86582438Y-117309523D02*
X86534819Y-117404761D01*
X86534819Y-117404761D02*
X86534819Y-117595237D01*
X86534819Y-117595237D02*
X86582438Y-117690475D01*
X86582438Y-117690475D02*
X86630057Y-117738094D01*
X86630057Y-117738094D02*
X86725295Y-117785713D01*
X86725295Y-117785713D02*
X86963390Y-117785713D01*
X86963390Y-117785713D02*
X87058628Y-117738094D01*
X87058628Y-117738094D02*
X87106247Y-117690475D01*
X87106247Y-117690475D02*
X87153866Y-117595237D01*
X87153866Y-117595237D02*
X87153866Y-117404761D01*
X87153866Y-117404761D02*
X87106247Y-117309523D01*
X87106247Y-117309523D02*
X87058628Y-117261904D01*
X87058628Y-117261904D02*
X86963390Y-117214285D01*
X135824819Y-88642857D02*
X135348628Y-88976190D01*
X135824819Y-89214285D02*
X134824819Y-89214285D01*
X134824819Y-89214285D02*
X134824819Y-88833333D01*
X134824819Y-88833333D02*
X134872438Y-88738095D01*
X134872438Y-88738095D02*
X134920057Y-88690476D01*
X134920057Y-88690476D02*
X135015295Y-88642857D01*
X135015295Y-88642857D02*
X135158152Y-88642857D01*
X135158152Y-88642857D02*
X135253390Y-88690476D01*
X135253390Y-88690476D02*
X135301009Y-88738095D01*
X135301009Y-88738095D02*
X135348628Y-88833333D01*
X135348628Y-88833333D02*
X135348628Y-89214285D01*
X135824819Y-87690476D02*
X135824819Y-88261904D01*
X135824819Y-87976190D02*
X134824819Y-87976190D01*
X134824819Y-87976190D02*
X134967676Y-88071428D01*
X134967676Y-88071428D02*
X135062914Y-88166666D01*
X135062914Y-88166666D02*
X135110533Y-88261904D01*
X134824819Y-86785714D02*
X134824819Y-87261904D01*
X134824819Y-87261904D02*
X135301009Y-87309523D01*
X135301009Y-87309523D02*
X135253390Y-87261904D01*
X135253390Y-87261904D02*
X135205771Y-87166666D01*
X135205771Y-87166666D02*
X135205771Y-86928571D01*
X135205771Y-86928571D02*
X135253390Y-86833333D01*
X135253390Y-86833333D02*
X135301009Y-86785714D01*
X135301009Y-86785714D02*
X135396247Y-86738095D01*
X135396247Y-86738095D02*
X135634342Y-86738095D01*
X135634342Y-86738095D02*
X135729580Y-86785714D01*
X135729580Y-86785714D02*
X135777200Y-86833333D01*
X135777200Y-86833333D02*
X135824819Y-86928571D01*
X135824819Y-86928571D02*
X135824819Y-87166666D01*
X135824819Y-87166666D02*
X135777200Y-87261904D01*
X135777200Y-87261904D02*
X135729580Y-87309523D01*
X133959580Y-119866666D02*
X134007200Y-119914285D01*
X134007200Y-119914285D02*
X134054819Y-120057142D01*
X134054819Y-120057142D02*
X134054819Y-120152380D01*
X134054819Y-120152380D02*
X134007200Y-120295237D01*
X134007200Y-120295237D02*
X133911961Y-120390475D01*
X133911961Y-120390475D02*
X133816723Y-120438094D01*
X133816723Y-120438094D02*
X133626247Y-120485713D01*
X133626247Y-120485713D02*
X133483390Y-120485713D01*
X133483390Y-120485713D02*
X133292914Y-120438094D01*
X133292914Y-120438094D02*
X133197676Y-120390475D01*
X133197676Y-120390475D02*
X133102438Y-120295237D01*
X133102438Y-120295237D02*
X133054819Y-120152380D01*
X133054819Y-120152380D02*
X133054819Y-120057142D01*
X133054819Y-120057142D02*
X133102438Y-119914285D01*
X133102438Y-119914285D02*
X133150057Y-119866666D01*
X133054819Y-119533332D02*
X133054819Y-118866666D01*
X133054819Y-118866666D02*
X134054819Y-119295237D01*
D11*
%TO.C,U1*%
X104390000Y-135830000D02*
X104390000Y-129230000D01*
X104890000Y-129230000D02*
X104390000Y-129230000D01*
X104890000Y-135830000D02*
X104390000Y-135830000D01*
X114990000Y-129230000D02*
X114490000Y-129230000D01*
X114990000Y-129230000D02*
X114990000Y-135830000D01*
X114990000Y-135830000D02*
X114490000Y-135830000D01*
D12*
X113570000Y-127180000D02*
G75*
G02*
X113370000Y-127180000I-100000J0D01*
G01*
X113370000Y-127180000D02*
G75*
G02*
X113570000Y-127180000I100000J0D01*
G01*
D13*
%TO.C,R6*%
X100970000Y-96150000D02*
X100970000Y-102690000D01*
X100970000Y-102690000D02*
X103710000Y-102690000D01*
X102340000Y-95380000D02*
X102340000Y-96150000D01*
X102340000Y-103460000D02*
X102340000Y-102690000D01*
X103710000Y-96150000D02*
X100970000Y-96150000D01*
X103710000Y-102690000D02*
X103710000Y-96150000D01*
D11*
%TO.C,RV2*%
X141840000Y-77420000D02*
X153840000Y-77420000D01*
X141840000Y-95420000D02*
X141840000Y-77420000D01*
X153840000Y-77420000D02*
X153840000Y-95420000D01*
X153840000Y-95420000D02*
X141840000Y-95420000D01*
D13*
%TO.C,D2*%
X78530000Y-87280000D02*
X78530000Y-92720000D01*
X78530000Y-91700000D02*
X81470000Y-91700000D01*
X78530000Y-91820000D02*
X81470000Y-91820000D01*
X78530000Y-91940000D02*
X81470000Y-91940000D01*
X78530000Y-92720000D02*
X81470000Y-92720000D01*
X80000000Y-86260000D02*
X80000000Y-87280000D01*
X80000000Y-93740000D02*
X80000000Y-92720000D01*
X81470000Y-87280000D02*
X78530000Y-87280000D01*
X81470000Y-92720000D02*
X81470000Y-87280000D01*
%TO.C,R17*%
X115460000Y-94500000D02*
X116230000Y-94500000D01*
X116230000Y-93130000D02*
X116230000Y-95870000D01*
X116230000Y-95870000D02*
X122770000Y-95870000D01*
X122770000Y-93130000D02*
X116230000Y-93130000D01*
X122770000Y-95870000D02*
X122770000Y-93130000D01*
X123540000Y-94500000D02*
X122770000Y-94500000D01*
%TO.C,R2*%
X115380000Y-111000000D02*
X116150000Y-111000000D01*
X116150000Y-109630000D02*
X116150000Y-112370000D01*
X116150000Y-112370000D02*
X122690000Y-112370000D01*
X122690000Y-109630000D02*
X116150000Y-109630000D01*
X122690000Y-112370000D02*
X122690000Y-109630000D01*
X123460000Y-111000000D02*
X122690000Y-111000000D01*
%TO.C,R13*%
X112220000Y-140420000D02*
X112990000Y-140420000D01*
X112990000Y-139050000D02*
X112990000Y-141790000D01*
X112990000Y-141790000D02*
X119530000Y-141790000D01*
X119530000Y-139050000D02*
X112990000Y-139050000D01*
X119530000Y-141790000D02*
X119530000Y-139050000D01*
X120300000Y-140420000D02*
X119530000Y-140420000D01*
%TO.C,C6*%
X90960000Y-133284888D02*
X89431000Y-133284888D01*
X90960000Y-133324888D02*
X89435000Y-133324888D01*
X90960000Y-133364888D02*
X89439000Y-133364888D01*
X90960000Y-133404888D02*
X89444000Y-133404888D01*
X90960000Y-133444888D02*
X89450000Y-133444888D01*
X90960000Y-133484888D02*
X89457000Y-133484888D01*
X90960000Y-133524888D02*
X89464000Y-133524888D01*
X90960000Y-133564888D02*
X89472000Y-133564888D01*
X90960000Y-133604888D02*
X89480000Y-133604888D01*
X90960000Y-133644888D02*
X89489000Y-133644888D01*
X90960000Y-133684888D02*
X89499000Y-133684888D01*
X90960000Y-133724888D02*
X89509000Y-133724888D01*
X90960000Y-133765888D02*
X89520000Y-133765888D01*
X90960000Y-133805888D02*
X89532000Y-133805888D01*
X90960000Y-133845888D02*
X89545000Y-133845888D01*
X90960000Y-133885888D02*
X89558000Y-133885888D01*
X90960000Y-133925888D02*
X89572000Y-133925888D01*
X90960000Y-133965888D02*
X89586000Y-133965888D01*
X90960000Y-134005888D02*
X89602000Y-134005888D01*
X90960000Y-134045888D02*
X89618000Y-134045888D01*
X90960000Y-134085888D02*
X89635000Y-134085888D01*
X90960000Y-134125888D02*
X89652000Y-134125888D01*
X90960000Y-134165888D02*
X89671000Y-134165888D01*
X90960000Y-134205888D02*
X89690000Y-134205888D01*
X90960000Y-134245888D02*
X89710000Y-134245888D01*
X90960000Y-134285888D02*
X89732000Y-134285888D01*
X90960000Y-134325888D02*
X89753000Y-134325888D01*
X90960000Y-134365888D02*
X89776000Y-134365888D01*
X90960000Y-134405888D02*
X89800000Y-134405888D01*
X90960000Y-134445888D02*
X89825000Y-134445888D01*
X90960000Y-134485888D02*
X89851000Y-134485888D01*
X90960000Y-134525888D02*
X89878000Y-134525888D01*
X90960000Y-134565888D02*
X89905000Y-134565888D01*
X90960000Y-134605888D02*
X89935000Y-134605888D01*
X90960000Y-134645888D02*
X89965000Y-134645888D01*
X90960000Y-134685888D02*
X89996000Y-134685888D01*
X90960000Y-134725888D02*
X90029000Y-134725888D01*
X90960000Y-134765888D02*
X90063000Y-134765888D01*
X90960000Y-134805888D02*
X90099000Y-134805888D01*
X90960000Y-134845888D02*
X90136000Y-134845888D01*
X90960000Y-134885888D02*
X90174000Y-134885888D01*
X90960000Y-134925888D02*
X90215000Y-134925888D01*
X90960000Y-134965888D02*
X90257000Y-134965888D01*
X90960000Y-135005888D02*
X90301000Y-135005888D01*
X90960000Y-135045888D02*
X90347000Y-135045888D01*
X90960000Y-135085888D02*
X90395000Y-135085888D01*
X90960000Y-135125888D02*
X90446000Y-135125888D01*
X90960000Y-135165888D02*
X90500000Y-135165888D01*
X90960000Y-135205888D02*
X90557000Y-135205888D01*
X90960000Y-135245888D02*
X90617000Y-135245888D01*
X90960000Y-135285888D02*
X90681000Y-135285888D01*
X90960000Y-135325888D02*
X90749000Y-135325888D01*
X92284000Y-135645888D02*
X91716000Y-135645888D01*
X92518000Y-135605888D02*
X91482000Y-135605888D01*
X92677000Y-135565888D02*
X91323000Y-135565888D01*
X92805000Y-135525888D02*
X91195000Y-135525888D01*
X92915000Y-135485888D02*
X91085000Y-135485888D01*
X93011000Y-135445888D02*
X90989000Y-135445888D01*
X93098000Y-135405888D02*
X90902000Y-135405888D01*
X93178000Y-135365888D02*
X90822000Y-135365888D01*
X93251000Y-135325888D02*
X93040000Y-135325888D01*
X93319000Y-135285888D02*
X93040000Y-135285888D01*
X93383000Y-135245888D02*
X93040000Y-135245888D01*
X93443000Y-135205888D02*
X93040000Y-135205888D01*
X93475000Y-130240113D02*
X93475000Y-130740113D01*
X93500000Y-135165888D02*
X93040000Y-135165888D01*
X93554000Y-135125888D02*
X93040000Y-135125888D01*
X93605000Y-135085888D02*
X93040000Y-135085888D01*
X93653000Y-135045888D02*
X93040000Y-135045888D01*
X93699000Y-135005888D02*
X93040000Y-135005888D01*
X93725000Y-130490113D02*
X93225000Y-130490113D01*
X93743000Y-134965888D02*
X93040000Y-134965888D01*
X93785000Y-134925888D02*
X93040000Y-134925888D01*
X93826000Y-134885888D02*
X93040000Y-134885888D01*
X93864000Y-134845888D02*
X93040000Y-134845888D01*
X93901000Y-134805888D02*
X93040000Y-134805888D01*
X93937000Y-134765888D02*
X93040000Y-134765888D01*
X93971000Y-134725888D02*
X93040000Y-134725888D01*
X94004000Y-134685888D02*
X93040000Y-134685888D01*
X94035000Y-134645888D02*
X93040000Y-134645888D01*
X94065000Y-134605888D02*
X93040000Y-134605888D01*
X94095000Y-134565888D02*
X93040000Y-134565888D01*
X94122000Y-134525888D02*
X93040000Y-134525888D01*
X94149000Y-134485888D02*
X93040000Y-134485888D01*
X94175000Y-134445888D02*
X93040000Y-134445888D01*
X94200000Y-134405888D02*
X93040000Y-134405888D01*
X94224000Y-134365888D02*
X93040000Y-134365888D01*
X94247000Y-134325888D02*
X93040000Y-134325888D01*
X94268000Y-134285888D02*
X93040000Y-134285888D01*
X94290000Y-134245888D02*
X93040000Y-134245888D01*
X94310000Y-134205888D02*
X93040000Y-134205888D01*
X94329000Y-134165888D02*
X93040000Y-134165888D01*
X94348000Y-134125888D02*
X93040000Y-134125888D01*
X94365000Y-134085888D02*
X93040000Y-134085888D01*
X94382000Y-134045888D02*
X93040000Y-134045888D01*
X94398000Y-134005888D02*
X93040000Y-134005888D01*
X94414000Y-133965888D02*
X93040000Y-133965888D01*
X94428000Y-133925888D02*
X93040000Y-133925888D01*
X94442000Y-133885888D02*
X93040000Y-133885888D01*
X94455000Y-133845888D02*
X93040000Y-133845888D01*
X94468000Y-133805888D02*
X93040000Y-133805888D01*
X94480000Y-133765888D02*
X93040000Y-133765888D01*
X94491000Y-133724888D02*
X93040000Y-133724888D01*
X94501000Y-133684888D02*
X93040000Y-133684888D01*
X94511000Y-133644888D02*
X93040000Y-133644888D01*
X94520000Y-133604888D02*
X93040000Y-133604888D01*
X94528000Y-133564888D02*
X93040000Y-133564888D01*
X94536000Y-133524888D02*
X93040000Y-133524888D01*
X94543000Y-133484888D02*
X93040000Y-133484888D01*
X94550000Y-133444888D02*
X93040000Y-133444888D01*
X94556000Y-133404888D02*
X93040000Y-133404888D01*
X94561000Y-133364888D02*
X93040000Y-133364888D01*
X94565000Y-133324888D02*
X93040000Y-133324888D01*
X94569000Y-133284888D02*
X93040000Y-133284888D01*
X94573000Y-133244888D02*
X89427000Y-133244888D01*
X94576000Y-133204888D02*
X89424000Y-133204888D01*
X94578000Y-133164888D02*
X89422000Y-133164888D01*
X94579000Y-133124888D02*
X89421000Y-133124888D01*
X94580000Y-133044888D02*
X89420000Y-133044888D01*
X94580000Y-133084888D02*
X89420000Y-133084888D01*
X94620000Y-133044888D02*
G75*
G02*
X89380000Y-133044888I-2620000J0D01*
G01*
X89380000Y-133044888D02*
G75*
G02*
X94620000Y-133044888I2620000J0D01*
G01*
%TO.C,C13*%
X75280000Y-133630000D02*
X75280000Y-136370000D01*
X75280000Y-133630000D02*
X82720000Y-133630000D01*
X75280000Y-136370000D02*
X82720000Y-136370000D01*
X82720000Y-133630000D02*
X82720000Y-136370000D01*
%TO.C,J2*%
X81350000Y-50400000D02*
X81350000Y-51400000D01*
X81350000Y-51400000D02*
X81900000Y-50900000D01*
X81900000Y-50900000D02*
X81350000Y-50400000D01*
D10*
X82400000Y-45100000D02*
X94200000Y-45100000D01*
X82400000Y-48650000D02*
X82400000Y-45100000D01*
X82400000Y-56900000D02*
X82400000Y-53150000D01*
X82400000Y-59600000D02*
X82400000Y-59500000D01*
X84900000Y-41500000D02*
X84900000Y-45100000D01*
X91100000Y-41500000D02*
X84900000Y-41500000D01*
X91100000Y-45100000D02*
X91100000Y-41500000D01*
X94200000Y-45100000D02*
X94200000Y-52850000D01*
X94200000Y-57200000D02*
X94200000Y-59600000D01*
X94200000Y-59600000D02*
X82400000Y-59600000D01*
D13*
%TO.C,D1*%
X73030000Y-87360000D02*
X73030000Y-92800000D01*
X73030000Y-91780000D02*
X75970000Y-91780000D01*
X73030000Y-91900000D02*
X75970000Y-91900000D01*
X73030000Y-92020000D02*
X75970000Y-92020000D01*
X73030000Y-92800000D02*
X75970000Y-92800000D01*
X74500000Y-86340000D02*
X74500000Y-87360000D01*
X74500000Y-93820000D02*
X74500000Y-92800000D01*
X75970000Y-87360000D02*
X73030000Y-87360000D01*
X75970000Y-92800000D02*
X75970000Y-87360000D01*
%TO.C,C15*%
X100369000Y-128130000D02*
X100369000Y-137370000D01*
X101175000Y-128130000D02*
X100369000Y-128130000D01*
X101175000Y-137370000D02*
X100369000Y-137370000D01*
X103311000Y-128130000D02*
X102505000Y-128130000D01*
X103311000Y-128130000D02*
X103311000Y-137370000D01*
X103311000Y-137370000D02*
X102505000Y-137370000D01*
%TO.C,U2*%
X76916500Y-121380000D02*
X76916500Y-131620000D01*
X80047500Y-121380000D02*
X80047500Y-131620000D01*
X81557500Y-121380000D02*
X76916500Y-121380000D01*
X81557500Y-121380000D02*
X81557500Y-131620000D01*
X81557500Y-124650000D02*
X80047500Y-124650000D01*
X81557500Y-128351000D02*
X80047500Y-128351000D01*
X81557500Y-131620000D02*
X76916500Y-131620000D01*
%TO.C,C20*%
X99920000Y-67787677D02*
X110080000Y-67787677D01*
X99920000Y-67827677D02*
X110080000Y-67827677D01*
X99920000Y-67867677D02*
X110080000Y-67867677D01*
X99921000Y-67747677D02*
X110079000Y-67747677D01*
X99922000Y-67707677D02*
X110078000Y-67707677D01*
X99923000Y-67667677D02*
X110077000Y-67667677D01*
X99925000Y-67627677D02*
X110075000Y-67627677D01*
X99927000Y-67587677D02*
X110073000Y-67587677D01*
X99930000Y-67547677D02*
X110070000Y-67547677D01*
X99932000Y-67507677D02*
X110068000Y-67507677D01*
X99935000Y-67467677D02*
X110065000Y-67467677D01*
X99938000Y-67427677D02*
X110062000Y-67427677D01*
X99942000Y-67387677D02*
X110058000Y-67387677D01*
X99946000Y-67347677D02*
X110054000Y-67347677D01*
X99950000Y-67307677D02*
X110050000Y-67307677D01*
X99955000Y-67267677D02*
X110045000Y-67267677D01*
X99960000Y-67227677D02*
X110040000Y-67227677D01*
X99965000Y-67187677D02*
X110035000Y-67187677D01*
X99970000Y-67146677D02*
X110030000Y-67146677D01*
X99976000Y-67106677D02*
X110024000Y-67106677D01*
X99982000Y-67066677D02*
X110018000Y-67066677D01*
X99989000Y-67026677D02*
X110011000Y-67026677D01*
X99996000Y-66986677D02*
X110004000Y-66986677D01*
X100003000Y-66946677D02*
X109997000Y-66946677D01*
X100010000Y-66906677D02*
X109990000Y-66906677D01*
X100018000Y-66866677D02*
X109982000Y-66866677D01*
X100026000Y-66826677D02*
X109974000Y-66826677D01*
X100035000Y-66786677D02*
X109965000Y-66786677D01*
X100044000Y-66746677D02*
X109956000Y-66746677D01*
X100053000Y-66706677D02*
X109947000Y-66706677D01*
X100062000Y-66666677D02*
X109938000Y-66666677D01*
X100072000Y-66626677D02*
X109928000Y-66626677D01*
X100082000Y-66586677D02*
X103759000Y-66586677D01*
X100093000Y-66546677D02*
X103759000Y-66546677D01*
X100103000Y-66506677D02*
X103759000Y-66506677D01*
X100115000Y-66466677D02*
X103759000Y-66466677D01*
X100126000Y-66426677D02*
X103759000Y-66426677D01*
X100138000Y-66386677D02*
X103759000Y-66386677D01*
X100150000Y-66346677D02*
X103759000Y-66346677D01*
X100163000Y-66306677D02*
X103759000Y-66306677D01*
X100176000Y-66266677D02*
X103759000Y-66266677D01*
X100189000Y-66226677D02*
X103759000Y-66226677D01*
X100203000Y-66186677D02*
X103759000Y-66186677D01*
X100217000Y-66146677D02*
X103759000Y-66146677D01*
X100232000Y-66106677D02*
X103759000Y-66106677D01*
X100246000Y-66066677D02*
X103759000Y-66066677D01*
X100262000Y-66026677D02*
X103759000Y-66026677D01*
X100277000Y-65986677D02*
X103759000Y-65986677D01*
X100293000Y-65946677D02*
X103759000Y-65946677D01*
X100310000Y-65906677D02*
X103759000Y-65906677D01*
X100326000Y-65866677D02*
X103759000Y-65866677D01*
X100343000Y-65826677D02*
X103759000Y-65826677D01*
X100361000Y-65786677D02*
X103759000Y-65786677D01*
X100379000Y-65746677D02*
X103759000Y-65746677D01*
X100397000Y-65706677D02*
X103759000Y-65706677D01*
X100416000Y-65666677D02*
X103759000Y-65666677D01*
X100436000Y-65626677D02*
X103759000Y-65626677D01*
X100455000Y-65586677D02*
X103759000Y-65586677D01*
X100475000Y-65546677D02*
X103759000Y-65546677D01*
X100496000Y-65506677D02*
X103759000Y-65506677D01*
X100517000Y-65466677D02*
X103759000Y-65466677D01*
X100538000Y-65426677D02*
X103759000Y-65426677D01*
X100560000Y-65386677D02*
X103759000Y-65386677D01*
X100583000Y-65346677D02*
X103759000Y-65346677D01*
X100605000Y-65306677D02*
X103759000Y-65306677D01*
X100629000Y-65266677D02*
X103759000Y-65266677D01*
X100653000Y-65226677D02*
X103759000Y-65226677D01*
X100677000Y-65186677D02*
X103759000Y-65186677D01*
X100702000Y-65146677D02*
X103759000Y-65146677D01*
X100727000Y-65106677D02*
X103759000Y-65106677D01*
X100753000Y-65066677D02*
X103759000Y-65066677D01*
X100779000Y-65026677D02*
X103759000Y-65026677D01*
X100806000Y-64986677D02*
X103759000Y-64986677D01*
X100834000Y-64946677D02*
X103759000Y-64946677D01*
X100862000Y-64906677D02*
X103759000Y-64906677D01*
X100890000Y-64866677D02*
X103759000Y-64866677D01*
X100920000Y-64826677D02*
X103759000Y-64826677D01*
X100950000Y-64786677D02*
X103759000Y-64786677D01*
X100980000Y-64746677D02*
X103759000Y-64746677D01*
X101011000Y-64706677D02*
X103759000Y-64706677D01*
X101043000Y-64666677D02*
X103759000Y-64666677D01*
X101075000Y-64626677D02*
X103759000Y-64626677D01*
X101108000Y-64586677D02*
X103759000Y-64586677D01*
X101142000Y-64546677D02*
X103759000Y-64546677D01*
X101176000Y-64506677D02*
X103759000Y-64506677D01*
X101211000Y-64466677D02*
X103759000Y-64466677D01*
X101247000Y-64426677D02*
X103759000Y-64426677D01*
X101284000Y-64386677D02*
X103759000Y-64386677D01*
X101321000Y-64346677D02*
X103759000Y-64346677D01*
X101360000Y-64306677D02*
X103759000Y-64306677D01*
X101399000Y-64266677D02*
X103759000Y-64266677D01*
X101439000Y-64226677D02*
X103759000Y-64226677D01*
X101480000Y-64186677D02*
X103759000Y-64186677D01*
X101522000Y-64146677D02*
X103759000Y-64146677D01*
X101564000Y-64106677D02*
X108436000Y-64106677D01*
X101608000Y-64066677D02*
X108392000Y-64066677D01*
X101625000Y-72847323D02*
X102625000Y-72847323D01*
X101653000Y-64026677D02*
X108347000Y-64026677D01*
X101699000Y-63986677D02*
X108301000Y-63986677D01*
X101746000Y-63946677D02*
X108254000Y-63946677D01*
X101794000Y-63906677D02*
X108206000Y-63906677D01*
X101844000Y-63866677D02*
X108156000Y-63866677D01*
X101894000Y-63826677D02*
X108106000Y-63826677D01*
X101946000Y-63786677D02*
X108054000Y-63786677D01*
X102000000Y-63746677D02*
X108000000Y-63746677D01*
X102055000Y-63706677D02*
X107945000Y-63706677D01*
X102111000Y-63666677D02*
X107889000Y-63666677D01*
X102125000Y-73347323D02*
X102125000Y-72347323D01*
X102170000Y-63626677D02*
X107830000Y-63626677D01*
X102230000Y-63586677D02*
X107770000Y-63586677D01*
X102291000Y-63546677D02*
X107709000Y-63546677D01*
X102355000Y-63506677D02*
X107645000Y-63506677D01*
X102421000Y-63466677D02*
X107579000Y-63466677D01*
X102490000Y-63426677D02*
X107510000Y-63426677D01*
X102561000Y-63386677D02*
X107439000Y-63386677D01*
X102635000Y-63346677D02*
X107365000Y-63346677D01*
X102711000Y-63306677D02*
X107289000Y-63306677D01*
X102791000Y-63266677D02*
X107209000Y-63266677D01*
X102875000Y-63226677D02*
X107125000Y-63226677D01*
X102963000Y-63186677D02*
X107037000Y-63186677D01*
X103056000Y-63146677D02*
X106944000Y-63146677D01*
X103154000Y-63106677D02*
X106846000Y-63106677D01*
X103258000Y-63066677D02*
X106742000Y-63066677D01*
X103370000Y-63026677D02*
X106630000Y-63026677D01*
X103490000Y-62986677D02*
X106510000Y-62986677D01*
X103622000Y-62946677D02*
X106378000Y-62946677D01*
X103770000Y-62906677D02*
X106230000Y-62906677D01*
X103938000Y-62866677D02*
X106062000Y-62866677D01*
X104138000Y-62826677D02*
X105862000Y-62826677D01*
X104401000Y-62786677D02*
X105599000Y-62786677D01*
X106241000Y-64146677D02*
X108478000Y-64146677D01*
X106241000Y-64186677D02*
X108520000Y-64186677D01*
X106241000Y-64226677D02*
X108561000Y-64226677D01*
X106241000Y-64266677D02*
X108601000Y-64266677D01*
X106241000Y-64306677D02*
X108640000Y-64306677D01*
X106241000Y-64346677D02*
X108679000Y-64346677D01*
X106241000Y-64386677D02*
X108716000Y-64386677D01*
X106241000Y-64426677D02*
X108753000Y-64426677D01*
X106241000Y-64466677D02*
X108789000Y-64466677D01*
X106241000Y-64506677D02*
X108824000Y-64506677D01*
X106241000Y-64546677D02*
X108858000Y-64546677D01*
X106241000Y-64586677D02*
X108892000Y-64586677D01*
X106241000Y-64626677D02*
X108925000Y-64626677D01*
X106241000Y-64666677D02*
X108957000Y-64666677D01*
X106241000Y-64706677D02*
X108989000Y-64706677D01*
X106241000Y-64746677D02*
X109020000Y-64746677D01*
X106241000Y-64786677D02*
X109050000Y-64786677D01*
X106241000Y-64826677D02*
X109080000Y-64826677D01*
X106241000Y-64866677D02*
X109110000Y-64866677D01*
X106241000Y-64906677D02*
X109138000Y-64906677D01*
X106241000Y-64946677D02*
X109166000Y-64946677D01*
X106241000Y-64986677D02*
X109194000Y-64986677D01*
X106241000Y-65026677D02*
X109221000Y-65026677D01*
X106241000Y-65066677D02*
X109247000Y-65066677D01*
X106241000Y-65106677D02*
X109273000Y-65106677D01*
X106241000Y-65146677D02*
X109298000Y-65146677D01*
X106241000Y-65186677D02*
X109323000Y-65186677D01*
X106241000Y-65226677D02*
X109347000Y-65226677D01*
X106241000Y-65266677D02*
X109371000Y-65266677D01*
X106241000Y-65306677D02*
X109395000Y-65306677D01*
X106241000Y-65346677D02*
X109417000Y-65346677D01*
X106241000Y-65386677D02*
X109440000Y-65386677D01*
X106241000Y-65426677D02*
X109462000Y-65426677D01*
X106241000Y-65466677D02*
X109483000Y-65466677D01*
X106241000Y-65506677D02*
X109504000Y-65506677D01*
X106241000Y-65546677D02*
X109525000Y-65546677D01*
X106241000Y-65586677D02*
X109545000Y-65586677D01*
X106241000Y-65626677D02*
X109564000Y-65626677D01*
X106241000Y-65666677D02*
X109584000Y-65666677D01*
X106241000Y-65706677D02*
X109603000Y-65706677D01*
X106241000Y-65746677D02*
X109621000Y-65746677D01*
X106241000Y-65786677D02*
X109639000Y-65786677D01*
X106241000Y-65826677D02*
X109657000Y-65826677D01*
X106241000Y-65866677D02*
X109674000Y-65866677D01*
X106241000Y-65906677D02*
X109690000Y-65906677D01*
X106241000Y-65946677D02*
X109707000Y-65946677D01*
X106241000Y-65986677D02*
X109723000Y-65986677D01*
X106241000Y-66026677D02*
X109738000Y-66026677D01*
X106241000Y-66066677D02*
X109754000Y-66066677D01*
X106241000Y-66106677D02*
X109768000Y-66106677D01*
X106241000Y-66146677D02*
X109783000Y-66146677D01*
X106241000Y-66186677D02*
X109797000Y-66186677D01*
X106241000Y-66226677D02*
X109811000Y-66226677D01*
X106241000Y-66266677D02*
X109824000Y-66266677D01*
X106241000Y-66306677D02*
X109837000Y-66306677D01*
X106241000Y-66346677D02*
X109850000Y-66346677D01*
X106241000Y-66386677D02*
X109862000Y-66386677D01*
X106241000Y-66426677D02*
X109874000Y-66426677D01*
X106241000Y-66466677D02*
X109885000Y-66466677D01*
X106241000Y-66506677D02*
X109897000Y-66506677D01*
X106241000Y-66546677D02*
X109907000Y-66546677D01*
X106241000Y-66586677D02*
X109918000Y-66586677D01*
X110120000Y-67867677D02*
G75*
G02*
X99880000Y-67867677I-5120000J0D01*
G01*
X99880000Y-67867677D02*
G75*
G02*
X110120000Y-67867677I5120000J0D01*
G01*
D14*
%TO.C,U5*%
X132150000Y-61230000D02*
X137230000Y-61230000D01*
X132150000Y-71390000D02*
X132150000Y-61230000D01*
X132150000Y-71390000D02*
X136214000Y-71390000D01*
X136214000Y-71390000D02*
X135706000Y-71390000D01*
X137230000Y-71390000D02*
X136214000Y-71390000D01*
X137230000Y-71390000D02*
X137230000Y-61230000D01*
D15*
X136678400Y-70120000D02*
G75*
G02*
X135241600Y-70120000I-718400J0D01*
G01*
X135241600Y-70120000D02*
G75*
G02*
X136678400Y-70120000I718400J0D01*
G01*
D13*
%TO.C,C14*%
X62780000Y-136330000D02*
X62780000Y-133590000D01*
X70220000Y-133590000D02*
X62780000Y-133590000D01*
X70220000Y-136330000D02*
X62780000Y-136330000D01*
X70220000Y-136330000D02*
X70220000Y-133590000D01*
%TO.C,C2*%
X124590000Y-130200000D02*
X127330000Y-130200000D01*
X124590000Y-137640000D02*
X124590000Y-130200000D01*
X124590000Y-137640000D02*
X127330000Y-137640000D01*
X127330000Y-137640000D02*
X127330000Y-130200000D01*
D11*
%TO.C,U3*%
X107510000Y-86580000D02*
X107510000Y-79980000D01*
X108010000Y-79980000D02*
X107510000Y-79980000D01*
X108010000Y-86580000D02*
X107510000Y-86580000D01*
X118110000Y-79980000D02*
X117610000Y-79980000D01*
X118110000Y-79980000D02*
X118110000Y-86580000D01*
X118110000Y-86580000D02*
X117610000Y-86580000D01*
D12*
X116690000Y-77930000D02*
G75*
G02*
X116490000Y-77930000I-100000J0D01*
G01*
X116490000Y-77930000D02*
G75*
G02*
X116690000Y-77930000I100000J0D01*
G01*
D13*
%TO.C,D4*%
X67530000Y-87280000D02*
X67530000Y-92720000D01*
X67530000Y-92720000D02*
X70470000Y-92720000D01*
X69000000Y-86260000D02*
X69000000Y-87280000D01*
X69000000Y-93740000D02*
X69000000Y-92720000D01*
X70470000Y-87280000D02*
X67530000Y-87280000D01*
X70470000Y-88060000D02*
X67530000Y-88060000D01*
X70470000Y-88180000D02*
X67530000Y-88180000D01*
X70470000Y-88300000D02*
X67530000Y-88300000D01*
X70470000Y-92720000D02*
X70470000Y-87280000D01*
%TO.C,R3*%
X115460000Y-114920000D02*
X116230000Y-114920000D01*
X116230000Y-113550000D02*
X116230000Y-116290000D01*
X116230000Y-116290000D02*
X122770000Y-116290000D01*
X122770000Y-113550000D02*
X116230000Y-113550000D01*
X122770000Y-116290000D02*
X122770000Y-113550000D01*
X123540000Y-114920000D02*
X122770000Y-114920000D01*
%TO.C,U4*%
X64416500Y-121880000D02*
X64416500Y-132120000D01*
X67547500Y-121880000D02*
X67547500Y-132120000D01*
X69057500Y-121880000D02*
X64416500Y-121880000D01*
X69057500Y-121880000D02*
X69057500Y-132120000D01*
X69057500Y-125150000D02*
X67547500Y-125150000D01*
X69057500Y-128851000D02*
X67547500Y-128851000D01*
X69057500Y-132120000D02*
X64416500Y-132120000D01*
%TO.C,R8*%
X94080000Y-112930000D02*
X94080000Y-123070000D01*
X94080000Y-123070000D02*
X94560000Y-123070000D01*
X94560000Y-112930000D02*
X94080000Y-112930000D01*
X97440000Y-112930000D02*
X97920000Y-112930000D01*
X97920000Y-112930000D02*
X97920000Y-123070000D01*
X97920000Y-123070000D02*
X97440000Y-123070000D01*
%TO.C,C10*%
X121029000Y-78630000D02*
X121835000Y-78630000D01*
X121029000Y-87870000D02*
X121029000Y-78630000D01*
X121029000Y-87870000D02*
X121835000Y-87870000D01*
X123165000Y-78630000D02*
X123971000Y-78630000D01*
X123165000Y-87870000D02*
X123971000Y-87870000D01*
X123971000Y-87870000D02*
X123971000Y-78630000D01*
%TO.C,C19*%
X130380000Y-73529000D02*
X130380000Y-74335000D01*
X130380000Y-73529000D02*
X139620000Y-73529000D01*
X130380000Y-75665000D02*
X130380000Y-76471000D01*
X130380000Y-76471000D02*
X139620000Y-76471000D01*
X139620000Y-73529000D02*
X139620000Y-74335000D01*
X139620000Y-75665000D02*
X139620000Y-76471000D01*
%TO.C,R11*%
X93970000Y-96150000D02*
X93970000Y-102690000D01*
X93970000Y-102690000D02*
X96710000Y-102690000D01*
X95340000Y-95380000D02*
X95340000Y-96150000D01*
X95340000Y-103460000D02*
X95340000Y-102690000D01*
X96710000Y-96150000D02*
X93970000Y-96150000D01*
X96710000Y-102690000D02*
X96710000Y-96150000D01*
%TO.C,C22*%
X116630000Y-51830000D02*
X116630000Y-53835000D01*
X116630000Y-51830000D02*
X128370000Y-51830000D01*
X116630000Y-55165000D02*
X116630000Y-57170000D01*
X116630000Y-57170000D02*
X128370000Y-57170000D01*
X128370000Y-51830000D02*
X128370000Y-53835000D01*
X128370000Y-55165000D02*
X128370000Y-57170000D01*
D11*
%TO.C,RV3*%
X142000000Y-99500000D02*
X154000000Y-99500000D01*
X142000000Y-117500000D02*
X142000000Y-99500000D01*
X154000000Y-99500000D02*
X154000000Y-117500000D01*
X154000000Y-117500000D02*
X142000000Y-117500000D01*
D13*
%TO.C,R10*%
X97470000Y-96230000D02*
X97470000Y-102770000D01*
X97470000Y-102770000D02*
X100210000Y-102770000D01*
X98840000Y-95460000D02*
X98840000Y-96230000D01*
X98840000Y-103540000D02*
X98840000Y-102770000D01*
X100210000Y-96230000D02*
X97470000Y-96230000D01*
X100210000Y-102770000D02*
X100210000Y-96230000D01*
%TO.C,R7*%
X115380000Y-100000000D02*
X116150000Y-100000000D01*
X116150000Y-98630000D02*
X116150000Y-101370000D01*
X116150000Y-101370000D02*
X122690000Y-101370000D01*
X122690000Y-98630000D02*
X116150000Y-98630000D01*
X122690000Y-101370000D02*
X122690000Y-98630000D01*
X123460000Y-100000000D02*
X122690000Y-100000000D01*
%TO.C,R19*%
X118300000Y-48920000D02*
X119070000Y-48920000D01*
X119070000Y-47550000D02*
X119070000Y-50290000D01*
X119070000Y-50290000D02*
X125610000Y-50290000D01*
X125610000Y-47550000D02*
X119070000Y-47550000D01*
X125610000Y-50290000D02*
X125610000Y-47550000D01*
X126380000Y-48920000D02*
X125610000Y-48920000D01*
%TO.C,C1*%
X130920000Y-133630000D02*
X136080000Y-133630000D01*
X130920000Y-133670000D02*
X136080000Y-133670000D01*
X130921000Y-133590000D02*
X136079000Y-133590000D01*
X130922000Y-133550000D02*
X136078000Y-133550000D01*
X130924000Y-133510000D02*
X136076000Y-133510000D01*
X130927000Y-133470000D02*
X136073000Y-133470000D01*
X130931000Y-133430000D02*
X132460000Y-133430000D01*
X130935000Y-133390000D02*
X132460000Y-133390000D01*
X130939000Y-133350000D02*
X132460000Y-133350000D01*
X130944000Y-133310000D02*
X132460000Y-133310000D01*
X130950000Y-133270000D02*
X132460000Y-133270000D01*
X130957000Y-133230000D02*
X132460000Y-133230000D01*
X130964000Y-133190000D02*
X132460000Y-133190000D01*
X130972000Y-133150000D02*
X132460000Y-133150000D01*
X130980000Y-133110000D02*
X132460000Y-133110000D01*
X130989000Y-133070000D02*
X132460000Y-133070000D01*
X130999000Y-133030000D02*
X132460000Y-133030000D01*
X131009000Y-132990000D02*
X132460000Y-132990000D01*
X131020000Y-132949000D02*
X132460000Y-132949000D01*
X131032000Y-132909000D02*
X132460000Y-132909000D01*
X131045000Y-132869000D02*
X132460000Y-132869000D01*
X131058000Y-132829000D02*
X132460000Y-132829000D01*
X131072000Y-132789000D02*
X132460000Y-132789000D01*
X131086000Y-132749000D02*
X132460000Y-132749000D01*
X131102000Y-132709000D02*
X132460000Y-132709000D01*
X131118000Y-132669000D02*
X132460000Y-132669000D01*
X131135000Y-132629000D02*
X132460000Y-132629000D01*
X131152000Y-132589000D02*
X132460000Y-132589000D01*
X131171000Y-132549000D02*
X132460000Y-132549000D01*
X131190000Y-132509000D02*
X132460000Y-132509000D01*
X131210000Y-132469000D02*
X132460000Y-132469000D01*
X131232000Y-132429000D02*
X132460000Y-132429000D01*
X131253000Y-132389000D02*
X132460000Y-132389000D01*
X131276000Y-132349000D02*
X132460000Y-132349000D01*
X131300000Y-132309000D02*
X132460000Y-132309000D01*
X131325000Y-132269000D02*
X132460000Y-132269000D01*
X131351000Y-132229000D02*
X132460000Y-132229000D01*
X131378000Y-132189000D02*
X132460000Y-132189000D01*
X131405000Y-132149000D02*
X132460000Y-132149000D01*
X131435000Y-132109000D02*
X132460000Y-132109000D01*
X131465000Y-132069000D02*
X132460000Y-132069000D01*
X131496000Y-132029000D02*
X132460000Y-132029000D01*
X131529000Y-131989000D02*
X132460000Y-131989000D01*
X131563000Y-131949000D02*
X132460000Y-131949000D01*
X131599000Y-131909000D02*
X132460000Y-131909000D01*
X131636000Y-131869000D02*
X132460000Y-131869000D01*
X131674000Y-131829000D02*
X132460000Y-131829000D01*
X131715000Y-131789000D02*
X132460000Y-131789000D01*
X131757000Y-131749000D02*
X132460000Y-131749000D01*
X131775000Y-136224775D02*
X132275000Y-136224775D01*
X131801000Y-131709000D02*
X132460000Y-131709000D01*
X131847000Y-131669000D02*
X132460000Y-131669000D01*
X131895000Y-131629000D02*
X132460000Y-131629000D01*
X131946000Y-131589000D02*
X132460000Y-131589000D01*
X132000000Y-131549000D02*
X132460000Y-131549000D01*
X132025000Y-136474775D02*
X132025000Y-135974775D01*
X132057000Y-131509000D02*
X132460000Y-131509000D01*
X132117000Y-131469000D02*
X132460000Y-131469000D01*
X132181000Y-131429000D02*
X132460000Y-131429000D01*
X132249000Y-131389000D02*
X132460000Y-131389000D01*
X132322000Y-131349000D02*
X134678000Y-131349000D01*
X132402000Y-131309000D02*
X134598000Y-131309000D01*
X132489000Y-131269000D02*
X134511000Y-131269000D01*
X132585000Y-131229000D02*
X134415000Y-131229000D01*
X132695000Y-131189000D02*
X134305000Y-131189000D01*
X132823000Y-131149000D02*
X134177000Y-131149000D01*
X132982000Y-131109000D02*
X134018000Y-131109000D01*
X133216000Y-131069000D02*
X133784000Y-131069000D01*
X134540000Y-131389000D02*
X134751000Y-131389000D01*
X134540000Y-131429000D02*
X134819000Y-131429000D01*
X134540000Y-131469000D02*
X134883000Y-131469000D01*
X134540000Y-131509000D02*
X134943000Y-131509000D01*
X134540000Y-131549000D02*
X135000000Y-131549000D01*
X134540000Y-131589000D02*
X135054000Y-131589000D01*
X134540000Y-131629000D02*
X135105000Y-131629000D01*
X134540000Y-131669000D02*
X135153000Y-131669000D01*
X134540000Y-131709000D02*
X135199000Y-131709000D01*
X134540000Y-131749000D02*
X135243000Y-131749000D01*
X134540000Y-131789000D02*
X135285000Y-131789000D01*
X134540000Y-131829000D02*
X135326000Y-131829000D01*
X134540000Y-131869000D02*
X135364000Y-131869000D01*
X134540000Y-131909000D02*
X135401000Y-131909000D01*
X134540000Y-131949000D02*
X135437000Y-131949000D01*
X134540000Y-131989000D02*
X135471000Y-131989000D01*
X134540000Y-132029000D02*
X135504000Y-132029000D01*
X134540000Y-132069000D02*
X135535000Y-132069000D01*
X134540000Y-132109000D02*
X135565000Y-132109000D01*
X134540000Y-132149000D02*
X135595000Y-132149000D01*
X134540000Y-132189000D02*
X135622000Y-132189000D01*
X134540000Y-132229000D02*
X135649000Y-132229000D01*
X134540000Y-132269000D02*
X135675000Y-132269000D01*
X134540000Y-132309000D02*
X135700000Y-132309000D01*
X134540000Y-132349000D02*
X135724000Y-132349000D01*
X134540000Y-132389000D02*
X135747000Y-132389000D01*
X134540000Y-132429000D02*
X135768000Y-132429000D01*
X134540000Y-132469000D02*
X135790000Y-132469000D01*
X134540000Y-132509000D02*
X135810000Y-132509000D01*
X134540000Y-132549000D02*
X135829000Y-132549000D01*
X134540000Y-132589000D02*
X135848000Y-132589000D01*
X134540000Y-132629000D02*
X135865000Y-132629000D01*
X134540000Y-132669000D02*
X135882000Y-132669000D01*
X134540000Y-132709000D02*
X135898000Y-132709000D01*
X134540000Y-132749000D02*
X135914000Y-132749000D01*
X134540000Y-132789000D02*
X135928000Y-132789000D01*
X134540000Y-132829000D02*
X135942000Y-132829000D01*
X134540000Y-132869000D02*
X135955000Y-132869000D01*
X134540000Y-132909000D02*
X135968000Y-132909000D01*
X134540000Y-132949000D02*
X135980000Y-132949000D01*
X134540000Y-132990000D02*
X135991000Y-132990000D01*
X134540000Y-133030000D02*
X136001000Y-133030000D01*
X134540000Y-133070000D02*
X136011000Y-133070000D01*
X134540000Y-133110000D02*
X136020000Y-133110000D01*
X134540000Y-133150000D02*
X136028000Y-133150000D01*
X134540000Y-133190000D02*
X136036000Y-133190000D01*
X134540000Y-133230000D02*
X136043000Y-133230000D01*
X134540000Y-133270000D02*
X136050000Y-133270000D01*
X134540000Y-133310000D02*
X136056000Y-133310000D01*
X134540000Y-133350000D02*
X136061000Y-133350000D01*
X134540000Y-133390000D02*
X136065000Y-133390000D01*
X134540000Y-133430000D02*
X136069000Y-133430000D01*
X136120000Y-133670000D02*
G75*
G02*
X130880000Y-133670000I-2620000J0D01*
G01*
X130880000Y-133670000D02*
G75*
G02*
X136120000Y-133670000I2620000J0D01*
G01*
%TO.C,R16*%
X115380000Y-120920000D02*
X116150000Y-120920000D01*
X116150000Y-119550000D02*
X116150000Y-122290000D01*
X116150000Y-122290000D02*
X122690000Y-122290000D01*
X122690000Y-119550000D02*
X116150000Y-119550000D01*
X122690000Y-122290000D02*
X122690000Y-119550000D01*
X123460000Y-120920000D02*
X122690000Y-120920000D01*
%TO.C,C21*%
X112420000Y-67420000D02*
X125580000Y-67420000D01*
X112420000Y-67460000D02*
X125580000Y-67460000D01*
X112420000Y-67500000D02*
X125580000Y-67500000D01*
X112421000Y-67340000D02*
X125579000Y-67340000D01*
X112421000Y-67380000D02*
X125579000Y-67380000D01*
X112423000Y-67300000D02*
X125577000Y-67300000D01*
X112424000Y-67260000D02*
X125576000Y-67260000D01*
X112425000Y-67220000D02*
X125575000Y-67220000D01*
X112427000Y-67180000D02*
X125573000Y-67180000D01*
X112429000Y-67140000D02*
X125571000Y-67140000D01*
X112432000Y-67100000D02*
X125568000Y-67100000D01*
X112434000Y-67060000D02*
X125566000Y-67060000D01*
X112437000Y-67020000D02*
X125563000Y-67020000D01*
X112440000Y-66980000D02*
X125560000Y-66980000D01*
X112443000Y-66940000D02*
X125557000Y-66940000D01*
X112447000Y-66900000D02*
X125553000Y-66900000D01*
X112451000Y-66860000D02*
X125549000Y-66860000D01*
X112455000Y-66820000D02*
X125545000Y-66820000D01*
X112459000Y-66779000D02*
X125541000Y-66779000D01*
X112463000Y-66739000D02*
X125537000Y-66739000D01*
X112468000Y-66699000D02*
X125532000Y-66699000D01*
X112473000Y-66659000D02*
X125527000Y-66659000D01*
X112478000Y-66619000D02*
X125522000Y-66619000D01*
X112484000Y-66579000D02*
X125516000Y-66579000D01*
X112489000Y-66539000D02*
X125511000Y-66539000D01*
X112495000Y-66499000D02*
X125505000Y-66499000D01*
X112502000Y-66459000D02*
X125498000Y-66459000D01*
X112508000Y-66419000D02*
X117560000Y-66419000D01*
X112515000Y-66379000D02*
X117560000Y-66379000D01*
X112522000Y-66339000D02*
X117560000Y-66339000D01*
X112529000Y-66299000D02*
X117560000Y-66299000D01*
X112537000Y-66259000D02*
X117560000Y-66259000D01*
X112544000Y-66219000D02*
X117560000Y-66219000D01*
X112552000Y-66179000D02*
X117560000Y-66179000D01*
X112561000Y-66139000D02*
X117560000Y-66139000D01*
X112569000Y-66099000D02*
X117560000Y-66099000D01*
X112578000Y-66059000D02*
X117560000Y-66059000D01*
X112587000Y-66019000D02*
X117560000Y-66019000D01*
X112596000Y-65979000D02*
X117560000Y-65979000D01*
X112606000Y-65939000D02*
X117560000Y-65939000D01*
X112616000Y-65899000D02*
X117560000Y-65899000D01*
X112626000Y-65859000D02*
X117560000Y-65859000D01*
X112636000Y-65819000D02*
X117560000Y-65819000D01*
X112647000Y-65779000D02*
X117560000Y-65779000D01*
X112658000Y-65739000D02*
X117560000Y-65739000D01*
X112669000Y-65699000D02*
X117560000Y-65699000D01*
X112680000Y-65659000D02*
X117560000Y-65659000D01*
X112692000Y-65619000D02*
X117560000Y-65619000D01*
X112704000Y-65579000D02*
X117560000Y-65579000D01*
X112716000Y-65539000D02*
X117560000Y-65539000D01*
X112729000Y-65499000D02*
X117560000Y-65499000D01*
X112742000Y-65459000D02*
X117560000Y-65459000D01*
X112755000Y-65419000D02*
X117560000Y-65419000D01*
X112768000Y-65379000D02*
X117560000Y-65379000D01*
X112782000Y-65339000D02*
X117560000Y-65339000D01*
X112796000Y-65299000D02*
X117560000Y-65299000D01*
X112810000Y-65259000D02*
X117560000Y-65259000D01*
X112825000Y-65219000D02*
X117560000Y-65219000D01*
X112839000Y-65179000D02*
X117560000Y-65179000D01*
X112854000Y-65139000D02*
X117560000Y-65139000D01*
X112870000Y-65099000D02*
X117560000Y-65099000D01*
X112886000Y-65059000D02*
X117560000Y-65059000D01*
X112902000Y-65019000D02*
X117560000Y-65019000D01*
X112918000Y-64979000D02*
X117560000Y-64979000D01*
X112935000Y-64939000D02*
X117560000Y-64939000D01*
X112951000Y-64899000D02*
X117560000Y-64899000D01*
X112969000Y-64859000D02*
X117560000Y-64859000D01*
X112986000Y-64819000D02*
X117560000Y-64819000D01*
X113004000Y-64779000D02*
X117560000Y-64779000D01*
X113022000Y-64739000D02*
X117560000Y-64739000D01*
X113041000Y-64699000D02*
X117560000Y-64699000D01*
X113060000Y-64659000D02*
X117560000Y-64659000D01*
X113079000Y-64619000D02*
X117560000Y-64619000D01*
X113098000Y-64579000D02*
X117560000Y-64579000D01*
X113118000Y-64539000D02*
X117560000Y-64539000D01*
X113138000Y-64499000D02*
X117560000Y-64499000D01*
X113159000Y-64459000D02*
X117560000Y-64459000D01*
X113180000Y-64419000D02*
X117560000Y-64419000D01*
X113201000Y-64379000D02*
X117560000Y-64379000D01*
X113222000Y-64339000D02*
X117560000Y-64339000D01*
X113244000Y-64299000D02*
X117560000Y-64299000D01*
X113267000Y-64259000D02*
X117560000Y-64259000D01*
X113289000Y-64219000D02*
X117560000Y-64219000D01*
X113312000Y-64179000D02*
X117560000Y-64179000D01*
X113336000Y-64139000D02*
X117560000Y-64139000D01*
X113359000Y-64099000D02*
X117560000Y-64099000D01*
X113383000Y-64059000D02*
X117560000Y-64059000D01*
X113408000Y-64019000D02*
X117560000Y-64019000D01*
X113433000Y-63979000D02*
X117560000Y-63979000D01*
X113458000Y-63939000D02*
X117560000Y-63939000D01*
X113484000Y-63899000D02*
X117560000Y-63899000D01*
X113510000Y-63859000D02*
X117560000Y-63859000D01*
X113537000Y-63819000D02*
X117560000Y-63819000D01*
X113564000Y-63779000D02*
X117560000Y-63779000D01*
X113591000Y-63739000D02*
X117560000Y-63739000D01*
X113619000Y-63699000D02*
X117560000Y-63699000D01*
X113647000Y-63659000D02*
X117560000Y-63659000D01*
X113676000Y-63619000D02*
X117560000Y-63619000D01*
X113705000Y-63579000D02*
X117560000Y-63579000D01*
X113735000Y-63539000D02*
X124265000Y-63539000D01*
X113765000Y-63499000D02*
X124235000Y-63499000D01*
X113795000Y-63459000D02*
X124205000Y-63459000D01*
X113826000Y-63419000D02*
X124174000Y-63419000D01*
X113858000Y-63379000D02*
X124142000Y-63379000D01*
X113890000Y-63339000D02*
X124110000Y-63339000D01*
X113922000Y-63299000D02*
X124078000Y-63299000D01*
X113956000Y-63259000D02*
X124044000Y-63259000D01*
X113989000Y-63219000D02*
X124011000Y-63219000D01*
X114023000Y-63179000D02*
X123977000Y-63179000D01*
X114058000Y-63139000D02*
X123942000Y-63139000D01*
X114093000Y-63099000D02*
X123907000Y-63099000D01*
X114129000Y-63059000D02*
X123871000Y-63059000D01*
X114166000Y-63019000D02*
X123834000Y-63019000D01*
X114203000Y-62979000D02*
X123797000Y-62979000D01*
X114240000Y-62939000D02*
X123760000Y-62939000D01*
X114279000Y-62899000D02*
X123721000Y-62899000D01*
X114318000Y-62859000D02*
X123682000Y-62859000D01*
X114357000Y-62819000D02*
X123643000Y-62819000D01*
X114398000Y-62779000D02*
X123602000Y-62779000D01*
X114439000Y-62739000D02*
X123561000Y-62739000D01*
X114481000Y-62699000D02*
X123519000Y-62699000D01*
X114523000Y-62659000D02*
X123477000Y-62659000D01*
X114566000Y-62619000D02*
X123434000Y-62619000D01*
X114610000Y-62579000D02*
X123390000Y-62579000D01*
X114635000Y-73934569D02*
X115935000Y-73934569D01*
X114655000Y-62539000D02*
X123345000Y-62539000D01*
X114701000Y-62499000D02*
X123299000Y-62499000D01*
X114747000Y-62459000D02*
X123253000Y-62459000D01*
X114795000Y-62419000D02*
X123205000Y-62419000D01*
X114843000Y-62379000D02*
X123157000Y-62379000D01*
X114892000Y-62339000D02*
X123108000Y-62339000D01*
X114943000Y-62299000D02*
X123057000Y-62299000D01*
X114994000Y-62259000D02*
X123006000Y-62259000D01*
X115046000Y-62219000D02*
X122954000Y-62219000D01*
X115100000Y-62179000D02*
X122900000Y-62179000D01*
X115154000Y-62139000D02*
X122846000Y-62139000D01*
X115210000Y-62099000D02*
X122790000Y-62099000D01*
X115267000Y-62059000D02*
X122733000Y-62059000D01*
X115285000Y-74584569D02*
X115285000Y-73284569D01*
X115325000Y-62019000D02*
X122675000Y-62019000D01*
X115385000Y-61979000D02*
X122615000Y-61979000D01*
X115446000Y-61939000D02*
X122554000Y-61939000D01*
X115509000Y-61899000D02*
X122491000Y-61899000D01*
X115573000Y-61859000D02*
X122427000Y-61859000D01*
X115639000Y-61819000D02*
X122361000Y-61819000D01*
X115707000Y-61779000D02*
X122293000Y-61779000D01*
X115777000Y-61739000D02*
X122223000Y-61739000D01*
X115848000Y-61699000D02*
X122152000Y-61699000D01*
X115922000Y-61659000D02*
X122078000Y-61659000D01*
X115998000Y-61619000D02*
X122002000Y-61619000D01*
X116077000Y-61579000D02*
X121923000Y-61579000D01*
X116158000Y-61539000D02*
X121842000Y-61539000D01*
X116242000Y-61499000D02*
X121758000Y-61499000D01*
X116330000Y-61459000D02*
X121670000Y-61459000D01*
X116421000Y-61419000D02*
X121579000Y-61419000D01*
X116516000Y-61379000D02*
X121484000Y-61379000D01*
X116615000Y-61339000D02*
X121385000Y-61339000D01*
X116719000Y-61299000D02*
X121281000Y-61299000D01*
X116829000Y-61259000D02*
X121171000Y-61259000D01*
X116945000Y-61219000D02*
X121055000Y-61219000D01*
X117069000Y-61179000D02*
X120931000Y-61179000D01*
X117202000Y-61139000D02*
X120798000Y-61139000D01*
X117347000Y-61099000D02*
X120653000Y-61099000D01*
X117506000Y-61059000D02*
X120494000Y-61059000D01*
X117685000Y-61019000D02*
X120315000Y-61019000D01*
X117893000Y-60979000D02*
X120107000Y-60979000D01*
X118150000Y-60939000D02*
X119850000Y-60939000D01*
X118525000Y-60899000D02*
X119475000Y-60899000D01*
X120440000Y-63579000D02*
X124295000Y-63579000D01*
X120440000Y-63619000D02*
X124324000Y-63619000D01*
X120440000Y-63659000D02*
X124353000Y-63659000D01*
X120440000Y-63699000D02*
X124381000Y-63699000D01*
X120440000Y-63739000D02*
X124409000Y-63739000D01*
X120440000Y-63779000D02*
X124436000Y-63779000D01*
X120440000Y-63819000D02*
X124463000Y-63819000D01*
X120440000Y-63859000D02*
X124490000Y-63859000D01*
X120440000Y-63899000D02*
X124516000Y-63899000D01*
X120440000Y-63939000D02*
X124542000Y-63939000D01*
X120440000Y-63979000D02*
X124567000Y-63979000D01*
X120440000Y-64019000D02*
X124592000Y-64019000D01*
X120440000Y-64059000D02*
X124617000Y-64059000D01*
X120440000Y-64099000D02*
X124641000Y-64099000D01*
X120440000Y-64139000D02*
X124664000Y-64139000D01*
X120440000Y-64179000D02*
X124688000Y-64179000D01*
X120440000Y-64219000D02*
X124711000Y-64219000D01*
X120440000Y-64259000D02*
X124733000Y-64259000D01*
X120440000Y-64299000D02*
X124756000Y-64299000D01*
X120440000Y-64339000D02*
X124778000Y-64339000D01*
X120440000Y-64379000D02*
X124799000Y-64379000D01*
X120440000Y-64419000D02*
X124820000Y-64419000D01*
X120440000Y-64459000D02*
X124841000Y-64459000D01*
X120440000Y-64499000D02*
X124862000Y-64499000D01*
X120440000Y-64539000D02*
X124882000Y-64539000D01*
X120440000Y-64579000D02*
X124902000Y-64579000D01*
X120440000Y-64619000D02*
X124921000Y-64619000D01*
X120440000Y-64659000D02*
X124940000Y-64659000D01*
X120440000Y-64699000D02*
X124959000Y-64699000D01*
X120440000Y-64739000D02*
X124978000Y-64739000D01*
X120440000Y-64779000D02*
X124996000Y-64779000D01*
X120440000Y-64819000D02*
X125014000Y-64819000D01*
X120440000Y-64859000D02*
X125031000Y-64859000D01*
X120440000Y-64899000D02*
X125049000Y-64899000D01*
X120440000Y-64939000D02*
X125065000Y-64939000D01*
X120440000Y-64979000D02*
X125082000Y-64979000D01*
X120440000Y-65019000D02*
X125098000Y-65019000D01*
X120440000Y-65059000D02*
X125114000Y-65059000D01*
X120440000Y-65099000D02*
X125130000Y-65099000D01*
X120440000Y-65139000D02*
X125146000Y-65139000D01*
X120440000Y-65179000D02*
X125161000Y-65179000D01*
X120440000Y-65219000D02*
X125175000Y-65219000D01*
X120440000Y-65259000D02*
X125190000Y-65259000D01*
X120440000Y-65299000D02*
X125204000Y-65299000D01*
X120440000Y-65339000D02*
X125218000Y-65339000D01*
X120440000Y-65379000D02*
X125232000Y-65379000D01*
X120440000Y-65419000D02*
X125245000Y-65419000D01*
X120440000Y-65459000D02*
X125258000Y-65459000D01*
X120440000Y-65499000D02*
X125271000Y-65499000D01*
X120440000Y-65539000D02*
X125284000Y-65539000D01*
X120440000Y-65579000D02*
X125296000Y-65579000D01*
X120440000Y-65619000D02*
X125308000Y-65619000D01*
X120440000Y-65659000D02*
X125320000Y-65659000D01*
X120440000Y-65699000D02*
X125331000Y-65699000D01*
X120440000Y-65739000D02*
X125342000Y-65739000D01*
X120440000Y-65779000D02*
X125353000Y-65779000D01*
X120440000Y-65819000D02*
X125364000Y-65819000D01*
X120440000Y-65859000D02*
X125374000Y-65859000D01*
X120440000Y-65899000D02*
X125384000Y-65899000D01*
X120440000Y-65939000D02*
X125394000Y-65939000D01*
X120440000Y-65979000D02*
X125404000Y-65979000D01*
X120440000Y-66019000D02*
X125413000Y-66019000D01*
X120440000Y-66059000D02*
X125422000Y-66059000D01*
X120440000Y-66099000D02*
X125431000Y-66099000D01*
X120440000Y-66139000D02*
X125439000Y-66139000D01*
X120440000Y-66179000D02*
X125448000Y-66179000D01*
X120440000Y-66219000D02*
X125456000Y-66219000D01*
X120440000Y-66259000D02*
X125463000Y-66259000D01*
X120440000Y-66299000D02*
X125471000Y-66299000D01*
X120440000Y-66339000D02*
X125478000Y-66339000D01*
X120440000Y-66379000D02*
X125485000Y-66379000D01*
X120440000Y-66419000D02*
X125492000Y-66419000D01*
X125620000Y-67500000D02*
G75*
G02*
X112380000Y-67500000I-6620000J0D01*
G01*
X112380000Y-67500000D02*
G75*
G02*
X125620000Y-67500000I6620000J0D01*
G01*
D11*
%TO.C,RV4*%
X141840000Y-55420000D02*
X153840000Y-55420000D01*
X141840000Y-73420000D02*
X141840000Y-55420000D01*
X153840000Y-55420000D02*
X153840000Y-73420000D01*
X153840000Y-73420000D02*
X141840000Y-73420000D01*
D13*
%TO.C,C8*%
X129130000Y-113280000D02*
X131870000Y-113280000D01*
X129130000Y-120720000D02*
X129130000Y-113280000D01*
X129130000Y-120720000D02*
X131870000Y-120720000D01*
X131870000Y-120720000D02*
X131870000Y-113280000D01*
%TO.C,C4*%
X88780000Y-64050000D02*
X88780000Y-66790000D01*
X88780000Y-64050000D02*
X96220000Y-64050000D01*
X88780000Y-66790000D02*
X96220000Y-66790000D01*
X96220000Y-64050000D02*
X96220000Y-66790000D01*
%TO.C,C3*%
X88780000Y-70630000D02*
X88780000Y-73370000D01*
X88780000Y-70630000D02*
X96220000Y-70630000D01*
X88780000Y-73370000D02*
X96220000Y-73370000D01*
X96220000Y-70630000D02*
X96220000Y-73370000D01*
%TO.C,R1*%
X106630000Y-96230000D02*
X106630000Y-102770000D01*
X106630000Y-102770000D02*
X109370000Y-102770000D01*
X108000000Y-95460000D02*
X108000000Y-96230000D01*
X108000000Y-103540000D02*
X108000000Y-102770000D01*
X109370000Y-96230000D02*
X106630000Y-96230000D01*
X109370000Y-102770000D02*
X109370000Y-96230000D01*
D16*
%TO.C,J4*%
X52513001Y-77690400D02*
X52513001Y-94149600D01*
X52513001Y-94149600D02*
X60260001Y-94149600D01*
X60260001Y-77690400D02*
X52513001Y-77690400D01*
X60260001Y-94149600D02*
X60260001Y-77690400D01*
D17*
X57221000Y-95927600D02*
G75*
G02*
X56459000Y-95927600I-381000J0D01*
G01*
X56459000Y-95927600D02*
G75*
G02*
X57221000Y-95927600I381000J0D01*
G01*
D13*
%TO.C,D3*%
X84030000Y-87280000D02*
X84030000Y-92720000D01*
X84030000Y-92720000D02*
X86970000Y-92720000D01*
X85500000Y-86260000D02*
X85500000Y-87280000D01*
X85500000Y-93740000D02*
X85500000Y-92720000D01*
X86970000Y-87280000D02*
X84030000Y-87280000D01*
X86970000Y-88060000D02*
X84030000Y-88060000D01*
X86970000Y-88180000D02*
X84030000Y-88180000D01*
X86970000Y-88300000D02*
X84030000Y-88300000D01*
X86970000Y-92720000D02*
X86970000Y-87280000D01*
%TO.C,C12*%
X60919000Y-107099000D02*
X60919000Y-105901000D01*
X60959000Y-107362000D02*
X60959000Y-105638000D01*
X60999000Y-107562000D02*
X60999000Y-105438000D01*
X61039000Y-107730000D02*
X61039000Y-105270000D01*
X61079000Y-107878000D02*
X61079000Y-105122000D01*
X61119000Y-108010000D02*
X61119000Y-104990000D01*
X61159000Y-108130000D02*
X61159000Y-104870000D01*
X61199000Y-108242000D02*
X61199000Y-104758000D01*
X61239000Y-108346000D02*
X61239000Y-104654000D01*
X61279000Y-108444000D02*
X61279000Y-104556000D01*
X61319000Y-108537000D02*
X61319000Y-104463000D01*
X61359000Y-108625000D02*
X61359000Y-104375000D01*
X61399000Y-108709000D02*
X61399000Y-104291000D01*
X61439000Y-108789000D02*
X61439000Y-104211000D01*
X61479000Y-108865000D02*
X61479000Y-104135000D01*
X61519000Y-108939000D02*
X61519000Y-104061000D01*
X61559000Y-109010000D02*
X61559000Y-103990000D01*
X61599000Y-109079000D02*
X61599000Y-103921000D01*
X61639000Y-109145000D02*
X61639000Y-103855000D01*
X61679000Y-109209000D02*
X61679000Y-103791000D01*
X61719000Y-109270000D02*
X61719000Y-103730000D01*
X61759000Y-109330000D02*
X61759000Y-103670000D01*
X61799000Y-109389000D02*
X61799000Y-103611000D01*
X61839000Y-109445000D02*
X61839000Y-103555000D01*
X61879000Y-109500000D02*
X61879000Y-103500000D01*
X61919000Y-109554000D02*
X61919000Y-103446000D01*
X61959000Y-109606000D02*
X61959000Y-103394000D01*
X61999000Y-109656000D02*
X61999000Y-103344000D01*
X62039000Y-109706000D02*
X62039000Y-103294000D01*
X62079000Y-109754000D02*
X62079000Y-103246000D01*
X62119000Y-109801000D02*
X62119000Y-103199000D01*
X62159000Y-109847000D02*
X62159000Y-103153000D01*
X62199000Y-109892000D02*
X62199000Y-103108000D01*
X62239000Y-109936000D02*
X62239000Y-103064000D01*
X62279000Y-105259000D02*
X62279000Y-103022000D01*
X62279000Y-109978000D02*
X62279000Y-107741000D01*
X62319000Y-105259000D02*
X62319000Y-102980000D01*
X62319000Y-110020000D02*
X62319000Y-107741000D01*
X62359000Y-105259000D02*
X62359000Y-102939000D01*
X62359000Y-110061000D02*
X62359000Y-107741000D01*
X62399000Y-105259000D02*
X62399000Y-102899000D01*
X62399000Y-110101000D02*
X62399000Y-107741000D01*
X62439000Y-105259000D02*
X62439000Y-102860000D01*
X62439000Y-110140000D02*
X62439000Y-107741000D01*
X62479000Y-105259000D02*
X62479000Y-102821000D01*
X62479000Y-110179000D02*
X62479000Y-107741000D01*
X62519000Y-105259000D02*
X62519000Y-102784000D01*
X62519000Y-110216000D02*
X62519000Y-107741000D01*
X62559000Y-105259000D02*
X62559000Y-102747000D01*
X62559000Y-110253000D02*
X62559000Y-107741000D01*
X62599000Y-105259000D02*
X62599000Y-102711000D01*
X62599000Y-110289000D02*
X62599000Y-107741000D01*
X62639000Y-105259000D02*
X62639000Y-102676000D01*
X62639000Y-110324000D02*
X62639000Y-107741000D01*
X62679000Y-105259000D02*
X62679000Y-102642000D01*
X62679000Y-110358000D02*
X62679000Y-107741000D01*
X62719000Y-105259000D02*
X62719000Y-102608000D01*
X62719000Y-110392000D02*
X62719000Y-107741000D01*
X62759000Y-105259000D02*
X62759000Y-102575000D01*
X62759000Y-110425000D02*
X62759000Y-107741000D01*
X62799000Y-105259000D02*
X62799000Y-102543000D01*
X62799000Y-110457000D02*
X62799000Y-107741000D01*
X62839000Y-105259000D02*
X62839000Y-102511000D01*
X62839000Y-110489000D02*
X62839000Y-107741000D01*
X62879000Y-105259000D02*
X62879000Y-102480000D01*
X62879000Y-110520000D02*
X62879000Y-107741000D01*
X62919000Y-105259000D02*
X62919000Y-102450000D01*
X62919000Y-110550000D02*
X62919000Y-107741000D01*
X62959000Y-105259000D02*
X62959000Y-102420000D01*
X62959000Y-110580000D02*
X62959000Y-107741000D01*
X62999000Y-105259000D02*
X62999000Y-102390000D01*
X62999000Y-110610000D02*
X62999000Y-107741000D01*
X63039000Y-105259000D02*
X63039000Y-102362000D01*
X63039000Y-110638000D02*
X63039000Y-107741000D01*
X63079000Y-105259000D02*
X63079000Y-102334000D01*
X63079000Y-110666000D02*
X63079000Y-107741000D01*
X63119000Y-105259000D02*
X63119000Y-102306000D01*
X63119000Y-110694000D02*
X63119000Y-107741000D01*
X63159000Y-105259000D02*
X63159000Y-102279000D01*
X63159000Y-110721000D02*
X63159000Y-107741000D01*
X63199000Y-105259000D02*
X63199000Y-102253000D01*
X63199000Y-110747000D02*
X63199000Y-107741000D01*
X63239000Y-105259000D02*
X63239000Y-102227000D01*
X63239000Y-110773000D02*
X63239000Y-107741000D01*
X63279000Y-105259000D02*
X63279000Y-102202000D01*
X63279000Y-110798000D02*
X63279000Y-107741000D01*
X63319000Y-105259000D02*
X63319000Y-102177000D01*
X63319000Y-110823000D02*
X63319000Y-107741000D01*
X63359000Y-105259000D02*
X63359000Y-102153000D01*
X63359000Y-110847000D02*
X63359000Y-107741000D01*
X63399000Y-105259000D02*
X63399000Y-102129000D01*
X63399000Y-110871000D02*
X63399000Y-107741000D01*
X63439000Y-105259000D02*
X63439000Y-102105000D01*
X63439000Y-110895000D02*
X63439000Y-107741000D01*
X63479000Y-105259000D02*
X63479000Y-102083000D01*
X63479000Y-110917000D02*
X63479000Y-107741000D01*
X63519000Y-105259000D02*
X63519000Y-102060000D01*
X63519000Y-110940000D02*
X63519000Y-107741000D01*
X63559000Y-105259000D02*
X63559000Y-102038000D01*
X63559000Y-110962000D02*
X63559000Y-107741000D01*
X63599000Y-105259000D02*
X63599000Y-102017000D01*
X63599000Y-110983000D02*
X63599000Y-107741000D01*
X63639000Y-105259000D02*
X63639000Y-101996000D01*
X63639000Y-111004000D02*
X63639000Y-107741000D01*
X63679000Y-105259000D02*
X63679000Y-101975000D01*
X63679000Y-111025000D02*
X63679000Y-107741000D01*
X63719000Y-105259000D02*
X63719000Y-101955000D01*
X63719000Y-111045000D02*
X63719000Y-107741000D01*
X63759000Y-105259000D02*
X63759000Y-101936000D01*
X63759000Y-111064000D02*
X63759000Y-107741000D01*
X63799000Y-105259000D02*
X63799000Y-101916000D01*
X63799000Y-111084000D02*
X63799000Y-107741000D01*
X63839000Y-105259000D02*
X63839000Y-101897000D01*
X63839000Y-111103000D02*
X63839000Y-107741000D01*
X63879000Y-105259000D02*
X63879000Y-101879000D01*
X63879000Y-111121000D02*
X63879000Y-107741000D01*
X63919000Y-105259000D02*
X63919000Y-101861000D01*
X63919000Y-111139000D02*
X63919000Y-107741000D01*
X63959000Y-105259000D02*
X63959000Y-101843000D01*
X63959000Y-111157000D02*
X63959000Y-107741000D01*
X63999000Y-105259000D02*
X63999000Y-101826000D01*
X63999000Y-111174000D02*
X63999000Y-107741000D01*
X64039000Y-105259000D02*
X64039000Y-101810000D01*
X64039000Y-111190000D02*
X64039000Y-107741000D01*
X64079000Y-105259000D02*
X64079000Y-101793000D01*
X64079000Y-111207000D02*
X64079000Y-107741000D01*
X64119000Y-105259000D02*
X64119000Y-101777000D01*
X64119000Y-111223000D02*
X64119000Y-107741000D01*
X64159000Y-105259000D02*
X64159000Y-101762000D01*
X64159000Y-111238000D02*
X64159000Y-107741000D01*
X64199000Y-105259000D02*
X64199000Y-101746000D01*
X64199000Y-111254000D02*
X64199000Y-107741000D01*
X64239000Y-105259000D02*
X64239000Y-101732000D01*
X64239000Y-111268000D02*
X64239000Y-107741000D01*
X64279000Y-105259000D02*
X64279000Y-101717000D01*
X64279000Y-111283000D02*
X64279000Y-107741000D01*
X64319000Y-105259000D02*
X64319000Y-101703000D01*
X64319000Y-111297000D02*
X64319000Y-107741000D01*
X64359000Y-105259000D02*
X64359000Y-101689000D01*
X64359000Y-111311000D02*
X64359000Y-107741000D01*
X64399000Y-105259000D02*
X64399000Y-101676000D01*
X64399000Y-111324000D02*
X64399000Y-107741000D01*
X64439000Y-105259000D02*
X64439000Y-101663000D01*
X64439000Y-111337000D02*
X64439000Y-107741000D01*
X64479000Y-105259000D02*
X64479000Y-101650000D01*
X64479000Y-111350000D02*
X64479000Y-107741000D01*
X64519000Y-105259000D02*
X64519000Y-101638000D01*
X64519000Y-111362000D02*
X64519000Y-107741000D01*
X64559000Y-105259000D02*
X64559000Y-101626000D01*
X64559000Y-111374000D02*
X64559000Y-107741000D01*
X64599000Y-105259000D02*
X64599000Y-101615000D01*
X64599000Y-111385000D02*
X64599000Y-107741000D01*
X64639000Y-105259000D02*
X64639000Y-101603000D01*
X64639000Y-111397000D02*
X64639000Y-107741000D01*
X64679000Y-105259000D02*
X64679000Y-101593000D01*
X64679000Y-111407000D02*
X64679000Y-107741000D01*
X64719000Y-105259000D02*
X64719000Y-101582000D01*
X64719000Y-111418000D02*
X64719000Y-107741000D01*
X64759000Y-111428000D02*
X64759000Y-101572000D01*
X64799000Y-111438000D02*
X64799000Y-101562000D01*
X64839000Y-111447000D02*
X64839000Y-101553000D01*
X64879000Y-111456000D02*
X64879000Y-101544000D01*
X64919000Y-111465000D02*
X64919000Y-101535000D01*
X64959000Y-111474000D02*
X64959000Y-101526000D01*
X64999000Y-111482000D02*
X64999000Y-101518000D01*
X65039000Y-111490000D02*
X65039000Y-101510000D01*
X65079000Y-111497000D02*
X65079000Y-101503000D01*
X65119000Y-111504000D02*
X65119000Y-101496000D01*
X65159000Y-111511000D02*
X65159000Y-101489000D01*
X65199000Y-111518000D02*
X65199000Y-101482000D01*
X65239000Y-111524000D02*
X65239000Y-101476000D01*
X65279000Y-111530000D02*
X65279000Y-101470000D01*
X65320000Y-111535000D02*
X65320000Y-101465000D01*
X65360000Y-111540000D02*
X65360000Y-101460000D01*
X65400000Y-111545000D02*
X65400000Y-101455000D01*
X65440000Y-111550000D02*
X65440000Y-101450000D01*
X65480000Y-111554000D02*
X65480000Y-101446000D01*
X65520000Y-111558000D02*
X65520000Y-101442000D01*
X65560000Y-111562000D02*
X65560000Y-101438000D01*
X65600000Y-111565000D02*
X65600000Y-101435000D01*
X65640000Y-111568000D02*
X65640000Y-101432000D01*
X65680000Y-111570000D02*
X65680000Y-101430000D01*
X65720000Y-111573000D02*
X65720000Y-101427000D01*
X65760000Y-111575000D02*
X65760000Y-101425000D01*
X65800000Y-111577000D02*
X65800000Y-101423000D01*
X65840000Y-111578000D02*
X65840000Y-101422000D01*
X65880000Y-111579000D02*
X65880000Y-101421000D01*
X65920000Y-111580000D02*
X65920000Y-101420000D01*
X65960000Y-111580000D02*
X65960000Y-101420000D01*
X66000000Y-111580000D02*
X66000000Y-101420000D01*
X70979646Y-109875000D02*
X70979646Y-108875000D01*
X71479646Y-109375000D02*
X70479646Y-109375000D01*
X71120000Y-106500000D02*
G75*
G02*
X60880000Y-106500000I-5120000J0D01*
G01*
X60880000Y-106500000D02*
G75*
G02*
X71120000Y-106500000I5120000J0D01*
G01*
%TO.C,R4*%
X115380000Y-105500000D02*
X116150000Y-105500000D01*
X116150000Y-104130000D02*
X116150000Y-106870000D01*
X116150000Y-106870000D02*
X122690000Y-106870000D01*
X122690000Y-104130000D02*
X116150000Y-104130000D01*
X122690000Y-106870000D02*
X122690000Y-104130000D01*
X123460000Y-105500000D02*
X122690000Y-105500000D01*
%TO.C,C11*%
X73919000Y-106599000D02*
X73919000Y-105401000D01*
X73959000Y-106862000D02*
X73959000Y-105138000D01*
X73999000Y-107062000D02*
X73999000Y-104938000D01*
X74039000Y-107230000D02*
X74039000Y-104770000D01*
X74079000Y-107378000D02*
X74079000Y-104622000D01*
X74119000Y-107510000D02*
X74119000Y-104490000D01*
X74159000Y-107630000D02*
X74159000Y-104370000D01*
X74199000Y-107742000D02*
X74199000Y-104258000D01*
X74239000Y-107846000D02*
X74239000Y-104154000D01*
X74279000Y-107944000D02*
X74279000Y-104056000D01*
X74319000Y-108037000D02*
X74319000Y-103963000D01*
X74359000Y-108125000D02*
X74359000Y-103875000D01*
X74399000Y-108209000D02*
X74399000Y-103791000D01*
X74439000Y-108289000D02*
X74439000Y-103711000D01*
X74479000Y-108365000D02*
X74479000Y-103635000D01*
X74519000Y-108439000D02*
X74519000Y-103561000D01*
X74559000Y-108510000D02*
X74559000Y-103490000D01*
X74599000Y-108579000D02*
X74599000Y-103421000D01*
X74639000Y-108645000D02*
X74639000Y-103355000D01*
X74679000Y-108709000D02*
X74679000Y-103291000D01*
X74719000Y-108770000D02*
X74719000Y-103230000D01*
X74759000Y-108830000D02*
X74759000Y-103170000D01*
X74799000Y-108889000D02*
X74799000Y-103111000D01*
X74839000Y-108945000D02*
X74839000Y-103055000D01*
X74879000Y-109000000D02*
X74879000Y-103000000D01*
X74919000Y-109054000D02*
X74919000Y-102946000D01*
X74959000Y-109106000D02*
X74959000Y-102894000D01*
X74999000Y-109156000D02*
X74999000Y-102844000D01*
X75039000Y-109206000D02*
X75039000Y-102794000D01*
X75079000Y-109254000D02*
X75079000Y-102746000D01*
X75119000Y-109301000D02*
X75119000Y-102699000D01*
X75159000Y-109347000D02*
X75159000Y-102653000D01*
X75199000Y-109392000D02*
X75199000Y-102608000D01*
X75239000Y-109436000D02*
X75239000Y-102564000D01*
X75279000Y-104759000D02*
X75279000Y-102522000D01*
X75279000Y-109478000D02*
X75279000Y-107241000D01*
X75319000Y-104759000D02*
X75319000Y-102480000D01*
X75319000Y-109520000D02*
X75319000Y-107241000D01*
X75359000Y-104759000D02*
X75359000Y-102439000D01*
X75359000Y-109561000D02*
X75359000Y-107241000D01*
X75399000Y-104759000D02*
X75399000Y-102399000D01*
X75399000Y-109601000D02*
X75399000Y-107241000D01*
X75439000Y-104759000D02*
X75439000Y-102360000D01*
X75439000Y-109640000D02*
X75439000Y-107241000D01*
X75479000Y-104759000D02*
X75479000Y-102321000D01*
X75479000Y-109679000D02*
X75479000Y-107241000D01*
X75519000Y-104759000D02*
X75519000Y-102284000D01*
X75519000Y-109716000D02*
X75519000Y-107241000D01*
X75559000Y-104759000D02*
X75559000Y-102247000D01*
X75559000Y-109753000D02*
X75559000Y-107241000D01*
X75599000Y-104759000D02*
X75599000Y-102211000D01*
X75599000Y-109789000D02*
X75599000Y-107241000D01*
X75639000Y-104759000D02*
X75639000Y-102176000D01*
X75639000Y-109824000D02*
X75639000Y-107241000D01*
X75679000Y-104759000D02*
X75679000Y-102142000D01*
X75679000Y-109858000D02*
X75679000Y-107241000D01*
X75719000Y-104759000D02*
X75719000Y-102108000D01*
X75719000Y-109892000D02*
X75719000Y-107241000D01*
X75759000Y-104759000D02*
X75759000Y-102075000D01*
X75759000Y-109925000D02*
X75759000Y-107241000D01*
X75799000Y-104759000D02*
X75799000Y-102043000D01*
X75799000Y-109957000D02*
X75799000Y-107241000D01*
X75839000Y-104759000D02*
X75839000Y-102011000D01*
X75839000Y-109989000D02*
X75839000Y-107241000D01*
X75879000Y-104759000D02*
X75879000Y-101980000D01*
X75879000Y-110020000D02*
X75879000Y-107241000D01*
X75919000Y-104759000D02*
X75919000Y-101950000D01*
X75919000Y-110050000D02*
X75919000Y-107241000D01*
X75959000Y-104759000D02*
X75959000Y-101920000D01*
X75959000Y-110080000D02*
X75959000Y-107241000D01*
X75999000Y-104759000D02*
X75999000Y-101890000D01*
X75999000Y-110110000D02*
X75999000Y-107241000D01*
X76039000Y-104759000D02*
X76039000Y-101862000D01*
X76039000Y-110138000D02*
X76039000Y-107241000D01*
X76079000Y-104759000D02*
X76079000Y-101834000D01*
X76079000Y-110166000D02*
X76079000Y-107241000D01*
X76119000Y-104759000D02*
X76119000Y-101806000D01*
X76119000Y-110194000D02*
X76119000Y-107241000D01*
X76159000Y-104759000D02*
X76159000Y-101779000D01*
X76159000Y-110221000D02*
X76159000Y-107241000D01*
X76199000Y-104759000D02*
X76199000Y-101753000D01*
X76199000Y-110247000D02*
X76199000Y-107241000D01*
X76239000Y-104759000D02*
X76239000Y-101727000D01*
X76239000Y-110273000D02*
X76239000Y-107241000D01*
X76279000Y-104759000D02*
X76279000Y-101702000D01*
X76279000Y-110298000D02*
X76279000Y-107241000D01*
X76319000Y-104759000D02*
X76319000Y-101677000D01*
X76319000Y-110323000D02*
X76319000Y-107241000D01*
X76359000Y-104759000D02*
X76359000Y-101653000D01*
X76359000Y-110347000D02*
X76359000Y-107241000D01*
X76399000Y-104759000D02*
X76399000Y-101629000D01*
X76399000Y-110371000D02*
X76399000Y-107241000D01*
X76439000Y-104759000D02*
X76439000Y-101605000D01*
X76439000Y-110395000D02*
X76439000Y-107241000D01*
X76479000Y-104759000D02*
X76479000Y-101583000D01*
X76479000Y-110417000D02*
X76479000Y-107241000D01*
X76519000Y-104759000D02*
X76519000Y-101560000D01*
X76519000Y-110440000D02*
X76519000Y-107241000D01*
X76559000Y-104759000D02*
X76559000Y-101538000D01*
X76559000Y-110462000D02*
X76559000Y-107241000D01*
X76599000Y-104759000D02*
X76599000Y-101517000D01*
X76599000Y-110483000D02*
X76599000Y-107241000D01*
X76639000Y-104759000D02*
X76639000Y-101496000D01*
X76639000Y-110504000D02*
X76639000Y-107241000D01*
X76679000Y-104759000D02*
X76679000Y-101475000D01*
X76679000Y-110525000D02*
X76679000Y-107241000D01*
X76719000Y-104759000D02*
X76719000Y-101455000D01*
X76719000Y-110545000D02*
X76719000Y-107241000D01*
X76759000Y-104759000D02*
X76759000Y-101436000D01*
X76759000Y-110564000D02*
X76759000Y-107241000D01*
X76799000Y-104759000D02*
X76799000Y-101416000D01*
X76799000Y-110584000D02*
X76799000Y-107241000D01*
X76839000Y-104759000D02*
X76839000Y-101397000D01*
X76839000Y-110603000D02*
X76839000Y-107241000D01*
X76879000Y-104759000D02*
X76879000Y-101379000D01*
X76879000Y-110621000D02*
X76879000Y-107241000D01*
X76919000Y-104759000D02*
X76919000Y-101361000D01*
X76919000Y-110639000D02*
X76919000Y-107241000D01*
X76959000Y-104759000D02*
X76959000Y-101343000D01*
X76959000Y-110657000D02*
X76959000Y-107241000D01*
X76999000Y-104759000D02*
X76999000Y-101326000D01*
X76999000Y-110674000D02*
X76999000Y-107241000D01*
X77039000Y-104759000D02*
X77039000Y-101310000D01*
X77039000Y-110690000D02*
X77039000Y-107241000D01*
X77079000Y-104759000D02*
X77079000Y-101293000D01*
X77079000Y-110707000D02*
X77079000Y-107241000D01*
X77119000Y-104759000D02*
X77119000Y-101277000D01*
X77119000Y-110723000D02*
X77119000Y-107241000D01*
X77159000Y-104759000D02*
X77159000Y-101262000D01*
X77159000Y-110738000D02*
X77159000Y-107241000D01*
X77199000Y-104759000D02*
X77199000Y-101246000D01*
X77199000Y-110754000D02*
X77199000Y-107241000D01*
X77239000Y-104759000D02*
X77239000Y-101232000D01*
X77239000Y-110768000D02*
X77239000Y-107241000D01*
X77279000Y-104759000D02*
X77279000Y-101217000D01*
X77279000Y-110783000D02*
X77279000Y-107241000D01*
X77319000Y-104759000D02*
X77319000Y-101203000D01*
X77319000Y-110797000D02*
X77319000Y-107241000D01*
X77359000Y-104759000D02*
X77359000Y-101189000D01*
X77359000Y-110811000D02*
X77359000Y-107241000D01*
X77399000Y-104759000D02*
X77399000Y-101176000D01*
X77399000Y-110824000D02*
X77399000Y-107241000D01*
X77439000Y-104759000D02*
X77439000Y-101163000D01*
X77439000Y-110837000D02*
X77439000Y-107241000D01*
X77479000Y-104759000D02*
X77479000Y-101150000D01*
X77479000Y-110850000D02*
X77479000Y-107241000D01*
X77519000Y-104759000D02*
X77519000Y-101138000D01*
X77519000Y-110862000D02*
X77519000Y-107241000D01*
X77559000Y-104759000D02*
X77559000Y-101126000D01*
X77559000Y-110874000D02*
X77559000Y-107241000D01*
X77599000Y-104759000D02*
X77599000Y-101115000D01*
X77599000Y-110885000D02*
X77599000Y-107241000D01*
X77639000Y-104759000D02*
X77639000Y-101103000D01*
X77639000Y-110897000D02*
X77639000Y-107241000D01*
X77679000Y-104759000D02*
X77679000Y-101093000D01*
X77679000Y-110907000D02*
X77679000Y-107241000D01*
X77719000Y-104759000D02*
X77719000Y-101082000D01*
X77719000Y-110918000D02*
X77719000Y-107241000D01*
X77759000Y-110928000D02*
X77759000Y-101072000D01*
X77799000Y-110938000D02*
X77799000Y-101062000D01*
X77839000Y-110947000D02*
X77839000Y-101053000D01*
X77879000Y-110956000D02*
X77879000Y-101044000D01*
X77919000Y-110965000D02*
X77919000Y-101035000D01*
X77959000Y-110974000D02*
X77959000Y-101026000D01*
X77999000Y-110982000D02*
X77999000Y-101018000D01*
X78039000Y-110990000D02*
X78039000Y-101010000D01*
X78079000Y-110997000D02*
X78079000Y-101003000D01*
X78119000Y-111004000D02*
X78119000Y-100996000D01*
X78159000Y-111011000D02*
X78159000Y-100989000D01*
X78199000Y-111018000D02*
X78199000Y-100982000D01*
X78239000Y-111024000D02*
X78239000Y-100976000D01*
X78279000Y-111030000D02*
X78279000Y-100970000D01*
X78320000Y-111035000D02*
X78320000Y-100965000D01*
X78360000Y-111040000D02*
X78360000Y-100960000D01*
X78400000Y-111045000D02*
X78400000Y-100955000D01*
X78440000Y-111050000D02*
X78440000Y-100950000D01*
X78480000Y-111054000D02*
X78480000Y-100946000D01*
X78520000Y-111058000D02*
X78520000Y-100942000D01*
X78560000Y-111062000D02*
X78560000Y-100938000D01*
X78600000Y-111065000D02*
X78600000Y-100935000D01*
X78640000Y-111068000D02*
X78640000Y-100932000D01*
X78680000Y-111070000D02*
X78680000Y-100930000D01*
X78720000Y-111073000D02*
X78720000Y-100927000D01*
X78760000Y-111075000D02*
X78760000Y-100925000D01*
X78800000Y-111077000D02*
X78800000Y-100923000D01*
X78840000Y-111078000D02*
X78840000Y-100922000D01*
X78880000Y-111079000D02*
X78880000Y-100921000D01*
X78920000Y-111080000D02*
X78920000Y-100920000D01*
X78960000Y-111080000D02*
X78960000Y-100920000D01*
X79000000Y-111080000D02*
X79000000Y-100920000D01*
X83979646Y-109375000D02*
X83979646Y-108375000D01*
X84479646Y-108875000D02*
X83479646Y-108875000D01*
X84120000Y-106000000D02*
G75*
G02*
X73880000Y-106000000I-5120000J0D01*
G01*
X73880000Y-106000000D02*
G75*
G02*
X84120000Y-106000000I5120000J0D01*
G01*
%TO.C,R5*%
X95280000Y-80480000D02*
X95280000Y-87020000D01*
X95280000Y-87020000D02*
X98020000Y-87020000D01*
X96650000Y-79710000D02*
X96650000Y-80480000D01*
X96650000Y-87790000D02*
X96650000Y-87020000D01*
X98020000Y-80480000D02*
X95280000Y-80480000D01*
X98020000Y-87020000D02*
X98020000Y-80480000D01*
%TO.C,J3*%
X97292500Y-50350000D02*
X97292500Y-51350000D01*
X97292500Y-51350000D02*
X97842500Y-50850000D01*
X97842500Y-50850000D02*
X97292500Y-50350000D01*
D10*
X98342500Y-45050000D02*
X110142500Y-45050000D01*
X98342500Y-48600000D02*
X98342500Y-45050000D01*
X98342500Y-56850000D02*
X98342500Y-53100000D01*
X98342500Y-59550000D02*
X98342500Y-59450000D01*
X100842500Y-41450000D02*
X100842500Y-45050000D01*
X107042500Y-41450000D02*
X100842500Y-41450000D01*
X107042500Y-45050000D02*
X107042500Y-41450000D01*
X110142500Y-45050000D02*
X110142500Y-52800000D01*
X110142500Y-57150000D02*
X110142500Y-59550000D01*
X110142500Y-59550000D02*
X98342500Y-59550000D01*
D13*
%TO.C,C5*%
X102880000Y-110380000D02*
X102880000Y-123620000D01*
X108120000Y-110380000D02*
X102880000Y-110380000D01*
X108120000Y-110380000D02*
X108120000Y-123620000D01*
X108120000Y-123620000D02*
X102880000Y-123620000D01*
D11*
%TO.C,RV1*%
X142000000Y-121500000D02*
X154000000Y-121500000D01*
X142000000Y-139500000D02*
X142000000Y-121500000D01*
X154000000Y-121500000D02*
X154000000Y-139500000D01*
X154000000Y-139500000D02*
X142000000Y-139500000D01*
D13*
%TO.C,C16*%
X117909000Y-128130000D02*
X118715000Y-128130000D01*
X117909000Y-137370000D02*
X117909000Y-128130000D01*
X117909000Y-137370000D02*
X118715000Y-137370000D01*
X120045000Y-128130000D02*
X120851000Y-128130000D01*
X120045000Y-137370000D02*
X120851000Y-137370000D01*
X120851000Y-137370000D02*
X120851000Y-128130000D01*
%TO.C,C9*%
X101529000Y-78880000D02*
X101529000Y-88120000D01*
X102335000Y-78880000D02*
X101529000Y-78880000D01*
X102335000Y-88120000D02*
X101529000Y-88120000D01*
X104471000Y-78880000D02*
X103665000Y-78880000D01*
X104471000Y-78880000D02*
X104471000Y-88120000D01*
X104471000Y-88120000D02*
X103665000Y-88120000D01*
%TO.C,R9*%
X88080000Y-112930000D02*
X88560000Y-112930000D01*
X88080000Y-123070000D02*
X88080000Y-112930000D01*
X88560000Y-123070000D02*
X88080000Y-123070000D01*
X91440000Y-123070000D02*
X91920000Y-123070000D01*
X91920000Y-112930000D02*
X91440000Y-112930000D01*
X91920000Y-123070000D02*
X91920000Y-112930000D01*
%TO.C,R15*%
X131630000Y-84730000D02*
X131630000Y-91270000D01*
X131630000Y-91270000D02*
X134370000Y-91270000D01*
X133000000Y-83960000D02*
X133000000Y-84730000D01*
X133000000Y-92040000D02*
X133000000Y-91270000D01*
X134370000Y-84730000D02*
X131630000Y-84730000D01*
X134370000Y-91270000D02*
X134370000Y-84730000D01*
%TO.C,C7*%
X134630000Y-113280000D02*
X137370000Y-113280000D01*
X134630000Y-120720000D02*
X134630000Y-113280000D01*
X134630000Y-120720000D02*
X137370000Y-120720000D01*
X137370000Y-120720000D02*
X137370000Y-113280000D01*
%TD*%
M02*
