M48
; DRILL file {KiCad 8.0.8} date 2025-03-09T10:59:16-0300
; FORMAT={3:3/ absolute / metric / suppress leading zeros}
; #@! TF.CreationDate,2025-03-09T10:59:16-03:00
; #@! TF.GenerationSoftware,Kicad,Pcbnew,8.0.8
; #@! TF.FileFunction,Plated,1,2,PTH
FMAT,2
METRIC,TZ
; #@! TA.AperFunction,Plated,PTH,ComponentDrill
T1C0.010
; #@! TA.AperFunction,Plated,PTH,ComponentDrill
T2C0.740
; #@! TA.AperFunction,Plated,PTH,ComponentDrill
T3C0.800
; #@! TA.AperFunction,Plated,PTH,ComponentDrill
T4C0.813
; #@! TA.AperFunction,Plated,PTH,ComponentDrill
T5C1.000
; #@! TA.AperFunction,Plated,PTH,ComponentDrill
T6C1.100
; #@! TA.AperFunction,Plated,PTH,ComponentDrill
T7C1.200
; #@! TA.AperFunction,Plated,PTH,ComponentDrill
T8C1.295
; #@! TA.AperFunction,Plated,PTH,ComponentDrill
T9C1.300
%
G90
G05
T1
X83900Y-58200
X90500Y-53800
X99843Y-58150
X106443Y-53750
T2
X105880Y-128560
X105880Y-136500
X108420Y-128560
X108420Y-136500
X109000Y-79310
X109000Y-87250
X110960Y-128560
X110960Y-136500
X111540Y-79310
X111540Y-87250
X113500Y-128560
X113500Y-136500
X114080Y-79310
X114080Y-87250
X116620Y-79310
X116620Y-87250
T3
X64000Y-134960
X69000Y-134960
X76500Y-135000
X81500Y-135000
X90000Y-65420
X90000Y-72000
X92000Y-131795
X92000Y-134295
X95000Y-65420
X95000Y-72000
X95340Y-94340
X95340Y-104500
X96650Y-78670
X96650Y-88830
X98840Y-94420
X98840Y-104580
X101840Y-129000
X101840Y-136500
X102340Y-94340
X102340Y-104500
X103000Y-79750
X103000Y-87250
X108000Y-94420
X108000Y-104580
X111180Y-140420
X114340Y-100000
X114340Y-105500
X114340Y-111000
X114340Y-120920
X114420Y-94500
X114420Y-114920
X117260Y-48920
X117500Y-54500
X119380Y-129000
X119380Y-136500
X121340Y-140420
X122500Y-79500
X122500Y-87000
X124500Y-100000
X124500Y-105500
X124500Y-111000
X124500Y-120920
X124580Y-94500
X124580Y-114920
X125960Y-131420
X125960Y-136420
X127420Y-48920
X127500Y-54500
X130500Y-114500
X130500Y-119500
X131250Y-75000
X133000Y-82920
X133000Y-93080
X133500Y-132420
X133500Y-134920
X136000Y-114500
X136000Y-119500
X138750Y-75000
T4
X130880Y-62500
X130880Y-65040
X130880Y-67580
X130880Y-70120
X138500Y-62500
X138500Y-65040
X138500Y-67580
X138500Y-70120
T5
X63500Y-106500
X68500Y-106500
X76500Y-106000
X81500Y-106000
X105000Y-65368
X105000Y-70368
X105500Y-112000
X105500Y-122000
T6
X65788Y-124460
X65788Y-127000
X65788Y-129540
X69000Y-84920
X69000Y-95080
X74500Y-85000
X74500Y-95160
X78288Y-123960
X78288Y-126500
X78288Y-129040
X80000Y-84920
X80000Y-95080
X85500Y-84920
X85500Y-95080
T7
X90000Y-111650
X90000Y-124350
X96000Y-111650
X96000Y-124350
X119000Y-65000
X119000Y-70000
X147840Y-59420
X147840Y-64420
X147840Y-69420
X147840Y-81420
X147840Y-86420
X147840Y-91420
X148000Y-103500
X148000Y-108500
X148000Y-113500
X148000Y-125500
X148000Y-130500
X148000Y-135500
T8
X56840Y-80920
X56840Y-85920
X56840Y-90920
T9
X83400Y-50900
X88000Y-47000
X93200Y-55000
X99343Y-50850
X103943Y-46950
X109143Y-54950
M30
