%TF.GenerationSoftware,KiCad,Pcbnew,8.0.8*%
%TF.CreationDate,2025-03-09T10:58:12-03:00*%
%TF.ProjectId,equalizador,65717561-6c69-47a6-9164-6f722e6b6963,rev?*%
%TF.SameCoordinates,Original*%
%TF.FileFunction,Soldermask,Top*%
%TF.FilePolarity,Negative*%
%FSLAX46Y46*%
G04 Gerber Fmt 4.6, Leading zero omitted, Abs format (unit mm)*
G04 Created by KiCad (PCBNEW 8.0.8) date 2025-03-09 10:58:12*
%MOMM*%
%LPD*%
G01*
G04 APERTURE LIST*
G04 Aperture macros list*
%AMRoundRect*
0 Rectangle with rounded corners*
0 $1 Rounding radius*
0 $2 $3 $4 $5 $6 $7 $8 $9 X,Y pos of 4 corners*
0 Add a 4 corners polygon primitive as box body*
4,1,4,$2,$3,$4,$5,$6,$7,$8,$9,$2,$3,0*
0 Add four circle primitives for the rounded corners*
1,1,$1+$1,$2,$3*
1,1,$1+$1,$4,$5*
1,1,$1+$1,$6,$7*
1,1,$1+$1,$8,$9*
0 Add four rect primitives between the rounded corners*
20,1,$1+$1,$2,$3,$4,$5,0*
20,1,$1+$1,$4,$5,$6,$7,0*
20,1,$1+$1,$6,$7,$8,$9,0*
20,1,$1+$1,$8,$9,$2,$3,0*%
G04 Aperture macros list end*
%ADD10RoundRect,0.102000X-0.850000X0.850000X-0.850000X-0.850000X0.850000X-0.850000X0.850000X0.850000X0*%
%ADD11C,1.904000*%
%ADD12C,2.200000*%
%ADD13O,2.200000X2.200000*%
%ADD14C,2.404000*%
%ADD15R,2.200000X2.200000*%
%ADD16R,1.600000X1.600000*%
%ADD17C,1.600000*%
%ADD18O,2.200000X4.000000*%
%ADD19O,0.100000X0.100000*%
%ADD20O,4.000000X2.200000*%
%ADD21R,2.200000X4.000000*%
%ADD22R,4.000000X1.500000*%
%ADD23O,4.000000X1.500000*%
%ADD24R,2.400000X2.400000*%
%ADD25C,2.400000*%
%ADD26C,1.931200*%
%ADD27O,2.400000X2.400000*%
%ADD28R,2.200000X1.600000*%
%ADD29C,1.803400*%
G04 APERTURE END LIST*
D10*
%TO.C,U1*%
X113500000Y-128560000D03*
D11*
X110960000Y-128560000D03*
X108420000Y-128560000D03*
X105880000Y-128560000D03*
X105880000Y-136500000D03*
X108420000Y-136500000D03*
X110960000Y-136500000D03*
X113500000Y-136500000D03*
%TD*%
D12*
%TO.C,R6*%
X102340000Y-94340000D03*
D13*
X102340000Y-104500000D03*
%TD*%
D14*
%TO.C,RV2*%
X147840000Y-91420000D03*
X147840000Y-86420000D03*
X147840000Y-81420000D03*
%TD*%
D15*
%TO.C,D2*%
X80000000Y-95080000D03*
D13*
X80000000Y-84920000D03*
%TD*%
D12*
%TO.C,R17*%
X114420000Y-94500000D03*
D13*
X124580000Y-94500000D03*
%TD*%
D12*
%TO.C,R2*%
X124500000Y-111000000D03*
D13*
X114340000Y-111000000D03*
%TD*%
D12*
%TO.C,R13*%
X111180000Y-140420000D03*
D13*
X121340000Y-140420000D03*
%TD*%
D16*
%TO.C,C6*%
X92000000Y-131794888D03*
D17*
X92000000Y-134294888D03*
%TD*%
D12*
%TO.C,C13*%
X76500000Y-135000000D03*
X81500000Y-135000000D03*
%TD*%
D18*
%TO.C,J2*%
X93200000Y-55000000D03*
D19*
X90500000Y-53800000D03*
D20*
X88000000Y-47000000D03*
D21*
X83400000Y-50900000D03*
D19*
X83900000Y-58200000D03*
%TD*%
D15*
%TO.C,D1*%
X74500000Y-95160000D03*
D13*
X74500000Y-85000000D03*
%TD*%
D12*
%TO.C,C15*%
X101840000Y-129000000D03*
X101840000Y-136500000D03*
%TD*%
D22*
%TO.C,U2*%
X78287500Y-123960000D03*
D23*
X78287500Y-126500000D03*
X78287500Y-129040000D03*
%TD*%
D24*
%TO.C,C20*%
X105000000Y-70367677D03*
D25*
X105000000Y-65367677D03*
%TD*%
D26*
%TO.C,U5*%
X138500000Y-70120000D03*
X138500000Y-67580000D03*
X138500000Y-65040000D03*
X138500000Y-62500000D03*
X130880000Y-62500000D03*
X130880000Y-65040000D03*
X130880000Y-67580000D03*
X130880000Y-70120000D03*
%TD*%
D12*
%TO.C,C14*%
X69000000Y-134960000D03*
X64000000Y-134960000D03*
%TD*%
%TO.C,C2*%
X125960000Y-136420000D03*
X125960000Y-131420000D03*
%TD*%
D10*
%TO.C,U3*%
X116620000Y-79310000D03*
D11*
X114080000Y-79310000D03*
X111540000Y-79310000D03*
X109000000Y-79310000D03*
X109000000Y-87250000D03*
X111540000Y-87250000D03*
X114080000Y-87250000D03*
X116620000Y-87250000D03*
%TD*%
D15*
%TO.C,D4*%
X69000000Y-84920000D03*
D13*
X69000000Y-95080000D03*
%TD*%
D12*
%TO.C,R3*%
X124580000Y-114920000D03*
D13*
X114420000Y-114920000D03*
%TD*%
D22*
%TO.C,U4*%
X65787500Y-124460000D03*
D23*
X65787500Y-127000000D03*
X65787500Y-129540000D03*
%TD*%
D25*
%TO.C,R8*%
X96000000Y-111650000D03*
D27*
X96000000Y-124350000D03*
%TD*%
D12*
%TO.C,C10*%
X122500000Y-87000000D03*
X122500000Y-79500000D03*
%TD*%
%TO.C,C19*%
X131250000Y-75000000D03*
X138750000Y-75000000D03*
%TD*%
%TO.C,R11*%
X95340000Y-104500000D03*
D13*
X95340000Y-94340000D03*
%TD*%
D12*
%TO.C,C22*%
X117500000Y-54500000D03*
X127500000Y-54500000D03*
%TD*%
D14*
%TO.C,RV3*%
X148000000Y-113500000D03*
X148000000Y-108500000D03*
X148000000Y-103500000D03*
%TD*%
D12*
%TO.C,R10*%
X98840000Y-104580000D03*
D13*
X98840000Y-94420000D03*
%TD*%
D12*
%TO.C,R7*%
X124500000Y-100000000D03*
D13*
X114340000Y-100000000D03*
%TD*%
D12*
%TO.C,R19*%
X117260000Y-48920000D03*
D13*
X127420000Y-48920000D03*
%TD*%
D28*
%TO.C,C1*%
X133500000Y-134920000D03*
D12*
X133500000Y-132420000D03*
%TD*%
%TO.C,R16*%
X114340000Y-120920000D03*
D13*
X124500000Y-120920000D03*
%TD*%
D24*
%TO.C,C21*%
X119000000Y-70000000D03*
D25*
X119000000Y-65000000D03*
%TD*%
D14*
%TO.C,RV4*%
X147840000Y-69420000D03*
X147840000Y-64420000D03*
X147840000Y-59420000D03*
%TD*%
D12*
%TO.C,C8*%
X130500000Y-119500000D03*
X130500000Y-114500000D03*
%TD*%
%TO.C,C4*%
X90000000Y-65420000D03*
X95000000Y-65420000D03*
%TD*%
%TO.C,C3*%
X90000000Y-72000000D03*
X95000000Y-72000000D03*
%TD*%
%TO.C,R1*%
X108000000Y-94420000D03*
D13*
X108000000Y-104580000D03*
%TD*%
D29*
%TO.C,J4*%
X56840000Y-90920000D03*
X56840000Y-85920000D03*
X56840000Y-80920000D03*
%TD*%
D15*
%TO.C,D3*%
X85500000Y-84920000D03*
D13*
X85500000Y-95080000D03*
%TD*%
D15*
%TO.C,C12*%
X68500000Y-106500000D03*
D12*
X63500000Y-106500000D03*
%TD*%
%TO.C,R4*%
X114340000Y-105500000D03*
D13*
X124500000Y-105500000D03*
%TD*%
D15*
%TO.C,C11*%
X81500000Y-106000000D03*
D12*
X76500000Y-106000000D03*
%TD*%
%TO.C,R5*%
X96650000Y-88830000D03*
D13*
X96650000Y-78670000D03*
%TD*%
D18*
%TO.C,J3*%
X109142500Y-54950000D03*
D19*
X106442500Y-53750000D03*
D20*
X103942500Y-46950000D03*
D21*
X99342500Y-50850000D03*
D19*
X99842500Y-58150000D03*
%TD*%
D12*
%TO.C,C5*%
X105500000Y-112000000D03*
X105500000Y-122000000D03*
%TD*%
D14*
%TO.C,RV1*%
X148000000Y-135500000D03*
X148000000Y-130500000D03*
X148000000Y-125500000D03*
%TD*%
D12*
%TO.C,C16*%
X119380000Y-136500000D03*
X119380000Y-129000000D03*
%TD*%
%TO.C,C9*%
X103000000Y-79750000D03*
X103000000Y-87250000D03*
%TD*%
D25*
%TO.C,R9*%
X90000000Y-124350000D03*
D27*
X90000000Y-111650000D03*
%TD*%
D12*
%TO.C,R15*%
X133000000Y-82920000D03*
D13*
X133000000Y-93080000D03*
%TD*%
D12*
%TO.C,C7*%
X136000000Y-119500000D03*
X136000000Y-114500000D03*
%TD*%
M02*
